G04 #@! TF.GenerationSoftware,KiCad,Pcbnew,(6.99.0-1912-g359c99991b)*
G04 #@! TF.CreationDate,2023-08-15T13:40:24+07:00*
G04 #@! TF.ProjectId,nyx,6e79782e-6b69-4636-9164-5f7063625858,2*
G04 #@! TF.SameCoordinates,Original*
G04 #@! TF.FileFunction,Paste,Bot*
G04 #@! TF.FilePolarity,Positive*
%FSLAX46Y46*%
G04 Gerber Fmt 4.6, Leading zero omitted, Abs format (unit mm)*
G04 Created by KiCad (PCBNEW (6.99.0-1912-g359c99991b)) date 2023-08-15 13:40:24*
%MOMM*%
%LPD*%
G01*
G04 APERTURE LIST*
G04 Aperture macros list*
%AMRoundRect*
0 Rectangle with rounded corners*
0 $1 Rounding radius*
0 $2 $3 $4 $5 $6 $7 $8 $9 X,Y pos of 4 corners*
0 Add a 4 corners polygon primitive as box body*
4,1,4,$2,$3,$4,$5,$6,$7,$8,$9,$2,$3,0*
0 Add four circle primitives for the rounded corners*
1,1,$1+$1,$2,$3*
1,1,$1+$1,$4,$5*
1,1,$1+$1,$6,$7*
1,1,$1+$1,$8,$9*
0 Add four rect primitives between the rounded corners*
20,1,$1+$1,$2,$3,$4,$5,0*
20,1,$1+$1,$4,$5,$6,$7,0*
20,1,$1+$1,$6,$7,$8,$9,0*
20,1,$1+$1,$8,$9,$2,$3,0*%
%AMRotRect*
0 Rectangle, with rotation*
0 The origin of the aperture is its center*
0 $1 length*
0 $2 width*
0 $3 Rotation angle, in degrees counterclockwise*
0 Add horizontal line*
21,1,$1,$2,0,0,$3*%
%AMFreePoly0*
4,1,18,-0.410000,0.593000,-0.403758,0.624380,-0.385983,0.650983,-0.359380,0.668758,-0.328000,0.675000,0.328000,0.675000,0.359380,0.668758,0.385983,0.650983,0.403758,0.624380,0.410000,0.593000,0.410000,-0.593000,0.403758,-0.624380,0.385983,-0.650983,0.359380,-0.668758,0.328000,-0.675000,0.000000,-0.675000,-0.410000,-0.265000,-0.410000,0.593000,-0.410000,0.593000,$1*%
G04 Aperture macros list end*
%ADD10C,0.100000*%
%ADD11R,0.900000X1.700000*%
%ADD12R,1.200000X0.900000*%
%ADD13RoundRect,0.140000X-0.170000X0.140000X-0.170000X-0.140000X0.170000X-0.140000X0.170000X0.140000X0*%
%ADD14RoundRect,0.140000X0.170000X-0.140000X0.170000X0.140000X-0.170000X0.140000X-0.170000X-0.140000X0*%
%ADD15R,0.900000X1.200000*%
%ADD16RoundRect,0.200000X0.600000X-0.200000X0.600000X0.200000X-0.600000X0.200000X-0.600000X-0.200000X0*%
%ADD17RoundRect,0.250001X1.249999X-0.799999X1.249999X0.799999X-1.249999X0.799999X-1.249999X-0.799999X0*%
%ADD18RoundRect,0.200000X-0.200000X-0.600000X0.200000X-0.600000X0.200000X0.600000X-0.200000X0.600000X0*%
%ADD19RoundRect,0.250001X-0.799999X-1.249999X0.799999X-1.249999X0.799999X1.249999X-0.799999X1.249999X0*%
%ADD20RoundRect,0.140000X-0.140000X-0.170000X0.140000X-0.170000X0.140000X0.170000X-0.140000X0.170000X0*%
%ADD21RoundRect,0.140000X0.140000X0.170000X-0.140000X0.170000X-0.140000X-0.170000X0.140000X-0.170000X0*%
%ADD22RoundRect,0.250000X-0.292217X0.292217X-0.292217X-0.292217X0.292217X-0.292217X0.292217X0.292217X0*%
%ADD23RoundRect,0.050000X-0.050000X0.387500X-0.050000X-0.387500X0.050000X-0.387500X0.050000X0.387500X0*%
%ADD24RoundRect,0.050000X-0.387500X0.050000X-0.387500X-0.050000X0.387500X-0.050000X0.387500X0.050000X0*%
%ADD25RoundRect,0.045000X0.055000X0.045000X-0.055000X0.045000X-0.055000X-0.045000X0.055000X-0.045000X0*%
%ADD26RoundRect,0.140000X0.021213X-0.219203X0.219203X-0.021213X-0.021213X0.219203X-0.219203X0.021213X0*%
%ADD27RotRect,1.400000X1.200000X225.000000*%
%ADD28RoundRect,0.135000X0.035355X-0.226274X0.226274X-0.035355X-0.035355X0.226274X-0.226274X0.035355X0*%
%ADD29RoundRect,0.135000X-0.185000X0.135000X-0.185000X-0.135000X0.185000X-0.135000X0.185000X0.135000X0*%
%ADD30RoundRect,0.082000X-0.593000X0.328000X-0.593000X-0.328000X0.593000X-0.328000X0.593000X0.328000X0*%
%ADD31FreePoly0,270.000000*%
%ADD32R,1.000000X0.800000*%
%ADD33RoundRect,0.150000X-0.625000X0.150000X-0.625000X-0.150000X0.625000X-0.150000X0.625000X0.150000X0*%
%ADD34RoundRect,0.250000X-0.650000X0.350000X-0.650000X-0.350000X0.650000X-0.350000X0.650000X0.350000X0*%
%ADD35RoundRect,0.150000X0.512500X0.150000X-0.512500X0.150000X-0.512500X-0.150000X0.512500X-0.150000X0*%
%ADD36RoundRect,0.135000X0.135000X0.185000X-0.135000X0.185000X-0.135000X-0.185000X0.135000X-0.185000X0*%
%ADD37RoundRect,0.243750X-0.456250X0.243750X-0.456250X-0.243750X0.456250X-0.243750X0.456250X0.243750X0*%
%ADD38RoundRect,0.135000X-0.135000X-0.185000X0.135000X-0.185000X0.135000X0.185000X-0.135000X0.185000X0*%
%ADD39RoundRect,0.140000X0.219203X0.021213X0.021213X0.219203X-0.219203X-0.021213X-0.021213X-0.219203X0*%
G04 #@! TA.AperFunction,Profile*
%ADD40C,0.100000*%
G04 #@! TD*
G04 APERTURE END LIST*
D10*
X98750000Y-86200000D02*
G75*
G03*
X98750000Y-86200000I-50000J0D01*
G01*
X98750000Y-85200000D02*
G75*
G03*
X98750000Y-85200000I-50000J0D01*
G01*
X98550000Y-86000000D02*
G75*
G03*
X98550000Y-86000000I-50000J0D01*
G01*
X98550000Y-85400000D02*
G75*
G03*
X98550000Y-85400000I-50000J0D01*
G01*
X98350000Y-86200000D02*
G75*
G03*
X98350000Y-86200000I-50000J0D01*
G01*
X98350000Y-85200000D02*
G75*
G03*
X98350000Y-85200000I-50000J0D01*
G01*
D11*
X79849999Y-88999999D03*
X75749999Y-88999999D03*
D12*
X235974999Y-56722322D03*
X235974999Y-53422322D03*
X231594822Y-75772322D03*
X231594822Y-72472322D03*
D13*
X106300000Y-94720000D03*
X106300000Y-95680000D03*
D14*
X89700000Y-90300000D03*
X89700000Y-89340000D03*
D15*
X54999999Y-15749999D03*
X58299999Y-15749999D03*
D12*
X145869822Y-56722322D03*
X145869822Y-53422322D03*
X69669822Y-56722322D03*
X69669822Y-53422322D03*
D16*
X248875000Y-23675000D03*
X248875000Y-22425000D03*
X248875000Y-21175000D03*
X248875000Y-19925000D03*
D17*
X245975000Y-26225000D03*
X245975000Y-17375000D03*
D18*
X26209758Y-58192481D03*
X27459758Y-58192481D03*
X28709758Y-58192481D03*
X29959758Y-58192481D03*
D19*
X23659758Y-55292481D03*
X32509758Y-55292481D03*
D15*
X112149999Y-15749999D03*
X115449999Y-15749999D03*
D20*
X16525000Y-61600000D03*
X17485000Y-61600000D03*
D12*
X297899999Y-37672322D03*
X297899999Y-34372322D03*
X283982322Y-94822322D03*
X283982322Y-91522322D03*
X160157322Y-37672322D03*
X160157322Y-34372322D03*
D14*
X107034823Y-82480000D03*
X107034823Y-81520000D03*
X84100000Y-89350000D03*
X84100000Y-88390000D03*
D12*
X297899999Y-56722322D03*
X297899999Y-53422322D03*
D21*
X96814823Y-90300000D03*
X95854823Y-90300000D03*
D12*
X264932322Y-75772322D03*
X264932322Y-72472322D03*
D21*
X101180000Y-96400000D03*
X100220000Y-96400000D03*
D12*
X107769822Y-56722322D03*
X107769822Y-53422322D03*
X212544822Y-75772322D03*
X212544822Y-72472322D03*
X88719822Y-56722322D03*
X88719822Y-53422322D03*
X188732322Y-18622322D03*
X188732322Y-15322322D03*
X207782322Y-18622322D03*
X207782322Y-15322322D03*
D22*
X105822323Y-88749899D03*
X104547323Y-88749899D03*
X105822323Y-90024899D03*
X104547323Y-90024899D03*
D23*
X102584823Y-85949899D03*
X102984823Y-85949899D03*
X103384823Y-85949899D03*
X103784823Y-85949899D03*
X104184823Y-85949899D03*
X104584823Y-85949899D03*
X104984823Y-85949899D03*
X105384823Y-85949899D03*
X105784823Y-85949899D03*
X106184823Y-85949899D03*
X106584823Y-85949899D03*
X106984823Y-85949899D03*
X107384823Y-85949899D03*
X107784823Y-85949899D03*
D24*
X108622323Y-86787399D03*
X108622323Y-87187399D03*
X108622323Y-87587399D03*
X108622323Y-87987399D03*
X108622323Y-88387399D03*
X108622323Y-88787399D03*
X108622323Y-89187399D03*
X108622323Y-89587399D03*
X108622323Y-89987399D03*
X108622323Y-90387399D03*
X108622323Y-90787399D03*
X108622323Y-91187399D03*
X108622323Y-91587399D03*
X108622323Y-91987399D03*
D23*
X107784823Y-92824899D03*
X107384823Y-92824899D03*
X106984823Y-92824899D03*
X106584823Y-92824899D03*
X106184823Y-92824899D03*
X105784823Y-92824899D03*
X105384823Y-92824899D03*
X104984823Y-92824899D03*
X104584823Y-92824899D03*
X104184823Y-92824899D03*
X103784823Y-92824899D03*
X103384823Y-92824899D03*
X102984823Y-92824899D03*
X102584823Y-92824899D03*
D24*
X101747323Y-91987399D03*
X101747323Y-91587399D03*
X101747323Y-91187399D03*
X101747323Y-90787399D03*
X101747323Y-90387399D03*
X101747323Y-89987399D03*
X101747323Y-89587399D03*
X101747323Y-89187399D03*
X101747323Y-88787399D03*
X101747323Y-88387399D03*
X101747323Y-87987399D03*
X101747323Y-87587399D03*
X101747323Y-87187399D03*
X101747323Y-86787399D03*
D12*
X222069822Y-56722322D03*
X222069822Y-53422322D03*
X50619822Y-56722322D03*
X50619822Y-53422322D03*
D25*
X99150000Y-85100000D03*
X99150000Y-85500000D03*
X99150000Y-85900000D03*
X99150000Y-86300000D03*
X97850000Y-86300000D03*
X97850000Y-85900000D03*
X97850000Y-85500000D03*
X97850000Y-85100000D03*
D12*
X74432322Y-18622322D03*
X74432322Y-15322322D03*
D13*
X87800000Y-94750000D03*
X87800000Y-95710000D03*
D12*
X247149999Y-14399999D03*
X247149999Y-11099999D03*
D15*
X93099999Y-15749999D03*
X96399999Y-15749999D03*
D12*
X45857322Y-94822322D03*
X45857322Y-91522322D03*
D26*
X115210589Y-84689411D03*
X115889411Y-84010589D03*
D20*
X96890000Y-84100000D03*
X97850000Y-84100000D03*
D12*
X17282322Y-18622322D03*
X17282322Y-15322322D03*
X250259999Y-37672322D03*
X250259999Y-34372322D03*
D21*
X100080000Y-92868649D03*
X99120000Y-92868649D03*
D12*
X103007322Y-37672322D03*
X103007322Y-34372322D03*
D27*
X118528857Y-86223222D03*
X116973222Y-87778857D03*
X115771141Y-86576776D03*
X117326776Y-85021141D03*
D12*
X285299999Y-37672322D03*
X285299999Y-34372322D03*
D15*
X27349999Y-79199999D03*
X24049999Y-79199999D03*
D12*
X198257322Y-37672322D03*
X198257322Y-34372322D03*
X122057322Y-37672322D03*
X122057322Y-34372322D03*
D15*
X109949999Y-64099999D03*
X113249999Y-64099999D03*
D12*
X145499999Y-94822322D03*
X145499999Y-91522322D03*
D28*
X119010833Y-88185551D03*
X119732081Y-87464303D03*
D12*
X193494822Y-75772322D03*
X193494822Y-72472322D03*
X236357322Y-37672322D03*
X236357322Y-34372322D03*
X83957322Y-37672322D03*
X83957322Y-34372322D03*
D15*
X131199999Y-15749999D03*
X134499999Y-15749999D03*
D12*
X264932322Y-94822322D03*
X264932322Y-91522322D03*
X79194822Y-75772322D03*
X79194822Y-72472322D03*
D29*
X100300000Y-83090000D03*
X100300000Y-84110000D03*
D21*
X101180000Y-95268649D03*
X100220000Y-95268649D03*
D12*
X69669822Y-94822322D03*
X69669822Y-91522322D03*
X283699999Y-18622322D03*
X283699999Y-15322322D03*
X155394822Y-75772322D03*
X155394822Y-72472322D03*
X286799999Y-18622322D03*
X286799999Y-15322322D03*
D20*
X113854823Y-91868649D03*
X114814823Y-91868649D03*
D12*
X60144822Y-75772322D03*
X60144822Y-72472322D03*
X141107322Y-37672322D03*
X141107322Y-34372322D03*
X203019822Y-56722322D03*
X203019822Y-53422322D03*
X22044822Y-94822322D03*
X22044822Y-91522322D03*
D30*
X16525000Y-59634823D03*
X16525000Y-58134823D03*
X11075000Y-59634823D03*
D31*
X11074999Y-58134822D03*
D15*
X150249999Y-15749999D03*
X153549999Y-15749999D03*
D32*
X88199999Y-88400000D03*
X88199999Y-90299999D03*
X85799999Y-89349999D03*
D12*
X136344822Y-75772322D03*
X136344822Y-72472322D03*
X126819822Y-56722322D03*
X126819822Y-53422322D03*
X241119822Y-56722322D03*
X241119822Y-53422322D03*
D20*
X11759823Y-23500000D03*
X12719823Y-23500000D03*
D12*
X272076072Y-58149999D03*
X272076072Y-54849999D03*
D15*
X108049999Y-64099999D03*
X104749999Y-64099999D03*
D30*
X297509823Y-21534823D03*
X297509823Y-20034823D03*
X292059823Y-21534823D03*
D31*
X292059822Y-20034822D03*
D33*
X52800000Y-21650000D03*
X52800000Y-22650000D03*
X52800000Y-23650000D03*
X52800000Y-24650000D03*
D34*
X56675000Y-20350000D03*
X56675000Y-25950000D03*
D35*
X29222500Y-60750000D03*
X29222500Y-61700000D03*
X29222500Y-62650000D03*
X26947500Y-62650000D03*
X26947500Y-61700000D03*
X26947500Y-60750000D03*
D12*
X257788572Y-75772322D03*
X257788572Y-72472322D03*
D36*
X96844823Y-92800000D03*
X95824823Y-92800000D03*
D12*
X210999999Y-94822322D03*
X210999999Y-91522322D03*
D37*
X24600000Y-61700000D03*
X24600000Y-63575000D03*
D33*
X109875000Y-21650000D03*
X109875000Y-22650000D03*
X109875000Y-23650000D03*
X109875000Y-24650000D03*
D34*
X113750000Y-20350000D03*
X113750000Y-25950000D03*
D12*
X64907322Y-37672322D03*
X64907322Y-34372322D03*
X297899999Y-75772322D03*
X297899999Y-72472322D03*
X22044822Y-37672322D03*
X22044822Y-34372322D03*
D21*
X100080000Y-94022323D03*
X99120000Y-94022323D03*
D20*
X113854823Y-90700000D03*
X114814823Y-90700000D03*
D14*
X108200000Y-82480000D03*
X108200000Y-81520000D03*
D15*
X35949999Y-15749999D03*
X39249999Y-15749999D03*
X20049999Y-79199999D03*
X16749999Y-79199999D03*
D12*
X217307322Y-37672322D03*
X217307322Y-34372322D03*
X183969822Y-56722322D03*
X183969822Y-53422322D03*
D35*
X91737500Y-94750000D03*
X91737500Y-95700000D03*
X91737500Y-96650000D03*
X89462500Y-96650000D03*
X89462500Y-94750000D03*
D12*
X45857322Y-37672322D03*
X45857322Y-34372322D03*
X179207322Y-37672322D03*
X179207322Y-34372322D03*
D30*
X11759823Y-21534823D03*
X11759823Y-20034823D03*
X6309823Y-21534823D03*
D31*
X6309822Y-20034822D03*
D12*
X19299999Y-56722322D03*
X19299999Y-53422322D03*
D15*
X298974999Y-82699999D03*
X295674999Y-82699999D03*
D36*
X96844823Y-91600000D03*
X95824823Y-91600000D03*
D12*
X226832322Y-18622322D03*
X226832322Y-15322322D03*
X164919822Y-56722322D03*
X164919822Y-53422322D03*
D33*
X148100000Y-21650000D03*
X148100000Y-22650000D03*
X148100000Y-23650000D03*
X148100000Y-24650000D03*
D34*
X151975000Y-20350000D03*
X151975000Y-25950000D03*
D21*
X96814823Y-89187399D03*
X95854823Y-89187399D03*
D14*
X101900000Y-84080000D03*
X101900000Y-83120000D03*
D38*
X117590000Y-90700000D03*
X118610000Y-90700000D03*
D20*
X297509823Y-23500000D03*
X298469823Y-23500000D03*
D12*
X169682322Y-18622322D03*
X169682322Y-15322322D03*
X174444822Y-75772322D03*
X174444822Y-72472322D03*
X233976072Y-94822322D03*
X233976072Y-91522322D03*
D39*
X119604570Y-84874233D03*
X118925748Y-84195411D03*
D40*
X301600202Y-101272406D02*
G75*
G03*
X303822706Y-99049835I-102J2222606D01*
G01*
X40600000Y-103272338D02*
X149161353Y-103272338D01*
X71376999Y-101272345D02*
G75*
G03*
X72707000Y-100446691I-15399J1508845D01*
G01*
X98847999Y-7000000D02*
X109651997Y-7000000D01*
X237074986Y-83399998D02*
X237074986Y-99022338D01*
X136948002Y-7000004D02*
G75*
G03*
X135618000Y-7806000I398J-1500996D01*
G01*
X268967975Y-100446699D02*
G75*
G03*
X270297993Y-101272337I1345325J683099D01*
G01*
X33451997Y-7000000D02*
X31049997Y-7000000D01*
X304322700Y-1000000D02*
G75*
G03*
X303322706Y0I-1000000J0D01*
G01*
X289347996Y-7000000D02*
X301600202Y-7000000D01*
X303322706Y-108272406D02*
G75*
G03*
X304322706Y-107272338I-106J1000106D01*
G01*
X25049997Y-5000000D02*
X1000000Y-5000000D01*
X34781999Y-7806000D02*
G75*
G03*
X40367997Y-7806000I2792999J1455492D01*
G01*
X24876999Y-101272338D02*
X22647999Y-101272338D01*
X97179782Y-99907551D02*
G75*
G03*
X98847996Y-101272338I1668618J337651D01*
G01*
X251247981Y-6999980D02*
G75*
G03*
X249917994Y-7806000I319J-1500820D01*
G01*
X15731999Y-7806000D02*
G75*
G03*
X14401997Y-7000001I-1328549J-691940D01*
G01*
X282432022Y-7805994D02*
G75*
G03*
X281101994Y-7000001I-1328522J-691906D01*
G01*
X303827411Y-48693176D02*
X303822706Y-99049835D01*
X79623001Y-101272338D02*
X90601994Y-101272338D01*
X278700001Y-101272338D02*
X281102009Y-101272338D01*
X303322706Y0D02*
X1000000Y0D01*
X130031972Y-7806015D02*
G75*
G03*
X128702000Y-7000001I-1328472J-691785D01*
G01*
X54655994Y-100446691D02*
G75*
G03*
X49069996Y-100446691I-2792999J-1455492D01*
G01*
X31793026Y-100446677D02*
G75*
G03*
X33123001Y-101272337I1345274J682977D01*
G01*
X0Y-107272338D02*
X0Y-104272338D01*
X78293026Y-100446677D02*
G75*
G03*
X79623001Y-101272337I1345274J682977D01*
G01*
X289347996Y-6999994D02*
G75*
G03*
X288018010Y-7806000I304J-1500806D01*
G01*
X234824986Y-101272386D02*
G75*
G03*
X237074986Y-99022338I-86J2250086D01*
G01*
X34781941Y-7806030D02*
G75*
G03*
X33451997Y-7000001I-1328541J-691870D01*
G01*
X21317997Y-100446691D02*
G75*
G03*
X15731999Y-100446691I-2792999J-1455492D01*
G01*
X217911000Y-101272338D02*
X234824986Y-101272338D01*
X192377306Y-99907545D02*
G75*
G03*
X187537331Y-99827543I-2423306J-160755D01*
G01*
X155161353Y-103272338D02*
X272700001Y-103272338D01*
X22647999Y-7000002D02*
G75*
G03*
X21317998Y-7806000I401J-1500998D01*
G01*
X0Y-99049833D02*
G75*
G03*
X2222503Y-101272338I2222503J-2D01*
G01*
X288017979Y-100446706D02*
G75*
G03*
X289348011Y-101272338I1345321J683106D01*
G01*
X175000000Y-7000000D02*
X185851994Y-7000000D01*
X47739994Y-101272307D02*
G75*
G03*
X49069995Y-100446691I-15294J1508707D01*
G01*
X136948002Y-7000000D02*
X144500000Y-7000000D01*
X1000000Y0D02*
G75*
G03*
X0Y-1000000I0J-1000000D01*
G01*
X92339807Y-8400003D02*
G75*
G03*
X90601997Y-7000001I-1736307J-376697D01*
G01*
X206639807Y-8400003D02*
G75*
G03*
X204901997Y-7000001I-1736307J-376697D01*
G01*
X303322706Y-5000000D02*
X269722706Y-5000000D01*
X14401997Y-101272338D02*
X2222503Y-101272338D01*
X78292999Y-100446691D02*
G75*
G03*
X72707001Y-100446691I-2792999J-1455492D01*
G01*
X159500000Y-7000024D02*
G75*
G03*
X158700000Y-7600000I-800J-832276D01*
G01*
X304322762Y-104272338D02*
G75*
G03*
X303322706Y-103272338I-1000062J-62D01*
G01*
X209664998Y-101272311D02*
G75*
G03*
X210995000Y-100446691I-15298J1508711D01*
G01*
X303827349Y-48693176D02*
G75*
G03*
X302507411Y-47025000I-1714649J-424D01*
G01*
X194097996Y-7000018D02*
G75*
G03*
X192767994Y-7806000I-1496J-1497882D01*
G01*
X187181971Y-7806013D02*
G75*
G03*
X185851994Y-7000001I-1328471J-691787D01*
G01*
X303822706Y-9222505D02*
X303827411Y-40462174D01*
X302427417Y-42200059D02*
G75*
G03*
X302507411Y-47024999I240783J-2409141D01*
G01*
X251247981Y-7000000D02*
X263722706Y-7000000D01*
X268967991Y-100446691D02*
G75*
G03*
X263381993Y-100446691I-2792999J-1455492D01*
G01*
X206639815Y-8400001D02*
G75*
G03*
X211479823Y-8320000I2416685J240801D01*
G01*
X216580977Y-100446702D02*
G75*
G03*
X217911000Y-101272337I1345323J683102D01*
G01*
X21317977Y-100446701D02*
G75*
G03*
X22647999Y-101272337I1345323J683101D01*
G01*
X247650002Y-83399998D02*
G75*
G03*
X246399998Y-82149998I-1249602J398D01*
G01*
X304322706Y-1000000D02*
X304322706Y-4000000D01*
X110981958Y-7806022D02*
G75*
G03*
X109651997Y-7000001I-1328658J-692078D01*
G01*
X304322706Y-104272338D02*
X304322706Y-107272338D01*
X194097996Y-7000000D02*
X204901997Y-7000000D01*
X31792999Y-100446691D02*
G75*
G03*
X26207001Y-100446691I-2792999J-1455492D01*
G01*
X90601994Y-101272331D02*
G75*
G03*
X92339819Y-99827543I1506J1765731D01*
G01*
X303322706Y-5000006D02*
G75*
G03*
X304322706Y-4000000I-6J1000006D01*
G01*
X149161353Y-101272338D02*
X98847996Y-101272338D01*
X302427414Y-42200015D02*
G75*
G03*
X303827410Y-40462174I-376714J1736315D01*
G01*
X0Y-99049833D02*
X0Y-48291535D01*
X41697999Y-7000002D02*
G75*
G03*
X40367998Y-7806000I401J-1500998D01*
G01*
X185799504Y-101272341D02*
G75*
G03*
X187537330Y-99827543I1496J1765741D01*
G01*
X1000000Y-103272338D02*
G75*
G03*
X0Y-104272338I-1J-999999D01*
G01*
X97179816Y-99907543D02*
G75*
G03*
X92339821Y-99827543I-2423316J-160757D01*
G01*
X169000000Y-7000000D02*
X159500000Y-7000000D01*
X110981999Y-7806000D02*
G75*
G03*
X116567997Y-7806000I2792999J1455492D01*
G01*
X24876999Y-101272345D02*
G75*
G03*
X26207000Y-100446691I-15399J1508845D01*
G01*
X117897999Y-7000000D02*
X128702000Y-7000000D01*
X-2Y-40183465D02*
G75*
G03*
X1362325Y-41824999I1670682J445D01*
G01*
X2Y-107272338D02*
G75*
G03*
X1000000Y-108272338I999998J-2D01*
G01*
X0Y-4000000D02*
G75*
G03*
X1000000Y-5000000I1000000J0D01*
G01*
X262051991Y-101272306D02*
G75*
G03*
X263381993Y-100446691I-15291J1508706D01*
G01*
X278700001Y-103272338D02*
X303322706Y-103272338D01*
X192377282Y-99907553D02*
G75*
G03*
X194045506Y-101272338I1668618J337653D01*
G01*
X0Y-40183465D02*
X0Y-9222503D01*
X249899998Y-101272338D02*
X262051991Y-101272338D01*
X15731999Y-7806000D02*
G75*
G03*
X21317997Y-7806000I2792999J1455492D01*
G01*
X1442325Y-46649999D02*
G75*
G03*
X1362325Y-41825001I-240727J2409171D01*
G01*
X54655976Y-100446700D02*
G75*
G03*
X55985996Y-101272337I1345324J683100D01*
G01*
X41697999Y-7000000D02*
X90601997Y-7000000D01*
X247650062Y-99022338D02*
G75*
G03*
X249899998Y-101272338I2249938J-62D01*
G01*
X246399998Y-82149998D02*
X238324986Y-82149998D01*
X157900000Y-8199976D02*
G75*
G03*
X158700000Y-7600000I800J832276D01*
G01*
X145300023Y-7599993D02*
G75*
G03*
X144500000Y-7000000I-799223J-232307D01*
G01*
X33123001Y-101272338D02*
X34600000Y-101272338D01*
X282432011Y-7806000D02*
G75*
G03*
X288018009Y-7806000I2792999J1455492D01*
G01*
X1000000Y-108272338D02*
X303322706Y-108272338D01*
X40600000Y-101272338D02*
X47739994Y-101272338D01*
X270297993Y-101272338D02*
X272700001Y-101272338D01*
X2222503Y-7000000D02*
G75*
G03*
X0Y-9222503I0J-2222503D01*
G01*
X209664998Y-101272338D02*
X194045506Y-101272338D01*
X247649998Y-99022338D02*
X247649998Y-83399998D01*
X303822700Y-9222505D02*
G75*
G03*
X301600202Y-7000000I-2222500J5D01*
G01*
X169000000Y-5000000D02*
X31049997Y-5000000D01*
X187181996Y-7805999D02*
G75*
G03*
X192767994Y-7806000I2792999J1455492D01*
G01*
X117897999Y-7000002D02*
G75*
G03*
X116567998Y-7806000I401J-1500998D01*
G01*
X213147999Y-6999979D02*
G75*
G03*
X211479824Y-8320000I501J-1714721D01*
G01*
X71376999Y-101272338D02*
X55985996Y-101272338D01*
X175000000Y-5000000D02*
X263722706Y-5000000D01*
X0Y-4000000D02*
X0Y-1000000D01*
X146100000Y-8200000D02*
X157900000Y-8200000D01*
X244331996Y-7806000D02*
G75*
G03*
X249917994Y-7806000I2792999J1455492D01*
G01*
X155161353Y-101272338D02*
X185799504Y-101272338D01*
X14401997Y-101272310D02*
G75*
G03*
X15731999Y-100446691I-15297J1508710D01*
G01*
X269722706Y-7000000D02*
X281101994Y-7000000D01*
X145299977Y-7600007D02*
G75*
G03*
X146100000Y-8200000I799223J232307D01*
G01*
X216580998Y-100446691D02*
G75*
G03*
X210995000Y-100446691I-2792999J-1455492D01*
G01*
X213147999Y-7000000D02*
X243001979Y-7000000D01*
X2222503Y-7000000D02*
X14401997Y-7000000D01*
X289348011Y-101272338D02*
X301600202Y-101272338D01*
X25049997Y-7000000D02*
X22647999Y-7000000D01*
X98847999Y-6999979D02*
G75*
G03*
X97179824Y-8320000I501J-1714721D01*
G01*
X92339815Y-8400001D02*
G75*
G03*
X97179823Y-8320000I2416685J240801D01*
G01*
X1442325Y-46650000D02*
G75*
G03*
X0Y-48291535I213454J-1641963D01*
G01*
X281102009Y-101272321D02*
G75*
G03*
X282432011Y-100446691I-15309J1508721D01*
G01*
X130032002Y-7806000D02*
G75*
G03*
X135618000Y-7806000I2792999J1455492D01*
G01*
X238324986Y-82149986D02*
G75*
G03*
X237074986Y-83399998I-386J-1249614D01*
G01*
X244332019Y-7805988D02*
G75*
G03*
X243001979Y-7000001I-1328519J-691912D01*
G01*
X1000000Y-103272338D02*
X34600000Y-103272338D01*
X288018009Y-100446691D02*
G75*
G03*
X282432011Y-100446691I-2792999J-1455492D01*
G01*
X263722706Y-7000000D02*
G75*
G03*
X263722706Y-5000000I0J1000000D01*
G01*
X269722706Y-5000000D02*
G75*
G03*
X269722706Y-7000000I0J-1000000D01*
G01*
X169000000Y-7000000D02*
G75*
G03*
X169000000Y-5000000I0J1000000D01*
G01*
X175000000Y-5000000D02*
G75*
G03*
X175000000Y-7000000I0J-1000000D01*
G01*
X40600000Y-101272338D02*
G75*
G03*
X40600000Y-103272338I0J-1000000D01*
G01*
X34600000Y-103272338D02*
G75*
G03*
X34600000Y-101272338I0J1000000D01*
G01*
X278700001Y-101272338D02*
G75*
G03*
X278700001Y-103272338I0J-1000000D01*
G01*
X272700001Y-103272338D02*
G75*
G03*
X272700001Y-101272338I0J1000000D01*
G01*
X155161353Y-101272338D02*
G75*
G03*
X155161353Y-103272338I0J-1000000D01*
G01*
X149161353Y-103272338D02*
G75*
G03*
X149161353Y-101272338I0J1000000D01*
G01*
X25049997Y-7000000D02*
G75*
G03*
X25049997Y-5000000I0J1000000D01*
G01*
X31049997Y-5000000D02*
G75*
G03*
X31049997Y-7000000I0J-1000000D01*
G01*
X12100001Y-59587666D02*
X12100001Y-58181982D01*
X13005548Y-57384824D02*
X14594452Y-57384824D01*
X14594452Y-60384823D02*
X13005547Y-60384823D01*
X15499999Y-58181982D02*
X15499999Y-59587666D01*
X12100000Y-58181982D02*
G75*
G03*
X12050515Y-57965104I-499989J2D01*
G01*
X12753289Y-57316525D02*
G75*
G03*
X12050517Y-57965105I-252259J-431700D01*
G01*
X12050516Y-59804544D02*
G75*
G03*
X12100001Y-59587667I-450505J216876D01*
G01*
X12050516Y-59804544D02*
G75*
G03*
X12753289Y-60453122I450514J-216878D01*
G01*
X13005547Y-60384823D02*
G75*
G03*
X12753289Y-60453122I3J-500009D01*
G01*
X12753289Y-57316525D02*
G75*
G03*
X13005548Y-57384824I252261J431710D01*
G01*
X14846711Y-60453123D02*
G75*
G03*
X14594453Y-60384824I-252261J-431710D01*
G01*
X14594452Y-57384823D02*
G75*
G03*
X14846710Y-57316525I-2J500010D01*
G01*
X15549480Y-57965102D02*
G75*
G03*
X14846711Y-57316527I-450510J216879D01*
G01*
X15549484Y-57965104D02*
G75*
G03*
X15499999Y-58181981I450866J-216959D01*
G01*
X14846711Y-60453123D02*
G75*
G03*
X15549484Y-59804544I252259J431700D01*
G01*
X15499987Y-59587666D02*
G75*
G03*
X15549484Y-59804544I500513J143D01*
G01*
X293084824Y-21487666D02*
X293084824Y-20081982D01*
X293990371Y-19284824D02*
X295579275Y-19284824D01*
X295579275Y-22284823D02*
X293990370Y-22284823D01*
X296484822Y-20081982D02*
X296484822Y-21487666D01*
X293084823Y-20081982D02*
G75*
G03*
X293035338Y-19865104I-499989J2D01*
G01*
X293738112Y-19216525D02*
G75*
G03*
X293035340Y-19865105I-252259J-431700D01*
G01*
X293035339Y-21704544D02*
G75*
G03*
X293084824Y-21487667I-450505J216876D01*
G01*
X293035339Y-21704544D02*
G75*
G03*
X293738112Y-22353122I450514J-216878D01*
G01*
X293990370Y-22284823D02*
G75*
G03*
X293738112Y-22353122I3J-500009D01*
G01*
X293738112Y-19216525D02*
G75*
G03*
X293990371Y-19284824I252261J431710D01*
G01*
X295831534Y-22353123D02*
G75*
G03*
X295579276Y-22284824I-252261J-431710D01*
G01*
X295579275Y-19284823D02*
G75*
G03*
X295831533Y-19216525I-2J500010D01*
G01*
X296534303Y-19865102D02*
G75*
G03*
X295831534Y-19216527I-450510J216879D01*
G01*
X296534307Y-19865104D02*
G75*
G03*
X296484822Y-20081981I450866J-216959D01*
G01*
X295831534Y-22353123D02*
G75*
G03*
X296534307Y-21704544I252259J431700D01*
G01*
X296484810Y-21487666D02*
G75*
G03*
X296534307Y-21704544I500513J143D01*
G01*
X7334824Y-21487666D02*
X7334824Y-20081982D01*
X8240371Y-19284824D02*
X9829275Y-19284824D01*
X9829275Y-22284823D02*
X8240370Y-22284823D01*
X10734822Y-20081982D02*
X10734822Y-21487666D01*
X7334823Y-20081982D02*
G75*
G03*
X7285338Y-19865104I-499989J2D01*
G01*
X7988112Y-19216525D02*
G75*
G03*
X7285340Y-19865105I-252259J-431700D01*
G01*
X7285339Y-21704544D02*
G75*
G03*
X7334824Y-21487667I-450505J216876D01*
G01*
X7285339Y-21704544D02*
G75*
G03*
X7988112Y-22353122I450514J-216878D01*
G01*
X8240370Y-22284823D02*
G75*
G03*
X7988112Y-22353122I3J-500009D01*
G01*
X7988112Y-19216525D02*
G75*
G03*
X8240371Y-19284824I252261J431710D01*
G01*
X10081534Y-22353123D02*
G75*
G03*
X9829276Y-22284824I-252261J-431710D01*
G01*
X9829275Y-19284823D02*
G75*
G03*
X10081533Y-19216525I-2J500010D01*
G01*
X10784303Y-19865102D02*
G75*
G03*
X10081534Y-19216527I-450510J216879D01*
G01*
X10784307Y-19865104D02*
G75*
G03*
X10734822Y-20081981I450866J-216959D01*
G01*
X10081534Y-22353123D02*
G75*
G03*
X10784307Y-21704544I252259J431700D01*
G01*
X10734810Y-21487666D02*
G75*
G03*
X10784307Y-21704544I500513J143D01*
G01*
M02*
