M48
; DRILL file {KiCad (6.99.0-1912-g359c99991b)} date Tue Aug 15 13:42:37 2023
; FORMAT={-:-/ absolute / metric / decimal}
; #@! TF.CreationDate,2023-08-15T13:42:37+07:00
; #@! TF.GenerationSoftware,Kicad,Pcbnew,(6.99.0-1912-g359c99991b)
; #@! TF.FileFunction,MixedPlating,1,2
FMAT,2
METRIC
; #@! TA.AperFunction,Plated,PTH,ViaDrill
T1C0.250
; #@! TA.AperFunction,Plated,PTH,ComponentDrill
T2C0.300
; #@! TA.AperFunction,Plated,PTH,ComponentDrill
T3C0.350
; #@! TA.AperFunction,Plated,PTH,ComponentDrill
T4C1.000
; #@! TA.AperFunction,Plated,PTH,ComponentDrill
T5C1.524
; #@! TA.AperFunction,NonPlated,NPTH,ComponentDrill
T6C0.500
; #@! TA.AperFunction,NonPlated,NPTH,ComponentDrill
T7C1.750
; #@! TA.AperFunction,NonPlated,NPTH,ComponentDrill
T8C3.048
; #@! TA.AperFunction,NonPlated,NPTH,ComponentDrill
T9C3.988
%
G90
G05
T1
X5.5Y-58.1
X5.8Y-29.8
X6.5Y-59.635
X6.8Y-96.65
X9.9Y-24.0
X16.0Y-24.0
X16.3Y-50.9
X21.1Y-23.0
X21.4Y-57.8
X22.0Y-59.5
X24.5Y-37.672
X26.9Y-65.05
X30.6Y-37.672
X32.85Y-62.0
X32.85Y-63.0
X34.0Y-18.7
X36.0Y-56.722
X38.0Y-75.772
X39.5Y-18.7
X42.4Y-75.772
X66.0Y-94.822
X84.1Y-90.9
X85.0Y-94.75
X91.15Y-18.7
X92.0Y-90.3
X94.65Y-88.0
X96.65Y-18.7
X96.975Y-75.772
X98.4Y-89.187
X98.4Y-90.3
X100.5Y-64.875
X102.0Y-68.0
X102.65Y-96.25
X102.887Y-91.192
X106.25Y-96.8
X107.335Y-91.422
X107.5Y-87.4
X107.5Y-89.3
X112.335Y-91.869
X112.8Y-90.7
X116.5Y-90.7
X116.9Y-92.0
X118.61Y-92.0
X121.1Y-75.772
X121.5Y-78.5
X129.25Y-18.7
X134.75Y-18.7
X135.0Y-94.822
X137.65Y-78.65
X173.5Y-94.822
X177.1Y-94.822
X205.8Y-77.8
X224.75Y-77.7
X236.0Y-21.1
X238.0Y-20.035
X251.2Y-77.7
X253.5Y-18.622
X256.7Y-37.672
X261.5Y-18.622
X261.5Y-20.035
X261.5Y-21.1
X262.0Y-37.672
X276.7Y-77.65
X284.5Y-56.0
X285.0Y-21.7
X286.0Y-56.0
T2
X98.5Y-85.7
T3
X103.91Y-88.112
X103.91Y-89.387
X103.91Y-90.662
X105.185Y-88.112
X105.185Y-89.387
X105.185Y-90.662
X106.46Y-88.112
X106.46Y-89.387
X106.46Y-90.662
T4
X112.92Y-95.95
X115.46Y-95.95
X118.0Y-95.95
X120.54Y-95.95
X123.08Y-95.95
X285.25Y-76.0
X285.25Y-78.5
X285.25Y-81.1
T5
X5.225Y-13.495
X7.606Y-51.595
X7.606Y-70.645
X7.606Y-89.695
X9.987Y-32.545
X9.987Y-89.695
X11.575Y-10.955
X12.369Y-51.595
X13.956Y-49.055
X13.956Y-68.105
X13.956Y-87.155
X16.337Y-30.005
X16.337Y-87.155
X17.131Y-70.645
X18.719Y-49.055
X23.481Y-68.105
X24.275Y-13.495
X29.037Y-70.645
X30.625Y-10.955
X31.419Y-89.695
X33.8Y-32.545
X33.8Y-89.695
X35.387Y-68.105
X37.769Y-87.155
X38.562Y-51.595
X40.15Y-30.005
X40.15Y-87.155
X43.325Y-13.495
X44.912Y-49.055
X48.087Y-70.645
X49.675Y-10.955
X52.85Y-32.545
X54.437Y-68.105
X55.231Y-89.695
X57.612Y-51.595
X57.612Y-89.695
X59.2Y-30.005
X61.581Y-87.155
X62.375Y-13.495
X63.962Y-49.055
X63.962Y-87.155
X67.137Y-70.645
X68.725Y-10.955
X71.9Y-32.545
X73.487Y-68.105
X76.662Y-51.595
X78.25Y-30.005
X81.425Y-13.495
X83.012Y-49.055
X86.187Y-70.645
X87.775Y-10.955
X90.95Y-32.545
X92.537Y-68.105
X95.712Y-51.595
X97.3Y-30.005
X100.475Y-13.495
X102.062Y-49.055
X105.237Y-70.645
X106.825Y-10.955
X110.0Y-32.545
X111.587Y-68.105
X114.762Y-51.595
X116.35Y-30.005
X119.525Y-13.495
X121.112Y-49.055
X124.287Y-70.645
X125.875Y-10.955
X126.669Y-89.695
X129.05Y-32.545
X130.637Y-68.105
X133.019Y-87.155
X133.812Y-51.595
X135.4Y-30.005
X138.575Y-13.495
X138.575Y-89.695
X140.162Y-49.055
X143.337Y-70.645
X144.925Y-10.955
X144.925Y-87.155
X148.1Y-32.545
X149.687Y-68.105
X152.862Y-51.595
X154.45Y-30.005
X157.625Y-13.495
X159.212Y-49.055
X162.387Y-70.645
X163.975Y-10.955
X167.15Y-32.545
X168.737Y-68.105
X171.912Y-51.595
X173.5Y-30.005
X176.675Y-13.495
X178.262Y-49.055
X181.437Y-70.645
X183.025Y-10.955
X186.2Y-32.545
X187.787Y-68.105
X190.962Y-51.595
X192.55Y-30.005
X195.725Y-13.495
X197.312Y-49.055
X198.106Y-89.695
X200.487Y-70.645
X202.075Y-10.955
X204.456Y-87.155
X205.25Y-32.545
X206.837Y-68.105
X210.012Y-51.595
X211.6Y-30.005
X214.775Y-13.495
X216.362Y-49.055
X219.537Y-70.645
X219.537Y-89.695
X221.125Y-10.955
X221.919Y-89.695
X224.3Y-32.545
X225.887Y-68.105
X225.887Y-87.155
X228.269Y-87.155
X229.062Y-51.595
X230.65Y-30.005
X233.825Y-13.495
X235.412Y-49.055
X240.175Y-10.955
X243.35Y-32.545
X245.731Y-70.645
X248.112Y-51.595
X249.7Y-30.005
X252.081Y-68.105
X252.875Y-13.495
X252.875Y-89.695
X254.462Y-49.055
X259.225Y-10.955
X259.225Y-87.155
X260.019Y-51.595
X262.4Y-13.495
X266.369Y-49.055
X267.162Y-32.545
X268.75Y-10.955
X269.544Y-42.07
X271.925Y-13.495
X271.925Y-70.645
X271.925Y-89.695
X273.512Y-30.005
X275.894Y-39.53
X278.275Y-10.955
X278.275Y-68.105
X278.275Y-87.155
X290.975Y-13.495
X290.975Y-32.545
X290.975Y-51.595
X290.975Y-70.645
X290.975Y-89.695
X297.325Y-10.955
X297.325Y-30.005
X297.325Y-49.055
X297.325Y-68.105
X297.325Y-87.155
T6
X26.2Y-7.05
X26.94Y-7.05
X27.68Y-7.05
X28.42Y-7.05
X29.16Y-7.05
X29.9Y-7.05
X35.75Y-101.222
X36.49Y-101.222
X37.23Y-101.222
X37.97Y-101.222
X38.71Y-101.222
X39.45Y-101.222
X150.311Y-101.222
X151.051Y-101.222
X151.791Y-101.222
X152.531Y-101.222
X153.271Y-101.222
X154.011Y-101.222
X170.15Y-7.05
X170.89Y-7.05
X171.63Y-7.05
X172.37Y-7.05
X173.11Y-7.05
X173.85Y-7.05
X264.873Y-7.05
X265.613Y-7.05
X266.353Y-7.05
X267.093Y-7.05
X267.833Y-7.05
X268.573Y-7.05
X273.85Y-101.222
X274.59Y-101.222
X275.33Y-101.222
X276.07Y-101.222
X276.81Y-101.222
X277.55Y-101.222
T7
X3.955Y-16.035
X6.336Y-54.135
X6.336Y-73.185
X6.336Y-92.235
X8.717Y-35.085
X8.717Y-92.235
X11.099Y-54.135
X14.115Y-16.035
X15.861Y-73.185
X16.496Y-54.135
X16.496Y-73.185
X16.496Y-92.235
X18.877Y-35.085
X18.877Y-92.235
X21.259Y-54.135
X23.005Y-16.035
X26.021Y-73.185
X27.767Y-73.185
X30.149Y-92.235
X32.53Y-35.085
X32.53Y-92.235
X33.165Y-16.035
X37.292Y-54.135
X37.927Y-73.185
X40.309Y-92.235
X42.055Y-16.035
X42.69Y-35.085
X42.69Y-92.235
X46.817Y-73.185
X47.452Y-54.135
X51.58Y-35.085
X52.215Y-16.035
X53.961Y-92.235
X56.342Y-54.135
X56.342Y-92.235
X56.977Y-73.185
X61.105Y-16.035
X61.74Y-35.085
X64.121Y-92.235
X65.867Y-73.185
X66.502Y-54.135
X66.502Y-92.235
X70.63Y-35.085
X71.265Y-16.035
X75.392Y-54.135
X76.027Y-73.185
X80.155Y-16.035
X80.79Y-35.085
X84.917Y-73.185
X85.552Y-54.135
X89.68Y-35.085
X90.315Y-16.035
X94.442Y-54.135
X95.077Y-73.185
X99.205Y-16.035
X99.84Y-35.085
X103.967Y-73.185
X104.602Y-54.135
X108.73Y-35.085
X109.365Y-16.035
X113.492Y-54.135
X114.127Y-73.185
X118.255Y-16.035
X118.89Y-35.085
X123.017Y-73.185
X123.652Y-54.135
X125.399Y-92.235
X127.78Y-35.085
X128.415Y-16.035
X132.542Y-54.135
X133.177Y-73.185
X135.559Y-92.235
X137.305Y-16.035
X137.305Y-92.235
X137.94Y-35.085
X142.067Y-73.185
X142.702Y-54.135
X146.83Y-35.085
X147.465Y-16.035
X147.465Y-92.235
X151.592Y-54.135
X152.227Y-73.185
X156.355Y-16.035
X156.99Y-35.085
X161.117Y-73.185
X161.752Y-54.135
X165.88Y-35.085
X166.515Y-16.035
X170.642Y-54.135
X171.277Y-73.185
X175.405Y-16.035
X176.04Y-35.085
X180.167Y-73.185
X180.802Y-54.135
X184.93Y-35.085
X185.565Y-16.035
X189.692Y-54.135
X190.327Y-73.185
X194.455Y-16.035
X195.09Y-35.085
X196.836Y-92.235
X199.217Y-73.185
X199.852Y-54.135
X203.98Y-35.085
X204.615Y-16.035
X206.996Y-92.235
X208.742Y-54.135
X209.377Y-73.185
X213.505Y-16.035
X214.14Y-35.085
X218.267Y-73.185
X218.267Y-92.235
X218.902Y-54.135
X220.649Y-92.235
X223.03Y-35.085
X223.665Y-16.035
X227.792Y-54.135
X228.427Y-73.185
X228.427Y-92.235
X230.809Y-92.235
X232.555Y-16.035
X233.19Y-35.085
X237.952Y-54.135
X242.08Y-35.085
X242.715Y-16.035
X244.461Y-73.185
X246.842Y-54.135
X251.605Y-16.035
X251.605Y-92.235
X252.24Y-35.085
X254.621Y-73.185
X257.002Y-54.135
X258.749Y-54.135
X261.13Y-16.035
X261.765Y-16.035
X261.765Y-92.235
X265.892Y-35.085
X268.274Y-44.61
X268.909Y-54.135
X270.655Y-16.035
X270.655Y-73.185
X270.655Y-92.235
X271.29Y-16.035
X276.052Y-35.085
X278.434Y-44.61
X280.815Y-16.035
X280.815Y-73.185
X280.815Y-92.235
X289.705Y-16.035
X289.705Y-35.085
X289.705Y-54.135
X289.705Y-73.185
X289.705Y-92.235
X299.865Y-16.035
X299.865Y-35.085
X299.865Y-54.135
X299.865Y-73.185
X299.865Y-92.235
T8
X9.035Y-66.2
X32.847Y-66.2
X80.472Y-99.22
X85.235Y-99.22
X180.485Y-99.22
X199.535Y-99.22
X251.922Y-61.12
X254.304Y-9.05
X275.735Y-61.12
X278.116Y-9.05
X280.339Y-32.704
X280.339Y-56.516
T9
X9.035Y-16.035
X9.035Y-81.44
X11.416Y-54.135
X11.416Y-73.185
X11.416Y-92.235
X13.797Y-35.085
X13.797Y-92.235
X16.179Y-54.135
X20.941Y-73.185
X28.085Y-16.035
X32.847Y-73.185
X32.847Y-81.44
X35.229Y-92.235
X37.61Y-35.085
X37.61Y-92.235
X42.372Y-54.135
X47.135Y-16.035
X51.897Y-73.185
X56.66Y-35.085
X59.041Y-92.235
X61.422Y-54.135
X61.422Y-92.235
X66.185Y-16.035
X70.947Y-73.185
X75.71Y-35.085
X80.472Y-54.135
X80.472Y-83.98
X85.235Y-16.035
X85.235Y-83.98
X89.997Y-73.185
X94.76Y-35.085
X99.522Y-54.135
X104.285Y-16.035
X109.047Y-73.185
X113.81Y-35.085
X118.572Y-54.135
X123.335Y-16.035
X128.097Y-73.185
X130.479Y-92.235
X132.86Y-35.085
X137.622Y-54.135
X142.385Y-16.035
X142.385Y-92.235
X147.147Y-73.185
X151.91Y-35.085
X156.672Y-54.135
X161.435Y-16.035
X166.197Y-73.185
X170.96Y-35.085
X175.722Y-54.135
X180.485Y-16.035
X180.485Y-83.98
X185.247Y-73.185
X190.01Y-35.085
X194.772Y-54.135
X199.535Y-16.035
X199.535Y-83.98
X201.916Y-92.235
X204.297Y-73.185
X209.06Y-35.085
X213.822Y-54.135
X218.585Y-16.035
X223.347Y-73.185
X223.347Y-92.235
X225.729Y-92.235
X228.11Y-35.085
X232.872Y-54.135
X237.635Y-16.035
X247.16Y-35.085
X249.541Y-73.185
X251.922Y-45.88
X251.922Y-54.135
X254.304Y-24.29
X256.685Y-16.035
X256.685Y-92.235
X263.829Y-54.135
X265.099Y-32.704
X265.099Y-56.516
X266.21Y-16.035
X270.972Y-35.085
X273.354Y-44.61
X275.735Y-16.035
X275.735Y-45.88
X275.735Y-73.185
X275.735Y-92.235
X278.116Y-24.29
X294.785Y-16.035
X294.785Y-35.085
X294.785Y-54.135
X294.785Y-73.185
X294.785Y-92.235
T0
M30
