G04 #@! TF.GenerationSoftware,KiCad,Pcbnew,(6.99.0-1912-g359c99991b)*
G04 #@! TF.CreationDate,2023-04-17T10:31:14+07:00*
G04 #@! TF.ProjectId,nyx,6e79782e-6b69-4636-9164-5f7063625858,1*
G04 #@! TF.SameCoordinates,Original*
G04 #@! TF.FileFunction,Paste,Bot*
G04 #@! TF.FilePolarity,Positive*
%FSLAX46Y46*%
G04 Gerber Fmt 4.6, Leading zero omitted, Abs format (unit mm)*
G04 Created by KiCad (PCBNEW (6.99.0-1912-g359c99991b)) date 2023-04-17 10:31:14*
%MOMM*%
%LPD*%
G01*
G04 APERTURE LIST*
G04 Aperture macros list*
%AMRoundRect*
0 Rectangle with rounded corners*
0 $1 Rounding radius*
0 $2 $3 $4 $5 $6 $7 $8 $9 X,Y pos of 4 corners*
0 Add a 4 corners polygon primitive as box body*
4,1,4,$2,$3,$4,$5,$6,$7,$8,$9,$2,$3,0*
0 Add four circle primitives for the rounded corners*
1,1,$1+$1,$2,$3*
1,1,$1+$1,$4,$5*
1,1,$1+$1,$6,$7*
1,1,$1+$1,$8,$9*
0 Add four rect primitives between the rounded corners*
20,1,$1+$1,$2,$3,$4,$5,0*
20,1,$1+$1,$4,$5,$6,$7,0*
20,1,$1+$1,$6,$7,$8,$9,0*
20,1,$1+$1,$8,$9,$2,$3,0*%
%AMRotRect*
0 Rectangle, with rotation*
0 The origin of the aperture is its center*
0 $1 length*
0 $2 width*
0 $3 Rotation angle, in degrees counterclockwise*
0 Add horizontal line*
21,1,$1,$2,0,0,$3*%
%AMFreePoly0*
4,1,18,-0.410000,0.593000,-0.403758,0.624380,-0.385983,0.650983,-0.359380,0.668758,-0.328000,0.675000,0.328000,0.675000,0.359380,0.668758,0.385983,0.650983,0.403758,0.624380,0.410000,0.593000,0.410000,-0.593000,0.403758,-0.624380,0.385983,-0.650983,0.359380,-0.668758,0.328000,-0.675000,0.000000,-0.675000,-0.410000,-0.265000,-0.410000,0.593000,-0.410000,0.593000,$1*%
G04 Aperture macros list end*
%ADD10RoundRect,0.250000X1.025000X1.000000X-1.025000X1.000000X-1.025000X-1.000000X1.025000X-1.000000X0*%
%ADD11RoundRect,0.225000X0.250000X-0.225000X0.250000X0.225000X-0.250000X0.225000X-0.250000X-0.225000X0*%
%ADD12RoundRect,0.225000X0.225000X0.250000X-0.225000X0.250000X-0.225000X-0.250000X0.225000X-0.250000X0*%
%ADD13R,1.200000X0.900000*%
%ADD14RoundRect,0.225000X-0.250000X0.225000X-0.250000X-0.225000X0.250000X-0.225000X0.250000X0.225000X0*%
%ADD15RoundRect,0.225000X-0.225000X-0.250000X0.225000X-0.250000X0.225000X0.250000X-0.225000X0.250000X0*%
%ADD16RoundRect,0.082000X-0.593000X0.328000X-0.593000X-0.328000X0.593000X-0.328000X0.593000X0.328000X0*%
%ADD17FreePoly0,270.000000*%
%ADD18RoundRect,0.082000X0.593000X-0.328000X0.593000X0.328000X-0.593000X0.328000X-0.593000X-0.328000X0*%
%ADD19FreePoly0,90.000000*%
%ADD20RoundRect,0.200000X-0.200000X-0.600000X0.200000X-0.600000X0.200000X0.600000X-0.200000X0.600000X0*%
%ADD21RoundRect,0.250001X-0.799999X-1.249999X0.799999X-1.249999X0.799999X1.249999X-0.799999X1.249999X0*%
%ADD22R,0.900000X1.200000*%
%ADD23RoundRect,0.250000X-0.292217X0.292217X-0.292217X-0.292217X0.292217X-0.292217X0.292217X0.292217X0*%
%ADD24RoundRect,0.050000X-0.050000X0.387500X-0.050000X-0.387500X0.050000X-0.387500X0.050000X0.387500X0*%
%ADD25RoundRect,0.050000X-0.387500X0.050000X-0.387500X-0.050000X0.387500X-0.050000X0.387500X0.050000X0*%
%ADD26RoundRect,0.150000X0.650000X0.150000X-0.650000X0.150000X-0.650000X-0.150000X0.650000X-0.150000X0*%
%ADD27R,1.700000X1.000000*%
%ADD28RoundRect,0.225000X-0.335876X-0.017678X-0.017678X-0.335876X0.335876X0.017678X0.017678X0.335876X0*%
%ADD29RotRect,1.400000X1.200000X135.000000*%
%ADD30RoundRect,0.200000X-0.335876X-0.053033X-0.053033X-0.335876X0.335876X0.053033X0.053033X0.335876X0*%
%ADD31RoundRect,0.150000X0.512500X0.150000X-0.512500X0.150000X-0.512500X-0.150000X0.512500X-0.150000X0*%
%ADD32RoundRect,0.200000X-0.275000X0.200000X-0.275000X-0.200000X0.275000X-0.200000X0.275000X0.200000X0*%
%ADD33R,0.800000X1.000000*%
%ADD34RoundRect,0.150000X-0.625000X0.150000X-0.625000X-0.150000X0.625000X-0.150000X0.625000X0.150000X0*%
%ADD35RoundRect,0.250000X-0.650000X0.350000X-0.650000X-0.350000X0.650000X-0.350000X0.650000X0.350000X0*%
%ADD36RoundRect,0.200000X0.200000X0.275000X-0.200000X0.275000X-0.200000X-0.275000X0.200000X-0.275000X0*%
%ADD37RoundRect,0.243750X0.243750X0.456250X-0.243750X0.456250X-0.243750X-0.456250X0.243750X-0.456250X0*%
%ADD38RoundRect,0.200000X-0.200000X-0.275000X0.200000X-0.275000X0.200000X0.275000X-0.200000X0.275000X0*%
%ADD39RoundRect,0.225000X0.017678X-0.335876X0.335876X-0.017678X-0.017678X0.335876X-0.335876X0.017678X0*%
G04 #@! TA.AperFunction,Profile*
%ADD40C,0.100000*%
G04 #@! TD*
G04 APERTURE END LIST*
D10*
X215987323Y-70644823D03*
X229437323Y-68104823D03*
D11*
X123200000Y-78734823D03*
X123200000Y-77184823D03*
X261568750Y-97734823D03*
X261568750Y-96184823D03*
D12*
X87959823Y-23800000D03*
X86409823Y-23800000D03*
D13*
X241119822Y-56722322D03*
X241119822Y-53422322D03*
D12*
X164159823Y-23800000D03*
X162609823Y-23800000D03*
X221309823Y-23800000D03*
X219759823Y-23800000D03*
D13*
X231594822Y-75772322D03*
X231594822Y-72472322D03*
D12*
X183209823Y-23800000D03*
X181659823Y-23800000D03*
D14*
X106834823Y-96047323D03*
X106834823Y-97597323D03*
D11*
X289887500Y-78734823D03*
X289887500Y-77184823D03*
D15*
X37650000Y-67800000D03*
X39200000Y-67800000D03*
D13*
X55382322Y-17949999D03*
X55382322Y-14649999D03*
D16*
X133203573Y-97734823D03*
X133203573Y-96234823D03*
X127753573Y-97734823D03*
D17*
X127753572Y-96234822D03*
D16*
X11759823Y-21534823D03*
X11759823Y-20034823D03*
X6309823Y-21534823D03*
D17*
X6309822Y-20034822D03*
D11*
X104150000Y-78734823D03*
X104150000Y-77184823D03*
D13*
X145869822Y-56722322D03*
X145869822Y-53422322D03*
X69669822Y-56722322D03*
X69669822Y-53422322D03*
D16*
X221309823Y-21534823D03*
X221309823Y-20034823D03*
X215859823Y-21534823D03*
D17*
X215859822Y-20034822D03*
D18*
X244434823Y-39084823D03*
X244434823Y-40584823D03*
X249884823Y-39084823D03*
D19*
X249884822Y-40584822D03*
D18*
X225384823Y-39084823D03*
X225384823Y-40584823D03*
X230834823Y-39084823D03*
D19*
X230834822Y-40584822D03*
D12*
X86862500Y-95400000D03*
X85312500Y-95400000D03*
X30809823Y-23800000D03*
X29259823Y-23800000D03*
D20*
X26209758Y-58192481D03*
X27459758Y-58192481D03*
X28709758Y-58192481D03*
X29959758Y-58192481D03*
D21*
X23659758Y-55292481D03*
X32509758Y-55292481D03*
D16*
X228453573Y-97734823D03*
X228453573Y-96234823D03*
X223003573Y-97734823D03*
D17*
X223003572Y-96234822D03*
D18*
X163472323Y-77184823D03*
X163472323Y-78684823D03*
X168922323Y-77184823D03*
D19*
X168922322Y-78684822D03*
D13*
X112532322Y-18622322D03*
X112532322Y-15322322D03*
D16*
X61766073Y-97734823D03*
X61766073Y-96234823D03*
X56316073Y-97734823D03*
D17*
X56316072Y-96234822D03*
D10*
X96924823Y-13494823D03*
X110374823Y-10954823D03*
D16*
X145109823Y-21534823D03*
X145109823Y-20034823D03*
X139659823Y-21534823D03*
D17*
X139659822Y-20034822D03*
D10*
X287424823Y-51594823D03*
X300874823Y-49054823D03*
D11*
X230612500Y-97734823D03*
X230612500Y-96184823D03*
D13*
X283382322Y-37672322D03*
X283382322Y-34372322D03*
D10*
X211224823Y-13494823D03*
X224674823Y-10954823D03*
X177887323Y-70644823D03*
X191337323Y-68104823D03*
D18*
X201572323Y-77184823D03*
X201572323Y-78684823D03*
X207022323Y-77184823D03*
D19*
X207022322Y-78684822D03*
D18*
X182522323Y-77184823D03*
X182522323Y-78684823D03*
X187972323Y-77184823D03*
D19*
X187972322Y-78684822D03*
D22*
X274974822Y-82699999D03*
X278274822Y-82699999D03*
D16*
X278459823Y-97734823D03*
X278459823Y-96234823D03*
X273009823Y-97734823D03*
D17*
X273009822Y-96234822D03*
D13*
X160157322Y-37672322D03*
X160157322Y-34372322D03*
D11*
X270837500Y-78734823D03*
X270837500Y-77184823D03*
D18*
X273009823Y-77184823D03*
X273009823Y-78684823D03*
X278459823Y-77184823D03*
D19*
X278459822Y-78684822D03*
D10*
X135024823Y-13494823D03*
X148474823Y-10954823D03*
D12*
X202259823Y-23800000D03*
X200709823Y-23800000D03*
D10*
X4056073Y-89694823D03*
X17506073Y-87154823D03*
X196937323Y-70644823D03*
X210387323Y-68104823D03*
D11*
X107034823Y-82300000D03*
X107034823Y-80750000D03*
D10*
X39774823Y-13494823D03*
X53224823Y-10954823D03*
X13581073Y-70644823D03*
X27031073Y-68104823D03*
X73112323Y-51594823D03*
X86562323Y-49054823D03*
X287424823Y-70644823D03*
X300874823Y-68104823D03*
D11*
X199400000Y-78734823D03*
X199400000Y-77184823D03*
D10*
X194556073Y-89694823D03*
X208006073Y-87154823D03*
D14*
X41400000Y-63600000D03*
X41400000Y-65150000D03*
D13*
X283382322Y-56722322D03*
X283382322Y-53422322D03*
D10*
X154074823Y-13494823D03*
X167524823Y-10954823D03*
D12*
X97109823Y-90168649D03*
X95559823Y-90168649D03*
D10*
X187412323Y-51594823D03*
X200862323Y-49054823D03*
D13*
X264932322Y-75772322D03*
X264932322Y-72472322D03*
D10*
X144549823Y-32544823D03*
X157999823Y-30004823D03*
D11*
X16300000Y-97475000D03*
X16300000Y-95925000D03*
D10*
X115974823Y-13494823D03*
X129424823Y-10954823D03*
D15*
X100359823Y-96968649D03*
X101909823Y-96968649D03*
D13*
X107769822Y-56722322D03*
X107769822Y-53422322D03*
X212544822Y-75772322D03*
X212544822Y-72472322D03*
D10*
X54062323Y-51594823D03*
X67512323Y-49054823D03*
X239799823Y-32544823D03*
X253249823Y-30004823D03*
X256468573Y-51594823D03*
X269918573Y-49054823D03*
D18*
X111084823Y-39084823D03*
X111084823Y-40584823D03*
X116534823Y-39084823D03*
D19*
X116534822Y-40584822D03*
D13*
X88719822Y-56722322D03*
X88719822Y-53422322D03*
D12*
X240359823Y-23800000D03*
X238809823Y-23800000D03*
X107009823Y-23800000D03*
X105459823Y-23800000D03*
D11*
X8900000Y-40634823D03*
X8900000Y-39084823D03*
D13*
X188732322Y-18622322D03*
X188732322Y-15322322D03*
D12*
X47909823Y-23800000D03*
X46359823Y-23800000D03*
D13*
X207782322Y-18622322D03*
X207782322Y-15322322D03*
D11*
X135362500Y-97734823D03*
X135362500Y-96184823D03*
X70812500Y-40634823D03*
X70812500Y-39084823D03*
D23*
X105822323Y-88749899D03*
X104547323Y-88749899D03*
X105822323Y-90024899D03*
X104547323Y-90024899D03*
D24*
X102584823Y-85949899D03*
X102984823Y-85949899D03*
X103384823Y-85949899D03*
X103784823Y-85949899D03*
X104184823Y-85949899D03*
X104584823Y-85949899D03*
X104984823Y-85949899D03*
X105384823Y-85949899D03*
X105784823Y-85949899D03*
X106184823Y-85949899D03*
X106584823Y-85949899D03*
X106984823Y-85949899D03*
X107384823Y-85949899D03*
X107784823Y-85949899D03*
D25*
X108622323Y-86787399D03*
X108622323Y-87187399D03*
X108622323Y-87587399D03*
X108622323Y-87987399D03*
X108622323Y-88387399D03*
X108622323Y-88787399D03*
X108622323Y-89187399D03*
X108622323Y-89587399D03*
X108622323Y-89987399D03*
X108622323Y-90387399D03*
X108622323Y-90787399D03*
X108622323Y-91187399D03*
X108622323Y-91587399D03*
X108622323Y-91987399D03*
D24*
X107784823Y-92824899D03*
X107384823Y-92824899D03*
X106984823Y-92824899D03*
X106584823Y-92824899D03*
X106184823Y-92824899D03*
X105784823Y-92824899D03*
X105384823Y-92824899D03*
X104984823Y-92824899D03*
X104584823Y-92824899D03*
X104184823Y-92824899D03*
X103784823Y-92824899D03*
X103384823Y-92824899D03*
X102984823Y-92824899D03*
X102584823Y-92824899D03*
D25*
X101747323Y-91987399D03*
X101747323Y-91587399D03*
X101747323Y-91187399D03*
X101747323Y-90787399D03*
X101747323Y-90387399D03*
X101747323Y-89987399D03*
X101747323Y-89587399D03*
X101747323Y-89187399D03*
X101747323Y-88787399D03*
X101747323Y-88387399D03*
X101747323Y-87987399D03*
X101747323Y-87587399D03*
X101747323Y-87187399D03*
X101747323Y-86787399D03*
D16*
X178447323Y-59634823D03*
X178447323Y-58134823D03*
X172997323Y-59634823D03*
D17*
X172997322Y-58134822D03*
D13*
X222069822Y-56722322D03*
X222069822Y-53422322D03*
D16*
X197497323Y-59634823D03*
X197497323Y-58134823D03*
X192047323Y-59634823D03*
D17*
X192047322Y-58134822D03*
D18*
X72984823Y-39084823D03*
X72984823Y-40584823D03*
X78434823Y-39084823D03*
D19*
X78434822Y-40584822D03*
D10*
X130262323Y-51594823D03*
X143712323Y-49054823D03*
X20724823Y-13494823D03*
X34174823Y-10954823D03*
D13*
X50619822Y-56722322D03*
X50619822Y-53422322D03*
D12*
X64147323Y-61900000D03*
X62597323Y-61900000D03*
D10*
X201699823Y-32544823D03*
X215149823Y-30004823D03*
X218368573Y-89694823D03*
X231818573Y-87154823D03*
D26*
X94000000Y-82145000D03*
X94000000Y-83415000D03*
X94000000Y-84685000D03*
X94000000Y-85955000D03*
X86800000Y-85955000D03*
X86800000Y-84685000D03*
X86800000Y-83415000D03*
X86800000Y-82145000D03*
D18*
X11072323Y-39084823D03*
X11072323Y-40584823D03*
X16522323Y-39084823D03*
D19*
X16522322Y-40584822D03*
D13*
X74432322Y-18622322D03*
X74432322Y-15322322D03*
D12*
X45097323Y-61900000D03*
X43547323Y-61900000D03*
D11*
X204162500Y-40634823D03*
X204162500Y-39084823D03*
D16*
X87959823Y-21534823D03*
X87959823Y-20034823D03*
X82509823Y-21534823D03*
D17*
X82509822Y-20034822D03*
D11*
X147012500Y-40634823D03*
X147012500Y-39084823D03*
D13*
X245882322Y-18622322D03*
X245882322Y-15322322D03*
D16*
X102247323Y-59634823D03*
X102247323Y-58134823D03*
X96797323Y-59634823D03*
D17*
X96797322Y-58134822D03*
D10*
X44537323Y-70644823D03*
X57987323Y-68104823D03*
D16*
X202259823Y-21534823D03*
X202259823Y-20034823D03*
X196809823Y-21534823D03*
D17*
X196809822Y-20034822D03*
D10*
X30249823Y-32544823D03*
X43699823Y-30004823D03*
D11*
X218450000Y-78734823D03*
X218450000Y-77184823D03*
D16*
X259409823Y-97734823D03*
X259409823Y-96234823D03*
X253959823Y-97734823D03*
D17*
X253959822Y-96234822D03*
D12*
X235597323Y-61900000D03*
X234047323Y-61900000D03*
D16*
X266553573Y-59634823D03*
X266553573Y-58134823D03*
X261103573Y-59634823D03*
D17*
X261103572Y-58134822D03*
D16*
X18903573Y-59634823D03*
X18903573Y-58134823D03*
X13453573Y-59634823D03*
D17*
X13453572Y-58134822D03*
D10*
X123118573Y-89694823D03*
X136568573Y-87154823D03*
D16*
X164159823Y-21534823D03*
X164159823Y-20034823D03*
X158709823Y-21534823D03*
D17*
X158709822Y-20034822D03*
D10*
X268374823Y-89694823D03*
X281824823Y-87154823D03*
D13*
X93482322Y-18622322D03*
X93482322Y-15322322D03*
D27*
X144849999Y-92899999D03*
X151149999Y-92899999D03*
X144849999Y-89099999D03*
X151149999Y-89099999D03*
D10*
X173124823Y-13494823D03*
X186574823Y-10954823D03*
D13*
X43476072Y-94822322D03*
X43476072Y-91522322D03*
D16*
X204641073Y-97734823D03*
X204641073Y-96234823D03*
X199191073Y-97734823D03*
D17*
X199191072Y-96234822D03*
D28*
X118186815Y-83220641D03*
X119282831Y-84316657D03*
D10*
X206462323Y-51594823D03*
X219912323Y-49054823D03*
D11*
X84700000Y-82145000D03*
X84700000Y-80595000D03*
D13*
X17282322Y-18622322D03*
X17282322Y-15322322D03*
D18*
X206334823Y-39084823D03*
X206334823Y-40584823D03*
X211784823Y-39084823D03*
D19*
X211784822Y-40584822D03*
D10*
X87399823Y-32544823D03*
X100849823Y-30004823D03*
D16*
X235597323Y-59634823D03*
X235597323Y-58134823D03*
X230147323Y-59634823D03*
D17*
X230147322Y-58134822D03*
D13*
X255407322Y-37672322D03*
X255407322Y-34372322D03*
D12*
X98109823Y-92868649D03*
X96559823Y-92868649D03*
D13*
X103007322Y-37672322D03*
X103007322Y-34372322D03*
D11*
X161300000Y-78734823D03*
X161300000Y-77184823D03*
D18*
X87272323Y-77184823D03*
X87272323Y-78684823D03*
X92722323Y-77184823D03*
D19*
X92722322Y-78684822D03*
D29*
X116911599Y-86947506D03*
X115355964Y-85391871D03*
X116558045Y-84189790D03*
X118113680Y-85745425D03*
D10*
X158837323Y-70644823D03*
X172287323Y-68104823D03*
X192174823Y-13494823D03*
X205624823Y-10954823D03*
D13*
X279219822Y-37672322D03*
X279219822Y-34372322D03*
D12*
X159397323Y-61900000D03*
X157847323Y-61900000D03*
D16*
X49859823Y-21534823D03*
X49859823Y-20034823D03*
X44409823Y-21534823D03*
D17*
X44409822Y-20034822D03*
D11*
X85100000Y-78734823D03*
X85100000Y-77184823D03*
D13*
X198257322Y-37672322D03*
X198257322Y-34372322D03*
D18*
X220622323Y-77184823D03*
X220622323Y-78684823D03*
X226072323Y-77184823D03*
D19*
X226072322Y-78684822D03*
D10*
X106449823Y-32544823D03*
X119899823Y-30004823D03*
D11*
X223212500Y-40634823D03*
X223212500Y-39084823D03*
D13*
X122057322Y-37672322D03*
X122057322Y-34372322D03*
D11*
X127962500Y-40634823D03*
X127962500Y-39084823D03*
D10*
X230274823Y-13494823D03*
X243724823Y-10954823D03*
X163599823Y-32544823D03*
X177049823Y-30004823D03*
D22*
X109949999Y-64099999D03*
X113249999Y-64099999D03*
D10*
X268374823Y-70644823D03*
X281824823Y-68104823D03*
D18*
X34884823Y-39084823D03*
X34884823Y-40584823D03*
X40334823Y-39084823D03*
D19*
X40334822Y-40584822D03*
D16*
X268934823Y-21534823D03*
X268934823Y-20034823D03*
X263484823Y-21534823D03*
D17*
X263484822Y-20034822D03*
D13*
X138999999Y-94822322D03*
X138999999Y-91522322D03*
D10*
X139787323Y-70644823D03*
X153237323Y-68104823D03*
D30*
X114351460Y-86985286D03*
X115518186Y-88152012D03*
D11*
X63925000Y-97734823D03*
X63925000Y-96184823D03*
D16*
X14141073Y-97734823D03*
X14141073Y-96234823D03*
X8691073Y-97734823D03*
D17*
X8691072Y-96234822D03*
D12*
X297509823Y-23800000D03*
X295959823Y-23800000D03*
D13*
X193494822Y-75772322D03*
X193494822Y-72472322D03*
X236357322Y-37672322D03*
X236357322Y-34372322D03*
D31*
X89137500Y-97250000D03*
X89137500Y-98200000D03*
X89137500Y-99150000D03*
X86862500Y-99150000D03*
X86862500Y-97250000D03*
D16*
X37953573Y-97734823D03*
X37953573Y-96234823D03*
X32503573Y-97734823D03*
D17*
X32503572Y-96234822D03*
D12*
X126059823Y-23800000D03*
X124509823Y-23800000D03*
D16*
X45097323Y-59634823D03*
X45097323Y-58134823D03*
X39647323Y-59634823D03*
D17*
X39647322Y-58134822D03*
D11*
X32712500Y-40634823D03*
X32712500Y-39084823D03*
D13*
X83957322Y-37672322D03*
X83957322Y-34372322D03*
D10*
X63587323Y-70644823D03*
X77037323Y-68104823D03*
D13*
X131582322Y-18622322D03*
X131582322Y-15322322D03*
D18*
X106322323Y-77184823D03*
X106322323Y-78684823D03*
X111772323Y-77184823D03*
D19*
X111772322Y-78684822D03*
D22*
X255924822Y-82699999D03*
X259224822Y-82699999D03*
D12*
X102247323Y-61900000D03*
X100697323Y-61900000D03*
D11*
X89862500Y-40634823D03*
X89862500Y-39084823D03*
D13*
X79194822Y-75772322D03*
X79194822Y-72472322D03*
D32*
X96100000Y-80495000D03*
X96100000Y-82145000D03*
D15*
X100359823Y-95268649D03*
X101909823Y-95268649D03*
D13*
X67288572Y-94822322D03*
X67288572Y-91522322D03*
X274457322Y-18622322D03*
X274457322Y-15322322D03*
D12*
X121297323Y-61900000D03*
X119747323Y-61900000D03*
D11*
X242262500Y-40634823D03*
X242262500Y-39084823D03*
D10*
X92162323Y-51594823D03*
X105612323Y-49054823D03*
D18*
X125372323Y-77184823D03*
X125372323Y-78684823D03*
X130822323Y-77184823D03*
D19*
X130822322Y-78684822D03*
D11*
X289887500Y-40634823D03*
X289887500Y-39084823D03*
D10*
X8818573Y-51594823D03*
X22268573Y-49054823D03*
D13*
X155394822Y-75772322D03*
X155394822Y-72472322D03*
D12*
X145109823Y-23800000D03*
X143559823Y-23800000D03*
D10*
X225512323Y-51594823D03*
X238962323Y-49054823D03*
D11*
X51762500Y-40634823D03*
X51762500Y-39084823D03*
D13*
X283382322Y-18622322D03*
X283382322Y-15322322D03*
D18*
X68222323Y-77184823D03*
X68222323Y-78684823D03*
X73672323Y-77184823D03*
D19*
X73672322Y-78684822D03*
D15*
X113559823Y-91868649D03*
X115109823Y-91868649D03*
D10*
X220749823Y-32544823D03*
X234199823Y-30004823D03*
D13*
X60144822Y-75772322D03*
X60144822Y-72472322D03*
D10*
X287424823Y-32544823D03*
X300874823Y-30004823D03*
D13*
X141107322Y-37672322D03*
X141107322Y-34372322D03*
X203019822Y-56722322D03*
X203019822Y-53422322D03*
X19663572Y-94822322D03*
X19663572Y-91522322D03*
D11*
X166062500Y-40634823D03*
X166062500Y-39084823D03*
D13*
X150632322Y-18622322D03*
X150632322Y-15322322D03*
D10*
X263612323Y-32544823D03*
X277062323Y-30004823D03*
D33*
X39549998Y-65999999D03*
X37649999Y-65999999D03*
X38599999Y-63599999D03*
D10*
X287424823Y-13494823D03*
X300874823Y-10954823D03*
X125499823Y-32544823D03*
X138949823Y-30004823D03*
D11*
X142250000Y-78734823D03*
X142250000Y-77184823D03*
X185112500Y-40634823D03*
X185112500Y-39084823D03*
D12*
X216547323Y-61900000D03*
X214997323Y-61900000D03*
D18*
X246816073Y-77184823D03*
X246816073Y-78684823D03*
X252266073Y-77184823D03*
D19*
X252266072Y-78684822D03*
D13*
X136344822Y-75772322D03*
X136344822Y-72472322D03*
D10*
X68349823Y-32544823D03*
X81799823Y-30004823D03*
D13*
X126819822Y-56722322D03*
X126819822Y-53422322D03*
D16*
X183209823Y-21534823D03*
X183209823Y-20034823D03*
X177759823Y-21534823D03*
D17*
X177759822Y-20034822D03*
D10*
X35012323Y-51594823D03*
X48462323Y-49054823D03*
D12*
X297509823Y-61900000D03*
X295959823Y-61900000D03*
D16*
X107009823Y-21534823D03*
X107009823Y-20034823D03*
X101559823Y-21534823D03*
D17*
X101559822Y-20034822D03*
D18*
X144422323Y-77184823D03*
X144422323Y-78684823D03*
X149872323Y-77184823D03*
D19*
X149872322Y-78684822D03*
D13*
X272076072Y-56722322D03*
X272076072Y-53422322D03*
D22*
X108049999Y-64099999D03*
X104749999Y-64099999D03*
D18*
X49172323Y-77184823D03*
X49172323Y-78684823D03*
X54622323Y-77184823D03*
D19*
X54622322Y-78684822D03*
D18*
X292059823Y-77184823D03*
X292059823Y-78684823D03*
X297509823Y-77184823D03*
D19*
X297509822Y-78684822D03*
D10*
X249324823Y-89694823D03*
X262774823Y-87154823D03*
D34*
X52800000Y-21650000D03*
X52800000Y-22650000D03*
X52800000Y-23650000D03*
X52800000Y-24650000D03*
D35*
X56675000Y-20350000D03*
X56675000Y-25950000D03*
D10*
X58824823Y-13494823D03*
X72274823Y-10954823D03*
D31*
X29222500Y-60950000D03*
X29222500Y-61900000D03*
X29222500Y-62850000D03*
X26947500Y-62850000D03*
X26947500Y-61900000D03*
X26947500Y-60950000D03*
D12*
X178447323Y-61900000D03*
X176897323Y-61900000D03*
D18*
X168234823Y-39084823D03*
X168234823Y-40584823D03*
X173684823Y-39084823D03*
D19*
X173684822Y-40584822D03*
D13*
X257788572Y-75772322D03*
X257788572Y-72472322D03*
D11*
X244643750Y-78734823D03*
X244643750Y-77184823D03*
D36*
X93259823Y-93522323D03*
X91609823Y-93522323D03*
D18*
X292059823Y-39084823D03*
X292059823Y-40584823D03*
X297509823Y-39084823D03*
D19*
X297509822Y-40584822D03*
D10*
X1674823Y-13494823D03*
X15124823Y-10954823D03*
X120737323Y-70644823D03*
X134187323Y-68104823D03*
D16*
X30809823Y-21534823D03*
X30809823Y-20034823D03*
X25359823Y-21534823D03*
D17*
X25359822Y-20034822D03*
D10*
X51681073Y-89694823D03*
X65131073Y-87154823D03*
D13*
X210999999Y-94822322D03*
X210999999Y-91522322D03*
D37*
X24737500Y-61900000D03*
X22862500Y-61900000D03*
D10*
X101687323Y-70644823D03*
X115137323Y-68104823D03*
D18*
X130134823Y-39084823D03*
X130134823Y-40584823D03*
X135584823Y-39084823D03*
D19*
X135584822Y-40584822D03*
D12*
X83197323Y-61900000D03*
X81647323Y-61900000D03*
D10*
X258849823Y-13494823D03*
X272299823Y-10954823D03*
D13*
X64907322Y-37672322D03*
X64907322Y-34372322D03*
D12*
X268934823Y-23800000D03*
X267384823Y-23800000D03*
D10*
X111212323Y-51594823D03*
X124662323Y-49054823D03*
D13*
X283982322Y-75772322D03*
X283982322Y-72472322D03*
D10*
X82637323Y-70644823D03*
X96087323Y-68104823D03*
D16*
X83197323Y-59634823D03*
X83197323Y-58134823D03*
X77747323Y-59634823D03*
D17*
X77747322Y-58134822D03*
D16*
X126059823Y-21534823D03*
X126059823Y-20034823D03*
X120609823Y-21534823D03*
D17*
X120609822Y-20034822D03*
D10*
X149312323Y-51594823D03*
X162762323Y-49054823D03*
D12*
X68909823Y-23800000D03*
X67359823Y-23800000D03*
D18*
X187284823Y-39084823D03*
X187284823Y-40584823D03*
X192734823Y-39084823D03*
D19*
X192734822Y-40584822D03*
D18*
X92034823Y-39084823D03*
X92034823Y-40584823D03*
X97484823Y-39084823D03*
D19*
X97484822Y-40584822D03*
D13*
X22044822Y-37672322D03*
X22044822Y-34372322D03*
D10*
X6437323Y-32544823D03*
X19887323Y-30004823D03*
D18*
X18216073Y-77184823D03*
X18216073Y-78684823D03*
X23666073Y-77184823D03*
D19*
X23666072Y-78684822D03*
D16*
X121297323Y-59634823D03*
X121297323Y-58134823D03*
X115847323Y-59634823D03*
D17*
X115847322Y-58134822D03*
D11*
X299668750Y-97734823D03*
X299668750Y-96184823D03*
D12*
X98109823Y-94568649D03*
X96559823Y-94568649D03*
D15*
X113559823Y-90168649D03*
X115109823Y-90168649D03*
D12*
X197497323Y-61900000D03*
X195947323Y-61900000D03*
D11*
X108834823Y-82300000D03*
X108834823Y-80750000D03*
D16*
X159397323Y-59634823D03*
X159397323Y-58134823D03*
X153947323Y-59634823D03*
D17*
X153947322Y-58134822D03*
D16*
X64147323Y-59634823D03*
X64147323Y-58134823D03*
X58697323Y-59634823D03*
D17*
X58697322Y-58134822D03*
D13*
X36332322Y-18622322D03*
X36332322Y-15322322D03*
D18*
X53934823Y-39084823D03*
X53934823Y-40584823D03*
X59384823Y-39084823D03*
D19*
X59384822Y-40584822D03*
D13*
X29188572Y-75772322D03*
X29188572Y-72472322D03*
X217307322Y-37672322D03*
X217307322Y-34372322D03*
X183969822Y-56722322D03*
X183969822Y-53422322D03*
D16*
X68909823Y-21534823D03*
X68909823Y-20034823D03*
X63459823Y-21534823D03*
D17*
X63459822Y-20034822D03*
D18*
X268247323Y-39084823D03*
X268247323Y-40584823D03*
X273697323Y-39084823D03*
D19*
X273697322Y-40584822D03*
D10*
X168362323Y-51594823D03*
X181812323Y-49054823D03*
D16*
X297509823Y-59634823D03*
X297509823Y-58134823D03*
X292059823Y-59634823D03*
D17*
X292059822Y-58134822D03*
D13*
X45857322Y-37672322D03*
X45857322Y-34372322D03*
X179207322Y-37672322D03*
X179207322Y-34372322D03*
D16*
X140347323Y-59634823D03*
X140347323Y-58134823D03*
X134897323Y-59634823D03*
D17*
X134897322Y-58134822D03*
D10*
X287424823Y-89694823D03*
X300874823Y-87154823D03*
X182649823Y-32544823D03*
X196099823Y-30004823D03*
D16*
X240359823Y-21534823D03*
X240359823Y-20034823D03*
X234909823Y-21534823D03*
D17*
X234909822Y-20034822D03*
D12*
X266553573Y-61900000D03*
X265003573Y-61900000D03*
D11*
X266075000Y-40634823D03*
X266075000Y-39084823D03*
D16*
X216547323Y-59634823D03*
X216547323Y-58134823D03*
X211097323Y-59634823D03*
D17*
X211097322Y-58134822D03*
D11*
X47000000Y-78734823D03*
X47000000Y-77184823D03*
D13*
X4826072Y-56722322D03*
X4826072Y-53422322D03*
D10*
X27868573Y-89694823D03*
X41318573Y-87154823D03*
D16*
X297509823Y-21534823D03*
X297509823Y-20034823D03*
X292059823Y-21534823D03*
D17*
X292059822Y-20034822D03*
D10*
X242181073Y-70644823D03*
X255631073Y-68104823D03*
D22*
X294024822Y-82699999D03*
X297324822Y-82699999D03*
D36*
X93259823Y-91922323D03*
X91609823Y-91922323D03*
D13*
X226832322Y-18622322D03*
X226832322Y-15322322D03*
X164919822Y-56722322D03*
X164919822Y-53422322D03*
D11*
X66050000Y-78734823D03*
X66050000Y-77184823D03*
X180350000Y-78734823D03*
X180350000Y-77184823D03*
X206800000Y-97734823D03*
X206800000Y-96184823D03*
D18*
X149184823Y-39084823D03*
X149184823Y-40584823D03*
X154634823Y-39084823D03*
D19*
X154634822Y-40584822D03*
D12*
X11759823Y-23800000D03*
X10209823Y-23800000D03*
X97109823Y-88568649D03*
X95559823Y-88568649D03*
X140347323Y-61900000D03*
X138797323Y-61900000D03*
D11*
X101800000Y-84075000D03*
X101800000Y-82525000D03*
X280618750Y-97734823D03*
X280618750Y-96184823D03*
D38*
X117709823Y-91622323D03*
X119359823Y-91622323D03*
D11*
X108912500Y-40634823D03*
X108912500Y-39084823D03*
D16*
X297509823Y-97734823D03*
X297509823Y-96234823D03*
X292059823Y-97734823D03*
D17*
X292059822Y-96234822D03*
D11*
X16043750Y-78734823D03*
X16043750Y-77184823D03*
D10*
X49299823Y-32544823D03*
X62749823Y-30004823D03*
D13*
X169682322Y-18622322D03*
X169682322Y-15322322D03*
X174444822Y-75772322D03*
X174444822Y-72472322D03*
D11*
X40112500Y-97734823D03*
X40112500Y-96184823D03*
D13*
X233976072Y-94822322D03*
X233976072Y-91522322D03*
D12*
X18903573Y-61900000D03*
X17353573Y-61900000D03*
D10*
X77874823Y-13494823D03*
X91324823Y-10954823D03*
D39*
X118386815Y-88316657D03*
X119482831Y-87220641D03*
D40*
X301600202Y-101272306D02*
G75*
G03*
X303822706Y-99049835I-2J2222506D01*
G01*
X40600000Y-103272338D02*
X149161353Y-103272338D01*
X98847996Y-7000000D02*
X128702000Y-7000000D01*
X237074986Y-83399998D02*
X237074986Y-99022338D01*
X136948002Y-7000004D02*
G75*
G03*
X135618000Y-7806000I398J-1500996D01*
G01*
X304322700Y-1000000D02*
G75*
G03*
X303322706Y0I-1000000J0D01*
G01*
X289347996Y-7000000D02*
X301600202Y-7000000D01*
X303322706Y-108272306D02*
G75*
G03*
X304322706Y-107272338I-6J1000006D01*
G01*
X34600000Y-5000000D02*
X1000000Y-5000000D01*
X34600000Y-101272338D02*
X22647999Y-101272338D01*
X15731999Y-7806000D02*
G75*
G03*
X14401997Y-7000001I-1328549J-691940D01*
G01*
X282432022Y-7805994D02*
G75*
G03*
X281101994Y-7000001I-1328522J-691906D01*
G01*
X209664997Y-101272317D02*
G75*
G03*
X210994999Y-100393999I-58097J1534117D01*
G01*
X278700001Y-101272338D02*
X281102009Y-101272338D01*
X303322706Y0D02*
X1000000Y0D01*
X130032020Y-7805991D02*
G75*
G03*
X128702000Y-7000001I-1328520J-691909D01*
G01*
X288017999Y-100394004D02*
G75*
G03*
X289348011Y-101272338I1390101J658804D01*
G01*
X0Y-107272338D02*
X0Y-104272338D01*
X289347996Y-6999959D02*
G75*
G03*
X288018010Y-7806000I404J-1500941D01*
G01*
X234824986Y-101272286D02*
G75*
G03*
X237074986Y-99022338I14J2249986D01*
G01*
X21317997Y-100393999D02*
G75*
G03*
X15731999Y-100393999I-2792999J-1455492D01*
G01*
X217911000Y-101272338D02*
X234824986Y-101272338D01*
X155161353Y-103272338D02*
X272700001Y-103272338D01*
X97517994Y-100393999D02*
G75*
G03*
X91931996Y-100393999I-2792999J-1455492D01*
G01*
X22647999Y-7000002D02*
G75*
G03*
X21317998Y-7806000I401J-1500998D01*
G01*
X192767994Y-100393999D02*
G75*
G03*
X187181996Y-100393999I-2792999J-1455492D01*
G01*
X0Y-99049833D02*
G75*
G03*
X2222503Y-101272338I2222503J-2D01*
G01*
X155161353Y-7000000D02*
X185851994Y-7000000D01*
X281102009Y-101272327D02*
G75*
G03*
X282432010Y-100393999I-58109J1534127D01*
G01*
X136948002Y-7000000D02*
X149161353Y-7000000D01*
X1000000Y0D02*
G75*
G03*
X0Y-1000000I0J-1000000D01*
G01*
X303322706Y-5000000D02*
X269722706Y-5000000D01*
X14401997Y-101272338D02*
X2222503Y-101272338D01*
X304322662Y-104272338D02*
G75*
G03*
X303322706Y-103272338I-999962J38D01*
G01*
X194097996Y-7000018D02*
G75*
G03*
X192767994Y-7806000I-1496J-1497882D01*
G01*
X187182019Y-7805988D02*
G75*
G03*
X185851994Y-7000001I-1328519J-691912D01*
G01*
X21317997Y-100393999D02*
G75*
G03*
X22647999Y-101272337I1390103J658799D01*
G01*
X268967991Y-100393999D02*
G75*
G03*
X263381993Y-100393999I-2792999J-1455492D01*
G01*
X54655994Y-100393999D02*
G75*
G03*
X49069996Y-100393999I-2792999J-1455492D01*
G01*
X98847996Y-7000018D02*
G75*
G03*
X97517994Y-7806000I-1496J-1497882D01*
G01*
X247650002Y-83399998D02*
G75*
G03*
X246399998Y-82149998I-1249602J398D01*
G01*
X304322706Y-1000000D02*
X304322706Y-4000000D01*
X304322706Y-104272338D02*
X304322706Y-107272338D01*
X303322706Y-5000006D02*
G75*
G03*
X304322706Y-4000000I-6J1000006D01*
G01*
X149161353Y-101272338D02*
X98847996Y-101272338D01*
X0Y-99049833D02*
X0Y-9222503D01*
X14401997Y-101272337D02*
G75*
G03*
X15731998Y-100393999I-58087J1534087D01*
G01*
X1000000Y-103272338D02*
G75*
G03*
X0Y-104272338I-1J-999999D01*
G01*
X303822706Y-99049835D02*
X303822706Y-9222505D01*
X2Y-107272338D02*
G75*
G03*
X1000000Y-108272338I999998J-2D01*
G01*
X262051990Y-101272312D02*
G75*
G03*
X263381993Y-100393999I-58090J1534112D01*
G01*
X0Y-4000000D02*
G75*
G03*
X1000000Y-5000000I1000000J0D01*
G01*
X278700001Y-103272338D02*
X303322706Y-103272338D01*
X249899998Y-101272338D02*
X262051991Y-101272338D01*
X15731999Y-7806000D02*
G75*
G03*
X21317997Y-7806000I2792999J1455492D01*
G01*
X40600000Y-7000000D02*
X90602001Y-7000000D01*
X247649962Y-99022338D02*
G75*
G03*
X249899998Y-101272338I2250038J38D01*
G01*
X246399998Y-82149998D02*
X238324986Y-82149998D01*
X47739993Y-101272314D02*
G75*
G03*
X49069996Y-100393999I-58093J1534114D01*
G01*
X282432011Y-7806000D02*
G75*
G03*
X288018009Y-7806000I2792999J1455492D01*
G01*
X1000000Y-108272338D02*
X303322706Y-108272338D01*
X40600000Y-101272338D02*
X47739994Y-101272338D01*
X270297993Y-101272338D02*
X272700001Y-101272338D01*
X2222503Y-7000000D02*
G75*
G03*
X0Y-9222503I0J-2222503D01*
G01*
X209664998Y-101272338D02*
X194097996Y-101272338D01*
X247649998Y-99022338D02*
X247649998Y-83399998D01*
X303822700Y-9222505D02*
G75*
G03*
X301600202Y-7000000I-2222500J5D01*
G01*
X149161353Y-5000000D02*
X40600000Y-5000000D01*
X187181996Y-7805999D02*
G75*
G03*
X192767994Y-7806000I2792999J1455492D01*
G01*
X91932019Y-7805988D02*
G75*
G03*
X90602001Y-7000001I-1328519J-691912D01*
G01*
X90601994Y-101272338D02*
X55985996Y-101272338D01*
X155161353Y-5000000D02*
X263722706Y-5000000D01*
X91931996Y-7805999D02*
G75*
G03*
X97517994Y-7806000I2792999J1455492D01*
G01*
X0Y-4000000D02*
X0Y-1000000D01*
X97517996Y-100393998D02*
G75*
G03*
X98847996Y-101272337I1390104J658798D01*
G01*
X155161353Y-101272338D02*
X185851994Y-101272338D01*
X268967996Y-100393997D02*
G75*
G03*
X270297993Y-101272337I1390104J658797D01*
G01*
X269722706Y-7000000D02*
X281101994Y-7000000D01*
X54655996Y-100393998D02*
G75*
G03*
X55985996Y-101272337I1390104J658798D01*
G01*
X216580998Y-100393999D02*
G75*
G03*
X210995000Y-100393999I-2792999J-1455492D01*
G01*
X194097996Y-7000000D02*
X263722706Y-7000000D01*
X192767996Y-100393998D02*
G75*
G03*
X194097996Y-101272337I1390104J658798D01*
G01*
X2222503Y-7000000D02*
X14401997Y-7000000D01*
X289348011Y-101272338D02*
X301600202Y-101272338D01*
X34600000Y-7000000D02*
X22647999Y-7000000D01*
X90601993Y-101272314D02*
G75*
G03*
X91931996Y-100393999I-58093J1534114D01*
G01*
X130032002Y-7806000D02*
G75*
G03*
X135618000Y-7806000I2792999J1455492D01*
G01*
X238324986Y-82149986D02*
G75*
G03*
X237074986Y-83399998I-386J-1249614D01*
G01*
X1000000Y-103272338D02*
X34600000Y-103272338D01*
X288018009Y-100393999D02*
G75*
G03*
X282432011Y-100393999I-2792999J-1455492D01*
G01*
X216580997Y-100394000D02*
G75*
G03*
X217911000Y-101272338I1390103J658800D01*
G01*
X185851993Y-101272314D02*
G75*
G03*
X187181996Y-100393999I-58093J1534114D01*
G01*
X263722706Y-7000000D02*
G75*
G03*
X263722706Y-5000000I0J1000000D01*
G01*
X269722706Y-5000000D02*
G75*
G03*
X269722706Y-7000000I0J-1000000D01*
G01*
X149161353Y-7000000D02*
G75*
G03*
X149161353Y-5000000I0J1000000D01*
G01*
X155161353Y-5000000D02*
G75*
G03*
X155161353Y-7000000I0J-1000000D01*
G01*
X40600000Y-101272338D02*
G75*
G03*
X40600000Y-103272338I0J-1000000D01*
G01*
X34600000Y-103272338D02*
G75*
G03*
X34600000Y-101272338I0J1000000D01*
G01*
X278700001Y-101272338D02*
G75*
G03*
X278700001Y-103272338I0J-1000000D01*
G01*
X272700001Y-103272338D02*
G75*
G03*
X272700001Y-101272338I0J1000000D01*
G01*
X155161353Y-101272338D02*
G75*
G03*
X155161353Y-103272338I0J-1000000D01*
G01*
X149161353Y-103272338D02*
G75*
G03*
X149161353Y-101272338I0J1000000D01*
G01*
X34600000Y-7000000D02*
G75*
G03*
X34600000Y-5000000I0J1000000D01*
G01*
X40600000Y-5000000D02*
G75*
G03*
X40600000Y-7000000I0J-1000000D01*
G01*
X128778574Y-97687666D02*
X128778574Y-96281982D01*
X129684121Y-95484824D02*
X131273025Y-95484824D01*
X131273025Y-98484823D02*
X129684120Y-98484823D01*
X132178572Y-96281982D02*
X132178572Y-97687666D01*
X128778573Y-96281982D02*
G75*
G03*
X128729088Y-96065104I-499989J2D01*
G01*
X129431862Y-95416525D02*
G75*
G03*
X128729090Y-96065105I-252259J-431700D01*
G01*
X128729089Y-97904544D02*
G75*
G03*
X128778574Y-97687667I-450505J216876D01*
G01*
X128729089Y-97904544D02*
G75*
G03*
X129431862Y-98553122I450514J-216878D01*
G01*
X129684120Y-98484823D02*
G75*
G03*
X129431862Y-98553122I3J-500009D01*
G01*
X129431862Y-95416525D02*
G75*
G03*
X129684121Y-95484824I252261J431710D01*
G01*
X131525284Y-98553123D02*
G75*
G03*
X131273026Y-98484824I-252261J-431710D01*
G01*
X131273025Y-95484823D02*
G75*
G03*
X131525283Y-95416525I-2J500010D01*
G01*
X132228053Y-96065102D02*
G75*
G03*
X131525284Y-95416527I-450510J216879D01*
G01*
X132228057Y-96065104D02*
G75*
G03*
X132178572Y-96281981I450866J-216959D01*
G01*
X131525284Y-98553123D02*
G75*
G03*
X132228057Y-97904544I252259J431700D01*
G01*
X132178584Y-97687666D02*
G75*
G03*
X132228058Y-97904544I500289J43D01*
G01*
X7334824Y-21487666D02*
X7334824Y-20081982D01*
X8240371Y-19284824D02*
X9829275Y-19284824D01*
X9829275Y-22284823D02*
X8240370Y-22284823D01*
X10734822Y-20081982D02*
X10734822Y-21487666D01*
X7334823Y-20081982D02*
G75*
G03*
X7285338Y-19865104I-499989J2D01*
G01*
X7988112Y-19216525D02*
G75*
G03*
X7285340Y-19865105I-252259J-431700D01*
G01*
X7285339Y-21704544D02*
G75*
G03*
X7334824Y-21487667I-450505J216876D01*
G01*
X7285339Y-21704544D02*
G75*
G03*
X7988112Y-22353122I450514J-216878D01*
G01*
X8240370Y-22284823D02*
G75*
G03*
X7988112Y-22353122I3J-500009D01*
G01*
X7988112Y-19216525D02*
G75*
G03*
X8240371Y-19284824I252261J431710D01*
G01*
X10081534Y-22353123D02*
G75*
G03*
X9829276Y-22284824I-252261J-431710D01*
G01*
X9829275Y-19284823D02*
G75*
G03*
X10081533Y-19216525I-2J500010D01*
G01*
X10784303Y-19865102D02*
G75*
G03*
X10081534Y-19216527I-450510J216879D01*
G01*
X10784307Y-19865104D02*
G75*
G03*
X10734822Y-20081981I450866J-216959D01*
G01*
X10081534Y-22353123D02*
G75*
G03*
X10784307Y-21704544I252259J431700D01*
G01*
X10734834Y-21487666D02*
G75*
G03*
X10784308Y-21704544I500289J43D01*
G01*
X216884824Y-21487666D02*
X216884824Y-20081982D01*
X217790371Y-19284824D02*
X219379275Y-19284824D01*
X219379275Y-22284823D02*
X217790370Y-22284823D01*
X220284822Y-20081982D02*
X220284822Y-21487666D01*
X216884823Y-20081982D02*
G75*
G03*
X216835338Y-19865104I-499989J2D01*
G01*
X217538112Y-19216525D02*
G75*
G03*
X216835340Y-19865105I-252259J-431700D01*
G01*
X216835339Y-21704544D02*
G75*
G03*
X216884824Y-21487667I-450505J216876D01*
G01*
X216835339Y-21704544D02*
G75*
G03*
X217538112Y-22353122I450514J-216878D01*
G01*
X217790370Y-22284823D02*
G75*
G03*
X217538112Y-22353122I3J-500009D01*
G01*
X217538112Y-19216525D02*
G75*
G03*
X217790371Y-19284824I252261J431710D01*
G01*
X219631534Y-22353123D02*
G75*
G03*
X219379276Y-22284824I-252261J-431710D01*
G01*
X219379275Y-19284823D02*
G75*
G03*
X219631533Y-19216525I-2J500010D01*
G01*
X220334303Y-19865102D02*
G75*
G03*
X219631534Y-19216527I-450510J216879D01*
G01*
X220334307Y-19865104D02*
G75*
G03*
X220284822Y-20081981I450866J-216959D01*
G01*
X219631534Y-22353123D02*
G75*
G03*
X220334307Y-21704544I252259J431700D01*
G01*
X220284834Y-21487666D02*
G75*
G03*
X220334308Y-21704544I500289J43D01*
G01*
X248859822Y-39131980D02*
X248859822Y-40537664D01*
X247954275Y-41334822D02*
X246365371Y-41334822D01*
X246365371Y-38334823D02*
X247954276Y-38334823D01*
X245459824Y-40537664D02*
X245459824Y-39131980D01*
X248859823Y-40537664D02*
G75*
G03*
X248909308Y-40754542I499989J-2D01*
G01*
X248206534Y-41403121D02*
G75*
G03*
X248909306Y-40754541I252259J431700D01*
G01*
X248909307Y-38915102D02*
G75*
G03*
X248859822Y-39131979I450505J-216876D01*
G01*
X248909307Y-38915102D02*
G75*
G03*
X248206534Y-38266524I-450514J216878D01*
G01*
X247954276Y-38334823D02*
G75*
G03*
X248206534Y-38266524I-3J500009D01*
G01*
X248206534Y-41403121D02*
G75*
G03*
X247954275Y-41334822I-252261J-431710D01*
G01*
X246113112Y-38266523D02*
G75*
G03*
X246365370Y-38334822I252261J431710D01*
G01*
X246365371Y-41334823D02*
G75*
G03*
X246113113Y-41403121I2J-500010D01*
G01*
X245410343Y-40754544D02*
G75*
G03*
X246113112Y-41403119I450510J-216879D01*
G01*
X245410339Y-40754542D02*
G75*
G03*
X245459824Y-40537665I-450866J216959D01*
G01*
X246113112Y-38266523D02*
G75*
G03*
X245410339Y-38915102I-252259J-431700D01*
G01*
X245459812Y-39131980D02*
G75*
G03*
X245410338Y-38915102I-500289J-43D01*
G01*
X229809822Y-39131980D02*
X229809822Y-40537664D01*
X228904275Y-41334822D02*
X227315371Y-41334822D01*
X227315371Y-38334823D02*
X228904276Y-38334823D01*
X226409824Y-40537664D02*
X226409824Y-39131980D01*
X229809823Y-40537664D02*
G75*
G03*
X229859308Y-40754542I499989J-2D01*
G01*
X229156534Y-41403121D02*
G75*
G03*
X229859306Y-40754541I252259J431700D01*
G01*
X229859307Y-38915102D02*
G75*
G03*
X229809822Y-39131979I450505J-216876D01*
G01*
X229859307Y-38915102D02*
G75*
G03*
X229156534Y-38266524I-450514J216878D01*
G01*
X228904276Y-38334823D02*
G75*
G03*
X229156534Y-38266524I-3J500009D01*
G01*
X229156534Y-41403121D02*
G75*
G03*
X228904275Y-41334822I-252261J-431710D01*
G01*
X227063112Y-38266523D02*
G75*
G03*
X227315370Y-38334822I252261J431710D01*
G01*
X227315371Y-41334823D02*
G75*
G03*
X227063113Y-41403121I2J-500010D01*
G01*
X226360343Y-40754544D02*
G75*
G03*
X227063112Y-41403119I450510J-216879D01*
G01*
X226360339Y-40754542D02*
G75*
G03*
X226409824Y-40537665I-450866J216959D01*
G01*
X227063112Y-38266523D02*
G75*
G03*
X226360339Y-38915102I-252259J-431700D01*
G01*
X226409812Y-39131980D02*
G75*
G03*
X226360338Y-38915102I-500289J-43D01*
G01*
X224028574Y-97687666D02*
X224028574Y-96281982D01*
X224934121Y-95484824D02*
X226523025Y-95484824D01*
X226523025Y-98484823D02*
X224934120Y-98484823D01*
X227428572Y-96281982D02*
X227428572Y-97687666D01*
X224028573Y-96281982D02*
G75*
G03*
X223979088Y-96065104I-499989J2D01*
G01*
X224681862Y-95416525D02*
G75*
G03*
X223979090Y-96065105I-252259J-431700D01*
G01*
X223979089Y-97904544D02*
G75*
G03*
X224028574Y-97687667I-450505J216876D01*
G01*
X223979089Y-97904544D02*
G75*
G03*
X224681862Y-98553122I450514J-216878D01*
G01*
X224934120Y-98484823D02*
G75*
G03*
X224681862Y-98553122I3J-500009D01*
G01*
X224681862Y-95416525D02*
G75*
G03*
X224934121Y-95484824I252261J431710D01*
G01*
X226775284Y-98553123D02*
G75*
G03*
X226523026Y-98484824I-252261J-431710D01*
G01*
X226523025Y-95484823D02*
G75*
G03*
X226775283Y-95416525I-2J500010D01*
G01*
X227478053Y-96065102D02*
G75*
G03*
X226775284Y-95416527I-450510J216879D01*
G01*
X227478057Y-96065104D02*
G75*
G03*
X227428572Y-96281981I450866J-216959D01*
G01*
X226775284Y-98553123D02*
G75*
G03*
X227478057Y-97904544I252259J431700D01*
G01*
X227428584Y-97687666D02*
G75*
G03*
X227478058Y-97904544I500289J43D01*
G01*
X167897322Y-77231980D02*
X167897322Y-78637664D01*
X166991775Y-79434822D02*
X165402871Y-79434822D01*
X165402871Y-76434823D02*
X166991776Y-76434823D01*
X164497324Y-78637664D02*
X164497324Y-77231980D01*
X167897323Y-78637664D02*
G75*
G03*
X167946808Y-78854542I499989J-2D01*
G01*
X167244034Y-79503121D02*
G75*
G03*
X167946806Y-78854541I252259J431700D01*
G01*
X167946807Y-77015102D02*
G75*
G03*
X167897322Y-77231979I450505J-216876D01*
G01*
X167946807Y-77015102D02*
G75*
G03*
X167244034Y-76366524I-450514J216878D01*
G01*
X166991776Y-76434823D02*
G75*
G03*
X167244034Y-76366524I-3J500009D01*
G01*
X167244034Y-79503121D02*
G75*
G03*
X166991775Y-79434822I-252261J-431710D01*
G01*
X165150612Y-76366523D02*
G75*
G03*
X165402870Y-76434822I252261J431710D01*
G01*
X165402871Y-79434823D02*
G75*
G03*
X165150613Y-79503121I2J-500010D01*
G01*
X164447843Y-78854544D02*
G75*
G03*
X165150612Y-79503119I450510J-216879D01*
G01*
X164447839Y-78854542D02*
G75*
G03*
X164497324Y-78637665I-450866J216959D01*
G01*
X165150612Y-76366523D02*
G75*
G03*
X164447839Y-77015102I-252259J-431700D01*
G01*
X164497312Y-77231980D02*
G75*
G03*
X164447838Y-77015102I-500289J-43D01*
G01*
X57341074Y-97687666D02*
X57341074Y-96281982D01*
X58246621Y-95484824D02*
X59835525Y-95484824D01*
X59835525Y-98484823D02*
X58246620Y-98484823D01*
X60741072Y-96281982D02*
X60741072Y-97687666D01*
X57341073Y-96281982D02*
G75*
G03*
X57291588Y-96065104I-499989J2D01*
G01*
X57994362Y-95416525D02*
G75*
G03*
X57291590Y-96065105I-252259J-431700D01*
G01*
X57291589Y-97904544D02*
G75*
G03*
X57341074Y-97687667I-450505J216876D01*
G01*
X57291589Y-97904544D02*
G75*
G03*
X57994362Y-98553122I450514J-216878D01*
G01*
X58246620Y-98484823D02*
G75*
G03*
X57994362Y-98553122I3J-500009D01*
G01*
X57994362Y-95416525D02*
G75*
G03*
X58246621Y-95484824I252261J431710D01*
G01*
X60087784Y-98553123D02*
G75*
G03*
X59835526Y-98484824I-252261J-431710D01*
G01*
X59835525Y-95484823D02*
G75*
G03*
X60087783Y-95416525I-2J500010D01*
G01*
X60790553Y-96065102D02*
G75*
G03*
X60087784Y-95416527I-450510J216879D01*
G01*
X60790557Y-96065104D02*
G75*
G03*
X60741072Y-96281981I450866J-216959D01*
G01*
X60087784Y-98553123D02*
G75*
G03*
X60790557Y-97904544I252259J431700D01*
G01*
X60741084Y-97687666D02*
G75*
G03*
X60790558Y-97904544I500289J43D01*
G01*
X140684824Y-21487666D02*
X140684824Y-20081982D01*
X141590371Y-19284824D02*
X143179275Y-19284824D01*
X143179275Y-22284823D02*
X141590370Y-22284823D01*
X144084822Y-20081982D02*
X144084822Y-21487666D01*
X140684823Y-20081982D02*
G75*
G03*
X140635338Y-19865104I-499989J2D01*
G01*
X141338112Y-19216525D02*
G75*
G03*
X140635340Y-19865105I-252259J-431700D01*
G01*
X140635339Y-21704544D02*
G75*
G03*
X140684824Y-21487667I-450505J216876D01*
G01*
X140635339Y-21704544D02*
G75*
G03*
X141338112Y-22353122I450514J-216878D01*
G01*
X141590370Y-22284823D02*
G75*
G03*
X141338112Y-22353122I3J-500009D01*
G01*
X141338112Y-19216525D02*
G75*
G03*
X141590371Y-19284824I252261J431710D01*
G01*
X143431534Y-22353123D02*
G75*
G03*
X143179276Y-22284824I-252261J-431710D01*
G01*
X143179275Y-19284823D02*
G75*
G03*
X143431533Y-19216525I-2J500010D01*
G01*
X144134303Y-19865102D02*
G75*
G03*
X143431534Y-19216527I-450510J216879D01*
G01*
X144134307Y-19865104D02*
G75*
G03*
X144084822Y-20081981I450866J-216959D01*
G01*
X143431534Y-22353123D02*
G75*
G03*
X144134307Y-21704544I252259J431700D01*
G01*
X144084834Y-21487666D02*
G75*
G03*
X144134308Y-21704544I500289J43D01*
G01*
X205997322Y-77231980D02*
X205997322Y-78637664D01*
X205091775Y-79434822D02*
X203502871Y-79434822D01*
X203502871Y-76434823D02*
X205091776Y-76434823D01*
X202597324Y-78637664D02*
X202597324Y-77231980D01*
X205997323Y-78637664D02*
G75*
G03*
X206046808Y-78854542I499989J-2D01*
G01*
X205344034Y-79503121D02*
G75*
G03*
X206046806Y-78854541I252259J431700D01*
G01*
X206046807Y-77015102D02*
G75*
G03*
X205997322Y-77231979I450505J-216876D01*
G01*
X206046807Y-77015102D02*
G75*
G03*
X205344034Y-76366524I-450514J216878D01*
G01*
X205091776Y-76434823D02*
G75*
G03*
X205344034Y-76366524I-3J500009D01*
G01*
X205344034Y-79503121D02*
G75*
G03*
X205091775Y-79434822I-252261J-431710D01*
G01*
X203250612Y-76366523D02*
G75*
G03*
X203502870Y-76434822I252261J431710D01*
G01*
X203502871Y-79434823D02*
G75*
G03*
X203250613Y-79503121I2J-500010D01*
G01*
X202547843Y-78854544D02*
G75*
G03*
X203250612Y-79503119I450510J-216879D01*
G01*
X202547839Y-78854542D02*
G75*
G03*
X202597324Y-78637665I-450866J216959D01*
G01*
X203250612Y-76366523D02*
G75*
G03*
X202547839Y-77015102I-252259J-431700D01*
G01*
X202597312Y-77231980D02*
G75*
G03*
X202547838Y-77015102I-500289J-43D01*
G01*
X186947322Y-77231980D02*
X186947322Y-78637664D01*
X186041775Y-79434822D02*
X184452871Y-79434822D01*
X184452871Y-76434823D02*
X186041776Y-76434823D01*
X183547324Y-78637664D02*
X183547324Y-77231980D01*
X186947323Y-78637664D02*
G75*
G03*
X186996808Y-78854542I499989J-2D01*
G01*
X186294034Y-79503121D02*
G75*
G03*
X186996806Y-78854541I252259J431700D01*
G01*
X186996807Y-77015102D02*
G75*
G03*
X186947322Y-77231979I450505J-216876D01*
G01*
X186996807Y-77015102D02*
G75*
G03*
X186294034Y-76366524I-450514J216878D01*
G01*
X186041776Y-76434823D02*
G75*
G03*
X186294034Y-76366524I-3J500009D01*
G01*
X186294034Y-79503121D02*
G75*
G03*
X186041775Y-79434822I-252261J-431710D01*
G01*
X184200612Y-76366523D02*
G75*
G03*
X184452870Y-76434822I252261J431710D01*
G01*
X184452871Y-79434823D02*
G75*
G03*
X184200613Y-79503121I2J-500010D01*
G01*
X183497843Y-78854544D02*
G75*
G03*
X184200612Y-79503119I450510J-216879D01*
G01*
X183497839Y-78854542D02*
G75*
G03*
X183547324Y-78637665I-450866J216959D01*
G01*
X184200612Y-76366523D02*
G75*
G03*
X183497839Y-77015102I-252259J-431700D01*
G01*
X183547312Y-77231980D02*
G75*
G03*
X183497838Y-77015102I-500289J-43D01*
G01*
X274034824Y-97687666D02*
X274034824Y-96281982D01*
X274940371Y-95484824D02*
X276529275Y-95484824D01*
X276529275Y-98484823D02*
X274940370Y-98484823D01*
X277434822Y-96281982D02*
X277434822Y-97687666D01*
X274034823Y-96281982D02*
G75*
G03*
X273985338Y-96065104I-499989J2D01*
G01*
X274688112Y-95416525D02*
G75*
G03*
X273985340Y-96065105I-252259J-431700D01*
G01*
X273985339Y-97904544D02*
G75*
G03*
X274034824Y-97687667I-450505J216876D01*
G01*
X273985339Y-97904544D02*
G75*
G03*
X274688112Y-98553122I450514J-216878D01*
G01*
X274940370Y-98484823D02*
G75*
G03*
X274688112Y-98553122I3J-500009D01*
G01*
X274688112Y-95416525D02*
G75*
G03*
X274940371Y-95484824I252261J431710D01*
G01*
X276781534Y-98553123D02*
G75*
G03*
X276529276Y-98484824I-252261J-431710D01*
G01*
X276529275Y-95484823D02*
G75*
G03*
X276781533Y-95416525I-2J500010D01*
G01*
X277484303Y-96065102D02*
G75*
G03*
X276781534Y-95416527I-450510J216879D01*
G01*
X277484307Y-96065104D02*
G75*
G03*
X277434822Y-96281981I450866J-216959D01*
G01*
X276781534Y-98553123D02*
G75*
G03*
X277484307Y-97904544I252259J431700D01*
G01*
X277434834Y-97687666D02*
G75*
G03*
X277484308Y-97904544I500289J43D01*
G01*
X277434822Y-77231980D02*
X277434822Y-78637664D01*
X276529275Y-79434822D02*
X274940371Y-79434822D01*
X274940371Y-76434823D02*
X276529276Y-76434823D01*
X274034824Y-78637664D02*
X274034824Y-77231980D01*
X277434823Y-78637664D02*
G75*
G03*
X277484308Y-78854542I499989J-2D01*
G01*
X276781534Y-79503121D02*
G75*
G03*
X277484306Y-78854541I252259J431700D01*
G01*
X277484307Y-77015102D02*
G75*
G03*
X277434822Y-77231979I450505J-216876D01*
G01*
X277484307Y-77015102D02*
G75*
G03*
X276781534Y-76366524I-450514J216878D01*
G01*
X276529276Y-76434823D02*
G75*
G03*
X276781534Y-76366524I-3J500009D01*
G01*
X276781534Y-79503121D02*
G75*
G03*
X276529275Y-79434822I-252261J-431710D01*
G01*
X274688112Y-76366523D02*
G75*
G03*
X274940370Y-76434822I252261J431710D01*
G01*
X274940371Y-79434823D02*
G75*
G03*
X274688113Y-79503121I2J-500010D01*
G01*
X273985343Y-78854544D02*
G75*
G03*
X274688112Y-79503119I450510J-216879D01*
G01*
X273985339Y-78854542D02*
G75*
G03*
X274034824Y-78637665I-450866J216959D01*
G01*
X274688112Y-76366523D02*
G75*
G03*
X273985339Y-77015102I-252259J-431700D01*
G01*
X274034812Y-77231980D02*
G75*
G03*
X273985338Y-77015102I-500289J-43D01*
G01*
X115509822Y-39131980D02*
X115509822Y-40537664D01*
X114604275Y-41334822D02*
X113015371Y-41334822D01*
X113015371Y-38334823D02*
X114604276Y-38334823D01*
X112109824Y-40537664D02*
X112109824Y-39131980D01*
X115509823Y-40537664D02*
G75*
G03*
X115559308Y-40754542I499989J-2D01*
G01*
X114856534Y-41403121D02*
G75*
G03*
X115559306Y-40754541I252259J431700D01*
G01*
X115559307Y-38915102D02*
G75*
G03*
X115509822Y-39131979I450505J-216876D01*
G01*
X115559307Y-38915102D02*
G75*
G03*
X114856534Y-38266524I-450514J216878D01*
G01*
X114604276Y-38334823D02*
G75*
G03*
X114856534Y-38266524I-3J500009D01*
G01*
X114856534Y-41403121D02*
G75*
G03*
X114604275Y-41334822I-252261J-431710D01*
G01*
X112763112Y-38266523D02*
G75*
G03*
X113015370Y-38334822I252261J431710D01*
G01*
X113015371Y-41334823D02*
G75*
G03*
X112763113Y-41403121I2J-500010D01*
G01*
X112060343Y-40754544D02*
G75*
G03*
X112763112Y-41403119I450510J-216879D01*
G01*
X112060339Y-40754542D02*
G75*
G03*
X112109824Y-40537665I-450866J216959D01*
G01*
X112763112Y-38266523D02*
G75*
G03*
X112060339Y-38915102I-252259J-431700D01*
G01*
X112109812Y-39131980D02*
G75*
G03*
X112060338Y-38915102I-500289J-43D01*
G01*
X174022324Y-59587666D02*
X174022324Y-58181982D01*
X174927871Y-57384824D02*
X176516775Y-57384824D01*
X176516775Y-60384823D02*
X174927870Y-60384823D01*
X177422322Y-58181982D02*
X177422322Y-59587666D01*
X174022323Y-58181982D02*
G75*
G03*
X173972838Y-57965104I-499989J2D01*
G01*
X174675612Y-57316525D02*
G75*
G03*
X173972840Y-57965105I-252259J-431700D01*
G01*
X173972839Y-59804544D02*
G75*
G03*
X174022324Y-59587667I-450505J216876D01*
G01*
X173972839Y-59804544D02*
G75*
G03*
X174675612Y-60453122I450514J-216878D01*
G01*
X174927870Y-60384823D02*
G75*
G03*
X174675612Y-60453122I3J-500009D01*
G01*
X174675612Y-57316525D02*
G75*
G03*
X174927871Y-57384824I252261J431710D01*
G01*
X176769034Y-60453123D02*
G75*
G03*
X176516776Y-60384824I-252261J-431710D01*
G01*
X176516775Y-57384823D02*
G75*
G03*
X176769033Y-57316525I-2J500010D01*
G01*
X177471803Y-57965102D02*
G75*
G03*
X176769034Y-57316527I-450510J216879D01*
G01*
X177471807Y-57965104D02*
G75*
G03*
X177422322Y-58181981I450866J-216959D01*
G01*
X176769034Y-60453123D02*
G75*
G03*
X177471807Y-59804544I252259J431700D01*
G01*
X177422334Y-59587666D02*
G75*
G03*
X177471808Y-59804544I500289J43D01*
G01*
X193072324Y-59587666D02*
X193072324Y-58181982D01*
X193977871Y-57384824D02*
X195566775Y-57384824D01*
X195566775Y-60384823D02*
X193977870Y-60384823D01*
X196472322Y-58181982D02*
X196472322Y-59587666D01*
X193072323Y-58181982D02*
G75*
G03*
X193022838Y-57965104I-499989J2D01*
G01*
X193725612Y-57316525D02*
G75*
G03*
X193022840Y-57965105I-252259J-431700D01*
G01*
X193022839Y-59804544D02*
G75*
G03*
X193072324Y-59587667I-450505J216876D01*
G01*
X193022839Y-59804544D02*
G75*
G03*
X193725612Y-60453122I450514J-216878D01*
G01*
X193977870Y-60384823D02*
G75*
G03*
X193725612Y-60453122I3J-500009D01*
G01*
X193725612Y-57316525D02*
G75*
G03*
X193977871Y-57384824I252261J431710D01*
G01*
X195819034Y-60453123D02*
G75*
G03*
X195566776Y-60384824I-252261J-431710D01*
G01*
X195566775Y-57384823D02*
G75*
G03*
X195819033Y-57316525I-2J500010D01*
G01*
X196521803Y-57965102D02*
G75*
G03*
X195819034Y-57316527I-450510J216879D01*
G01*
X196521807Y-57965104D02*
G75*
G03*
X196472322Y-58181981I450866J-216959D01*
G01*
X195819034Y-60453123D02*
G75*
G03*
X196521807Y-59804544I252259J431700D01*
G01*
X196472334Y-59587666D02*
G75*
G03*
X196521808Y-59804544I500289J43D01*
G01*
X77409822Y-39131980D02*
X77409822Y-40537664D01*
X76504275Y-41334822D02*
X74915371Y-41334822D01*
X74915371Y-38334823D02*
X76504276Y-38334823D01*
X74009824Y-40537664D02*
X74009824Y-39131980D01*
X77409823Y-40537664D02*
G75*
G03*
X77459308Y-40754542I499989J-2D01*
G01*
X76756534Y-41403121D02*
G75*
G03*
X77459306Y-40754541I252259J431700D01*
G01*
X77459307Y-38915102D02*
G75*
G03*
X77409822Y-39131979I450505J-216876D01*
G01*
X77459307Y-38915102D02*
G75*
G03*
X76756534Y-38266524I-450514J216878D01*
G01*
X76504276Y-38334823D02*
G75*
G03*
X76756534Y-38266524I-3J500009D01*
G01*
X76756534Y-41403121D02*
G75*
G03*
X76504275Y-41334822I-252261J-431710D01*
G01*
X74663112Y-38266523D02*
G75*
G03*
X74915370Y-38334822I252261J431710D01*
G01*
X74915371Y-41334823D02*
G75*
G03*
X74663113Y-41403121I2J-500010D01*
G01*
X73960343Y-40754544D02*
G75*
G03*
X74663112Y-41403119I450510J-216879D01*
G01*
X73960339Y-40754542D02*
G75*
G03*
X74009824Y-40537665I-450866J216959D01*
G01*
X74663112Y-38266523D02*
G75*
G03*
X73960339Y-38915102I-252259J-431700D01*
G01*
X74009812Y-39131980D02*
G75*
G03*
X73960338Y-38915102I-500289J-43D01*
G01*
X15497322Y-39131980D02*
X15497322Y-40537664D01*
X14591775Y-41334822D02*
X13002871Y-41334822D01*
X13002871Y-38334823D02*
X14591776Y-38334823D01*
X12097324Y-40537664D02*
X12097324Y-39131980D01*
X15497323Y-40537664D02*
G75*
G03*
X15546808Y-40754542I499989J-2D01*
G01*
X14844034Y-41403121D02*
G75*
G03*
X15546806Y-40754541I252259J431700D01*
G01*
X15546807Y-38915102D02*
G75*
G03*
X15497322Y-39131979I450505J-216876D01*
G01*
X15546807Y-38915102D02*
G75*
G03*
X14844034Y-38266524I-450514J216878D01*
G01*
X14591776Y-38334823D02*
G75*
G03*
X14844034Y-38266524I-3J500009D01*
G01*
X14844034Y-41403121D02*
G75*
G03*
X14591775Y-41334822I-252261J-431710D01*
G01*
X12750612Y-38266523D02*
G75*
G03*
X13002870Y-38334822I252261J431710D01*
G01*
X13002871Y-41334823D02*
G75*
G03*
X12750613Y-41403121I2J-500010D01*
G01*
X12047843Y-40754544D02*
G75*
G03*
X12750612Y-41403119I450510J-216879D01*
G01*
X12047839Y-40754542D02*
G75*
G03*
X12097324Y-40537665I-450866J216959D01*
G01*
X12750612Y-38266523D02*
G75*
G03*
X12047839Y-38915102I-252259J-431700D01*
G01*
X12097312Y-39131980D02*
G75*
G03*
X12047838Y-38915102I-500289J-43D01*
G01*
X83534824Y-21487666D02*
X83534824Y-20081982D01*
X84440371Y-19284824D02*
X86029275Y-19284824D01*
X86029275Y-22284823D02*
X84440370Y-22284823D01*
X86934822Y-20081982D02*
X86934822Y-21487666D01*
X83534823Y-20081982D02*
G75*
G03*
X83485338Y-19865104I-499989J2D01*
G01*
X84188112Y-19216525D02*
G75*
G03*
X83485340Y-19865105I-252259J-431700D01*
G01*
X83485339Y-21704544D02*
G75*
G03*
X83534824Y-21487667I-450505J216876D01*
G01*
X83485339Y-21704544D02*
G75*
G03*
X84188112Y-22353122I450514J-216878D01*
G01*
X84440370Y-22284823D02*
G75*
G03*
X84188112Y-22353122I3J-500009D01*
G01*
X84188112Y-19216525D02*
G75*
G03*
X84440371Y-19284824I252261J431710D01*
G01*
X86281534Y-22353123D02*
G75*
G03*
X86029276Y-22284824I-252261J-431710D01*
G01*
X86029275Y-19284823D02*
G75*
G03*
X86281533Y-19216525I-2J500010D01*
G01*
X86984303Y-19865102D02*
G75*
G03*
X86281534Y-19216527I-450510J216879D01*
G01*
X86984307Y-19865104D02*
G75*
G03*
X86934822Y-20081981I450866J-216959D01*
G01*
X86281534Y-22353123D02*
G75*
G03*
X86984307Y-21704544I252259J431700D01*
G01*
X86934834Y-21487666D02*
G75*
G03*
X86984308Y-21704544I500289J43D01*
G01*
X97822324Y-59587666D02*
X97822324Y-58181982D01*
X98727871Y-57384824D02*
X100316775Y-57384824D01*
X100316775Y-60384823D02*
X98727870Y-60384823D01*
X101222322Y-58181982D02*
X101222322Y-59587666D01*
X97822323Y-58181982D02*
G75*
G03*
X97772838Y-57965104I-499989J2D01*
G01*
X98475612Y-57316525D02*
G75*
G03*
X97772840Y-57965105I-252259J-431700D01*
G01*
X97772839Y-59804544D02*
G75*
G03*
X97822324Y-59587667I-450505J216876D01*
G01*
X97772839Y-59804544D02*
G75*
G03*
X98475612Y-60453122I450514J-216878D01*
G01*
X98727870Y-60384823D02*
G75*
G03*
X98475612Y-60453122I3J-500009D01*
G01*
X98475612Y-57316525D02*
G75*
G03*
X98727871Y-57384824I252261J431710D01*
G01*
X100569034Y-60453123D02*
G75*
G03*
X100316776Y-60384824I-252261J-431710D01*
G01*
X100316775Y-57384823D02*
G75*
G03*
X100569033Y-57316525I-2J500010D01*
G01*
X101271803Y-57965102D02*
G75*
G03*
X100569034Y-57316527I-450510J216879D01*
G01*
X101271807Y-57965104D02*
G75*
G03*
X101222322Y-58181981I450866J-216959D01*
G01*
X100569034Y-60453123D02*
G75*
G03*
X101271807Y-59804544I252259J431700D01*
G01*
X101222334Y-59587666D02*
G75*
G03*
X101271808Y-59804544I500289J43D01*
G01*
X197834824Y-21487666D02*
X197834824Y-20081982D01*
X198740371Y-19284824D02*
X200329275Y-19284824D01*
X200329275Y-22284823D02*
X198740370Y-22284823D01*
X201234822Y-20081982D02*
X201234822Y-21487666D01*
X197834823Y-20081982D02*
G75*
G03*
X197785338Y-19865104I-499989J2D01*
G01*
X198488112Y-19216525D02*
G75*
G03*
X197785340Y-19865105I-252259J-431700D01*
G01*
X197785339Y-21704544D02*
G75*
G03*
X197834824Y-21487667I-450505J216876D01*
G01*
X197785339Y-21704544D02*
G75*
G03*
X198488112Y-22353122I450514J-216878D01*
G01*
X198740370Y-22284823D02*
G75*
G03*
X198488112Y-22353122I3J-500009D01*
G01*
X198488112Y-19216525D02*
G75*
G03*
X198740371Y-19284824I252261J431710D01*
G01*
X200581534Y-22353123D02*
G75*
G03*
X200329276Y-22284824I-252261J-431710D01*
G01*
X200329275Y-19284823D02*
G75*
G03*
X200581533Y-19216525I-2J500010D01*
G01*
X201284303Y-19865102D02*
G75*
G03*
X200581534Y-19216527I-450510J216879D01*
G01*
X201284307Y-19865104D02*
G75*
G03*
X201234822Y-20081981I450866J-216959D01*
G01*
X200581534Y-22353123D02*
G75*
G03*
X201284307Y-21704544I252259J431700D01*
G01*
X201234834Y-21487666D02*
G75*
G03*
X201284308Y-21704544I500289J43D01*
G01*
X254984824Y-97687666D02*
X254984824Y-96281982D01*
X255890371Y-95484824D02*
X257479275Y-95484824D01*
X257479275Y-98484823D02*
X255890370Y-98484823D01*
X258384822Y-96281982D02*
X258384822Y-97687666D01*
X254984823Y-96281982D02*
G75*
G03*
X254935338Y-96065104I-499989J2D01*
G01*
X255638112Y-95416525D02*
G75*
G03*
X254935340Y-96065105I-252259J-431700D01*
G01*
X254935339Y-97904544D02*
G75*
G03*
X254984824Y-97687667I-450505J216876D01*
G01*
X254935339Y-97904544D02*
G75*
G03*
X255638112Y-98553122I450514J-216878D01*
G01*
X255890370Y-98484823D02*
G75*
G03*
X255638112Y-98553122I3J-500009D01*
G01*
X255638112Y-95416525D02*
G75*
G03*
X255890371Y-95484824I252261J431710D01*
G01*
X257731534Y-98553123D02*
G75*
G03*
X257479276Y-98484824I-252261J-431710D01*
G01*
X257479275Y-95484823D02*
G75*
G03*
X257731533Y-95416525I-2J500010D01*
G01*
X258434303Y-96065102D02*
G75*
G03*
X257731534Y-95416527I-450510J216879D01*
G01*
X258434307Y-96065104D02*
G75*
G03*
X258384822Y-96281981I450866J-216959D01*
G01*
X257731534Y-98553123D02*
G75*
G03*
X258434307Y-97904544I252259J431700D01*
G01*
X258384834Y-97687666D02*
G75*
G03*
X258434308Y-97904544I500289J43D01*
G01*
X262128574Y-59587666D02*
X262128574Y-58181982D01*
X263034121Y-57384824D02*
X264623025Y-57384824D01*
X264623025Y-60384823D02*
X263034120Y-60384823D01*
X265528572Y-58181982D02*
X265528572Y-59587666D01*
X262128573Y-58181982D02*
G75*
G03*
X262079088Y-57965104I-499989J2D01*
G01*
X262781862Y-57316525D02*
G75*
G03*
X262079090Y-57965105I-252259J-431700D01*
G01*
X262079089Y-59804544D02*
G75*
G03*
X262128574Y-59587667I-450505J216876D01*
G01*
X262079089Y-59804544D02*
G75*
G03*
X262781862Y-60453122I450514J-216878D01*
G01*
X263034120Y-60384823D02*
G75*
G03*
X262781862Y-60453122I3J-500009D01*
G01*
X262781862Y-57316525D02*
G75*
G03*
X263034121Y-57384824I252261J431710D01*
G01*
X264875284Y-60453123D02*
G75*
G03*
X264623026Y-60384824I-252261J-431710D01*
G01*
X264623025Y-57384823D02*
G75*
G03*
X264875283Y-57316525I-2J500010D01*
G01*
X265578053Y-57965102D02*
G75*
G03*
X264875284Y-57316527I-450510J216879D01*
G01*
X265578057Y-57965104D02*
G75*
G03*
X265528572Y-58181981I450866J-216959D01*
G01*
X264875284Y-60453123D02*
G75*
G03*
X265578057Y-59804544I252259J431700D01*
G01*
X265528584Y-59587666D02*
G75*
G03*
X265578058Y-59804544I500289J43D01*
G01*
X14478574Y-59587666D02*
X14478574Y-58181982D01*
X15384121Y-57384824D02*
X16973025Y-57384824D01*
X16973025Y-60384823D02*
X15384120Y-60384823D01*
X17878572Y-58181982D02*
X17878572Y-59587666D01*
X14478573Y-58181982D02*
G75*
G03*
X14429088Y-57965104I-499989J2D01*
G01*
X15131862Y-57316525D02*
G75*
G03*
X14429090Y-57965105I-252259J-431700D01*
G01*
X14429089Y-59804544D02*
G75*
G03*
X14478574Y-59587667I-450505J216876D01*
G01*
X14429089Y-59804544D02*
G75*
G03*
X15131862Y-60453122I450514J-216878D01*
G01*
X15384120Y-60384823D02*
G75*
G03*
X15131862Y-60453122I3J-500009D01*
G01*
X15131862Y-57316525D02*
G75*
G03*
X15384121Y-57384824I252261J431710D01*
G01*
X17225284Y-60453123D02*
G75*
G03*
X16973026Y-60384824I-252261J-431710D01*
G01*
X16973025Y-57384823D02*
G75*
G03*
X17225283Y-57316525I-2J500010D01*
G01*
X17928053Y-57965102D02*
G75*
G03*
X17225284Y-57316527I-450510J216879D01*
G01*
X17928057Y-57965104D02*
G75*
G03*
X17878572Y-58181981I450866J-216959D01*
G01*
X17225284Y-60453123D02*
G75*
G03*
X17928057Y-59804544I252259J431700D01*
G01*
X17878584Y-59587666D02*
G75*
G03*
X17928058Y-59804544I500289J43D01*
G01*
X159734824Y-21487666D02*
X159734824Y-20081982D01*
X160640371Y-19284824D02*
X162229275Y-19284824D01*
X162229275Y-22284823D02*
X160640370Y-22284823D01*
X163134822Y-20081982D02*
X163134822Y-21487666D01*
X159734823Y-20081982D02*
G75*
G03*
X159685338Y-19865104I-499989J2D01*
G01*
X160388112Y-19216525D02*
G75*
G03*
X159685340Y-19865105I-252259J-431700D01*
G01*
X159685339Y-21704544D02*
G75*
G03*
X159734824Y-21487667I-450505J216876D01*
G01*
X159685339Y-21704544D02*
G75*
G03*
X160388112Y-22353122I450514J-216878D01*
G01*
X160640370Y-22284823D02*
G75*
G03*
X160388112Y-22353122I3J-500009D01*
G01*
X160388112Y-19216525D02*
G75*
G03*
X160640371Y-19284824I252261J431710D01*
G01*
X162481534Y-22353123D02*
G75*
G03*
X162229276Y-22284824I-252261J-431710D01*
G01*
X162229275Y-19284823D02*
G75*
G03*
X162481533Y-19216525I-2J500010D01*
G01*
X163184303Y-19865102D02*
G75*
G03*
X162481534Y-19216527I-450510J216879D01*
G01*
X163184307Y-19865104D02*
G75*
G03*
X163134822Y-20081981I450866J-216959D01*
G01*
X162481534Y-22353123D02*
G75*
G03*
X163184307Y-21704544I252259J431700D01*
G01*
X163134834Y-21487666D02*
G75*
G03*
X163184308Y-21704544I500289J43D01*
G01*
X200216074Y-97687666D02*
X200216074Y-96281982D01*
X201121621Y-95484824D02*
X202710525Y-95484824D01*
X202710525Y-98484823D02*
X201121620Y-98484823D01*
X203616072Y-96281982D02*
X203616072Y-97687666D01*
X200216073Y-96281982D02*
G75*
G03*
X200166588Y-96065104I-499989J2D01*
G01*
X200869362Y-95416525D02*
G75*
G03*
X200166590Y-96065105I-252259J-431700D01*
G01*
X200166589Y-97904544D02*
G75*
G03*
X200216074Y-97687667I-450505J216876D01*
G01*
X200166589Y-97904544D02*
G75*
G03*
X200869362Y-98553122I450514J-216878D01*
G01*
X201121620Y-98484823D02*
G75*
G03*
X200869362Y-98553122I3J-500009D01*
G01*
X200869362Y-95416525D02*
G75*
G03*
X201121621Y-95484824I252261J431710D01*
G01*
X202962784Y-98553123D02*
G75*
G03*
X202710526Y-98484824I-252261J-431710D01*
G01*
X202710525Y-95484823D02*
G75*
G03*
X202962783Y-95416525I-2J500010D01*
G01*
X203665553Y-96065102D02*
G75*
G03*
X202962784Y-95416527I-450510J216879D01*
G01*
X203665557Y-96065104D02*
G75*
G03*
X203616072Y-96281981I450866J-216959D01*
G01*
X202962784Y-98553123D02*
G75*
G03*
X203665557Y-97904544I252259J431700D01*
G01*
X203616084Y-97687666D02*
G75*
G03*
X203665558Y-97904544I500289J43D01*
G01*
X210759822Y-39131980D02*
X210759822Y-40537664D01*
X209854275Y-41334822D02*
X208265371Y-41334822D01*
X208265371Y-38334823D02*
X209854276Y-38334823D01*
X207359824Y-40537664D02*
X207359824Y-39131980D01*
X210759823Y-40537664D02*
G75*
G03*
X210809308Y-40754542I499989J-2D01*
G01*
X210106534Y-41403121D02*
G75*
G03*
X210809306Y-40754541I252259J431700D01*
G01*
X210809307Y-38915102D02*
G75*
G03*
X210759822Y-39131979I450505J-216876D01*
G01*
X210809307Y-38915102D02*
G75*
G03*
X210106534Y-38266524I-450514J216878D01*
G01*
X209854276Y-38334823D02*
G75*
G03*
X210106534Y-38266524I-3J500009D01*
G01*
X210106534Y-41403121D02*
G75*
G03*
X209854275Y-41334822I-252261J-431710D01*
G01*
X208013112Y-38266523D02*
G75*
G03*
X208265370Y-38334822I252261J431710D01*
G01*
X208265371Y-41334823D02*
G75*
G03*
X208013113Y-41403121I2J-500010D01*
G01*
X207310343Y-40754544D02*
G75*
G03*
X208013112Y-41403119I450510J-216879D01*
G01*
X207310339Y-40754542D02*
G75*
G03*
X207359824Y-40537665I-450866J216959D01*
G01*
X208013112Y-38266523D02*
G75*
G03*
X207310339Y-38915102I-252259J-431700D01*
G01*
X207359812Y-39131980D02*
G75*
G03*
X207310338Y-38915102I-500289J-43D01*
G01*
X231172324Y-59587666D02*
X231172324Y-58181982D01*
X232077871Y-57384824D02*
X233666775Y-57384824D01*
X233666775Y-60384823D02*
X232077870Y-60384823D01*
X234572322Y-58181982D02*
X234572322Y-59587666D01*
X231172323Y-58181982D02*
G75*
G03*
X231122838Y-57965104I-499989J2D01*
G01*
X231825612Y-57316525D02*
G75*
G03*
X231122840Y-57965105I-252259J-431700D01*
G01*
X231122839Y-59804544D02*
G75*
G03*
X231172324Y-59587667I-450505J216876D01*
G01*
X231122839Y-59804544D02*
G75*
G03*
X231825612Y-60453122I450514J-216878D01*
G01*
X232077870Y-60384823D02*
G75*
G03*
X231825612Y-60453122I3J-500009D01*
G01*
X231825612Y-57316525D02*
G75*
G03*
X232077871Y-57384824I252261J431710D01*
G01*
X233919034Y-60453123D02*
G75*
G03*
X233666776Y-60384824I-252261J-431710D01*
G01*
X233666775Y-57384823D02*
G75*
G03*
X233919033Y-57316525I-2J500010D01*
G01*
X234621803Y-57965102D02*
G75*
G03*
X233919034Y-57316527I-450510J216879D01*
G01*
X234621807Y-57965104D02*
G75*
G03*
X234572322Y-58181981I450866J-216959D01*
G01*
X233919034Y-60453123D02*
G75*
G03*
X234621807Y-59804544I252259J431700D01*
G01*
X234572334Y-59587666D02*
G75*
G03*
X234621808Y-59804544I500289J43D01*
G01*
X91697322Y-77231980D02*
X91697322Y-78637664D01*
X90791775Y-79434822D02*
X89202871Y-79434822D01*
X89202871Y-76434823D02*
X90791776Y-76434823D01*
X88297324Y-78637664D02*
X88297324Y-77231980D01*
X91697323Y-78637664D02*
G75*
G03*
X91746808Y-78854542I499989J-2D01*
G01*
X91044034Y-79503121D02*
G75*
G03*
X91746806Y-78854541I252259J431700D01*
G01*
X91746807Y-77015102D02*
G75*
G03*
X91697322Y-77231979I450505J-216876D01*
G01*
X91746807Y-77015102D02*
G75*
G03*
X91044034Y-76366524I-450514J216878D01*
G01*
X90791776Y-76434823D02*
G75*
G03*
X91044034Y-76366524I-3J500009D01*
G01*
X91044034Y-79503121D02*
G75*
G03*
X90791775Y-79434822I-252261J-431710D01*
G01*
X88950612Y-76366523D02*
G75*
G03*
X89202870Y-76434822I252261J431710D01*
G01*
X89202871Y-79434823D02*
G75*
G03*
X88950613Y-79503121I2J-500010D01*
G01*
X88247843Y-78854544D02*
G75*
G03*
X88950612Y-79503119I450510J-216879D01*
G01*
X88247839Y-78854542D02*
G75*
G03*
X88297324Y-78637665I-450866J216959D01*
G01*
X88950612Y-76366523D02*
G75*
G03*
X88247839Y-77015102I-252259J-431700D01*
G01*
X88297312Y-77231980D02*
G75*
G03*
X88247838Y-77015102I-500289J-43D01*
G01*
X45434824Y-21487666D02*
X45434824Y-20081982D01*
X46340371Y-19284824D02*
X47929275Y-19284824D01*
X47929275Y-22284823D02*
X46340370Y-22284823D01*
X48834822Y-20081982D02*
X48834822Y-21487666D01*
X45434823Y-20081982D02*
G75*
G03*
X45385338Y-19865104I-499989J2D01*
G01*
X46088112Y-19216525D02*
G75*
G03*
X45385340Y-19865105I-252259J-431700D01*
G01*
X45385339Y-21704544D02*
G75*
G03*
X45434824Y-21487667I-450505J216876D01*
G01*
X45385339Y-21704544D02*
G75*
G03*
X46088112Y-22353122I450514J-216878D01*
G01*
X46340370Y-22284823D02*
G75*
G03*
X46088112Y-22353122I3J-500009D01*
G01*
X46088112Y-19216525D02*
G75*
G03*
X46340371Y-19284824I252261J431710D01*
G01*
X48181534Y-22353123D02*
G75*
G03*
X47929276Y-22284824I-252261J-431710D01*
G01*
X47929275Y-19284823D02*
G75*
G03*
X48181533Y-19216525I-2J500010D01*
G01*
X48884303Y-19865102D02*
G75*
G03*
X48181534Y-19216527I-450510J216879D01*
G01*
X48884307Y-19865104D02*
G75*
G03*
X48834822Y-20081981I450866J-216959D01*
G01*
X48181534Y-22353123D02*
G75*
G03*
X48884307Y-21704544I252259J431700D01*
G01*
X48834834Y-21487666D02*
G75*
G03*
X48884308Y-21704544I500289J43D01*
G01*
X225047322Y-77231980D02*
X225047322Y-78637664D01*
X224141775Y-79434822D02*
X222552871Y-79434822D01*
X222552871Y-76434823D02*
X224141776Y-76434823D01*
X221647324Y-78637664D02*
X221647324Y-77231980D01*
X225047323Y-78637664D02*
G75*
G03*
X225096808Y-78854542I499989J-2D01*
G01*
X224394034Y-79503121D02*
G75*
G03*
X225096806Y-78854541I252259J431700D01*
G01*
X225096807Y-77015102D02*
G75*
G03*
X225047322Y-77231979I450505J-216876D01*
G01*
X225096807Y-77015102D02*
G75*
G03*
X224394034Y-76366524I-450514J216878D01*
G01*
X224141776Y-76434823D02*
G75*
G03*
X224394034Y-76366524I-3J500009D01*
G01*
X224394034Y-79503121D02*
G75*
G03*
X224141775Y-79434822I-252261J-431710D01*
G01*
X222300612Y-76366523D02*
G75*
G03*
X222552870Y-76434822I252261J431710D01*
G01*
X222552871Y-79434823D02*
G75*
G03*
X222300613Y-79503121I2J-500010D01*
G01*
X221597843Y-78854544D02*
G75*
G03*
X222300612Y-79503119I450510J-216879D01*
G01*
X221597839Y-78854542D02*
G75*
G03*
X221647324Y-78637665I-450866J216959D01*
G01*
X222300612Y-76366523D02*
G75*
G03*
X221597839Y-77015102I-252259J-431700D01*
G01*
X221647312Y-77231980D02*
G75*
G03*
X221597838Y-77015102I-500289J-43D01*
G01*
X39309822Y-39131980D02*
X39309822Y-40537664D01*
X38404275Y-41334822D02*
X36815371Y-41334822D01*
X36815371Y-38334823D02*
X38404276Y-38334823D01*
X35909824Y-40537664D02*
X35909824Y-39131980D01*
X39309823Y-40537664D02*
G75*
G03*
X39359308Y-40754542I499989J-2D01*
G01*
X38656534Y-41403121D02*
G75*
G03*
X39359306Y-40754541I252259J431700D01*
G01*
X39359307Y-38915102D02*
G75*
G03*
X39309822Y-39131979I450505J-216876D01*
G01*
X39359307Y-38915102D02*
G75*
G03*
X38656534Y-38266524I-450514J216878D01*
G01*
X38404276Y-38334823D02*
G75*
G03*
X38656534Y-38266524I-3J500009D01*
G01*
X38656534Y-41403121D02*
G75*
G03*
X38404275Y-41334822I-252261J-431710D01*
G01*
X36563112Y-38266523D02*
G75*
G03*
X36815370Y-38334822I252261J431710D01*
G01*
X36815371Y-41334823D02*
G75*
G03*
X36563113Y-41403121I2J-500010D01*
G01*
X35860343Y-40754544D02*
G75*
G03*
X36563112Y-41403119I450510J-216879D01*
G01*
X35860339Y-40754542D02*
G75*
G03*
X35909824Y-40537665I-450866J216959D01*
G01*
X36563112Y-38266523D02*
G75*
G03*
X35860339Y-38915102I-252259J-431700D01*
G01*
X35909812Y-39131980D02*
G75*
G03*
X35860338Y-38915102I-500289J-43D01*
G01*
X264509824Y-21487666D02*
X264509824Y-20081982D01*
X265415371Y-19284824D02*
X267004275Y-19284824D01*
X267004275Y-22284823D02*
X265415370Y-22284823D01*
X267909822Y-20081982D02*
X267909822Y-21487666D01*
X264509823Y-20081982D02*
G75*
G03*
X264460338Y-19865104I-499989J2D01*
G01*
X265163112Y-19216525D02*
G75*
G03*
X264460340Y-19865105I-252259J-431700D01*
G01*
X264460339Y-21704544D02*
G75*
G03*
X264509824Y-21487667I-450505J216876D01*
G01*
X264460339Y-21704544D02*
G75*
G03*
X265163112Y-22353122I450514J-216878D01*
G01*
X265415370Y-22284823D02*
G75*
G03*
X265163112Y-22353122I3J-500009D01*
G01*
X265163112Y-19216525D02*
G75*
G03*
X265415371Y-19284824I252261J431710D01*
G01*
X267256534Y-22353123D02*
G75*
G03*
X267004276Y-22284824I-252261J-431710D01*
G01*
X267004275Y-19284823D02*
G75*
G03*
X267256533Y-19216525I-2J500010D01*
G01*
X267959303Y-19865102D02*
G75*
G03*
X267256534Y-19216527I-450510J216879D01*
G01*
X267959307Y-19865104D02*
G75*
G03*
X267909822Y-20081981I450866J-216959D01*
G01*
X267256534Y-22353123D02*
G75*
G03*
X267959307Y-21704544I252259J431700D01*
G01*
X267909834Y-21487666D02*
G75*
G03*
X267959308Y-21704544I500289J43D01*
G01*
X9716074Y-97687666D02*
X9716074Y-96281982D01*
X10621621Y-95484824D02*
X12210525Y-95484824D01*
X12210525Y-98484823D02*
X10621620Y-98484823D01*
X13116072Y-96281982D02*
X13116072Y-97687666D01*
X9716073Y-96281982D02*
G75*
G03*
X9666588Y-96065104I-499989J2D01*
G01*
X10369362Y-95416525D02*
G75*
G03*
X9666590Y-96065105I-252259J-431700D01*
G01*
X9666589Y-97904544D02*
G75*
G03*
X9716074Y-97687667I-450505J216876D01*
G01*
X9666589Y-97904544D02*
G75*
G03*
X10369362Y-98553122I450514J-216878D01*
G01*
X10621620Y-98484823D02*
G75*
G03*
X10369362Y-98553122I3J-500009D01*
G01*
X10369362Y-95416525D02*
G75*
G03*
X10621621Y-95484824I252261J431710D01*
G01*
X12462784Y-98553123D02*
G75*
G03*
X12210526Y-98484824I-252261J-431710D01*
G01*
X12210525Y-95484823D02*
G75*
G03*
X12462783Y-95416525I-2J500010D01*
G01*
X13165553Y-96065102D02*
G75*
G03*
X12462784Y-95416527I-450510J216879D01*
G01*
X13165557Y-96065104D02*
G75*
G03*
X13116072Y-96281981I450866J-216959D01*
G01*
X12462784Y-98553123D02*
G75*
G03*
X13165557Y-97904544I252259J431700D01*
G01*
X13116084Y-97687666D02*
G75*
G03*
X13165558Y-97904544I500289J43D01*
G01*
X33528574Y-97687666D02*
X33528574Y-96281982D01*
X34434121Y-95484824D02*
X36023025Y-95484824D01*
X36023025Y-98484823D02*
X34434120Y-98484823D01*
X36928572Y-96281982D02*
X36928572Y-97687666D01*
X33528573Y-96281982D02*
G75*
G03*
X33479088Y-96065104I-499989J2D01*
G01*
X34181862Y-95416525D02*
G75*
G03*
X33479090Y-96065105I-252259J-431700D01*
G01*
X33479089Y-97904544D02*
G75*
G03*
X33528574Y-97687667I-450505J216876D01*
G01*
X33479089Y-97904544D02*
G75*
G03*
X34181862Y-98553122I450514J-216878D01*
G01*
X34434120Y-98484823D02*
G75*
G03*
X34181862Y-98553122I3J-500009D01*
G01*
X34181862Y-95416525D02*
G75*
G03*
X34434121Y-95484824I252261J431710D01*
G01*
X36275284Y-98553123D02*
G75*
G03*
X36023026Y-98484824I-252261J-431710D01*
G01*
X36023025Y-95484823D02*
G75*
G03*
X36275283Y-95416525I-2J500010D01*
G01*
X36978053Y-96065102D02*
G75*
G03*
X36275284Y-95416527I-450510J216879D01*
G01*
X36978057Y-96065104D02*
G75*
G03*
X36928572Y-96281981I450866J-216959D01*
G01*
X36275284Y-98553123D02*
G75*
G03*
X36978057Y-97904544I252259J431700D01*
G01*
X36928584Y-97687666D02*
G75*
G03*
X36978058Y-97904544I500289J43D01*
G01*
X40672324Y-59587666D02*
X40672324Y-58181982D01*
X41577871Y-57384824D02*
X43166775Y-57384824D01*
X43166775Y-60384823D02*
X41577870Y-60384823D01*
X44072322Y-58181982D02*
X44072322Y-59587666D01*
X40672323Y-58181982D02*
G75*
G03*
X40622838Y-57965104I-499989J2D01*
G01*
X41325612Y-57316525D02*
G75*
G03*
X40622840Y-57965105I-252259J-431700D01*
G01*
X40622839Y-59804544D02*
G75*
G03*
X40672324Y-59587667I-450505J216876D01*
G01*
X40622839Y-59804544D02*
G75*
G03*
X41325612Y-60453122I450514J-216878D01*
G01*
X41577870Y-60384823D02*
G75*
G03*
X41325612Y-60453122I3J-500009D01*
G01*
X41325612Y-57316525D02*
G75*
G03*
X41577871Y-57384824I252261J431710D01*
G01*
X43419034Y-60453123D02*
G75*
G03*
X43166776Y-60384824I-252261J-431710D01*
G01*
X43166775Y-57384823D02*
G75*
G03*
X43419033Y-57316525I-2J500010D01*
G01*
X44121803Y-57965102D02*
G75*
G03*
X43419034Y-57316527I-450510J216879D01*
G01*
X44121807Y-57965104D02*
G75*
G03*
X44072322Y-58181981I450866J-216959D01*
G01*
X43419034Y-60453123D02*
G75*
G03*
X44121807Y-59804544I252259J431700D01*
G01*
X44072334Y-59587666D02*
G75*
G03*
X44121808Y-59804544I500289J43D01*
G01*
X110747322Y-77231980D02*
X110747322Y-78637664D01*
X109841775Y-79434822D02*
X108252871Y-79434822D01*
X108252871Y-76434823D02*
X109841776Y-76434823D01*
X107347324Y-78637664D02*
X107347324Y-77231980D01*
X110747323Y-78637664D02*
G75*
G03*
X110796808Y-78854542I499989J-2D01*
G01*
X110094034Y-79503121D02*
G75*
G03*
X110796806Y-78854541I252259J431700D01*
G01*
X110796807Y-77015102D02*
G75*
G03*
X110747322Y-77231979I450505J-216876D01*
G01*
X110796807Y-77015102D02*
G75*
G03*
X110094034Y-76366524I-450514J216878D01*
G01*
X109841776Y-76434823D02*
G75*
G03*
X110094034Y-76366524I-3J500009D01*
G01*
X110094034Y-79503121D02*
G75*
G03*
X109841775Y-79434822I-252261J-431710D01*
G01*
X108000612Y-76366523D02*
G75*
G03*
X108252870Y-76434822I252261J431710D01*
G01*
X108252871Y-79434823D02*
G75*
G03*
X108000613Y-79503121I2J-500010D01*
G01*
X107297843Y-78854544D02*
G75*
G03*
X108000612Y-79503119I450510J-216879D01*
G01*
X107297839Y-78854542D02*
G75*
G03*
X107347324Y-78637665I-450866J216959D01*
G01*
X108000612Y-76366523D02*
G75*
G03*
X107297839Y-77015102I-252259J-431700D01*
G01*
X107347312Y-77231980D02*
G75*
G03*
X107297838Y-77015102I-500289J-43D01*
G01*
X129797322Y-77231980D02*
X129797322Y-78637664D01*
X128891775Y-79434822D02*
X127302871Y-79434822D01*
X127302871Y-76434823D02*
X128891776Y-76434823D01*
X126397324Y-78637664D02*
X126397324Y-77231980D01*
X129797323Y-78637664D02*
G75*
G03*
X129846808Y-78854542I499989J-2D01*
G01*
X129144034Y-79503121D02*
G75*
G03*
X129846806Y-78854541I252259J431700D01*
G01*
X129846807Y-77015102D02*
G75*
G03*
X129797322Y-77231979I450505J-216876D01*
G01*
X129846807Y-77015102D02*
G75*
G03*
X129144034Y-76366524I-450514J216878D01*
G01*
X128891776Y-76434823D02*
G75*
G03*
X129144034Y-76366524I-3J500009D01*
G01*
X129144034Y-79503121D02*
G75*
G03*
X128891775Y-79434822I-252261J-431710D01*
G01*
X127050612Y-76366523D02*
G75*
G03*
X127302870Y-76434822I252261J431710D01*
G01*
X127302871Y-79434823D02*
G75*
G03*
X127050613Y-79503121I2J-500010D01*
G01*
X126347843Y-78854544D02*
G75*
G03*
X127050612Y-79503119I450510J-216879D01*
G01*
X126347839Y-78854542D02*
G75*
G03*
X126397324Y-78637665I-450866J216959D01*
G01*
X127050612Y-76366523D02*
G75*
G03*
X126347839Y-77015102I-252259J-431700D01*
G01*
X126397312Y-77231980D02*
G75*
G03*
X126347838Y-77015102I-500289J-43D01*
G01*
X72647322Y-77231980D02*
X72647322Y-78637664D01*
X71741775Y-79434822D02*
X70152871Y-79434822D01*
X70152871Y-76434823D02*
X71741776Y-76434823D01*
X69247324Y-78637664D02*
X69247324Y-77231980D01*
X72647323Y-78637664D02*
G75*
G03*
X72696808Y-78854542I499989J-2D01*
G01*
X71994034Y-79503121D02*
G75*
G03*
X72696806Y-78854541I252259J431700D01*
G01*
X72696807Y-77015102D02*
G75*
G03*
X72647322Y-77231979I450505J-216876D01*
G01*
X72696807Y-77015102D02*
G75*
G03*
X71994034Y-76366524I-450514J216878D01*
G01*
X71741776Y-76434823D02*
G75*
G03*
X71994034Y-76366524I-3J500009D01*
G01*
X71994034Y-79503121D02*
G75*
G03*
X71741775Y-79434822I-252261J-431710D01*
G01*
X69900612Y-76366523D02*
G75*
G03*
X70152870Y-76434822I252261J431710D01*
G01*
X70152871Y-79434823D02*
G75*
G03*
X69900613Y-79503121I2J-500010D01*
G01*
X69197843Y-78854544D02*
G75*
G03*
X69900612Y-79503119I450510J-216879D01*
G01*
X69197839Y-78854542D02*
G75*
G03*
X69247324Y-78637665I-450866J216959D01*
G01*
X69900612Y-76366523D02*
G75*
G03*
X69197839Y-77015102I-252259J-431700D01*
G01*
X69247312Y-77231980D02*
G75*
G03*
X69197838Y-77015102I-500289J-43D01*
G01*
X251241072Y-77231980D02*
X251241072Y-78637664D01*
X250335525Y-79434822D02*
X248746621Y-79434822D01*
X248746621Y-76434823D02*
X250335526Y-76434823D01*
X247841074Y-78637664D02*
X247841074Y-77231980D01*
X251241073Y-78637664D02*
G75*
G03*
X251290558Y-78854542I499989J-2D01*
G01*
X250587784Y-79503121D02*
G75*
G03*
X251290556Y-78854541I252259J431700D01*
G01*
X251290557Y-77015102D02*
G75*
G03*
X251241072Y-77231979I450505J-216876D01*
G01*
X251290557Y-77015102D02*
G75*
G03*
X250587784Y-76366524I-450514J216878D01*
G01*
X250335526Y-76434823D02*
G75*
G03*
X250587784Y-76366524I-3J500009D01*
G01*
X250587784Y-79503121D02*
G75*
G03*
X250335525Y-79434822I-252261J-431710D01*
G01*
X248494362Y-76366523D02*
G75*
G03*
X248746620Y-76434822I252261J431710D01*
G01*
X248746621Y-79434823D02*
G75*
G03*
X248494363Y-79503121I2J-500010D01*
G01*
X247791593Y-78854544D02*
G75*
G03*
X248494362Y-79503119I450510J-216879D01*
G01*
X247791589Y-78854542D02*
G75*
G03*
X247841074Y-78637665I-450866J216959D01*
G01*
X248494362Y-76366523D02*
G75*
G03*
X247791589Y-77015102I-252259J-431700D01*
G01*
X247841062Y-77231980D02*
G75*
G03*
X247791588Y-77015102I-500289J-43D01*
G01*
X178784824Y-21487666D02*
X178784824Y-20081982D01*
X179690371Y-19284824D02*
X181279275Y-19284824D01*
X181279275Y-22284823D02*
X179690370Y-22284823D01*
X182184822Y-20081982D02*
X182184822Y-21487666D01*
X178784823Y-20081982D02*
G75*
G03*
X178735338Y-19865104I-499989J2D01*
G01*
X179438112Y-19216525D02*
G75*
G03*
X178735340Y-19865105I-252259J-431700D01*
G01*
X178735339Y-21704544D02*
G75*
G03*
X178784824Y-21487667I-450505J216876D01*
G01*
X178735339Y-21704544D02*
G75*
G03*
X179438112Y-22353122I450514J-216878D01*
G01*
X179690370Y-22284823D02*
G75*
G03*
X179438112Y-22353122I3J-500009D01*
G01*
X179438112Y-19216525D02*
G75*
G03*
X179690371Y-19284824I252261J431710D01*
G01*
X181531534Y-22353123D02*
G75*
G03*
X181279276Y-22284824I-252261J-431710D01*
G01*
X181279275Y-19284823D02*
G75*
G03*
X181531533Y-19216525I-2J500010D01*
G01*
X182234303Y-19865102D02*
G75*
G03*
X181531534Y-19216527I-450510J216879D01*
G01*
X182234307Y-19865104D02*
G75*
G03*
X182184822Y-20081981I450866J-216959D01*
G01*
X181531534Y-22353123D02*
G75*
G03*
X182234307Y-21704544I252259J431700D01*
G01*
X182184834Y-21487666D02*
G75*
G03*
X182234308Y-21704544I500289J43D01*
G01*
X102584824Y-21487666D02*
X102584824Y-20081982D01*
X103490371Y-19284824D02*
X105079275Y-19284824D01*
X105079275Y-22284823D02*
X103490370Y-22284823D01*
X105984822Y-20081982D02*
X105984822Y-21487666D01*
X102584823Y-20081982D02*
G75*
G03*
X102535338Y-19865104I-499989J2D01*
G01*
X103238112Y-19216525D02*
G75*
G03*
X102535340Y-19865105I-252259J-431700D01*
G01*
X102535339Y-21704544D02*
G75*
G03*
X102584824Y-21487667I-450505J216876D01*
G01*
X102535339Y-21704544D02*
G75*
G03*
X103238112Y-22353122I450514J-216878D01*
G01*
X103490370Y-22284823D02*
G75*
G03*
X103238112Y-22353122I3J-500009D01*
G01*
X103238112Y-19216525D02*
G75*
G03*
X103490371Y-19284824I252261J431710D01*
G01*
X105331534Y-22353123D02*
G75*
G03*
X105079276Y-22284824I-252261J-431710D01*
G01*
X105079275Y-19284823D02*
G75*
G03*
X105331533Y-19216525I-2J500010D01*
G01*
X106034303Y-19865102D02*
G75*
G03*
X105331534Y-19216527I-450510J216879D01*
G01*
X106034307Y-19865104D02*
G75*
G03*
X105984822Y-20081981I450866J-216959D01*
G01*
X105331534Y-22353123D02*
G75*
G03*
X106034307Y-21704544I252259J431700D01*
G01*
X105984834Y-21487666D02*
G75*
G03*
X106034308Y-21704544I500289J43D01*
G01*
X148847322Y-77231980D02*
X148847322Y-78637664D01*
X147941775Y-79434822D02*
X146352871Y-79434822D01*
X146352871Y-76434823D02*
X147941776Y-76434823D01*
X145447324Y-78637664D02*
X145447324Y-77231980D01*
X148847323Y-78637664D02*
G75*
G03*
X148896808Y-78854542I499989J-2D01*
G01*
X148194034Y-79503121D02*
G75*
G03*
X148896806Y-78854541I252259J431700D01*
G01*
X148896807Y-77015102D02*
G75*
G03*
X148847322Y-77231979I450505J-216876D01*
G01*
X148896807Y-77015102D02*
G75*
G03*
X148194034Y-76366524I-450514J216878D01*
G01*
X147941776Y-76434823D02*
G75*
G03*
X148194034Y-76366524I-3J500009D01*
G01*
X148194034Y-79503121D02*
G75*
G03*
X147941775Y-79434822I-252261J-431710D01*
G01*
X146100612Y-76366523D02*
G75*
G03*
X146352870Y-76434822I252261J431710D01*
G01*
X146352871Y-79434823D02*
G75*
G03*
X146100613Y-79503121I2J-500010D01*
G01*
X145397843Y-78854544D02*
G75*
G03*
X146100612Y-79503119I450510J-216879D01*
G01*
X145397839Y-78854542D02*
G75*
G03*
X145447324Y-78637665I-450866J216959D01*
G01*
X146100612Y-76366523D02*
G75*
G03*
X145397839Y-77015102I-252259J-431700D01*
G01*
X145447312Y-77231980D02*
G75*
G03*
X145397838Y-77015102I-500289J-43D01*
G01*
X53597322Y-77231980D02*
X53597322Y-78637664D01*
X52691775Y-79434822D02*
X51102871Y-79434822D01*
X51102871Y-76434823D02*
X52691776Y-76434823D01*
X50197324Y-78637664D02*
X50197324Y-77231980D01*
X53597323Y-78637664D02*
G75*
G03*
X53646808Y-78854542I499989J-2D01*
G01*
X52944034Y-79503121D02*
G75*
G03*
X53646806Y-78854541I252259J431700D01*
G01*
X53646807Y-77015102D02*
G75*
G03*
X53597322Y-77231979I450505J-216876D01*
G01*
X53646807Y-77015102D02*
G75*
G03*
X52944034Y-76366524I-450514J216878D01*
G01*
X52691776Y-76434823D02*
G75*
G03*
X52944034Y-76366524I-3J500009D01*
G01*
X52944034Y-79503121D02*
G75*
G03*
X52691775Y-79434822I-252261J-431710D01*
G01*
X50850612Y-76366523D02*
G75*
G03*
X51102870Y-76434822I252261J431710D01*
G01*
X51102871Y-79434823D02*
G75*
G03*
X50850613Y-79503121I2J-500010D01*
G01*
X50147843Y-78854544D02*
G75*
G03*
X50850612Y-79503119I450510J-216879D01*
G01*
X50147839Y-78854542D02*
G75*
G03*
X50197324Y-78637665I-450866J216959D01*
G01*
X50850612Y-76366523D02*
G75*
G03*
X50147839Y-77015102I-252259J-431700D01*
G01*
X50197312Y-77231980D02*
G75*
G03*
X50147838Y-77015102I-500289J-43D01*
G01*
X296484822Y-77231980D02*
X296484822Y-78637664D01*
X295579275Y-79434822D02*
X293990371Y-79434822D01*
X293990371Y-76434823D02*
X295579276Y-76434823D01*
X293084824Y-78637664D02*
X293084824Y-77231980D01*
X296484823Y-78637664D02*
G75*
G03*
X296534308Y-78854542I499989J-2D01*
G01*
X295831534Y-79503121D02*
G75*
G03*
X296534306Y-78854541I252259J431700D01*
G01*
X296534307Y-77015102D02*
G75*
G03*
X296484822Y-77231979I450505J-216876D01*
G01*
X296534307Y-77015102D02*
G75*
G03*
X295831534Y-76366524I-450514J216878D01*
G01*
X295579276Y-76434823D02*
G75*
G03*
X295831534Y-76366524I-3J500009D01*
G01*
X295831534Y-79503121D02*
G75*
G03*
X295579275Y-79434822I-252261J-431710D01*
G01*
X293738112Y-76366523D02*
G75*
G03*
X293990370Y-76434822I252261J431710D01*
G01*
X293990371Y-79434823D02*
G75*
G03*
X293738113Y-79503121I2J-500010D01*
G01*
X293035343Y-78854544D02*
G75*
G03*
X293738112Y-79503119I450510J-216879D01*
G01*
X293035339Y-78854542D02*
G75*
G03*
X293084824Y-78637665I-450866J216959D01*
G01*
X293738112Y-76366523D02*
G75*
G03*
X293035339Y-77015102I-252259J-431700D01*
G01*
X293084812Y-77231980D02*
G75*
G03*
X293035338Y-77015102I-500289J-43D01*
G01*
X172659822Y-39131980D02*
X172659822Y-40537664D01*
X171754275Y-41334822D02*
X170165371Y-41334822D01*
X170165371Y-38334823D02*
X171754276Y-38334823D01*
X169259824Y-40537664D02*
X169259824Y-39131980D01*
X172659823Y-40537664D02*
G75*
G03*
X172709308Y-40754542I499989J-2D01*
G01*
X172006534Y-41403121D02*
G75*
G03*
X172709306Y-40754541I252259J431700D01*
G01*
X172709307Y-38915102D02*
G75*
G03*
X172659822Y-39131979I450505J-216876D01*
G01*
X172709307Y-38915102D02*
G75*
G03*
X172006534Y-38266524I-450514J216878D01*
G01*
X171754276Y-38334823D02*
G75*
G03*
X172006534Y-38266524I-3J500009D01*
G01*
X172006534Y-41403121D02*
G75*
G03*
X171754275Y-41334822I-252261J-431710D01*
G01*
X169913112Y-38266523D02*
G75*
G03*
X170165370Y-38334822I252261J431710D01*
G01*
X170165371Y-41334823D02*
G75*
G03*
X169913113Y-41403121I2J-500010D01*
G01*
X169210343Y-40754544D02*
G75*
G03*
X169913112Y-41403119I450510J-216879D01*
G01*
X169210339Y-40754542D02*
G75*
G03*
X169259824Y-40537665I-450866J216959D01*
G01*
X169913112Y-38266523D02*
G75*
G03*
X169210339Y-38915102I-252259J-431700D01*
G01*
X169259812Y-39131980D02*
G75*
G03*
X169210338Y-38915102I-500289J-43D01*
G01*
X296484822Y-39131980D02*
X296484822Y-40537664D01*
X295579275Y-41334822D02*
X293990371Y-41334822D01*
X293990371Y-38334823D02*
X295579276Y-38334823D01*
X293084824Y-40537664D02*
X293084824Y-39131980D01*
X296484823Y-40537664D02*
G75*
G03*
X296534308Y-40754542I499989J-2D01*
G01*
X295831534Y-41403121D02*
G75*
G03*
X296534306Y-40754541I252259J431700D01*
G01*
X296534307Y-38915102D02*
G75*
G03*
X296484822Y-39131979I450505J-216876D01*
G01*
X296534307Y-38915102D02*
G75*
G03*
X295831534Y-38266524I-450514J216878D01*
G01*
X295579276Y-38334823D02*
G75*
G03*
X295831534Y-38266524I-3J500009D01*
G01*
X295831534Y-41403121D02*
G75*
G03*
X295579275Y-41334822I-252261J-431710D01*
G01*
X293738112Y-38266523D02*
G75*
G03*
X293990370Y-38334822I252261J431710D01*
G01*
X293990371Y-41334823D02*
G75*
G03*
X293738113Y-41403121I2J-500010D01*
G01*
X293035343Y-40754544D02*
G75*
G03*
X293738112Y-41403119I450510J-216879D01*
G01*
X293035339Y-40754542D02*
G75*
G03*
X293084824Y-40537665I-450866J216959D01*
G01*
X293738112Y-38266523D02*
G75*
G03*
X293035339Y-38915102I-252259J-431700D01*
G01*
X293084812Y-39131980D02*
G75*
G03*
X293035338Y-38915102I-500289J-43D01*
G01*
X26384824Y-21487666D02*
X26384824Y-20081982D01*
X27290371Y-19284824D02*
X28879275Y-19284824D01*
X28879275Y-22284823D02*
X27290370Y-22284823D01*
X29784822Y-20081982D02*
X29784822Y-21487666D01*
X26384823Y-20081982D02*
G75*
G03*
X26335338Y-19865104I-499989J2D01*
G01*
X27038112Y-19216525D02*
G75*
G03*
X26335340Y-19865105I-252259J-431700D01*
G01*
X26335339Y-21704544D02*
G75*
G03*
X26384824Y-21487667I-450505J216876D01*
G01*
X26335339Y-21704544D02*
G75*
G03*
X27038112Y-22353122I450514J-216878D01*
G01*
X27290370Y-22284823D02*
G75*
G03*
X27038112Y-22353122I3J-500009D01*
G01*
X27038112Y-19216525D02*
G75*
G03*
X27290371Y-19284824I252261J431710D01*
G01*
X29131534Y-22353123D02*
G75*
G03*
X28879276Y-22284824I-252261J-431710D01*
G01*
X28879275Y-19284823D02*
G75*
G03*
X29131533Y-19216525I-2J500010D01*
G01*
X29834303Y-19865102D02*
G75*
G03*
X29131534Y-19216527I-450510J216879D01*
G01*
X29834307Y-19865104D02*
G75*
G03*
X29784822Y-20081981I450866J-216959D01*
G01*
X29131534Y-22353123D02*
G75*
G03*
X29834307Y-21704544I252259J431700D01*
G01*
X29784834Y-21487666D02*
G75*
G03*
X29834308Y-21704544I500289J43D01*
G01*
X134559822Y-39131980D02*
X134559822Y-40537664D01*
X133654275Y-41334822D02*
X132065371Y-41334822D01*
X132065371Y-38334823D02*
X133654276Y-38334823D01*
X131159824Y-40537664D02*
X131159824Y-39131980D01*
X134559823Y-40537664D02*
G75*
G03*
X134609308Y-40754542I499989J-2D01*
G01*
X133906534Y-41403121D02*
G75*
G03*
X134609306Y-40754541I252259J431700D01*
G01*
X134609307Y-38915102D02*
G75*
G03*
X134559822Y-39131979I450505J-216876D01*
G01*
X134609307Y-38915102D02*
G75*
G03*
X133906534Y-38266524I-450514J216878D01*
G01*
X133654276Y-38334823D02*
G75*
G03*
X133906534Y-38266524I-3J500009D01*
G01*
X133906534Y-41403121D02*
G75*
G03*
X133654275Y-41334822I-252261J-431710D01*
G01*
X131813112Y-38266523D02*
G75*
G03*
X132065370Y-38334822I252261J431710D01*
G01*
X132065371Y-41334823D02*
G75*
G03*
X131813113Y-41403121I2J-500010D01*
G01*
X131110343Y-40754544D02*
G75*
G03*
X131813112Y-41403119I450510J-216879D01*
G01*
X131110339Y-40754542D02*
G75*
G03*
X131159824Y-40537665I-450866J216959D01*
G01*
X131813112Y-38266523D02*
G75*
G03*
X131110339Y-38915102I-252259J-431700D01*
G01*
X131159812Y-39131980D02*
G75*
G03*
X131110338Y-38915102I-500289J-43D01*
G01*
X78772324Y-59587666D02*
X78772324Y-58181982D01*
X79677871Y-57384824D02*
X81266775Y-57384824D01*
X81266775Y-60384823D02*
X79677870Y-60384823D01*
X82172322Y-58181982D02*
X82172322Y-59587666D01*
X78772323Y-58181982D02*
G75*
G03*
X78722838Y-57965104I-499989J2D01*
G01*
X79425612Y-57316525D02*
G75*
G03*
X78722840Y-57965105I-252259J-431700D01*
G01*
X78722839Y-59804544D02*
G75*
G03*
X78772324Y-59587667I-450505J216876D01*
G01*
X78722839Y-59804544D02*
G75*
G03*
X79425612Y-60453122I450514J-216878D01*
G01*
X79677870Y-60384823D02*
G75*
G03*
X79425612Y-60453122I3J-500009D01*
G01*
X79425612Y-57316525D02*
G75*
G03*
X79677871Y-57384824I252261J431710D01*
G01*
X81519034Y-60453123D02*
G75*
G03*
X81266776Y-60384824I-252261J-431710D01*
G01*
X81266775Y-57384823D02*
G75*
G03*
X81519033Y-57316525I-2J500010D01*
G01*
X82221803Y-57965102D02*
G75*
G03*
X81519034Y-57316527I-450510J216879D01*
G01*
X82221807Y-57965104D02*
G75*
G03*
X82172322Y-58181981I450866J-216959D01*
G01*
X81519034Y-60453123D02*
G75*
G03*
X82221807Y-59804544I252259J431700D01*
G01*
X82172334Y-59587666D02*
G75*
G03*
X82221808Y-59804544I500289J43D01*
G01*
X121634824Y-21487666D02*
X121634824Y-20081982D01*
X122540371Y-19284824D02*
X124129275Y-19284824D01*
X124129275Y-22284823D02*
X122540370Y-22284823D01*
X125034822Y-20081982D02*
X125034822Y-21487666D01*
X121634823Y-20081982D02*
G75*
G03*
X121585338Y-19865104I-499989J2D01*
G01*
X122288112Y-19216525D02*
G75*
G03*
X121585340Y-19865105I-252259J-431700D01*
G01*
X121585339Y-21704544D02*
G75*
G03*
X121634824Y-21487667I-450505J216876D01*
G01*
X121585339Y-21704544D02*
G75*
G03*
X122288112Y-22353122I450514J-216878D01*
G01*
X122540370Y-22284823D02*
G75*
G03*
X122288112Y-22353122I3J-500009D01*
G01*
X122288112Y-19216525D02*
G75*
G03*
X122540371Y-19284824I252261J431710D01*
G01*
X124381534Y-22353123D02*
G75*
G03*
X124129276Y-22284824I-252261J-431710D01*
G01*
X124129275Y-19284823D02*
G75*
G03*
X124381533Y-19216525I-2J500010D01*
G01*
X125084303Y-19865102D02*
G75*
G03*
X124381534Y-19216527I-450510J216879D01*
G01*
X125084307Y-19865104D02*
G75*
G03*
X125034822Y-20081981I450866J-216959D01*
G01*
X124381534Y-22353123D02*
G75*
G03*
X125084307Y-21704544I252259J431700D01*
G01*
X125034834Y-21487666D02*
G75*
G03*
X125084308Y-21704544I500289J43D01*
G01*
X191709822Y-39131980D02*
X191709822Y-40537664D01*
X190804275Y-41334822D02*
X189215371Y-41334822D01*
X189215371Y-38334823D02*
X190804276Y-38334823D01*
X188309824Y-40537664D02*
X188309824Y-39131980D01*
X191709823Y-40537664D02*
G75*
G03*
X191759308Y-40754542I499989J-2D01*
G01*
X191056534Y-41403121D02*
G75*
G03*
X191759306Y-40754541I252259J431700D01*
G01*
X191759307Y-38915102D02*
G75*
G03*
X191709822Y-39131979I450505J-216876D01*
G01*
X191759307Y-38915102D02*
G75*
G03*
X191056534Y-38266524I-450514J216878D01*
G01*
X190804276Y-38334823D02*
G75*
G03*
X191056534Y-38266524I-3J500009D01*
G01*
X191056534Y-41403121D02*
G75*
G03*
X190804275Y-41334822I-252261J-431710D01*
G01*
X188963112Y-38266523D02*
G75*
G03*
X189215370Y-38334822I252261J431710D01*
G01*
X189215371Y-41334823D02*
G75*
G03*
X188963113Y-41403121I2J-500010D01*
G01*
X188260343Y-40754544D02*
G75*
G03*
X188963112Y-41403119I450510J-216879D01*
G01*
X188260339Y-40754542D02*
G75*
G03*
X188309824Y-40537665I-450866J216959D01*
G01*
X188963112Y-38266523D02*
G75*
G03*
X188260339Y-38915102I-252259J-431700D01*
G01*
X188309812Y-39131980D02*
G75*
G03*
X188260338Y-38915102I-500289J-43D01*
G01*
X96459822Y-39131980D02*
X96459822Y-40537664D01*
X95554275Y-41334822D02*
X93965371Y-41334822D01*
X93965371Y-38334823D02*
X95554276Y-38334823D01*
X93059824Y-40537664D02*
X93059824Y-39131980D01*
X96459823Y-40537664D02*
G75*
G03*
X96509308Y-40754542I499989J-2D01*
G01*
X95806534Y-41403121D02*
G75*
G03*
X96509306Y-40754541I252259J431700D01*
G01*
X96509307Y-38915102D02*
G75*
G03*
X96459822Y-39131979I450505J-216876D01*
G01*
X96509307Y-38915102D02*
G75*
G03*
X95806534Y-38266524I-450514J216878D01*
G01*
X95554276Y-38334823D02*
G75*
G03*
X95806534Y-38266524I-3J500009D01*
G01*
X95806534Y-41403121D02*
G75*
G03*
X95554275Y-41334822I-252261J-431710D01*
G01*
X93713112Y-38266523D02*
G75*
G03*
X93965370Y-38334822I252261J431710D01*
G01*
X93965371Y-41334823D02*
G75*
G03*
X93713113Y-41403121I2J-500010D01*
G01*
X93010343Y-40754544D02*
G75*
G03*
X93713112Y-41403119I450510J-216879D01*
G01*
X93010339Y-40754542D02*
G75*
G03*
X93059824Y-40537665I-450866J216959D01*
G01*
X93713112Y-38266523D02*
G75*
G03*
X93010339Y-38915102I-252259J-431700D01*
G01*
X93059812Y-39131980D02*
G75*
G03*
X93010338Y-38915102I-500289J-43D01*
G01*
X22641072Y-77231980D02*
X22641072Y-78637664D01*
X21735525Y-79434822D02*
X20146621Y-79434822D01*
X20146621Y-76434823D02*
X21735526Y-76434823D01*
X19241074Y-78637664D02*
X19241074Y-77231980D01*
X22641073Y-78637664D02*
G75*
G03*
X22690558Y-78854542I499989J-2D01*
G01*
X21987784Y-79503121D02*
G75*
G03*
X22690556Y-78854541I252259J431700D01*
G01*
X22690557Y-77015102D02*
G75*
G03*
X22641072Y-77231979I450505J-216876D01*
G01*
X22690557Y-77015102D02*
G75*
G03*
X21987784Y-76366524I-450514J216878D01*
G01*
X21735526Y-76434823D02*
G75*
G03*
X21987784Y-76366524I-3J500009D01*
G01*
X21987784Y-79503121D02*
G75*
G03*
X21735525Y-79434822I-252261J-431710D01*
G01*
X19894362Y-76366523D02*
G75*
G03*
X20146620Y-76434822I252261J431710D01*
G01*
X20146621Y-79434823D02*
G75*
G03*
X19894363Y-79503121I2J-500010D01*
G01*
X19191593Y-78854544D02*
G75*
G03*
X19894362Y-79503119I450510J-216879D01*
G01*
X19191589Y-78854542D02*
G75*
G03*
X19241074Y-78637665I-450866J216959D01*
G01*
X19894362Y-76366523D02*
G75*
G03*
X19191589Y-77015102I-252259J-431700D01*
G01*
X19241062Y-77231980D02*
G75*
G03*
X19191588Y-77015102I-500289J-43D01*
G01*
X116872324Y-59587666D02*
X116872324Y-58181982D01*
X117777871Y-57384824D02*
X119366775Y-57384824D01*
X119366775Y-60384823D02*
X117777870Y-60384823D01*
X120272322Y-58181982D02*
X120272322Y-59587666D01*
X116872323Y-58181982D02*
G75*
G03*
X116822838Y-57965104I-499989J2D01*
G01*
X117525612Y-57316525D02*
G75*
G03*
X116822840Y-57965105I-252259J-431700D01*
G01*
X116822839Y-59804544D02*
G75*
G03*
X116872324Y-59587667I-450505J216876D01*
G01*
X116822839Y-59804544D02*
G75*
G03*
X117525612Y-60453122I450514J-216878D01*
G01*
X117777870Y-60384823D02*
G75*
G03*
X117525612Y-60453122I3J-500009D01*
G01*
X117525612Y-57316525D02*
G75*
G03*
X117777871Y-57384824I252261J431710D01*
G01*
X119619034Y-60453123D02*
G75*
G03*
X119366776Y-60384824I-252261J-431710D01*
G01*
X119366775Y-57384823D02*
G75*
G03*
X119619033Y-57316525I-2J500010D01*
G01*
X120321803Y-57965102D02*
G75*
G03*
X119619034Y-57316527I-450510J216879D01*
G01*
X120321807Y-57965104D02*
G75*
G03*
X120272322Y-58181981I450866J-216959D01*
G01*
X119619034Y-60453123D02*
G75*
G03*
X120321807Y-59804544I252259J431700D01*
G01*
X120272334Y-59587666D02*
G75*
G03*
X120321808Y-59804544I500289J43D01*
G01*
X154972324Y-59587666D02*
X154972324Y-58181982D01*
X155877871Y-57384824D02*
X157466775Y-57384824D01*
X157466775Y-60384823D02*
X155877870Y-60384823D01*
X158372322Y-58181982D02*
X158372322Y-59587666D01*
X154972323Y-58181982D02*
G75*
G03*
X154922838Y-57965104I-499989J2D01*
G01*
X155625612Y-57316525D02*
G75*
G03*
X154922840Y-57965105I-252259J-431700D01*
G01*
X154922839Y-59804544D02*
G75*
G03*
X154972324Y-59587667I-450505J216876D01*
G01*
X154922839Y-59804544D02*
G75*
G03*
X155625612Y-60453122I450514J-216878D01*
G01*
X155877870Y-60384823D02*
G75*
G03*
X155625612Y-60453122I3J-500009D01*
G01*
X155625612Y-57316525D02*
G75*
G03*
X155877871Y-57384824I252261J431710D01*
G01*
X157719034Y-60453123D02*
G75*
G03*
X157466776Y-60384824I-252261J-431710D01*
G01*
X157466775Y-57384823D02*
G75*
G03*
X157719033Y-57316525I-2J500010D01*
G01*
X158421803Y-57965102D02*
G75*
G03*
X157719034Y-57316527I-450510J216879D01*
G01*
X158421807Y-57965104D02*
G75*
G03*
X158372322Y-58181981I450866J-216959D01*
G01*
X157719034Y-60453123D02*
G75*
G03*
X158421807Y-59804544I252259J431700D01*
G01*
X158372334Y-59587666D02*
G75*
G03*
X158421808Y-59804544I500289J43D01*
G01*
X59722324Y-59587666D02*
X59722324Y-58181982D01*
X60627871Y-57384824D02*
X62216775Y-57384824D01*
X62216775Y-60384823D02*
X60627870Y-60384823D01*
X63122322Y-58181982D02*
X63122322Y-59587666D01*
X59722323Y-58181982D02*
G75*
G03*
X59672838Y-57965104I-499989J2D01*
G01*
X60375612Y-57316525D02*
G75*
G03*
X59672840Y-57965105I-252259J-431700D01*
G01*
X59672839Y-59804544D02*
G75*
G03*
X59722324Y-59587667I-450505J216876D01*
G01*
X59672839Y-59804544D02*
G75*
G03*
X60375612Y-60453122I450514J-216878D01*
G01*
X60627870Y-60384823D02*
G75*
G03*
X60375612Y-60453122I3J-500009D01*
G01*
X60375612Y-57316525D02*
G75*
G03*
X60627871Y-57384824I252261J431710D01*
G01*
X62469034Y-60453123D02*
G75*
G03*
X62216776Y-60384824I-252261J-431710D01*
G01*
X62216775Y-57384823D02*
G75*
G03*
X62469033Y-57316525I-2J500010D01*
G01*
X63171803Y-57965102D02*
G75*
G03*
X62469034Y-57316527I-450510J216879D01*
G01*
X63171807Y-57965104D02*
G75*
G03*
X63122322Y-58181981I450866J-216959D01*
G01*
X62469034Y-60453123D02*
G75*
G03*
X63171807Y-59804544I252259J431700D01*
G01*
X63122334Y-59587666D02*
G75*
G03*
X63171808Y-59804544I500289J43D01*
G01*
X58359822Y-39131980D02*
X58359822Y-40537664D01*
X57454275Y-41334822D02*
X55865371Y-41334822D01*
X55865371Y-38334823D02*
X57454276Y-38334823D01*
X54959824Y-40537664D02*
X54959824Y-39131980D01*
X58359823Y-40537664D02*
G75*
G03*
X58409308Y-40754542I499989J-2D01*
G01*
X57706534Y-41403121D02*
G75*
G03*
X58409306Y-40754541I252259J431700D01*
G01*
X58409307Y-38915102D02*
G75*
G03*
X58359822Y-39131979I450505J-216876D01*
G01*
X58409307Y-38915102D02*
G75*
G03*
X57706534Y-38266524I-450514J216878D01*
G01*
X57454276Y-38334823D02*
G75*
G03*
X57706534Y-38266524I-3J500009D01*
G01*
X57706534Y-41403121D02*
G75*
G03*
X57454275Y-41334822I-252261J-431710D01*
G01*
X55613112Y-38266523D02*
G75*
G03*
X55865370Y-38334822I252261J431710D01*
G01*
X55865371Y-41334823D02*
G75*
G03*
X55613113Y-41403121I2J-500010D01*
G01*
X54910343Y-40754544D02*
G75*
G03*
X55613112Y-41403119I450510J-216879D01*
G01*
X54910339Y-40754542D02*
G75*
G03*
X54959824Y-40537665I-450866J216959D01*
G01*
X55613112Y-38266523D02*
G75*
G03*
X54910339Y-38915102I-252259J-431700D01*
G01*
X54959812Y-39131980D02*
G75*
G03*
X54910338Y-38915102I-500289J-43D01*
G01*
X64484824Y-21487666D02*
X64484824Y-20081982D01*
X65390371Y-19284824D02*
X66979275Y-19284824D01*
X66979275Y-22284823D02*
X65390370Y-22284823D01*
X67884822Y-20081982D02*
X67884822Y-21487666D01*
X64484823Y-20081982D02*
G75*
G03*
X64435338Y-19865104I-499989J2D01*
G01*
X65138112Y-19216525D02*
G75*
G03*
X64435340Y-19865105I-252259J-431700D01*
G01*
X64435339Y-21704544D02*
G75*
G03*
X64484824Y-21487667I-450505J216876D01*
G01*
X64435339Y-21704544D02*
G75*
G03*
X65138112Y-22353122I450514J-216878D01*
G01*
X65390370Y-22284823D02*
G75*
G03*
X65138112Y-22353122I3J-500009D01*
G01*
X65138112Y-19216525D02*
G75*
G03*
X65390371Y-19284824I252261J431710D01*
G01*
X67231534Y-22353123D02*
G75*
G03*
X66979276Y-22284824I-252261J-431710D01*
G01*
X66979275Y-19284823D02*
G75*
G03*
X67231533Y-19216525I-2J500010D01*
G01*
X67934303Y-19865102D02*
G75*
G03*
X67231534Y-19216527I-450510J216879D01*
G01*
X67934307Y-19865104D02*
G75*
G03*
X67884822Y-20081981I450866J-216959D01*
G01*
X67231534Y-22353123D02*
G75*
G03*
X67934307Y-21704544I252259J431700D01*
G01*
X67884834Y-21487666D02*
G75*
G03*
X67934308Y-21704544I500289J43D01*
G01*
X272672322Y-39131980D02*
X272672322Y-40537664D01*
X271766775Y-41334822D02*
X270177871Y-41334822D01*
X270177871Y-38334823D02*
X271766776Y-38334823D01*
X269272324Y-40537664D02*
X269272324Y-39131980D01*
X272672323Y-40537664D02*
G75*
G03*
X272721808Y-40754542I499989J-2D01*
G01*
X272019034Y-41403121D02*
G75*
G03*
X272721806Y-40754541I252259J431700D01*
G01*
X272721807Y-38915102D02*
G75*
G03*
X272672322Y-39131979I450505J-216876D01*
G01*
X272721807Y-38915102D02*
G75*
G03*
X272019034Y-38266524I-450514J216878D01*
G01*
X271766776Y-38334823D02*
G75*
G03*
X272019034Y-38266524I-3J500009D01*
G01*
X272019034Y-41403121D02*
G75*
G03*
X271766775Y-41334822I-252261J-431710D01*
G01*
X269925612Y-38266523D02*
G75*
G03*
X270177870Y-38334822I252261J431710D01*
G01*
X270177871Y-41334823D02*
G75*
G03*
X269925613Y-41403121I2J-500010D01*
G01*
X269222843Y-40754544D02*
G75*
G03*
X269925612Y-41403119I450510J-216879D01*
G01*
X269222839Y-40754542D02*
G75*
G03*
X269272324Y-40537665I-450866J216959D01*
G01*
X269925612Y-38266523D02*
G75*
G03*
X269222839Y-38915102I-252259J-431700D01*
G01*
X269272312Y-39131980D02*
G75*
G03*
X269222838Y-38915102I-500289J-43D01*
G01*
X293084824Y-59587666D02*
X293084824Y-58181982D01*
X293990371Y-57384824D02*
X295579275Y-57384824D01*
X295579275Y-60384823D02*
X293990370Y-60384823D01*
X296484822Y-58181982D02*
X296484822Y-59587666D01*
X293084823Y-58181982D02*
G75*
G03*
X293035338Y-57965104I-499989J2D01*
G01*
X293738112Y-57316525D02*
G75*
G03*
X293035340Y-57965105I-252259J-431700D01*
G01*
X293035339Y-59804544D02*
G75*
G03*
X293084824Y-59587667I-450505J216876D01*
G01*
X293035339Y-59804544D02*
G75*
G03*
X293738112Y-60453122I450514J-216878D01*
G01*
X293990370Y-60384823D02*
G75*
G03*
X293738112Y-60453122I3J-500009D01*
G01*
X293738112Y-57316525D02*
G75*
G03*
X293990371Y-57384824I252261J431710D01*
G01*
X295831534Y-60453123D02*
G75*
G03*
X295579276Y-60384824I-252261J-431710D01*
G01*
X295579275Y-57384823D02*
G75*
G03*
X295831533Y-57316525I-2J500010D01*
G01*
X296534303Y-57965102D02*
G75*
G03*
X295831534Y-57316527I-450510J216879D01*
G01*
X296534307Y-57965104D02*
G75*
G03*
X296484822Y-58181981I450866J-216959D01*
G01*
X295831534Y-60453123D02*
G75*
G03*
X296534307Y-59804544I252259J431700D01*
G01*
X296484834Y-59587666D02*
G75*
G03*
X296534308Y-59804544I500289J43D01*
G01*
X135922324Y-59587666D02*
X135922324Y-58181982D01*
X136827871Y-57384824D02*
X138416775Y-57384824D01*
X138416775Y-60384823D02*
X136827870Y-60384823D01*
X139322322Y-58181982D02*
X139322322Y-59587666D01*
X135922323Y-58181982D02*
G75*
G03*
X135872838Y-57965104I-499989J2D01*
G01*
X136575612Y-57316525D02*
G75*
G03*
X135872840Y-57965105I-252259J-431700D01*
G01*
X135872839Y-59804544D02*
G75*
G03*
X135922324Y-59587667I-450505J216876D01*
G01*
X135872839Y-59804544D02*
G75*
G03*
X136575612Y-60453122I450514J-216878D01*
G01*
X136827870Y-60384823D02*
G75*
G03*
X136575612Y-60453122I3J-500009D01*
G01*
X136575612Y-57316525D02*
G75*
G03*
X136827871Y-57384824I252261J431710D01*
G01*
X138669034Y-60453123D02*
G75*
G03*
X138416776Y-60384824I-252261J-431710D01*
G01*
X138416775Y-57384823D02*
G75*
G03*
X138669033Y-57316525I-2J500010D01*
G01*
X139371803Y-57965102D02*
G75*
G03*
X138669034Y-57316527I-450510J216879D01*
G01*
X139371807Y-57965104D02*
G75*
G03*
X139322322Y-58181981I450866J-216959D01*
G01*
X138669034Y-60453123D02*
G75*
G03*
X139371807Y-59804544I252259J431700D01*
G01*
X139322334Y-59587666D02*
G75*
G03*
X139371808Y-59804544I500289J43D01*
G01*
X235934824Y-21487666D02*
X235934824Y-20081982D01*
X236840371Y-19284824D02*
X238429275Y-19284824D01*
X238429275Y-22284823D02*
X236840370Y-22284823D01*
X239334822Y-20081982D02*
X239334822Y-21487666D01*
X235934823Y-20081982D02*
G75*
G03*
X235885338Y-19865104I-499989J2D01*
G01*
X236588112Y-19216525D02*
G75*
G03*
X235885340Y-19865105I-252259J-431700D01*
G01*
X235885339Y-21704544D02*
G75*
G03*
X235934824Y-21487667I-450505J216876D01*
G01*
X235885339Y-21704544D02*
G75*
G03*
X236588112Y-22353122I450514J-216878D01*
G01*
X236840370Y-22284823D02*
G75*
G03*
X236588112Y-22353122I3J-500009D01*
G01*
X236588112Y-19216525D02*
G75*
G03*
X236840371Y-19284824I252261J431710D01*
G01*
X238681534Y-22353123D02*
G75*
G03*
X238429276Y-22284824I-252261J-431710D01*
G01*
X238429275Y-19284823D02*
G75*
G03*
X238681533Y-19216525I-2J500010D01*
G01*
X239384303Y-19865102D02*
G75*
G03*
X238681534Y-19216527I-450510J216879D01*
G01*
X239384307Y-19865104D02*
G75*
G03*
X239334822Y-20081981I450866J-216959D01*
G01*
X238681534Y-22353123D02*
G75*
G03*
X239384307Y-21704544I252259J431700D01*
G01*
X239334834Y-21487666D02*
G75*
G03*
X239384308Y-21704544I500289J43D01*
G01*
X212122324Y-59587666D02*
X212122324Y-58181982D01*
X213027871Y-57384824D02*
X214616775Y-57384824D01*
X214616775Y-60384823D02*
X213027870Y-60384823D01*
X215522322Y-58181982D02*
X215522322Y-59587666D01*
X212122323Y-58181982D02*
G75*
G03*
X212072838Y-57965104I-499989J2D01*
G01*
X212775612Y-57316525D02*
G75*
G03*
X212072840Y-57965105I-252259J-431700D01*
G01*
X212072839Y-59804544D02*
G75*
G03*
X212122324Y-59587667I-450505J216876D01*
G01*
X212072839Y-59804544D02*
G75*
G03*
X212775612Y-60453122I450514J-216878D01*
G01*
X213027870Y-60384823D02*
G75*
G03*
X212775612Y-60453122I3J-500009D01*
G01*
X212775612Y-57316525D02*
G75*
G03*
X213027871Y-57384824I252261J431710D01*
G01*
X214869034Y-60453123D02*
G75*
G03*
X214616776Y-60384824I-252261J-431710D01*
G01*
X214616775Y-57384823D02*
G75*
G03*
X214869033Y-57316525I-2J500010D01*
G01*
X215571803Y-57965102D02*
G75*
G03*
X214869034Y-57316527I-450510J216879D01*
G01*
X215571807Y-57965104D02*
G75*
G03*
X215522322Y-58181981I450866J-216959D01*
G01*
X214869034Y-60453123D02*
G75*
G03*
X215571807Y-59804544I252259J431700D01*
G01*
X215522334Y-59587666D02*
G75*
G03*
X215571808Y-59804544I500289J43D01*
G01*
X293084824Y-21487666D02*
X293084824Y-20081982D01*
X293990371Y-19284824D02*
X295579275Y-19284824D01*
X295579275Y-22284823D02*
X293990370Y-22284823D01*
X296484822Y-20081982D02*
X296484822Y-21487666D01*
X293084823Y-20081982D02*
G75*
G03*
X293035338Y-19865104I-499989J2D01*
G01*
X293738112Y-19216525D02*
G75*
G03*
X293035340Y-19865105I-252259J-431700D01*
G01*
X293035339Y-21704544D02*
G75*
G03*
X293084824Y-21487667I-450505J216876D01*
G01*
X293035339Y-21704544D02*
G75*
G03*
X293738112Y-22353122I450514J-216878D01*
G01*
X293990370Y-22284823D02*
G75*
G03*
X293738112Y-22353122I3J-500009D01*
G01*
X293738112Y-19216525D02*
G75*
G03*
X293990371Y-19284824I252261J431710D01*
G01*
X295831534Y-22353123D02*
G75*
G03*
X295579276Y-22284824I-252261J-431710D01*
G01*
X295579275Y-19284823D02*
G75*
G03*
X295831533Y-19216525I-2J500010D01*
G01*
X296534303Y-19865102D02*
G75*
G03*
X295831534Y-19216527I-450510J216879D01*
G01*
X296534307Y-19865104D02*
G75*
G03*
X296484822Y-20081981I450866J-216959D01*
G01*
X295831534Y-22353123D02*
G75*
G03*
X296534307Y-21704544I252259J431700D01*
G01*
X296484834Y-21487666D02*
G75*
G03*
X296534308Y-21704544I500289J43D01*
G01*
X153609822Y-39131980D02*
X153609822Y-40537664D01*
X152704275Y-41334822D02*
X151115371Y-41334822D01*
X151115371Y-38334823D02*
X152704276Y-38334823D01*
X150209824Y-40537664D02*
X150209824Y-39131980D01*
X153609823Y-40537664D02*
G75*
G03*
X153659308Y-40754542I499989J-2D01*
G01*
X152956534Y-41403121D02*
G75*
G03*
X153659306Y-40754541I252259J431700D01*
G01*
X153659307Y-38915102D02*
G75*
G03*
X153609822Y-39131979I450505J-216876D01*
G01*
X153659307Y-38915102D02*
G75*
G03*
X152956534Y-38266524I-450514J216878D01*
G01*
X152704276Y-38334823D02*
G75*
G03*
X152956534Y-38266524I-3J500009D01*
G01*
X152956534Y-41403121D02*
G75*
G03*
X152704275Y-41334822I-252261J-431710D01*
G01*
X150863112Y-38266523D02*
G75*
G03*
X151115370Y-38334822I252261J431710D01*
G01*
X151115371Y-41334823D02*
G75*
G03*
X150863113Y-41403121I2J-500010D01*
G01*
X150160343Y-40754544D02*
G75*
G03*
X150863112Y-41403119I450510J-216879D01*
G01*
X150160339Y-40754542D02*
G75*
G03*
X150209824Y-40537665I-450866J216959D01*
G01*
X150863112Y-38266523D02*
G75*
G03*
X150160339Y-38915102I-252259J-431700D01*
G01*
X150209812Y-39131980D02*
G75*
G03*
X150160338Y-38915102I-500289J-43D01*
G01*
X293084824Y-97687666D02*
X293084824Y-96281982D01*
X293990371Y-95484824D02*
X295579275Y-95484824D01*
X295579275Y-98484823D02*
X293990370Y-98484823D01*
X296484822Y-96281982D02*
X296484822Y-97687666D01*
X293084823Y-96281982D02*
G75*
G03*
X293035338Y-96065104I-499989J2D01*
G01*
X293738112Y-95416525D02*
G75*
G03*
X293035340Y-96065105I-252259J-431700D01*
G01*
X293035339Y-97904544D02*
G75*
G03*
X293084824Y-97687667I-450505J216876D01*
G01*
X293035339Y-97904544D02*
G75*
G03*
X293738112Y-98553122I450514J-216878D01*
G01*
X293990370Y-98484823D02*
G75*
G03*
X293738112Y-98553122I3J-500009D01*
G01*
X293738112Y-95416525D02*
G75*
G03*
X293990371Y-95484824I252261J431710D01*
G01*
X295831534Y-98553123D02*
G75*
G03*
X295579276Y-98484824I-252261J-431710D01*
G01*
X295579275Y-95484823D02*
G75*
G03*
X295831533Y-95416525I-2J500010D01*
G01*
X296534303Y-96065102D02*
G75*
G03*
X295831534Y-95416527I-450510J216879D01*
G01*
X296534307Y-96065104D02*
G75*
G03*
X296484822Y-96281981I450866J-216959D01*
G01*
X295831534Y-98553123D02*
G75*
G03*
X296534307Y-97904544I252259J431700D01*
G01*
X296484834Y-97687666D02*
G75*
G03*
X296534308Y-97904544I500289J43D01*
G01*
M02*
