G04 #@! TF.GenerationSoftware,KiCad,Pcbnew,(6.99.0-1912-g359c99991b)*
G04 #@! TF.CreationDate,2023-04-17T10:31:15+07:00*
G04 #@! TF.ProjectId,nyx,6e79782e-6b69-4636-9164-5f7063625858,1*
G04 #@! TF.SameCoordinates,Original*
G04 #@! TF.FileFunction,Soldermask,Bot*
G04 #@! TF.FilePolarity,Negative*
%FSLAX46Y46*%
G04 Gerber Fmt 4.6, Leading zero omitted, Abs format (unit mm)*
G04 Created by KiCad (PCBNEW (6.99.0-1912-g359c99991b)) date 2023-04-17 10:31:15*
%MOMM*%
%LPD*%
G01*
G04 APERTURE LIST*
G04 Aperture macros list*
%AMRoundRect*
0 Rectangle with rounded corners*
0 $1 Rounding radius*
0 $2 $3 $4 $5 $6 $7 $8 $9 X,Y pos of 4 corners*
0 Add a 4 corners polygon primitive as box body*
4,1,4,$2,$3,$4,$5,$6,$7,$8,$9,$2,$3,0*
0 Add four circle primitives for the rounded corners*
1,1,$1+$1,$2,$3*
1,1,$1+$1,$4,$5*
1,1,$1+$1,$6,$7*
1,1,$1+$1,$8,$9*
0 Add four rect primitives between the rounded corners*
20,1,$1+$1,$2,$3,$4,$5,0*
20,1,$1+$1,$4,$5,$6,$7,0*
20,1,$1+$1,$6,$7,$8,$9,0*
20,1,$1+$1,$8,$9,$2,$3,0*%
%AMRotRect*
0 Rectangle, with rotation*
0 The origin of the aperture is its center*
0 $1 length*
0 $2 width*
0 $3 Rotation angle, in degrees counterclockwise*
0 Add horizontal line*
21,1,$1,$2,0,0,$3*%
%AMFreePoly0*
4,1,18,-0.410000,0.593000,-0.403758,0.624380,-0.385983,0.650983,-0.359380,0.668758,-0.328000,0.675000,0.328000,0.675000,0.359380,0.668758,0.385983,0.650983,0.403758,0.624380,0.410000,0.593000,0.410000,-0.593000,0.403758,-0.624380,0.385983,-0.650983,0.359380,-0.668758,0.328000,-0.675000,0.000000,-0.675000,-0.410000,-0.265000,-0.410000,0.593000,-0.410000,0.593000,$1*%
G04 Aperture macros list end*
%ADD10C,3.048000*%
%ADD11C,3.987800*%
%ADD12C,0.500000*%
%ADD13C,1.750000*%
%ADD14C,3.300000*%
%ADD15RoundRect,0.250000X1.025000X1.000000X-1.025000X1.000000X-1.025000X-1.000000X1.025000X-1.000000X0*%
%ADD16RoundRect,0.225000X0.250000X-0.225000X0.250000X0.225000X-0.250000X0.225000X-0.250000X-0.225000X0*%
%ADD17RoundRect,0.225000X0.225000X0.250000X-0.225000X0.250000X-0.225000X-0.250000X0.225000X-0.250000X0*%
%ADD18R,1.200000X0.900000*%
%ADD19RoundRect,0.225000X-0.250000X0.225000X-0.250000X-0.225000X0.250000X-0.225000X0.250000X0.225000X0*%
%ADD20RoundRect,0.225000X-0.225000X-0.250000X0.225000X-0.250000X0.225000X0.250000X-0.225000X0.250000X0*%
%ADD21RoundRect,0.082000X-0.593000X0.328000X-0.593000X-0.328000X0.593000X-0.328000X0.593000X0.328000X0*%
%ADD22FreePoly0,270.000000*%
%ADD23RoundRect,0.082000X0.593000X-0.328000X0.593000X0.328000X-0.593000X0.328000X-0.593000X-0.328000X0*%
%ADD24FreePoly0,90.000000*%
%ADD25RoundRect,0.200000X-0.200000X-0.600000X0.200000X-0.600000X0.200000X0.600000X-0.200000X0.600000X0*%
%ADD26RoundRect,0.250001X-0.799999X-1.249999X0.799999X-1.249999X0.799999X1.249999X-0.799999X1.249999X0*%
%ADD27R,0.900000X1.200000*%
%ADD28R,1.700000X1.700000*%
%ADD29O,1.700000X1.700000*%
%ADD30RoundRect,0.050000X-0.050000X0.387500X-0.050000X-0.387500X0.050000X-0.387500X0.050000X0.387500X0*%
%ADD31RoundRect,0.050000X-0.387500X0.050000X-0.387500X-0.050000X0.387500X-0.050000X0.387500X0.050000X0*%
%ADD32RoundRect,0.144000X-1.456000X1.456000X-1.456000X-1.456000X1.456000X-1.456000X1.456000X1.456000X0*%
%ADD33RoundRect,0.150000X0.650000X0.150000X-0.650000X0.150000X-0.650000X-0.150000X0.650000X-0.150000X0*%
%ADD34R,1.700000X1.000000*%
%ADD35RoundRect,0.225000X-0.335876X-0.017678X-0.017678X-0.335876X0.335876X0.017678X0.017678X0.335876X0*%
%ADD36RotRect,1.400000X1.200000X135.000000*%
%ADD37RoundRect,0.200000X-0.335876X-0.053033X-0.053033X-0.335876X0.335876X0.053033X0.053033X0.335876X0*%
%ADD38RoundRect,0.150000X0.512500X0.150000X-0.512500X0.150000X-0.512500X-0.150000X0.512500X-0.150000X0*%
%ADD39RoundRect,0.200000X-0.275000X0.200000X-0.275000X-0.200000X0.275000X-0.200000X0.275000X0.200000X0*%
%ADD40R,0.800000X1.000000*%
%ADD41RoundRect,0.150000X-0.625000X0.150000X-0.625000X-0.150000X0.625000X-0.150000X0.625000X0.150000X0*%
%ADD42RoundRect,0.250000X-0.650000X0.350000X-0.650000X-0.350000X0.650000X-0.350000X0.650000X0.350000X0*%
%ADD43RoundRect,0.200000X0.200000X0.275000X-0.200000X0.275000X-0.200000X-0.275000X0.200000X-0.275000X0*%
%ADD44RoundRect,0.243750X0.243750X0.456250X-0.243750X0.456250X-0.243750X-0.456250X0.243750X-0.456250X0*%
%ADD45RoundRect,0.200000X-0.200000X-0.275000X0.200000X-0.275000X0.200000X0.275000X-0.200000X0.275000X0*%
%ADD46RoundRect,0.225000X0.017678X-0.335876X0.335876X-0.017678X-0.017678X0.335876X-0.335876X0.017678X0*%
G04 #@! TA.AperFunction,Profile*
%ADD47C,0.100000*%
G04 #@! TD*
G04 APERTURE END LIST*
G36*
X168445572Y-89119756D02*
G01*
X168554699Y-89166308D01*
X168623616Y-89255469D01*
X168647631Y-89382546D01*
X168647554Y-89392176D01*
X168629928Y-89497047D01*
X168574370Y-89577910D01*
X168568509Y-89583642D01*
X168486786Y-89635989D01*
X168379006Y-89651171D01*
X168312440Y-89645336D01*
X168203312Y-89598784D01*
X168134396Y-89509623D01*
X168110381Y-89382546D01*
X168116216Y-89315980D01*
X168162768Y-89206853D01*
X168251929Y-89137936D01*
X168379006Y-89113921D01*
X168445572Y-89119756D01*
G37*
G36*
X164448801Y-89113998D02*
G01*
X164553672Y-89131624D01*
X164634534Y-89187182D01*
X164640266Y-89193043D01*
X164692613Y-89274766D01*
X164707796Y-89382546D01*
X164707718Y-89392176D01*
X164690093Y-89497047D01*
X164634534Y-89577910D01*
X164628674Y-89583642D01*
X164546950Y-89635989D01*
X164439170Y-89651171D01*
X164429540Y-89651094D01*
X164324669Y-89633469D01*
X164243807Y-89577910D01*
X164238075Y-89572050D01*
X164185728Y-89490326D01*
X164170545Y-89382546D01*
X164170622Y-89372916D01*
X164188248Y-89268045D01*
X164243807Y-89187182D01*
X164249667Y-89181451D01*
X164331390Y-89129103D01*
X164439170Y-89113921D01*
X164448801Y-89113998D01*
G37*
G36*
X166638994Y-89203569D02*
G01*
X166895677Y-89204457D01*
X167102218Y-89206946D01*
X167264063Y-89211853D01*
X167386658Y-89219996D01*
X167475449Y-89232191D01*
X167535883Y-89249256D01*
X167573407Y-89272007D01*
X167593466Y-89301261D01*
X167601507Y-89337835D01*
X167602978Y-89382546D01*
X167592955Y-89441582D01*
X167536642Y-89515166D01*
X167520456Y-89524223D01*
X167486584Y-89534987D01*
X167434569Y-89543523D01*
X167358476Y-89550075D01*
X167252369Y-89554887D01*
X167110312Y-89558204D01*
X166926371Y-89560270D01*
X166694608Y-89561330D01*
X166409088Y-89561630D01*
X166179183Y-89561523D01*
X165922499Y-89560636D01*
X165715958Y-89558147D01*
X165554113Y-89553239D01*
X165431518Y-89545096D01*
X165342727Y-89532901D01*
X165282293Y-89515837D01*
X165244770Y-89493086D01*
X165224710Y-89463832D01*
X165216669Y-89427258D01*
X165215199Y-89382546D01*
X165215907Y-89348060D01*
X165221824Y-89309558D01*
X165238418Y-89278577D01*
X165271135Y-89254300D01*
X165325420Y-89235911D01*
X165406722Y-89222592D01*
X165520485Y-89213527D01*
X165672157Y-89207898D01*
X165867184Y-89204890D01*
X166111012Y-89203683D01*
X166409088Y-89203463D01*
X166638994Y-89203569D01*
G37*
G36*
X166002996Y-85432378D02*
G01*
X166114883Y-85521735D01*
X166116620Y-85523813D01*
X166147248Y-85576151D01*
X166192316Y-85670656D01*
X166246039Y-85794584D01*
X166302629Y-85935190D01*
X166307567Y-85947920D01*
X166362249Y-86087831D01*
X166410909Y-86210552D01*
X166448415Y-86303240D01*
X166469633Y-86353051D01*
X166490856Y-86403079D01*
X166528092Y-86495805D01*
X166576034Y-86617863D01*
X166629420Y-86755989D01*
X166687144Y-86905576D01*
X166763573Y-87101919D01*
X166842966Y-87304455D01*
X166915188Y-87487247D01*
X167019099Y-87749265D01*
X167102989Y-87962555D01*
X167168520Y-88132496D01*
X167217618Y-88265123D01*
X167252207Y-88366474D01*
X167274212Y-88442588D01*
X167285558Y-88499501D01*
X167288170Y-88543250D01*
X167283973Y-88579873D01*
X167274892Y-88615407D01*
X167238176Y-88697104D01*
X167146181Y-88786917D01*
X167049612Y-88829816D01*
X166913195Y-88838892D01*
X166779497Y-88788836D01*
X166753451Y-88772027D01*
X166727599Y-88750550D01*
X166702123Y-88720316D01*
X166674286Y-88675460D01*
X166641352Y-88610117D01*
X166600582Y-88518420D01*
X166549239Y-88394505D01*
X166484586Y-88232506D01*
X166403887Y-88026558D01*
X166304403Y-87770795D01*
X166286607Y-87725022D01*
X166218389Y-87550298D01*
X166156943Y-87394038D01*
X166105958Y-87265545D01*
X166069119Y-87174124D01*
X166050113Y-87129080D01*
X166049074Y-87126840D01*
X166026389Y-87072832D01*
X165988060Y-86976974D01*
X165939178Y-86852144D01*
X165884838Y-86711218D01*
X165835934Y-86583524D01*
X165762586Y-86392229D01*
X165690013Y-86203174D01*
X165628484Y-86043118D01*
X165594997Y-85954032D01*
X165549605Y-85815671D01*
X165530025Y-85712732D01*
X165536190Y-85633103D01*
X165568035Y-85564668D01*
X165625493Y-85495315D01*
X165641753Y-85479252D01*
X165754592Y-85410498D01*
X165878952Y-85395086D01*
X166002996Y-85432378D01*
G37*
G36*
X169678203Y-85306447D02*
G01*
X169784439Y-85361527D01*
X169870804Y-85433892D01*
X169939270Y-85544748D01*
X169949844Y-85668180D01*
X169939535Y-85709521D01*
X169909466Y-85802675D01*
X169864032Y-85931240D01*
X169807182Y-86084117D01*
X169742865Y-86250201D01*
X169712422Y-86327356D01*
X169624579Y-86550518D01*
X169528631Y-86794869D01*
X169434258Y-87035743D01*
X169351140Y-87248469D01*
X169292570Y-87398050D01*
X169232391Y-87550402D01*
X169181614Y-87677538D01*
X169144294Y-87769309D01*
X169124487Y-87815566D01*
X169106640Y-87857322D01*
X169071476Y-87945871D01*
X169025840Y-88064453D01*
X168975146Y-88199160D01*
X168912417Y-88360199D01*
X168833684Y-88533719D01*
X168757364Y-88661725D01*
X168677845Y-88751668D01*
X168589509Y-88810996D01*
X168486744Y-88847159D01*
X168423436Y-88857756D01*
X168262677Y-88845299D01*
X168111126Y-88780421D01*
X167981998Y-88667817D01*
X167970058Y-88652223D01*
X167920239Y-88569366D01*
X167863966Y-88455679D01*
X167811274Y-88330963D01*
X167702214Y-88048186D01*
X167596925Y-87776781D01*
X167504077Y-87539182D01*
X167425833Y-87340897D01*
X167364358Y-87187436D01*
X167321814Y-87084309D01*
X167275398Y-86970978D01*
X167220748Y-86831565D01*
X167169712Y-86696295D01*
X167166188Y-86686733D01*
X167118533Y-86560464D01*
X167071701Y-86441007D01*
X167035355Y-86353051D01*
X167016121Y-86306998D01*
X166974232Y-86201325D01*
X166923711Y-86069647D01*
X166871633Y-85930235D01*
X166759944Y-85626807D01*
X166815832Y-85512373D01*
X166862833Y-85439353D01*
X166955669Y-85355145D01*
X167061965Y-85306778D01*
X167164752Y-85304365D01*
X167166805Y-85304887D01*
X167252964Y-85340616D01*
X167329874Y-85405157D01*
X167402924Y-85505909D01*
X167477505Y-85650273D01*
X167559005Y-85845648D01*
X167604016Y-85961506D01*
X167714939Y-86246791D01*
X167806701Y-86482389D01*
X167881036Y-86672703D01*
X167939675Y-86822141D01*
X167984352Y-86935107D01*
X168016798Y-87016007D01*
X168038747Y-87069247D01*
X168051929Y-87099232D01*
X168070250Y-87142722D01*
X168105482Y-87232237D01*
X168151164Y-87351672D01*
X168201967Y-87487247D01*
X168249006Y-87610929D01*
X168294334Y-87723855D01*
X168329624Y-87805060D01*
X168349788Y-87842321D01*
X168352798Y-87845412D01*
X168360403Y-87851326D01*
X168368970Y-87850818D01*
X168380223Y-87839788D01*
X168395887Y-87814134D01*
X168417684Y-87769757D01*
X168447339Y-87702555D01*
X168486575Y-87608428D01*
X168537116Y-87483274D01*
X168600686Y-87322994D01*
X168679009Y-87123486D01*
X168773809Y-86880649D01*
X168886809Y-86590382D01*
X169019733Y-86248586D01*
X169072536Y-86113053D01*
X169153638Y-85906938D01*
X169218627Y-85746301D01*
X169270767Y-85624481D01*
X169313322Y-85534817D01*
X169349556Y-85470648D01*
X169382733Y-85425312D01*
X169416117Y-85392149D01*
X169452973Y-85364498D01*
X169481309Y-85346002D01*
X169583692Y-85301213D01*
X169678203Y-85306447D01*
G37*
G36*
X165712370Y-87626578D02*
G01*
X165779232Y-87798545D01*
X165845283Y-87969651D01*
X165906418Y-88129310D01*
X165958531Y-88266938D01*
X165997516Y-88371950D01*
X166019266Y-88433760D01*
X166034945Y-88491526D01*
X166035809Y-88566260D01*
X166004166Y-88651255D01*
X165997653Y-88664129D01*
X165940343Y-88744899D01*
X165875375Y-88800433D01*
X165868895Y-88803866D01*
X165738063Y-88840982D01*
X165606719Y-88825967D01*
X165490351Y-88763496D01*
X165404448Y-88658245D01*
X165388453Y-88625268D01*
X165347605Y-88532030D01*
X165297598Y-88410419D01*
X165245844Y-88278198D01*
X165137780Y-87994650D01*
X163769408Y-87994650D01*
X163631981Y-88334858D01*
X163630576Y-88338332D01*
X163543855Y-88535320D01*
X163463237Y-88679080D01*
X163384270Y-88775042D01*
X163302502Y-88828637D01*
X163213480Y-88845296D01*
X163187443Y-88844217D01*
X163063695Y-88810195D01*
X162958214Y-88737540D01*
X162884804Y-88638630D01*
X162857267Y-88525843D01*
X162863043Y-88494196D01*
X162886959Y-88413369D01*
X162925145Y-88301803D01*
X162972951Y-88173656D01*
X163017164Y-88059602D01*
X163086707Y-87880177D01*
X163160133Y-87690713D01*
X163227409Y-87517094D01*
X163232324Y-87504416D01*
X163256540Y-87442476D01*
X163987439Y-87442476D01*
X164915249Y-87442476D01*
X164884096Y-87360396D01*
X164842685Y-87252329D01*
X164786284Y-87107103D01*
X164724139Y-86948581D01*
X164660808Y-86788254D01*
X164600848Y-86637612D01*
X164548818Y-86508147D01*
X164509274Y-86411348D01*
X164486776Y-86358707D01*
X164447686Y-86274821D01*
X164402513Y-86373631D01*
X164399645Y-86379983D01*
X164365391Y-86461694D01*
X164320890Y-86574608D01*
X164275006Y-86696295D01*
X164224415Y-86830035D01*
X164164171Y-86983051D01*
X164110321Y-87114156D01*
X164066858Y-87219116D01*
X164029488Y-87314144D01*
X164007706Y-87375319D01*
X163987439Y-87442476D01*
X163256540Y-87442476D01*
X163287030Y-87364490D01*
X163335785Y-87241752D01*
X163373442Y-87149051D01*
X163394854Y-87099232D01*
X163395351Y-87098187D01*
X163417562Y-87046085D01*
X163455583Y-86951785D01*
X163504214Y-86828347D01*
X163558257Y-86688833D01*
X163602606Y-86573430D01*
X163709299Y-86296718D01*
X163798315Y-86068680D01*
X163872294Y-85884132D01*
X163933876Y-85737892D01*
X163985702Y-85624776D01*
X164030414Y-85539604D01*
X164070652Y-85477191D01*
X164109056Y-85432355D01*
X164148267Y-85399913D01*
X164190927Y-85374683D01*
X164239676Y-85351481D01*
X164269943Y-85338739D01*
X164369614Y-85307110D01*
X164452132Y-85294130D01*
X164516331Y-85300039D01*
X164653084Y-85347784D01*
X164778034Y-85432874D01*
X164869780Y-85542581D01*
X164870104Y-85543145D01*
X164904266Y-85611857D01*
X164955591Y-85727056D01*
X165020303Y-85879471D01*
X165094626Y-86059830D01*
X165174785Y-86258862D01*
X165257005Y-86467296D01*
X165337508Y-86675860D01*
X165412520Y-86875283D01*
X165451311Y-86977730D01*
X165488282Y-87071083D01*
X165513168Y-87129080D01*
X165518940Y-87141785D01*
X165547983Y-87211352D01*
X165592640Y-87322396D01*
X165640155Y-87442476D01*
X165648804Y-87464333D01*
X165712370Y-87626578D01*
G37*
G36*
X160559029Y-87084309D02*
G01*
X160559029Y-87352934D01*
X160976891Y-87352934D01*
X160976891Y-87591712D01*
X160559029Y-87591712D01*
X160559029Y-87860337D01*
X160976891Y-87860337D01*
X160976891Y-88099115D01*
X160559029Y-88099115D01*
X160559029Y-88367740D01*
X160976891Y-88367740D01*
X160976891Y-88606518D01*
X160573156Y-88606518D01*
X160536163Y-88763216D01*
X160484445Y-88918439D01*
X160394379Y-89053716D01*
X160264939Y-89148654D01*
X160088935Y-89210444D01*
X159932237Y-89247437D01*
X159932237Y-89651171D01*
X159693459Y-89651171D01*
X159693459Y-89233310D01*
X159454682Y-89233310D01*
X159454682Y-89651171D01*
X159186056Y-89651171D01*
X159186056Y-89233310D01*
X158947278Y-89233310D01*
X158947278Y-89651171D01*
X158708501Y-89651171D01*
X158708501Y-89233310D01*
X158469723Y-89233310D01*
X158469723Y-89651171D01*
X158201098Y-89651171D01*
X158201098Y-89233310D01*
X157962320Y-89233310D01*
X157962320Y-89651171D01*
X157723542Y-89651171D01*
X157723542Y-89247437D01*
X157566844Y-89210444D01*
X157411621Y-89158726D01*
X157276343Y-89068659D01*
X157181405Y-88939220D01*
X157119616Y-88763216D01*
X157082623Y-88606518D01*
X156678888Y-88606518D01*
X156678888Y-88367740D01*
X157096750Y-88367740D01*
X157096750Y-88099115D01*
X156678888Y-88099115D01*
X156678888Y-87860337D01*
X157096750Y-87860337D01*
X157096750Y-87591712D01*
X156678888Y-87591712D01*
X156678888Y-87352934D01*
X157096750Y-87352934D01*
X157096750Y-87084309D01*
X156678888Y-87084309D01*
X156678888Y-86998766D01*
X157872778Y-86998766D01*
X157873289Y-87103542D01*
X157877154Y-87295840D01*
X157884380Y-87458256D01*
X157894450Y-87580860D01*
X157906846Y-87653726D01*
X157928651Y-87713207D01*
X158024351Y-87863725D01*
X158164376Y-87987198D01*
X158339367Y-88076657D01*
X158539967Y-88125137D01*
X158693577Y-88143886D01*
X158702402Y-88345355D01*
X158711228Y-88546824D01*
X158944551Y-88546824D01*
X158953377Y-88345355D01*
X158962202Y-88143886D01*
X159115812Y-88125137D01*
X159190407Y-88112840D01*
X159382864Y-88048801D01*
X159546342Y-87946291D01*
X159671484Y-87812277D01*
X159748933Y-87653726D01*
X159755420Y-87623951D01*
X159766712Y-87524852D01*
X159775417Y-87381003D01*
X159781019Y-87202332D01*
X159783001Y-86998766D01*
X159783001Y-86457517D01*
X159514376Y-86457517D01*
X159514376Y-87005277D01*
X159514010Y-87196669D01*
X159512227Y-87342266D01*
X159508030Y-87447213D01*
X159500420Y-87521126D01*
X159488397Y-87573624D01*
X159470963Y-87614323D01*
X159447118Y-87652841D01*
X159389503Y-87723927D01*
X159251108Y-87823442D01*
X159073977Y-87877554D01*
X158947278Y-87897814D01*
X158947278Y-86457517D01*
X158708501Y-86457517D01*
X158708501Y-87897814D01*
X158581802Y-87877554D01*
X158483188Y-87854556D01*
X158326576Y-87776411D01*
X158208661Y-87652841D01*
X158185227Y-87615083D01*
X158167674Y-87574521D01*
X158155553Y-87522354D01*
X158147864Y-87448963D01*
X158143609Y-87344732D01*
X158141788Y-87200042D01*
X158141403Y-87005277D01*
X158141403Y-86457517D01*
X157872778Y-86457517D01*
X157872778Y-86998766D01*
X156678888Y-86998766D01*
X156678888Y-86845531D01*
X157096750Y-86845531D01*
X157096750Y-86576906D01*
X156678888Y-86576906D01*
X156678888Y-86338128D01*
X156887819Y-86338128D01*
X156994471Y-86336438D01*
X157059617Y-86328980D01*
X157089548Y-86312501D01*
X157096750Y-86283750D01*
X157107132Y-86204847D01*
X157150164Y-86078135D01*
X157215315Y-85955979D01*
X157290287Y-85864988D01*
X157324983Y-85838493D01*
X157429862Y-85780137D01*
X157541489Y-85739060D01*
X157693694Y-85700051D01*
X157693694Y-85293475D01*
X157932472Y-85293475D01*
X157932472Y-85711336D01*
X158201098Y-85711336D01*
X158201098Y-85293475D01*
X158439875Y-85293475D01*
X158439875Y-85711336D01*
X158708501Y-85711336D01*
X158708501Y-85293475D01*
X158947278Y-85293475D01*
X158947278Y-85711336D01*
X159215904Y-85711336D01*
X159215904Y-85293475D01*
X159454682Y-85293475D01*
X159454682Y-85711336D01*
X159723307Y-85711336D01*
X159723307Y-85293475D01*
X159962085Y-85293475D01*
X159962085Y-85700051D01*
X160114291Y-85739060D01*
X160161974Y-85753862D01*
X160275100Y-85804793D01*
X160365492Y-85864988D01*
X160419771Y-85925995D01*
X160488938Y-86042051D01*
X160539457Y-86170172D01*
X160559029Y-86283750D01*
X160565521Y-86311508D01*
X160594178Y-86328464D01*
X160657495Y-86336253D01*
X160767960Y-86338128D01*
X160976891Y-86338128D01*
X160976891Y-86576906D01*
X160559029Y-86576906D01*
X160559029Y-86845531D01*
X160976891Y-86845531D01*
X160976891Y-87084309D01*
X160559029Y-87084309D01*
G37*
G36*
X156090457Y-94827956D02*
G01*
X155799788Y-94827956D01*
X155799788Y-93799435D01*
X156090457Y-93799435D01*
X156090457Y-94827956D01*
G37*
G36*
X156090457Y-93555618D02*
G01*
X155950712Y-93548962D01*
X155810967Y-93542305D01*
X155810967Y-93341073D01*
X156090457Y-93327759D01*
X156090457Y-93555618D01*
G37*
G36*
X162826152Y-92172119D02*
G01*
X163100052Y-92178397D01*
X163106170Y-92564092D01*
X163112287Y-92949787D01*
X162552253Y-92949787D01*
X162552253Y-92893890D01*
X162553948Y-92867035D01*
X162564948Y-92850423D01*
X162594105Y-92841781D01*
X162650273Y-92838505D01*
X162742305Y-92837992D01*
X162932358Y-92837992D01*
X162932358Y-92614400D01*
X162619330Y-92614400D01*
X162619330Y-92480245D01*
X162932358Y-92480245D01*
X162932358Y-92301372D01*
X162552253Y-92301372D01*
X162552253Y-92165841D01*
X162826152Y-92172119D01*
G37*
G36*
X164452781Y-92949787D02*
G01*
X163916161Y-92949787D01*
X163916161Y-92894794D01*
X163917491Y-92871456D01*
X163927624Y-92853217D01*
X163955542Y-92842773D01*
X164010218Y-92837133D01*
X164100624Y-92833306D01*
X164285087Y-92826812D01*
X164285087Y-92625580D01*
X164122983Y-92619010D01*
X163960879Y-92612441D01*
X163960879Y-92480245D01*
X164298966Y-92480245D01*
X164292027Y-92396398D01*
X164285087Y-92312552D01*
X164100624Y-92306057D01*
X163916161Y-92299563D01*
X163916161Y-92167217D01*
X164452781Y-92167217D01*
X164452781Y-92949787D01*
G37*
G36*
X159882042Y-93796154D02*
G01*
X159936581Y-93841063D01*
X160003309Y-93907791D01*
X160003309Y-93853613D01*
X160003376Y-93846045D01*
X160007939Y-93820012D01*
X160026945Y-93806073D01*
X160070484Y-93800468D01*
X160148643Y-93799435D01*
X160293978Y-93799435D01*
X160293978Y-94830000D01*
X160143054Y-94823388D01*
X159992129Y-94816777D01*
X159986203Y-94459030D01*
X159985602Y-94423778D01*
X159982259Y-94287429D01*
X159976192Y-94188500D01*
X159965016Y-94120998D01*
X159946344Y-94078928D01*
X159917788Y-94056298D01*
X159876963Y-94047115D01*
X159821482Y-94045386D01*
X159807930Y-94045168D01*
X159754266Y-94039460D01*
X159727160Y-94028432D01*
X159723183Y-94016001D01*
X159715695Y-93967673D01*
X159709701Y-93899867D01*
X159702719Y-93788256D01*
X159786286Y-93781295D01*
X159828353Y-93780404D01*
X159882042Y-93796154D01*
G37*
G36*
X159154465Y-93786186D02*
G01*
X159239695Y-93833542D01*
X159258274Y-93849066D01*
X159292857Y-93874088D01*
X159309825Y-93872092D01*
X159321174Y-93844722D01*
X159327546Y-93829445D01*
X159348890Y-93810423D01*
X159391960Y-93801595D01*
X159468196Y-93799435D01*
X159600844Y-93799435D01*
X159600844Y-94827956D01*
X159310175Y-94827956D01*
X159310175Y-94471478D01*
X159310084Y-94381515D01*
X159309172Y-94272385D01*
X159306524Y-94196314D01*
X159301235Y-94146183D01*
X159292402Y-94114867D01*
X159279119Y-94095244D01*
X159260482Y-94080193D01*
X159257555Y-94078233D01*
X159198935Y-94054969D01*
X159129122Y-94045386D01*
X159075972Y-94041650D01*
X159047882Y-94022222D01*
X159033481Y-93975514D01*
X159024198Y-93912766D01*
X159019506Y-93841359D01*
X159023196Y-93800884D01*
X159044167Y-93781124D01*
X159096048Y-93777076D01*
X159154465Y-93786186D01*
G37*
G36*
X166711055Y-92949787D02*
G01*
X166711055Y-92686852D01*
X166576600Y-92677127D01*
X166561966Y-92675924D01*
X166439785Y-92650260D01*
X166350427Y-92597562D01*
X166289690Y-92515461D01*
X166271741Y-92455763D01*
X166274014Y-92424347D01*
X166442746Y-92424347D01*
X166451632Y-92484331D01*
X166485994Y-92524177D01*
X166494013Y-92527852D01*
X166550493Y-92541712D01*
X166620149Y-92547323D01*
X166711055Y-92547323D01*
X166711055Y-92301372D01*
X166620149Y-92301372D01*
X166567299Y-92303509D01*
X166494300Y-92321234D01*
X166454683Y-92360196D01*
X166442746Y-92424347D01*
X166274014Y-92424347D01*
X166278186Y-92366681D01*
X166317111Y-92283667D01*
X166382470Y-92218042D01*
X166468217Y-92181128D01*
X166468376Y-92181096D01*
X166526054Y-92174104D01*
X166610205Y-92169118D01*
X166702671Y-92167217D01*
X166867569Y-92167217D01*
X166867569Y-92949787D01*
X166711055Y-92949787D01*
G37*
G36*
X162278353Y-92949704D02*
G01*
X162199020Y-92947232D01*
X162071084Y-92926705D01*
X161978135Y-92882430D01*
X161916340Y-92810851D01*
X161881864Y-92708408D01*
X161870873Y-92571542D01*
X161871475Y-92556239D01*
X162037992Y-92556239D01*
X162038299Y-92590118D01*
X162043865Y-92665460D01*
X162059293Y-92716285D01*
X162088300Y-92757466D01*
X162088976Y-92758214D01*
X162148866Y-92801923D01*
X162222455Y-92828279D01*
X162306302Y-92842968D01*
X162306302Y-92301372D01*
X162227029Y-92301372D01*
X162166344Y-92310110D01*
X162092874Y-92356253D01*
X162072837Y-92378320D01*
X162050770Y-92417732D01*
X162040510Y-92472104D01*
X162037992Y-92556239D01*
X161871475Y-92556239D01*
X161874078Y-92490115D01*
X161899439Y-92366691D01*
X161952484Y-92275382D01*
X162036116Y-92213495D01*
X162153239Y-92178338D01*
X162306754Y-92167217D01*
X162462816Y-92167217D01*
X162462816Y-92949787D01*
X162278353Y-92949704D01*
G37*
G36*
X160492910Y-92340500D02*
G01*
X160580587Y-92513784D01*
X160663356Y-92340500D01*
X160665421Y-92336178D01*
X160705439Y-92254117D01*
X160734414Y-92204154D01*
X160760147Y-92178325D01*
X160790436Y-92168667D01*
X160833080Y-92167217D01*
X160850862Y-92167457D01*
X160900213Y-92171368D01*
X160920034Y-92178551D01*
X160919819Y-92179601D01*
X160907228Y-92207544D01*
X160878067Y-92265985D01*
X160836297Y-92347113D01*
X160785879Y-92443119D01*
X160769056Y-92474994D01*
X160717266Y-92576328D01*
X160683219Y-92651658D01*
X160663334Y-92711129D01*
X160654030Y-92764886D01*
X160651724Y-92823071D01*
X160651724Y-92949787D01*
X160495210Y-92949787D01*
X160495210Y-92813928D01*
X160494831Y-92782429D01*
X160490440Y-92726879D01*
X160478238Y-92673361D01*
X160454669Y-92611639D01*
X160416174Y-92531478D01*
X160359196Y-92422643D01*
X160223182Y-92167217D01*
X160405233Y-92167217D01*
X160492910Y-92340500D01*
G37*
G36*
X157074260Y-94827956D02*
G01*
X157074260Y-94341917D01*
X156845078Y-94331524D01*
X156842573Y-94331409D01*
X156682957Y-94317210D01*
X156559501Y-94288981D01*
X156464998Y-94243250D01*
X156392242Y-94176548D01*
X156334028Y-94085405D01*
X156315373Y-94038483D01*
X156294975Y-93930779D01*
X156294808Y-93874353D01*
X156583063Y-93874353D01*
X156594451Y-93969703D01*
X156633777Y-94035515D01*
X156706415Y-94080818D01*
X156754304Y-94094650D01*
X156838071Y-94107503D01*
X156928207Y-94112463D01*
X157074260Y-94112463D01*
X157074260Y-93665280D01*
X156905096Y-93665280D01*
X156801147Y-93669493D01*
X156699475Y-93689241D01*
X156632295Y-93727858D01*
X156595023Y-93788313D01*
X156583069Y-93873572D01*
X156583063Y-93874353D01*
X156294808Y-93874353D01*
X156294636Y-93816247D01*
X156315471Y-93717044D01*
X156362308Y-93634776D01*
X156445797Y-93549048D01*
X156548819Y-93484079D01*
X156573440Y-93473724D01*
X156618249Y-93460547D01*
X156675371Y-93451553D01*
X156752904Y-93445994D01*
X156858946Y-93443119D01*
X157001592Y-93442180D01*
X157364929Y-93441689D01*
X157364929Y-94827956D01*
X157074260Y-94827956D01*
G37*
G36*
X163647851Y-92949787D02*
G01*
X163647851Y-92636759D01*
X163574569Y-92636759D01*
X163553034Y-92637446D01*
X163469729Y-92659352D01*
X163419022Y-92711405D01*
X163401900Y-92792712D01*
X163398515Y-92868996D01*
X163382840Y-92919930D01*
X163348281Y-92943835D01*
X163288271Y-92949787D01*
X163272041Y-92949719D01*
X163225076Y-92945501D01*
X163208707Y-92928086D01*
X163211471Y-92888300D01*
X163212181Y-92883786D01*
X163222773Y-92816459D01*
X163234518Y-92741718D01*
X163236196Y-92732325D01*
X163258191Y-92664875D01*
X163289533Y-92614972D01*
X163313586Y-92588970D01*
X163317433Y-92565210D01*
X163288286Y-92534497D01*
X163284117Y-92530495D01*
X163250824Y-92468904D01*
X163243167Y-92389801D01*
X163243238Y-92389472D01*
X163403823Y-92389472D01*
X163408450Y-92441176D01*
X163451594Y-92490157D01*
X163506363Y-92514208D01*
X163574569Y-92524963D01*
X163613341Y-92523684D01*
X163637559Y-92512320D01*
X163646539Y-92479330D01*
X163647851Y-92413168D01*
X163647851Y-92301372D01*
X163560012Y-92301372D01*
X163490903Y-92311356D01*
X163432909Y-92343410D01*
X163403823Y-92389472D01*
X163243238Y-92389472D01*
X163260356Y-92310205D01*
X163301602Y-92247138D01*
X163318549Y-92232558D01*
X163371465Y-92200767D01*
X163439898Y-92180704D01*
X163533476Y-92170233D01*
X163661826Y-92167217D01*
X163826724Y-92167217D01*
X163826724Y-92949787D01*
X163647851Y-92949787D01*
G37*
G36*
X166160502Y-92763943D02*
G01*
X166102514Y-92866409D01*
X166015205Y-92935182D01*
X165949088Y-92957454D01*
X165847436Y-92965351D01*
X165746745Y-92950144D01*
X165666368Y-92913061D01*
X165589485Y-92831311D01*
X165541776Y-92718279D01*
X165526020Y-92574902D01*
X165526051Y-92570759D01*
X165704893Y-92570759D01*
X165704895Y-92575214D01*
X165706731Y-92663877D01*
X165714005Y-92720831D01*
X165729660Y-92758517D01*
X165756643Y-92789376D01*
X165756859Y-92789579D01*
X165825767Y-92831330D01*
X165895416Y-92828398D01*
X165965349Y-92780801D01*
X165982351Y-92763041D01*
X166003974Y-92732148D01*
X166014821Y-92693551D01*
X166017442Y-92634949D01*
X166014384Y-92544040D01*
X166009067Y-92467143D01*
X165993563Y-92383953D01*
X165964686Y-92333334D01*
X165917538Y-92308178D01*
X165847222Y-92301372D01*
X165818069Y-92303190D01*
X165764263Y-92323774D01*
X165729372Y-92371620D01*
X165710536Y-92452143D01*
X165704893Y-92570759D01*
X165526051Y-92570759D01*
X165526139Y-92558988D01*
X165540178Y-92424238D01*
X165579746Y-92318869D01*
X165647915Y-92234294D01*
X165679065Y-92208873D01*
X165720370Y-92189473D01*
X165777531Y-92180548D01*
X165864927Y-92178397D01*
X165900930Y-92178506D01*
X165971383Y-92181470D01*
X166017379Y-92192380D01*
X166053619Y-92216361D01*
X166094802Y-92258539D01*
X166098721Y-92262891D01*
X166162328Y-92368284D01*
X166191462Y-92500755D01*
X166186563Y-92634949D01*
X166185705Y-92658465D01*
X166160502Y-92763943D01*
G37*
G36*
X161242265Y-92946233D02*
G01*
X161196787Y-92944712D01*
X161105327Y-92940433D01*
X161044934Y-92933795D01*
X161005751Y-92922413D01*
X160977924Y-92903901D01*
X160951596Y-92875873D01*
X160922922Y-92833932D01*
X160897306Y-92748433D01*
X160900021Y-92725055D01*
X161054189Y-92725055D01*
X161057830Y-92747590D01*
X161083247Y-92789555D01*
X161099137Y-92799272D01*
X161151794Y-92817234D01*
X161215690Y-92829410D01*
X161272957Y-92832953D01*
X161305730Y-92825015D01*
X161309927Y-92817709D01*
X161318917Y-92774568D01*
X161322499Y-92711290D01*
X161322499Y-92614400D01*
X161223480Y-92614400D01*
X161218518Y-92614431D01*
X161130201Y-92628549D01*
X161073937Y-92666397D01*
X161054189Y-92725055D01*
X160900021Y-92725055D01*
X160907140Y-92663751D01*
X160952387Y-92593155D01*
X160981694Y-92563052D01*
X160992547Y-92535735D01*
X160974780Y-92509437D01*
X160941581Y-92460447D01*
X160925786Y-92382698D01*
X161100614Y-92382698D01*
X161107789Y-92439133D01*
X161142156Y-92479458D01*
X161189316Y-92495057D01*
X161253952Y-92502604D01*
X161280539Y-92502023D01*
X161309366Y-92493143D01*
X161320595Y-92463846D01*
X161322499Y-92401988D01*
X161322499Y-92301372D01*
X161237534Y-92301372D01*
X161225485Y-92301631D01*
X161164536Y-92310542D01*
X161125738Y-92328203D01*
X161122913Y-92331183D01*
X161100614Y-92382698D01*
X160925786Y-92382698D01*
X160925320Y-92380405D01*
X160944998Y-92302921D01*
X160973199Y-92263549D01*
X161049187Y-92209318D01*
X161159027Y-92177596D01*
X161305730Y-92167252D01*
X161479013Y-92167217D01*
X161479013Y-92953858D01*
X161242265Y-92946233D01*
G37*
G36*
X163245386Y-95230421D02*
G01*
X163245386Y-94761536D01*
X163172719Y-94805842D01*
X163122234Y-94828663D01*
X163020246Y-94848242D01*
X162913173Y-94844783D01*
X162822115Y-94817580D01*
X162785009Y-94795903D01*
X162696538Y-94713885D01*
X162636937Y-94602230D01*
X162605291Y-94458719D01*
X162601643Y-94318113D01*
X162887640Y-94318113D01*
X162889456Y-94377394D01*
X162906545Y-94490806D01*
X162940343Y-94570825D01*
X162989258Y-94612835D01*
X163033522Y-94623944D01*
X163120818Y-94621481D01*
X163195693Y-94591917D01*
X163202564Y-94586938D01*
X163222254Y-94567584D01*
X163234778Y-94539504D01*
X163241740Y-94493702D01*
X163244742Y-94421180D01*
X163245386Y-94312943D01*
X163245310Y-94258528D01*
X163243990Y-94168356D01*
X163239657Y-94109749D01*
X163230559Y-94073695D01*
X163214947Y-94051179D01*
X163191071Y-94033187D01*
X163165598Y-94018968D01*
X163082543Y-94002051D01*
X163003404Y-94025758D01*
X162938662Y-94087821D01*
X162930008Y-94101247D01*
X162904062Y-94156375D01*
X162891143Y-94223228D01*
X162887640Y-94318113D01*
X162601643Y-94318113D01*
X162600684Y-94281131D01*
X162601290Y-94268691D01*
X162623986Y-94099804D01*
X162672328Y-93967251D01*
X162746755Y-93870448D01*
X162847704Y-93808812D01*
X162975614Y-93781759D01*
X162991743Y-93780711D01*
X163067819Y-93780935D01*
X163124809Y-93795808D01*
X163183899Y-93830265D01*
X163213269Y-93850062D01*
X163250002Y-93871142D01*
X163264927Y-93868439D01*
X163267746Y-93843480D01*
X163270127Y-93824481D01*
X163286372Y-93808336D01*
X163326900Y-93801103D01*
X163401900Y-93799435D01*
X163536055Y-93799435D01*
X163536055Y-95230421D01*
X163245386Y-95230421D01*
G37*
G36*
X166576900Y-94827956D02*
G01*
X166576900Y-94291337D01*
X166411036Y-94291337D01*
X166403308Y-94291352D01*
X166317857Y-94293450D01*
X166248272Y-94298405D01*
X166208976Y-94305226D01*
X166185804Y-94318754D01*
X166143571Y-94377609D01*
X166116748Y-94471118D01*
X166107358Y-94593545D01*
X166107284Y-94617923D01*
X166103092Y-94714510D01*
X166087542Y-94775942D01*
X166053836Y-94810082D01*
X165995176Y-94824799D01*
X165904765Y-94827956D01*
X165748463Y-94827956D01*
X165782576Y-94761989D01*
X165793450Y-94734773D01*
X165810172Y-94659928D01*
X165816814Y-94577526D01*
X165817147Y-94554047D01*
X165832733Y-94417567D01*
X165869547Y-94304775D01*
X165924742Y-94222068D01*
X165995475Y-94175844D01*
X166003904Y-94168088D01*
X165990825Y-94138600D01*
X165941018Y-94087307D01*
X165937471Y-94084043D01*
X165884544Y-94027630D01*
X165857341Y-93971882D01*
X165844621Y-93894287D01*
X165841606Y-93852667D01*
X166128255Y-93852667D01*
X166138050Y-93934172D01*
X166178652Y-93999797D01*
X166204677Y-94019714D01*
X166246000Y-94035613D01*
X166307842Y-94043352D01*
X166402243Y-94045386D01*
X166576900Y-94045386D01*
X166576900Y-93665280D01*
X166408190Y-93665280D01*
X166400067Y-93665287D01*
X166313138Y-93667258D01*
X166256908Y-93674936D01*
X166218391Y-93691508D01*
X166184599Y-93720162D01*
X166148922Y-93771484D01*
X166128255Y-93852667D01*
X165841606Y-93852667D01*
X165840658Y-93839584D01*
X165845171Y-93745558D01*
X165870875Y-93669989D01*
X165921964Y-93596745D01*
X165944454Y-93571256D01*
X165996354Y-93523951D01*
X166055631Y-93489548D01*
X166129730Y-93466108D01*
X166226097Y-93451693D01*
X166352176Y-93444364D01*
X166515413Y-93442180D01*
X166867569Y-93441689D01*
X166867569Y-94827956D01*
X166576900Y-94827956D01*
G37*
G36*
X164730627Y-92374039D02*
G01*
X164747306Y-92456616D01*
X164768539Y-92553228D01*
X164785692Y-92607604D01*
X164801637Y-92620742D01*
X164819244Y-92593634D01*
X164841386Y-92527277D01*
X164870932Y-92422666D01*
X164892231Y-92346437D01*
X164916255Y-92266206D01*
X164935327Y-92216687D01*
X164953445Y-92190481D01*
X164974603Y-92180184D01*
X165002798Y-92178397D01*
X165021959Y-92178943D01*
X165045262Y-92185340D01*
X165063923Y-92205072D01*
X165081963Y-92245613D01*
X165103402Y-92314437D01*
X165132262Y-92419018D01*
X165156345Y-92504555D01*
X165180249Y-92582447D01*
X165198300Y-92633461D01*
X165207811Y-92649393D01*
X165213466Y-92634439D01*
X165226991Y-92583092D01*
X165245219Y-92504669D01*
X165265833Y-92408772D01*
X165313608Y-92178397D01*
X165399427Y-92171339D01*
X165452476Y-92169440D01*
X165475004Y-92178971D01*
X165473217Y-92204878D01*
X165469820Y-92217363D01*
X165456754Y-92269799D01*
X165437478Y-92349996D01*
X165414060Y-92449046D01*
X165388570Y-92558039D01*
X165363075Y-92668069D01*
X165339645Y-92770225D01*
X165320348Y-92855601D01*
X165307253Y-92915286D01*
X165302429Y-92940374D01*
X165301080Y-92942432D01*
X165272721Y-92947154D01*
X165219135Y-92945547D01*
X165135842Y-92938608D01*
X165075231Y-92718310D01*
X165056814Y-92652566D01*
X165032748Y-92570520D01*
X165014347Y-92512445D01*
X165004561Y-92487953D01*
X164997070Y-92499196D01*
X164980157Y-92545554D01*
X164957049Y-92619838D01*
X164930464Y-92713763D01*
X164866425Y-92949631D01*
X164786915Y-92949709D01*
X164707404Y-92949787D01*
X164624685Y-92597631D01*
X164606923Y-92521089D01*
X164581166Y-92406384D01*
X164560602Y-92310131D01*
X164546990Y-92240672D01*
X164542091Y-92206346D01*
X164542844Y-92197200D01*
X164562432Y-92173869D01*
X164615684Y-92167217D01*
X164689150Y-92167217D01*
X164730627Y-92374039D01*
G37*
G36*
X158382591Y-94091195D02*
G01*
X158391339Y-94120755D01*
X158423124Y-94224597D01*
X158450840Y-94309873D01*
X158471764Y-94368433D01*
X158483172Y-94392130D01*
X158485891Y-94390703D01*
X158500555Y-94360325D01*
X158523535Y-94296865D01*
X158552265Y-94207740D01*
X158584175Y-94100369D01*
X158670335Y-93799435D01*
X158822561Y-93799435D01*
X158825223Y-93799438D01*
X158900666Y-93801827D01*
X158954334Y-93807837D01*
X158974760Y-93816205D01*
X158971771Y-93827583D01*
X158955948Y-93876132D01*
X158928369Y-93956851D01*
X158891130Y-94063695D01*
X158846326Y-94190621D01*
X158796054Y-94331583D01*
X158789188Y-94350747D01*
X158734375Y-94504398D01*
X158693172Y-94622416D01*
X158664099Y-94710573D01*
X158645675Y-94774644D01*
X158636419Y-94820402D01*
X158634851Y-94853620D01*
X158639489Y-94880072D01*
X158648854Y-94905531D01*
X158671746Y-94948862D01*
X158734527Y-95008642D01*
X158816378Y-95029189D01*
X158825901Y-95029451D01*
X158848008Y-95036148D01*
X158863924Y-95058963D01*
X158878230Y-95107213D01*
X158895504Y-95190221D01*
X158895706Y-95211283D01*
X158877388Y-95239957D01*
X158853521Y-95244311D01*
X158794823Y-95246675D01*
X158719163Y-95244897D01*
X158652603Y-95239982D01*
X158598168Y-95227117D01*
X158555128Y-95198775D01*
X158505239Y-95146572D01*
X158493330Y-95132497D01*
X158466963Y-95095484D01*
X158439773Y-95047235D01*
X158409573Y-94982543D01*
X158374175Y-94896198D01*
X158331392Y-94782992D01*
X158279038Y-94637716D01*
X158214925Y-94455160D01*
X158205959Y-94429434D01*
X158152205Y-94275204D01*
X158103337Y-94135012D01*
X158061321Y-94014496D01*
X158028123Y-93919294D01*
X158005708Y-93855044D01*
X157996043Y-93827384D01*
X157995209Y-93823501D01*
X158008854Y-93809410D01*
X158055749Y-93801749D01*
X158141527Y-93799435D01*
X158296853Y-93799435D01*
X158382591Y-94091195D01*
G37*
G36*
X164275525Y-93790010D02*
G01*
X164397145Y-93832151D01*
X164487946Y-93901145D01*
X164544778Y-93994525D01*
X164564493Y-94109823D01*
X164563538Y-94133754D01*
X164538732Y-94220628D01*
X164478256Y-94292176D01*
X164379327Y-94350874D01*
X164239166Y-94399194D01*
X164173158Y-94418775D01*
X164069307Y-94459843D01*
X164005170Y-94502250D01*
X163983238Y-94544582D01*
X163984245Y-94554815D01*
X164011863Y-94600431D01*
X164066474Y-94635232D01*
X164133508Y-94649083D01*
X164195049Y-94643812D01*
X164273184Y-94610759D01*
X164319143Y-94547108D01*
X164328225Y-94526808D01*
X164350160Y-94504534D01*
X164390919Y-94494747D01*
X164463407Y-94492569D01*
X164464140Y-94492569D01*
X164534333Y-94493752D01*
X164570876Y-94501167D01*
X164584751Y-94520623D01*
X164586936Y-94557931D01*
X164581452Y-94594834D01*
X164543230Y-94671198D01*
X164476001Y-94745077D01*
X164388587Y-94805463D01*
X164347470Y-94822624D01*
X164242077Y-94844608D01*
X164121305Y-94849543D01*
X164002553Y-94837341D01*
X163903224Y-94807915D01*
X163877581Y-94795487D01*
X163785242Y-94729247D01*
X163732013Y-94644601D01*
X163714929Y-94537287D01*
X163716237Y-94507329D01*
X163746050Y-94404117D01*
X163815381Y-94321053D01*
X163924472Y-94257917D01*
X164073567Y-94214490D01*
X164120113Y-94204330D01*
X164216556Y-94173153D01*
X164271164Y-94135148D01*
X164285898Y-94088417D01*
X164262720Y-94031056D01*
X164252169Y-94017622D01*
X164199605Y-93985823D01*
X164135090Y-93978825D01*
X164072200Y-93994016D01*
X164024511Y-94028786D01*
X164005598Y-94080522D01*
X164004918Y-94086042D01*
X163987531Y-94101821D01*
X163940933Y-94110078D01*
X163857468Y-94112463D01*
X163709339Y-94112463D01*
X163722735Y-94045482D01*
X163731730Y-94010244D01*
X163784920Y-93910683D01*
X163872346Y-93837546D01*
X163991469Y-93792466D01*
X164139753Y-93777076D01*
X164275525Y-93790010D01*
G37*
G36*
X161340306Y-94395466D02*
G01*
X161333687Y-94484519D01*
X161321739Y-94547143D01*
X161300647Y-94597824D01*
X161266601Y-94651050D01*
X161245490Y-94677917D01*
X161175254Y-94746537D01*
X161100981Y-94798291D01*
X160989739Y-94837303D01*
X160853819Y-94852160D01*
X160712968Y-94840721D01*
X160583202Y-94802844D01*
X160575602Y-94799566D01*
X160510837Y-94768333D01*
X160480871Y-94738954D01*
X160479295Y-94698465D01*
X160499702Y-94633901D01*
X160508468Y-94611207D01*
X160534610Y-94570488D01*
X160570812Y-94565767D01*
X160629365Y-94593185D01*
X160639155Y-94598155D01*
X160709048Y-94617359D01*
X160796463Y-94625132D01*
X160881344Y-94620804D01*
X160943632Y-94603702D01*
X160964347Y-94587988D01*
X161005789Y-94537580D01*
X161039971Y-94477000D01*
X161054189Y-94426602D01*
X161038794Y-94417647D01*
X160980725Y-94409664D01*
X160880979Y-94404785D01*
X160741161Y-94403132D01*
X160428133Y-94403132D01*
X160428133Y-94314796D01*
X160430159Y-94255363D01*
X160444855Y-94169413D01*
X160718802Y-94169413D01*
X160721978Y-94180541D01*
X160745152Y-94193409D01*
X160797404Y-94200028D01*
X160886496Y-94201900D01*
X160902160Y-94201848D01*
X160979335Y-94199897D01*
X161033654Y-94195690D01*
X161054189Y-94190002D01*
X161053815Y-94187293D01*
X161043071Y-94154402D01*
X161022124Y-94101362D01*
X161020144Y-94096783D01*
X160973018Y-94034273D01*
X160910268Y-94004836D01*
X160842684Y-94006052D01*
X160781053Y-94035500D01*
X160736163Y-94090761D01*
X160718802Y-94169413D01*
X160444855Y-94169413D01*
X160456280Y-94102591D01*
X160510219Y-93973182D01*
X160589035Y-93872844D01*
X160689785Y-93807284D01*
X160753122Y-93788804D01*
X160867359Y-93778684D01*
X160986358Y-93789119D01*
X161089485Y-93819477D01*
X161137608Y-93844922D01*
X161233844Y-93928152D01*
X161299556Y-94041925D01*
X161335301Y-94187449D01*
X161335392Y-94190002D01*
X161341635Y-94365930D01*
X161340306Y-94395466D01*
G37*
G36*
X162295122Y-94827956D02*
G01*
X162251979Y-94827479D01*
X162200563Y-94822543D01*
X162177485Y-94809081D01*
X162172147Y-94783238D01*
X162170982Y-94760508D01*
X162160071Y-94741889D01*
X162131690Y-94752906D01*
X162078633Y-94794418D01*
X162075754Y-94796820D01*
X162025400Y-94830009D01*
X161967240Y-94846106D01*
X161883069Y-94850316D01*
X161810065Y-94845752D01*
X161701689Y-94813060D01*
X161615986Y-94745209D01*
X161546091Y-94637871D01*
X161544740Y-94635162D01*
X161516802Y-94571274D01*
X161500209Y-94508400D01*
X161492244Y-94431337D01*
X161490193Y-94324875D01*
X161490278Y-94296109D01*
X161490842Y-94277802D01*
X161772749Y-94277802D01*
X161773773Y-94385429D01*
X161789516Y-94483190D01*
X161818345Y-94559833D01*
X161858627Y-94604102D01*
X161871271Y-94610215D01*
X161953272Y-94627347D01*
X162036237Y-94614840D01*
X162101172Y-94574975D01*
X162113686Y-94560619D01*
X162132557Y-94528570D01*
X162143497Y-94484518D01*
X162148557Y-94417568D01*
X162149788Y-94316828D01*
X162149293Y-94239326D01*
X162145895Y-94166244D01*
X162137244Y-94118610D01*
X162121020Y-94085391D01*
X162094906Y-94055549D01*
X162047419Y-94020067D01*
X161970943Y-94000382D01*
X161896571Y-94017928D01*
X161834027Y-94069589D01*
X161793035Y-94152251D01*
X161788079Y-94171564D01*
X161772749Y-94277802D01*
X161490842Y-94277802D01*
X161493243Y-94199833D01*
X161502723Y-94128213D01*
X161521804Y-94065155D01*
X161553576Y-93994565D01*
X161591876Y-93924786D01*
X161642053Y-93863061D01*
X161703609Y-93821282D01*
X161726436Y-93810622D01*
X161840273Y-93781155D01*
X161955049Y-93784916D01*
X162055302Y-93821878D01*
X162068517Y-93829832D01*
X162115005Y-93855968D01*
X162139149Y-93866513D01*
X162139258Y-93866499D01*
X162143351Y-93844573D01*
X162146698Y-93786788D01*
X162148958Y-93701785D01*
X162149788Y-93598203D01*
X162149788Y-93329893D01*
X162418098Y-93329893D01*
X162418098Y-94827956D01*
X162295122Y-94827956D01*
G37*
G36*
X165595404Y-94735802D02*
G01*
X165521776Y-94805024D01*
X165520564Y-94805758D01*
X165434097Y-94839525D01*
X165319976Y-94850232D01*
X165286595Y-94849878D01*
X165217909Y-94843008D01*
X165166749Y-94822293D01*
X165113399Y-94781137D01*
X165034609Y-94711959D01*
X165012558Y-94769958D01*
X165010619Y-94774974D01*
X164995013Y-94804149D01*
X164969701Y-94820040D01*
X164923018Y-94826644D01*
X164843300Y-94827956D01*
X164812726Y-94827761D01*
X164745541Y-94824304D01*
X164714752Y-94815499D01*
X164714181Y-94800007D01*
X164719247Y-94779636D01*
X164726094Y-94719694D01*
X164732786Y-94629147D01*
X164738759Y-94515933D01*
X164743450Y-94387988D01*
X164743665Y-94380773D01*
X165031419Y-94380773D01*
X165038359Y-94462399D01*
X165053507Y-94526547D01*
X165101196Y-94584365D01*
X165165622Y-94621781D01*
X165248418Y-94639152D01*
X165319198Y-94615052D01*
X165322712Y-94612501D01*
X165363032Y-94561079D01*
X165360310Y-94501097D01*
X165314625Y-94435655D01*
X165277658Y-94405420D01*
X165224373Y-94385938D01*
X165145581Y-94380773D01*
X165031419Y-94380773D01*
X164743665Y-94380773D01*
X164744715Y-94345510D01*
X164749362Y-94213814D01*
X164754633Y-94117557D01*
X164761463Y-94049435D01*
X164770787Y-94002140D01*
X164783540Y-93968365D01*
X164800657Y-93940805D01*
X164826717Y-93909186D01*
X164918511Y-93837410D01*
X165028561Y-93793486D01*
X165148535Y-93776274D01*
X165270103Y-93784632D01*
X165384933Y-93817422D01*
X165484696Y-93873502D01*
X165561059Y-93951734D01*
X165605692Y-94050976D01*
X165620305Y-94112463D01*
X165477848Y-94112463D01*
X165411991Y-94111412D01*
X165359583Y-94105150D01*
X165330637Y-94090035D01*
X165313320Y-94062471D01*
X165304419Y-94045764D01*
X165252381Y-93999285D01*
X165184038Y-93985473D01*
X165114464Y-94008423D01*
X165066747Y-94056550D01*
X165038259Y-94124660D01*
X165042185Y-94190671D01*
X165045983Y-94197611D01*
X165072313Y-94213515D01*
X165126902Y-94222035D01*
X165217880Y-94224750D01*
X165292781Y-94227891D01*
X165428801Y-94252272D01*
X165534415Y-94299220D01*
X165604548Y-94366868D01*
X165636191Y-94431056D01*
X165654883Y-94536796D01*
X165651582Y-94561079D01*
X165640530Y-94642386D01*
X165595404Y-94735802D01*
G37*
G36*
X171801723Y-96578579D02*
G01*
X171694127Y-96676079D01*
X171558033Y-96740341D01*
X171552728Y-96741285D01*
X171507295Y-96744164D01*
X171419689Y-96746917D01*
X171291842Y-96749545D01*
X171125683Y-96752047D01*
X170923144Y-96754422D01*
X170686155Y-96756672D01*
X170416646Y-96758795D01*
X170116548Y-96760792D01*
X169787793Y-96762662D01*
X169432309Y-96764405D01*
X169052028Y-96766021D01*
X168648880Y-96767511D01*
X168224797Y-96768873D01*
X167781708Y-96770108D01*
X167321543Y-96771215D01*
X166846235Y-96772195D01*
X166357712Y-96773047D01*
X165857907Y-96773771D01*
X165348748Y-96774367D01*
X164832167Y-96774835D01*
X164310095Y-96775175D01*
X163784461Y-96775386D01*
X163257197Y-96775469D01*
X162730233Y-96775423D01*
X162205500Y-96775248D01*
X161684927Y-96774944D01*
X161170447Y-96774510D01*
X160663988Y-96773948D01*
X160167483Y-96773256D01*
X159682861Y-96772434D01*
X159212052Y-96771483D01*
X158756989Y-96770402D01*
X158319600Y-96769191D01*
X157901817Y-96767849D01*
X157505570Y-96766378D01*
X157132790Y-96764776D01*
X156785407Y-96763043D01*
X156465351Y-96761179D01*
X156174555Y-96759185D01*
X155914947Y-96757060D01*
X155688459Y-96754803D01*
X155497020Y-96752416D01*
X155342563Y-96749897D01*
X155227016Y-96747246D01*
X155152311Y-96744463D01*
X155120379Y-96741549D01*
X154995064Y-96687506D01*
X154882958Y-96596400D01*
X154802618Y-96473971D01*
X154751470Y-96364125D01*
X154905422Y-96364125D01*
X154955910Y-96440099D01*
X154972384Y-96461485D01*
X155034328Y-96519535D01*
X155105982Y-96566381D01*
X155205566Y-96616689D01*
X167583062Y-96616689D01*
X167739577Y-96616689D01*
X171464080Y-96616689D01*
X171563664Y-96566381D01*
X171591100Y-96550794D01*
X171661885Y-96497103D01*
X171714051Y-96439632D01*
X171764854Y-96363191D01*
X171758949Y-94125459D01*
X171758116Y-93814778D01*
X171757164Y-93484549D01*
X171756200Y-93194165D01*
X171755168Y-92940980D01*
X171754010Y-92722347D01*
X171752669Y-92535621D01*
X171751089Y-92378154D01*
X171749212Y-92247300D01*
X171746982Y-92140413D01*
X171744342Y-92054846D01*
X171741235Y-91987954D01*
X171737604Y-91937089D01*
X171733391Y-91899606D01*
X171728541Y-91872858D01*
X171722997Y-91854199D01*
X171716700Y-91840982D01*
X171709595Y-91830561D01*
X171666579Y-91781926D01*
X171608979Y-91729945D01*
X171603641Y-91726062D01*
X171591267Y-91718871D01*
X171574493Y-91712588D01*
X171550440Y-91707140D01*
X171516227Y-91702455D01*
X171468974Y-91698460D01*
X171405801Y-91695083D01*
X171323830Y-91692252D01*
X171220179Y-91689893D01*
X171091969Y-91687935D01*
X170936320Y-91686305D01*
X170750352Y-91684930D01*
X170531185Y-91683739D01*
X170275940Y-91682657D01*
X169981736Y-91681614D01*
X169645694Y-91680537D01*
X167739577Y-91674579D01*
X167739577Y-96616689D01*
X167583062Y-96616689D01*
X167583062Y-91675316D01*
X155168640Y-91675316D01*
X155084385Y-91722670D01*
X155072346Y-91729984D01*
X155004959Y-91786984D01*
X154952776Y-91854279D01*
X154950923Y-91857582D01*
X154943357Y-91871843D01*
X154936681Y-91887717D01*
X154930837Y-91907898D01*
X154925772Y-91935080D01*
X154921429Y-91971956D01*
X154917752Y-92021222D01*
X154914686Y-92085570D01*
X154912176Y-92167696D01*
X154910166Y-92270293D01*
X154908601Y-92396055D01*
X154907424Y-92547677D01*
X154906581Y-92727853D01*
X154906015Y-92939276D01*
X154905672Y-93184642D01*
X154905496Y-93466643D01*
X154905431Y-93787974D01*
X154905422Y-94151330D01*
X154905422Y-96364125D01*
X154751470Y-96364125D01*
X154749344Y-96359559D01*
X154749617Y-94134823D01*
X154749638Y-93994876D01*
X154749741Y-93645333D01*
X154749951Y-93336824D01*
X154750315Y-93066658D01*
X154750883Y-92832144D01*
X154751702Y-92630592D01*
X154752821Y-92459311D01*
X154754287Y-92315610D01*
X154756150Y-92196797D01*
X154758456Y-92100183D01*
X154761254Y-92023076D01*
X154764593Y-91962786D01*
X154768520Y-91916621D01*
X154773085Y-91881892D01*
X154778334Y-91855906D01*
X154784316Y-91835973D01*
X154791080Y-91819402D01*
X154825653Y-91760030D01*
X154905856Y-91668709D01*
X155003698Y-91592351D01*
X155103489Y-91544751D01*
X155108378Y-91543791D01*
X155136529Y-91541417D01*
X155187863Y-91539182D01*
X155263361Y-91537082D01*
X155364000Y-91535114D01*
X155490760Y-91533276D01*
X155644619Y-91531564D01*
X155826556Y-91529976D01*
X156037550Y-91528507D01*
X156278580Y-91527156D01*
X156550625Y-91525918D01*
X156854663Y-91524791D01*
X157191673Y-91523773D01*
X157562635Y-91522859D01*
X157968526Y-91522046D01*
X158410326Y-91521332D01*
X158889014Y-91520714D01*
X159405569Y-91520188D01*
X159960968Y-91519752D01*
X160556192Y-91519401D01*
X161192219Y-91519134D01*
X161870027Y-91518947D01*
X162590596Y-91518837D01*
X163354905Y-91518802D01*
X163708493Y-91518804D01*
X164410758Y-91518832D01*
X165070284Y-91518892D01*
X165688406Y-91518990D01*
X166266460Y-91519133D01*
X166805781Y-91519325D01*
X167307706Y-91519573D01*
X167773570Y-91519882D01*
X168204709Y-91520257D01*
X168602459Y-91520705D01*
X168968156Y-91521230D01*
X169303135Y-91521839D01*
X169608732Y-91522537D01*
X169886283Y-91523330D01*
X170137124Y-91524223D01*
X170362590Y-91525222D01*
X170564018Y-91526333D01*
X170742742Y-91527560D01*
X170900100Y-91528911D01*
X171037426Y-91530389D01*
X171156057Y-91532002D01*
X171257328Y-91533755D01*
X171342575Y-91535652D01*
X171413134Y-91537701D01*
X171470340Y-91539906D01*
X171515530Y-91542273D01*
X171550039Y-91544807D01*
X171575203Y-91547515D01*
X171592358Y-91550402D01*
X171602839Y-91553473D01*
X171708522Y-91616102D01*
X171807193Y-91710890D01*
X171878259Y-91820650D01*
X171881254Y-91827347D01*
X171887725Y-91844667D01*
X171893431Y-91866352D01*
X171898419Y-91895093D01*
X171902737Y-91933580D01*
X171906435Y-91984503D01*
X171909560Y-92050552D01*
X171912162Y-92134417D01*
X171914289Y-92238789D01*
X171915989Y-92366357D01*
X171917312Y-92519813D01*
X171918305Y-92701846D01*
X171919017Y-92915146D01*
X171919497Y-93162403D01*
X171919793Y-93446308D01*
X171919954Y-93769551D01*
X171920029Y-94134823D01*
X171920302Y-96359559D01*
X171918611Y-96363191D01*
X171867028Y-96473971D01*
X171801723Y-96578579D01*
G37*
G36*
X156495982Y-95321385D02*
G01*
X156585842Y-95330416D01*
X156643645Y-95352321D01*
X156676335Y-95392414D01*
X156690857Y-95456010D01*
X156694154Y-95548424D01*
X156694154Y-95677604D01*
X156766821Y-95677729D01*
X156794435Y-95678498D01*
X156906731Y-95697846D01*
X157024400Y-95746127D01*
X157157555Y-95827207D01*
X157212780Y-95864285D01*
X157314518Y-95926177D01*
X157398315Y-95964925D01*
X157474895Y-95984941D01*
X157554981Y-95990632D01*
X157628167Y-95985611D01*
X157721413Y-95961264D01*
X157821415Y-95912518D01*
X157939540Y-95834767D01*
X158051627Y-95765659D01*
X158224152Y-95699667D01*
X158403098Y-95677729D01*
X158502854Y-95683138D01*
X158608492Y-95706252D01*
X158714144Y-95752361D01*
X158834733Y-95826614D01*
X158902342Y-95871352D01*
X159000744Y-95930037D01*
X159081479Y-95966590D01*
X159155039Y-95985344D01*
X159231918Y-95990632D01*
X159265523Y-95989763D01*
X159343658Y-95978603D01*
X159422670Y-95951052D01*
X159513404Y-95902668D01*
X159626710Y-95829011D01*
X159663011Y-95805091D01*
X159818898Y-95725672D01*
X159976611Y-95685954D01*
X160146660Y-95682989D01*
X160149457Y-95683216D01*
X160232508Y-95693657D01*
X160307000Y-95713142D01*
X160383835Y-95746353D01*
X160473913Y-95797976D01*
X160588133Y-95872693D01*
X160723640Y-95949725D01*
X160852429Y-95988586D01*
X160978368Y-95986996D01*
X161108513Y-95944843D01*
X161249924Y-95862010D01*
X161300866Y-95828099D01*
X161456324Y-95743311D01*
X161603788Y-95694471D01*
X161752131Y-95678334D01*
X161856948Y-95684767D01*
X161981244Y-95714611D01*
X162109486Y-95772497D01*
X162252807Y-95862522D01*
X162275961Y-95878509D01*
X162355777Y-95930114D01*
X162418412Y-95961261D01*
X162478233Y-95977933D01*
X162549607Y-95986112D01*
X162611532Y-95986795D01*
X162736170Y-95963991D01*
X162866832Y-95906658D01*
X163010615Y-95812119D01*
X163010665Y-95812082D01*
X163147713Y-95735718D01*
X163306233Y-95690380D01*
X163473470Y-95678314D01*
X163636672Y-95701770D01*
X163662087Y-95710590D01*
X163733156Y-95744302D01*
X163820275Y-95793429D01*
X163910072Y-95850689D01*
X163935795Y-95868044D01*
X164022718Y-95923295D01*
X164089967Y-95957668D01*
X164149933Y-95976648D01*
X164215005Y-95985723D01*
X164314740Y-95986552D01*
X164419010Y-95965870D01*
X164526325Y-95918288D01*
X164648970Y-95839671D01*
X164660583Y-95831506D01*
X164810961Y-95743468D01*
X164957932Y-95693436D01*
X165112376Y-95677604D01*
X165124352Y-95677689D01*
X165277866Y-95695931D01*
X165424716Y-95748657D01*
X165575782Y-95839671D01*
X165637200Y-95881139D01*
X165777043Y-95955053D01*
X165906649Y-95989223D01*
X166033026Y-95983793D01*
X166163181Y-95938908D01*
X166304123Y-95854712D01*
X166331880Y-95835702D01*
X166484952Y-95746430D01*
X166624111Y-95694450D01*
X166754855Y-95677604D01*
X166756508Y-95677607D01*
X166833839Y-95689310D01*
X166876708Y-95726431D01*
X166889929Y-95793085D01*
X166872762Y-95852589D01*
X166819090Y-95889111D01*
X166728306Y-95901196D01*
X166708759Y-95902621D01*
X166627408Y-95926996D01*
X166531193Y-95977958D01*
X166475014Y-96013296D01*
X166388500Y-96067674D01*
X166316689Y-96112767D01*
X166169883Y-96179641D01*
X166003430Y-96208794D01*
X165825331Y-96197977D01*
X165818279Y-96196749D01*
X165738575Y-96178601D01*
X165665496Y-96151021D01*
X165585278Y-96107738D01*
X165484159Y-96042478D01*
X165291249Y-95912375D01*
X164932627Y-95912375D01*
X164741411Y-96042263D01*
X164728807Y-96050795D01*
X164631846Y-96113049D01*
X164554094Y-96154071D01*
X164481667Y-96180196D01*
X164400677Y-96197762D01*
X164224253Y-96208922D01*
X164057305Y-96180430D01*
X163908062Y-96112767D01*
X163860025Y-96082533D01*
X163775689Y-96029219D01*
X163692569Y-95976464D01*
X163672795Y-95963968D01*
X163610028Y-95927929D01*
X163557291Y-95909226D01*
X163496386Y-95903314D01*
X163409113Y-95905644D01*
X163347799Y-95909247D01*
X163283385Y-95918191D01*
X163228156Y-95936831D01*
X163167024Y-95970745D01*
X163084905Y-96025509D01*
X163078406Y-96029967D01*
X162974033Y-96099219D01*
X162892365Y-96146373D01*
X162821492Y-96176556D01*
X162749501Y-96194898D01*
X162664480Y-96206527D01*
X162536988Y-96209530D01*
X162406652Y-96186288D01*
X162272856Y-96132453D01*
X162124815Y-96044791D01*
X162055389Y-96000121D01*
X161955062Y-95945049D01*
X161867292Y-95913757D01*
X161779129Y-95902243D01*
X161677624Y-95906500D01*
X161644680Y-95910797D01*
X161575183Y-95929776D01*
X161499827Y-95966690D01*
X161404980Y-96027595D01*
X161299744Y-96097621D01*
X161217254Y-96145497D01*
X161145792Y-96176149D01*
X161073257Y-96194763D01*
X160987543Y-96206527D01*
X160860051Y-96209530D01*
X160729715Y-96186288D01*
X160595919Y-96132453D01*
X160447878Y-96044791D01*
X160377973Y-95999824D01*
X160277781Y-95944886D01*
X160190070Y-95913697D01*
X160101870Y-95902251D01*
X160000215Y-95906546D01*
X159937880Y-95916863D01*
X159854888Y-95948399D01*
X159761110Y-96006641D01*
X159732370Y-96026553D01*
X159559764Y-96129365D01*
X159399531Y-96191941D01*
X159245956Y-96214497D01*
X159093325Y-96197249D01*
X158935923Y-96140413D01*
X158768036Y-96044205D01*
X158691037Y-95995070D01*
X158593686Y-95942422D01*
X158508607Y-95912758D01*
X158422981Y-95902103D01*
X158323984Y-95906478D01*
X158316364Y-95907268D01*
X158239056Y-95923537D01*
X158159361Y-95958498D01*
X158062521Y-96018471D01*
X158049809Y-96027045D01*
X157941252Y-96097674D01*
X157855718Y-96146153D01*
X157782053Y-96177291D01*
X157709103Y-96195897D01*
X157625716Y-96206777D01*
X157456299Y-96203061D01*
X157285471Y-96156922D01*
X157127223Y-96068573D01*
X157122075Y-96064856D01*
X156983174Y-95975416D01*
X156863864Y-95920613D01*
X156766821Y-95901687D01*
X156694154Y-95901196D01*
X156694154Y-96044933D01*
X156692634Y-96104101D01*
X156681677Y-96180531D01*
X156659018Y-96223807D01*
X156658272Y-96224540D01*
X156630242Y-96241222D01*
X156582240Y-96251792D01*
X156506048Y-96257336D01*
X156393446Y-96258942D01*
X156353179Y-96258821D01*
X156251793Y-96256021D01*
X156184651Y-96247380D01*
X156143824Y-96230089D01*
X156121386Y-96201341D01*
X156109408Y-96158326D01*
X156104501Y-96142081D01*
X156084611Y-96123255D01*
X156041155Y-96112801D01*
X155963560Y-96107000D01*
X155883348Y-96098802D01*
X155811418Y-96076316D01*
X155780682Y-96041268D01*
X155792193Y-95994348D01*
X155809600Y-95977718D01*
X155864827Y-95958076D01*
X155958590Y-95945914D01*
X156101636Y-95934735D01*
X156101636Y-95644066D01*
X155963785Y-95637458D01*
X155874221Y-95628270D01*
X155810505Y-95606747D01*
X155786173Y-95572009D01*
X155799023Y-95522519D01*
X155810877Y-95504799D01*
X155838363Y-95486865D01*
X155886900Y-95478460D01*
X155968268Y-95476372D01*
X155981044Y-95476361D01*
X156053819Y-95474809D01*
X156093317Y-95468114D01*
X156109622Y-95452689D01*
X156112816Y-95424946D01*
X156113081Y-95412929D01*
X156121608Y-95372608D01*
X156147240Y-95345696D01*
X156196850Y-95329638D01*
X156277315Y-95321877D01*
X156395509Y-95319858D01*
X156495982Y-95321385D01*
G37*
G36*
X171043831Y-93956067D02*
G01*
X171102384Y-94018405D01*
X171161491Y-94080788D01*
X171231720Y-94183642D01*
X171272472Y-94298179D01*
X171290460Y-94439425D01*
X171290692Y-94491820D01*
X171290901Y-94539078D01*
X171275075Y-94637424D01*
X171237495Y-94735792D01*
X171173570Y-94850316D01*
X171160449Y-94876791D01*
X171133809Y-94943838D01*
X171120937Y-94980520D01*
X171102248Y-95033777D01*
X171070116Y-95134651D01*
X171066812Y-95145514D01*
X171033658Y-95245873D01*
X170997963Y-95331210D01*
X170955068Y-95405947D01*
X170900314Y-95474509D01*
X170829042Y-95541320D01*
X170736594Y-95610801D01*
X170618311Y-95687377D01*
X170534812Y-95736818D01*
X170469533Y-95775471D01*
X170285601Y-95879506D01*
X170266262Y-95890796D01*
X170203266Y-95930569D01*
X170135735Y-95976134D01*
X170111207Y-95992443D01*
X170032064Y-96037629D01*
X169959781Y-96070179D01*
X169928926Y-96079629D01*
X169812684Y-96097970D01*
X169685984Y-96098371D01*
X169572255Y-96080224D01*
X169534460Y-96066611D01*
X169458955Y-96030293D01*
X169382921Y-95985322D01*
X169314754Y-95942208D01*
X169219265Y-95885222D01*
X169126562Y-95832814D01*
X169001346Y-95763137D01*
X168945588Y-95729852D01*
X169312703Y-95729852D01*
X169344670Y-95786925D01*
X169410330Y-95847664D01*
X169505282Y-95906786D01*
X169591623Y-95942973D01*
X169734997Y-95968391D01*
X169876516Y-95954477D01*
X170007732Y-95902509D01*
X170120199Y-95813765D01*
X170153921Y-95774538D01*
X170171822Y-95736818D01*
X170162898Y-95704740D01*
X170124219Y-95664747D01*
X170043798Y-95623153D01*
X169938240Y-95593562D01*
X169817213Y-95576228D01*
X169690384Y-95571408D01*
X169567422Y-95579359D01*
X169457995Y-95600335D01*
X169371769Y-95634593D01*
X169318414Y-95682388D01*
X169312703Y-95729852D01*
X168945588Y-95729852D01*
X168843537Y-95668932D01*
X168720072Y-95585338D01*
X168626534Y-95508990D01*
X168558503Y-95436524D01*
X168511562Y-95364576D01*
X168502509Y-95344416D01*
X168478733Y-95280936D01*
X168449436Y-95193998D01*
X168418986Y-95096266D01*
X168411956Y-95073907D01*
X168580567Y-95073907D01*
X168589746Y-95159201D01*
X168635967Y-95292205D01*
X168714959Y-95409860D01*
X168819860Y-95502940D01*
X168943806Y-95562219D01*
X169053467Y-95584097D01*
X169148035Y-95578560D01*
X169215737Y-95544707D01*
X169251768Y-95483762D01*
X169257943Y-95445821D01*
X169250736Y-95337223D01*
X169215505Y-95216580D01*
X169157222Y-95095133D01*
X169098906Y-95010360D01*
X169295832Y-95010360D01*
X169305900Y-95126640D01*
X169353532Y-95234495D01*
X169437317Y-95326955D01*
X169555845Y-95397048D01*
X169585348Y-95408034D01*
X169706526Y-95429647D01*
X169830139Y-95420079D01*
X169928067Y-95389098D01*
X170268282Y-95389098D01*
X170272029Y-95445821D01*
X170273924Y-95474519D01*
X170301297Y-95530673D01*
X170303273Y-95532557D01*
X170359790Y-95557396D01*
X170455370Y-95565809D01*
X170545448Y-95555396D01*
X170665973Y-95505372D01*
X170770672Y-95417183D01*
X170854334Y-95294374D01*
X170892536Y-95199204D01*
X170916043Y-95085738D01*
X170916902Y-94980520D01*
X170893699Y-94897802D01*
X170886486Y-94885978D01*
X170835041Y-94845713D01*
X170763967Y-94836161D01*
X170680015Y-94853653D01*
X170589939Y-94894524D01*
X170500491Y-94955103D01*
X170458818Y-94994011D01*
X170418424Y-95031725D01*
X170350488Y-95120720D01*
X170303438Y-95218422D01*
X170284302Y-95284187D01*
X170268282Y-95389098D01*
X169928067Y-95389098D01*
X169947111Y-95383073D01*
X170048365Y-95322371D01*
X170124827Y-95241716D01*
X170167419Y-95144851D01*
X170178117Y-95098999D01*
X170189989Y-95054743D01*
X170190561Y-94994011D01*
X170166633Y-94914469D01*
X170123962Y-94830510D01*
X170068354Y-94756375D01*
X170028366Y-94718539D01*
X169914638Y-94649960D01*
X169788308Y-94618432D01*
X169658441Y-94624079D01*
X169534105Y-94667029D01*
X169424366Y-94747407D01*
X169394033Y-94780413D01*
X169324740Y-94892628D01*
X169295832Y-95010360D01*
X169098906Y-95010360D01*
X169080855Y-94984120D01*
X168991373Y-94894784D01*
X168954671Y-94867029D01*
X168844184Y-94802075D01*
X168751175Y-94777669D01*
X168676978Y-94793229D01*
X168622923Y-94848177D01*
X168590342Y-94941929D01*
X168580567Y-95073907D01*
X168411956Y-95073907D01*
X168405434Y-95053162D01*
X168365984Y-94943430D01*
X168323409Y-94842005D01*
X168284829Y-94766391D01*
X168224472Y-94639869D01*
X168195778Y-94495165D01*
X168200003Y-94448419D01*
X168347259Y-94448419D01*
X168364033Y-94579698D01*
X168418605Y-94698716D01*
X168427331Y-94710997D01*
X168469018Y-94756736D01*
X168504752Y-94778861D01*
X168507012Y-94779230D01*
X168548602Y-94763892D01*
X168588373Y-94711564D01*
X168623781Y-94629572D01*
X168652283Y-94525238D01*
X168671336Y-94405886D01*
X168677454Y-94295785D01*
X168805549Y-94295785D01*
X168808171Y-94346341D01*
X168839963Y-94467936D01*
X168904755Y-94566228D01*
X168998663Y-94634409D01*
X169041204Y-94651389D01*
X169160498Y-94669481D01*
X169280124Y-94650500D01*
X169393348Y-94599277D01*
X169493438Y-94520646D01*
X169573661Y-94419439D01*
X169627284Y-94300490D01*
X169647574Y-94168630D01*
X169645311Y-94142327D01*
X169834363Y-94142327D01*
X169835621Y-94168630D01*
X169839967Y-94259517D01*
X169874755Y-94376236D01*
X169937625Y-94485307D01*
X170027470Y-94579551D01*
X170143186Y-94651792D01*
X170195482Y-94672349D01*
X170318385Y-94693638D01*
X170430245Y-94677734D01*
X170526658Y-94629795D01*
X170603218Y-94554979D01*
X170655522Y-94458444D01*
X170679164Y-94345347D01*
X170671296Y-94241411D01*
X170823550Y-94241411D01*
X170826078Y-94345347D01*
X170826172Y-94349196D01*
X170838608Y-94464678D01*
X170859841Y-94577236D01*
X170888850Y-94676250D01*
X170924617Y-94751099D01*
X170927973Y-94756123D01*
X170969149Y-94799241D01*
X171009233Y-94802197D01*
X171051405Y-94763741D01*
X171098847Y-94682622D01*
X171121962Y-94628286D01*
X171149735Y-94491820D01*
X171138330Y-94356676D01*
X171089283Y-94231866D01*
X171004127Y-94126406D01*
X170978055Y-94102842D01*
X170933080Y-94064285D01*
X170905952Y-94050103D01*
X170885431Y-94056710D01*
X170860276Y-94080522D01*
X170851828Y-94091415D01*
X170831762Y-94151944D01*
X170823550Y-94241411D01*
X170671296Y-94241411D01*
X170669739Y-94220848D01*
X170622844Y-94090104D01*
X170611406Y-94068951D01*
X170530214Y-93962185D01*
X170425931Y-93876723D01*
X170309569Y-93819996D01*
X170192139Y-93799435D01*
X170168927Y-93801236D01*
X170094868Y-93819344D01*
X170019869Y-93850630D01*
X170003712Y-93859700D01*
X169915131Y-93935241D01*
X169859050Y-94031843D01*
X169834363Y-94142327D01*
X169645311Y-94142327D01*
X169639723Y-94077362D01*
X169599402Y-93963116D01*
X169530657Y-93874415D01*
X169440008Y-93813866D01*
X169333977Y-93784076D01*
X169219085Y-93787650D01*
X169101853Y-93827196D01*
X168988803Y-93905319D01*
X168981728Y-93911785D01*
X168882224Y-94027301D01*
X168824385Y-94153410D01*
X168807791Y-94278841D01*
X168805549Y-94295785D01*
X168677454Y-94295785D01*
X168678396Y-94278841D01*
X168673331Y-94182323D01*
X168652676Y-94097553D01*
X168617279Y-94054378D01*
X168568403Y-94053311D01*
X168507310Y-94094869D01*
X168435262Y-94179567D01*
X168425686Y-94193327D01*
X168367929Y-94315940D01*
X168347259Y-94448419D01*
X168200003Y-94448419D01*
X168209346Y-94345054D01*
X168243780Y-94238943D01*
X168312910Y-94119557D01*
X168418695Y-93996186D01*
X168418726Y-93996155D01*
X168469829Y-93936933D01*
X168493888Y-93883995D01*
X168494979Y-93872103D01*
X168634067Y-93872103D01*
X168638578Y-93914246D01*
X168650712Y-93933452D01*
X168658252Y-93932743D01*
X168711902Y-93911929D01*
X168787468Y-93866989D01*
X168877023Y-93804280D01*
X168972644Y-93730161D01*
X169066406Y-93650992D01*
X169122744Y-93598756D01*
X169341322Y-93598756D01*
X169382310Y-93658722D01*
X169466845Y-93710611D01*
X169505701Y-93725604D01*
X169626943Y-93750889D01*
X169761303Y-93755648D01*
X169891061Y-93740085D01*
X169998495Y-93704409D01*
X170028782Y-93687224D01*
X170091313Y-93640053D01*
X170131339Y-93593638D01*
X170150251Y-93552709D01*
X170148218Y-93517112D01*
X170119205Y-93470662D01*
X170100704Y-93447581D01*
X170057837Y-93412778D01*
X170221443Y-93412778D01*
X170224368Y-93424689D01*
X170253536Y-93469803D01*
X170308223Y-93532251D01*
X170328735Y-93552709D01*
X170381293Y-93605128D01*
X170465611Y-93681529D01*
X170554042Y-93754549D01*
X170639450Y-93817282D01*
X170678813Y-93843402D01*
X170758587Y-93890121D01*
X170810635Y-93908061D01*
X170838911Y-93898051D01*
X170847374Y-93860923D01*
X170840064Y-93779105D01*
X170796403Y-93648889D01*
X170718525Y-93537692D01*
X170612355Y-93451175D01*
X170483815Y-93395000D01*
X170338828Y-93374830D01*
X170324446Y-93374862D01*
X170260563Y-93378386D01*
X170229558Y-93389948D01*
X170221443Y-93412778D01*
X170057837Y-93412778D01*
X170010992Y-93374746D01*
X169899922Y-93328159D01*
X169777201Y-93307657D01*
X169652537Y-93313078D01*
X169535638Y-93344262D01*
X169436214Y-93401045D01*
X169418914Y-93420734D01*
X169363971Y-93483265D01*
X169343189Y-93529188D01*
X169341322Y-93598756D01*
X169122744Y-93598756D01*
X169150382Y-93573130D01*
X169216650Y-93502935D01*
X169257283Y-93446765D01*
X169268612Y-93420734D01*
X169260132Y-93399720D01*
X169215582Y-93385857D01*
X169181590Y-93382300D01*
X169106091Y-93385177D01*
X169023485Y-93397332D01*
X169012844Y-93399603D01*
X168931996Y-93423944D01*
X168864391Y-93462962D01*
X168790499Y-93527576D01*
X168712139Y-93618802D01*
X168653270Y-93738754D01*
X168634067Y-93872103D01*
X168494979Y-93872103D01*
X168500006Y-93817313D01*
X168505979Y-93753822D01*
X168544632Y-93630369D01*
X168613180Y-93510172D01*
X168704603Y-93407298D01*
X168804071Y-93318713D01*
X168737777Y-93262816D01*
X168719587Y-93247350D01*
X168601160Y-93137040D01*
X168513295Y-93032510D01*
X168447310Y-92921880D01*
X168394520Y-92793273D01*
X168376235Y-92725224D01*
X168360027Y-92630531D01*
X168355117Y-92581813D01*
X168463334Y-92581813D01*
X168465390Y-92605826D01*
X168498681Y-92646761D01*
X168525217Y-92676851D01*
X168534787Y-92698411D01*
X168514865Y-92703837D01*
X168484793Y-92710882D01*
X168483360Y-92737243D01*
X168520639Y-92780729D01*
X168546290Y-92813689D01*
X168552676Y-92848952D01*
X168559281Y-92879047D01*
X168593312Y-92914559D01*
X168596634Y-92916928D01*
X168627076Y-92947309D01*
X168617877Y-92968072D01*
X168613665Y-92971446D01*
X168618618Y-92993711D01*
X168666484Y-93025944D01*
X168678528Y-93032830D01*
X168720713Y-93066906D01*
X168731280Y-93095604D01*
X168741162Y-93120525D01*
X168790457Y-93139840D01*
X168838993Y-93158297D01*
X168849125Y-93185403D01*
X168847474Y-93192302D01*
X168863978Y-93212042D01*
X168920214Y-93222408D01*
X168927281Y-93223065D01*
X168981182Y-93235740D01*
X168997279Y-93257226D01*
X169011680Y-93275989D01*
X169060037Y-93282553D01*
X169133417Y-93276507D01*
X169222804Y-93257826D01*
X169267570Y-93240083D01*
X169334599Y-93198462D01*
X169397084Y-93146246D01*
X169443228Y-93093670D01*
X169461231Y-93050971D01*
X169455391Y-93035111D01*
X169417647Y-92991816D01*
X169349654Y-92933271D01*
X169257004Y-92863805D01*
X169145286Y-92787747D01*
X169020093Y-92709427D01*
X168959861Y-92672710D01*
X168894418Y-92631029D01*
X168853430Y-92602572D01*
X168843956Y-92592041D01*
X168852146Y-92593378D01*
X168898039Y-92610183D01*
X168970099Y-92642483D01*
X169058877Y-92685503D01*
X169154924Y-92734465D01*
X169248794Y-92784592D01*
X169331037Y-92831107D01*
X169392205Y-92869233D01*
X169420287Y-92888004D01*
X169491598Y-92928826D01*
X169542508Y-92940752D01*
X169583080Y-92924238D01*
X169623374Y-92879742D01*
X169642364Y-92846280D01*
X169655406Y-92759128D01*
X169653075Y-92749067D01*
X169842579Y-92749067D01*
X169843574Y-92759128D01*
X169851857Y-92842902D01*
X169895438Y-92916485D01*
X169949539Y-92970586D01*
X170102260Y-92867431D01*
X170150703Y-92836355D01*
X170234219Y-92787383D01*
X170326816Y-92736939D01*
X170420503Y-92688950D01*
X170507284Y-92647346D01*
X170579168Y-92616053D01*
X170628160Y-92599000D01*
X170646267Y-92600114D01*
X170637304Y-92607500D01*
X170597192Y-92633770D01*
X170532258Y-92673937D01*
X170450624Y-92722906D01*
X170429999Y-92735225D01*
X170304476Y-92815248D01*
X170197740Y-92891958D01*
X170115022Y-92961045D01*
X170061555Y-93018198D01*
X170042569Y-93059107D01*
X170043405Y-93068608D01*
X170069369Y-93122457D01*
X170123855Y-93179411D01*
X170196236Y-93227804D01*
X170218703Y-93237648D01*
X170290869Y-93259634D01*
X170371132Y-93275200D01*
X170377000Y-93275969D01*
X170444083Y-93281640D01*
X170480141Y-93274999D01*
X170496902Y-93254075D01*
X170520916Y-93229859D01*
X170578487Y-93218097D01*
X170626361Y-93210593D01*
X170646267Y-93189461D01*
X170646414Y-93187531D01*
X170668096Y-93160383D01*
X170715387Y-93134734D01*
X170722259Y-93132000D01*
X170761887Y-93108048D01*
X170770554Y-93086066D01*
X170769245Y-93081528D01*
X170785974Y-93055318D01*
X170829999Y-93025392D01*
X170843596Y-93017974D01*
X170877346Y-92992291D01*
X170873630Y-92977253D01*
X170865982Y-92972790D01*
X170868404Y-92948380D01*
X170905763Y-92902600D01*
X170919729Y-92887332D01*
X170944307Y-92851284D01*
X170937221Y-92837992D01*
X170933516Y-92837696D01*
X170929409Y-92821161D01*
X170960401Y-92780916D01*
X170987640Y-92749536D01*
X170998560Y-92722366D01*
X170981068Y-92703289D01*
X170969203Y-92694636D01*
X170965829Y-92675407D01*
X170998423Y-92647301D01*
X170999442Y-92646580D01*
X171039604Y-92608687D01*
X171045376Y-92580640D01*
X171015193Y-92569682D01*
X170988907Y-92563668D01*
X170986329Y-92537224D01*
X171016461Y-92485220D01*
X171027565Y-92469029D01*
X171037161Y-92445728D01*
X171017665Y-92436905D01*
X170961264Y-92435527D01*
X170910715Y-92433379D01*
X170884017Y-92422804D01*
X170885104Y-92399454D01*
X170885987Y-92397087D01*
X170887190Y-92376693D01*
X170863714Y-92371495D01*
X170806145Y-92379061D01*
X170778400Y-92383183D01*
X170728680Y-92383719D01*
X170713344Y-92367926D01*
X170712964Y-92364140D01*
X170691197Y-92350768D01*
X170632886Y-92356207D01*
X170619451Y-92358574D01*
X170573187Y-92361290D01*
X170567128Y-92347516D01*
X170567858Y-92346299D01*
X170566988Y-92326789D01*
X170536309Y-92327523D01*
X170485439Y-92348399D01*
X170446181Y-92361556D01*
X170421197Y-92343698D01*
X170415714Y-92336132D01*
X170393156Y-92330184D01*
X170355598Y-92357270D01*
X170336507Y-92373584D01*
X170308249Y-92386417D01*
X170288520Y-92368449D01*
X170279858Y-92356761D01*
X170258051Y-92352272D01*
X170221443Y-92379629D01*
X170215472Y-92384920D01*
X170179025Y-92407388D01*
X170157123Y-92395270D01*
X170153075Y-92390050D01*
X170128320Y-92388974D01*
X170087288Y-92424347D01*
X170072576Y-92439315D01*
X170037969Y-92463226D01*
X170016971Y-92452644D01*
X170015601Y-92450523D01*
X169994898Y-92440795D01*
X169964692Y-92469175D01*
X169922556Y-92528919D01*
X169866511Y-92642048D01*
X169842579Y-92749067D01*
X169653075Y-92749067D01*
X169631069Y-92654099D01*
X169569922Y-92534848D01*
X169529072Y-92476126D01*
X169499254Y-92449773D01*
X169477530Y-92455003D01*
X169468250Y-92461986D01*
X169440003Y-92458152D01*
X169399345Y-92418912D01*
X169387441Y-92405479D01*
X169352862Y-92377338D01*
X169334575Y-92386586D01*
X169332310Y-92391456D01*
X169313987Y-92401212D01*
X169279511Y-92377052D01*
X169241591Y-92352742D01*
X169211739Y-92363047D01*
X169211484Y-92363301D01*
X169179980Y-92374199D01*
X169132102Y-92351989D01*
X169087411Y-92330578D01*
X169061858Y-92341088D01*
X169049995Y-92352214D01*
X169013458Y-92345252D01*
X168990706Y-92334012D01*
X168948425Y-92324759D01*
X168917777Y-92329379D01*
X168914314Y-92347516D01*
X168916416Y-92352225D01*
X168901005Y-92361946D01*
X168845323Y-92355601D01*
X168810471Y-92349979D01*
X168777997Y-92351000D01*
X168778464Y-92367134D01*
X168781350Y-92379373D01*
X168758599Y-92388419D01*
X168697850Y-92386998D01*
X168665535Y-92385304D01*
X168617615Y-92389929D01*
X168605994Y-92407578D01*
X168606068Y-92407973D01*
X168589848Y-92428433D01*
X168533806Y-92435527D01*
X168523616Y-92435544D01*
X168478473Y-92438759D01*
X168467682Y-92454570D01*
X168482227Y-92493026D01*
X168488847Y-92508361D01*
X168496439Y-92546998D01*
X168476743Y-92570105D01*
X168463334Y-92581813D01*
X168355117Y-92581813D01*
X168350132Y-92532359D01*
X168348062Y-92446328D01*
X168355326Y-92388059D01*
X168374302Y-92366944D01*
X168425902Y-92337163D01*
X168495058Y-92308719D01*
X168567281Y-92287405D01*
X168628082Y-92279013D01*
X168651930Y-92276128D01*
X168690959Y-92257906D01*
X168692570Y-92256454D01*
X168734031Y-92239489D01*
X168806704Y-92225124D01*
X168898111Y-92214473D01*
X168995777Y-92208652D01*
X169087224Y-92208776D01*
X169159977Y-92215963D01*
X169193347Y-92222164D01*
X169276593Y-92237333D01*
X169343062Y-92249070D01*
X169343152Y-92249085D01*
X169401473Y-92266930D01*
X169440827Y-92292547D01*
X169458261Y-92307588D01*
X169506371Y-92323731D01*
X169528139Y-92330162D01*
X169576689Y-92365534D01*
X169631331Y-92422167D01*
X169681957Y-92489032D01*
X169718456Y-92555101D01*
X169746691Y-92622253D01*
X169783253Y-92551551D01*
X169797074Y-92526578D01*
X169847205Y-92452986D01*
X169903640Y-92387912D01*
X169956880Y-92341460D01*
X169997430Y-92323731D01*
X170019792Y-92319838D01*
X170062974Y-92292547D01*
X170063007Y-92292508D01*
X170102408Y-92266894D01*
X170160739Y-92249070D01*
X170184816Y-92244883D01*
X170261623Y-92231109D01*
X170343824Y-92215963D01*
X170348717Y-92215093D01*
X170423446Y-92208519D01*
X170515860Y-92208916D01*
X170613483Y-92215170D01*
X170703839Y-92226163D01*
X170774451Y-92240780D01*
X170812842Y-92257906D01*
X170829218Y-92268524D01*
X170875719Y-92279013D01*
X170923143Y-92284499D01*
X170994515Y-92303795D01*
X171065553Y-92331479D01*
X171121771Y-92361728D01*
X171148685Y-92388721D01*
X171151242Y-92397998D01*
X171158005Y-92471880D01*
X171152171Y-92568292D01*
X171150304Y-92580640D01*
X171136222Y-92673786D01*
X171112637Y-92774912D01*
X171083897Y-92858220D01*
X171052485Y-92910259D01*
X171040688Y-92926248D01*
X171026372Y-92974996D01*
X171009973Y-93015158D01*
X170970474Y-93057589D01*
X170969333Y-93058491D01*
X170930621Y-93096214D01*
X170914577Y-93125773D01*
X170914514Y-93126912D01*
X170895695Y-93155483D01*
X170853458Y-93189633D01*
X170801095Y-93227250D01*
X170752842Y-93268405D01*
X170722393Y-93293153D01*
X170689247Y-93307534D01*
X170688154Y-93314462D01*
X170713166Y-93341195D01*
X170761659Y-93381144D01*
X170815002Y-93425784D01*
X170919302Y-93549218D01*
X170982497Y-93689230D01*
X171003888Y-93844484D01*
X171004054Y-93853895D01*
X171005356Y-93860923D01*
X171013687Y-93905880D01*
X171043831Y-93956067D01*
G37*
D10*
X180484823Y-99219823D03*
D11*
X180484823Y-83979823D03*
D10*
X80472323Y-99219823D03*
D11*
X80472323Y-83979823D03*
D12*
X268572706Y-7050000D03*
X267832706Y-7050000D03*
X267092706Y-7050000D03*
X266352706Y-7050000D03*
X265612706Y-7050000D03*
X264872706Y-7050000D03*
D10*
X9034823Y-66199823D03*
D11*
X9034823Y-81439823D03*
D10*
X32847323Y-66199823D03*
D11*
X32847323Y-81439823D03*
D12*
X154011353Y-7050000D03*
X153271353Y-7050000D03*
X152531353Y-7050000D03*
X151791353Y-7050000D03*
X151051353Y-7050000D03*
X150311353Y-7050000D03*
D10*
X254303573Y-9049823D03*
D11*
X254303573Y-24289823D03*
D10*
X278116073Y-9049823D03*
D11*
X278116073Y-24289823D03*
D12*
X35750000Y-101222338D03*
X36490000Y-101222338D03*
X37230000Y-101222338D03*
X37970000Y-101222338D03*
X38710000Y-101222338D03*
X39450000Y-101222338D03*
X273850001Y-101222338D03*
X274590001Y-101222338D03*
X275330001Y-101222338D03*
X276070001Y-101222338D03*
X276810001Y-101222338D03*
X277550001Y-101222338D03*
X150311353Y-101222338D03*
X151051353Y-101222338D03*
X151791353Y-101222338D03*
X152531353Y-101222338D03*
X153271353Y-101222338D03*
X154011353Y-101222338D03*
X39450000Y-7050000D03*
X38710000Y-7050000D03*
X37970000Y-7050000D03*
X37230000Y-7050000D03*
X36490000Y-7050000D03*
X35750000Y-7050000D03*
D10*
X251922323Y-47149823D03*
D11*
X251922323Y-62389823D03*
D10*
X275734823Y-47149823D03*
D11*
X275734823Y-62389823D03*
D13*
X228427323Y-73184823D03*
D11*
X223347323Y-73184823D03*
D13*
X218267323Y-73184823D03*
D14*
X219537323Y-70644823D03*
D15*
X215987323Y-70644823D03*
X229437323Y-68104823D03*
D14*
X225887323Y-68104823D03*
D16*
X123200000Y-78734823D03*
X123200000Y-77184823D03*
X261568750Y-97734823D03*
X261568750Y-96184823D03*
D17*
X87959823Y-23800000D03*
X86409823Y-23800000D03*
D18*
X241119822Y-56722322D03*
X241119822Y-53422322D03*
D17*
X164159823Y-23800000D03*
X162609823Y-23800000D03*
X221309823Y-23800000D03*
X219759823Y-23800000D03*
D18*
X231594822Y-75772322D03*
X231594822Y-72472322D03*
D17*
X183209823Y-23800000D03*
X181659823Y-23800000D03*
D19*
X106834823Y-96047323D03*
X106834823Y-97597323D03*
D16*
X289887500Y-78734823D03*
X289887500Y-77184823D03*
D20*
X37650000Y-67800000D03*
X39200000Y-67800000D03*
D18*
X55382322Y-17949999D03*
X55382322Y-14649999D03*
D21*
X133203573Y-97734823D03*
X133203573Y-96234823D03*
X127753573Y-97734823D03*
D22*
X127753572Y-96234822D03*
D21*
X11759823Y-21534823D03*
X11759823Y-20034823D03*
X6309823Y-21534823D03*
D22*
X6309822Y-20034822D03*
D16*
X104150000Y-78734823D03*
X104150000Y-77184823D03*
D18*
X145869822Y-56722322D03*
X145869822Y-53422322D03*
X69669822Y-56722322D03*
X69669822Y-53422322D03*
D21*
X221309823Y-21534823D03*
X221309823Y-20034823D03*
X215859823Y-21534823D03*
D22*
X215859822Y-20034822D03*
D23*
X244434823Y-39084823D03*
X244434823Y-40584823D03*
X249884823Y-39084823D03*
D24*
X249884822Y-40584822D03*
D23*
X225384823Y-39084823D03*
X225384823Y-40584823D03*
X230834823Y-39084823D03*
D24*
X230834822Y-40584822D03*
D17*
X86862500Y-95400000D03*
X85312500Y-95400000D03*
X30809823Y-23800000D03*
X29259823Y-23800000D03*
D25*
X26209758Y-58192481D03*
X27459758Y-58192481D03*
X28709758Y-58192481D03*
X29959758Y-58192481D03*
D26*
X23659758Y-55292481D03*
X32509758Y-55292481D03*
D21*
X228453573Y-97734823D03*
X228453573Y-96234823D03*
X223003573Y-97734823D03*
D22*
X223003572Y-96234822D03*
D23*
X163472323Y-77184823D03*
X163472323Y-78684823D03*
X168922323Y-77184823D03*
D24*
X168922322Y-78684822D03*
D18*
X112532322Y-18622322D03*
X112532322Y-15322322D03*
D21*
X61766073Y-97734823D03*
X61766073Y-96234823D03*
X56316073Y-97734823D03*
D22*
X56316072Y-96234822D03*
D13*
X109364823Y-16034823D03*
D11*
X104284823Y-16034823D03*
D13*
X99204823Y-16034823D03*
D14*
X100474823Y-13494823D03*
D15*
X96924823Y-13494823D03*
X110374823Y-10954823D03*
D14*
X106824823Y-10954823D03*
D21*
X145109823Y-21534823D03*
X145109823Y-20034823D03*
X139659823Y-21534823D03*
D22*
X139659822Y-20034822D03*
D13*
X299864823Y-54134823D03*
D11*
X294784823Y-54134823D03*
D13*
X289704823Y-54134823D03*
D14*
X290974823Y-51594823D03*
D15*
X287424823Y-51594823D03*
X300874823Y-49054823D03*
D14*
X297324823Y-49054823D03*
D16*
X230612500Y-97734823D03*
X230612500Y-96184823D03*
D18*
X283382322Y-37672322D03*
X283382322Y-34372322D03*
D13*
X223664823Y-16034823D03*
D11*
X218584823Y-16034823D03*
D13*
X213504823Y-16034823D03*
D14*
X214774823Y-13494823D03*
D15*
X211224823Y-13494823D03*
X224674823Y-10954823D03*
D14*
X221124823Y-10954823D03*
D13*
X190327323Y-73184823D03*
D11*
X185247323Y-73184823D03*
D13*
X180167323Y-73184823D03*
D14*
X181437323Y-70644823D03*
D15*
X177887323Y-70644823D03*
X191337323Y-68104823D03*
D14*
X187787323Y-68104823D03*
D23*
X201572323Y-77184823D03*
X201572323Y-78684823D03*
X207022323Y-77184823D03*
D24*
X207022322Y-78684822D03*
D23*
X182522323Y-77184823D03*
X182522323Y-78684823D03*
X187972323Y-77184823D03*
D24*
X187972322Y-78684822D03*
D27*
X274974822Y-82699999D03*
X278274822Y-82699999D03*
D21*
X278459823Y-97734823D03*
X278459823Y-96234823D03*
X273009823Y-97734823D03*
D22*
X273009822Y-96234822D03*
D18*
X160157322Y-37672322D03*
X160157322Y-34372322D03*
D16*
X270837500Y-78734823D03*
X270837500Y-77184823D03*
D23*
X273009823Y-77184823D03*
X273009823Y-78684823D03*
X278459823Y-77184823D03*
D24*
X278459822Y-78684822D03*
D13*
X147464823Y-16034823D03*
D11*
X142384823Y-16034823D03*
D13*
X137304823Y-16034823D03*
D14*
X138574823Y-13494823D03*
D15*
X135024823Y-13494823D03*
X148474823Y-10954823D03*
D14*
X144924823Y-10954823D03*
D17*
X202259823Y-23800000D03*
X200709823Y-23800000D03*
D13*
X16496073Y-92234823D03*
D11*
X11416073Y-92234823D03*
D13*
X6336073Y-92234823D03*
D14*
X7606073Y-89694823D03*
D15*
X4056073Y-89694823D03*
X17506073Y-87154823D03*
D14*
X13956073Y-87154823D03*
D13*
X209377323Y-73184823D03*
D11*
X204297323Y-73184823D03*
D13*
X199217323Y-73184823D03*
D14*
X200487323Y-70644823D03*
D15*
X196937323Y-70644823D03*
X210387323Y-68104823D03*
D14*
X206837323Y-68104823D03*
D16*
X107034823Y-82300000D03*
X107034823Y-80750000D03*
D13*
X52214823Y-16034823D03*
D11*
X47134823Y-16034823D03*
D13*
X42054823Y-16034823D03*
D14*
X43324823Y-13494823D03*
D15*
X39774823Y-13494823D03*
X53224823Y-10954823D03*
D14*
X49674823Y-10954823D03*
D13*
X26021073Y-73184823D03*
D11*
X20941073Y-73184823D03*
D13*
X15861073Y-73184823D03*
D14*
X17131073Y-70644823D03*
D15*
X13581073Y-70644823D03*
X27031073Y-68104823D03*
D14*
X23481073Y-68104823D03*
D13*
X85552323Y-54134823D03*
D11*
X80472323Y-54134823D03*
D13*
X75392323Y-54134823D03*
D14*
X76662323Y-51594823D03*
D15*
X73112323Y-51594823D03*
X86562323Y-49054823D03*
D14*
X83012323Y-49054823D03*
D13*
X299864823Y-73184823D03*
D11*
X294784823Y-73184823D03*
D13*
X289704823Y-73184823D03*
D14*
X290974823Y-70644823D03*
D15*
X287424823Y-70644823D03*
X300874823Y-68104823D03*
D14*
X297324823Y-68104823D03*
D16*
X199400000Y-78734823D03*
X199400000Y-77184823D03*
D13*
X206996073Y-92234823D03*
D11*
X201916073Y-92234823D03*
D13*
X196836073Y-92234823D03*
D14*
X198106073Y-89694823D03*
D15*
X194556073Y-89694823D03*
X208006073Y-87154823D03*
D14*
X204456073Y-87154823D03*
D19*
X41400000Y-63600000D03*
X41400000Y-65150000D03*
D18*
X283382322Y-56722322D03*
X283382322Y-53422322D03*
D13*
X166514823Y-16034823D03*
D11*
X161434823Y-16034823D03*
D13*
X156354823Y-16034823D03*
D14*
X157624823Y-13494823D03*
D15*
X154074823Y-13494823D03*
X167524823Y-10954823D03*
D14*
X163974823Y-10954823D03*
D17*
X97109823Y-90168649D03*
X95559823Y-90168649D03*
D13*
X199852323Y-54134823D03*
D11*
X194772323Y-54134823D03*
D13*
X189692323Y-54134823D03*
D14*
X190962323Y-51594823D03*
D15*
X187412323Y-51594823D03*
X200862323Y-49054823D03*
D14*
X197312323Y-49054823D03*
D18*
X264932322Y-75772322D03*
X264932322Y-72472322D03*
D28*
X113659822Y-97499999D03*
D29*
X116199822Y-97499999D03*
X118739822Y-97499999D03*
X121279822Y-97499999D03*
X123819822Y-97499999D03*
D13*
X156989823Y-35084823D03*
D11*
X151909823Y-35084823D03*
D13*
X146829823Y-35084823D03*
D14*
X148099823Y-32544823D03*
D15*
X144549823Y-32544823D03*
X157999823Y-30004823D03*
D14*
X154449823Y-30004823D03*
D16*
X16300000Y-97475000D03*
X16300000Y-95925000D03*
D13*
X128414823Y-16034823D03*
D11*
X123334823Y-16034823D03*
D13*
X118254823Y-16034823D03*
D14*
X119524823Y-13494823D03*
D15*
X115974823Y-13494823D03*
X129424823Y-10954823D03*
D14*
X125874823Y-10954823D03*
D20*
X100359823Y-96968649D03*
X101909823Y-96968649D03*
D18*
X107769822Y-56722322D03*
X107769822Y-53422322D03*
X212544822Y-75772322D03*
X212544822Y-72472322D03*
D13*
X66502323Y-54134823D03*
D11*
X61422323Y-54134823D03*
D13*
X56342323Y-54134823D03*
D14*
X57612323Y-51594823D03*
D15*
X54062323Y-51594823D03*
X67512323Y-49054823D03*
D14*
X63962323Y-49054823D03*
D13*
X252239823Y-35084823D03*
D11*
X247159823Y-35084823D03*
D13*
X242079823Y-35084823D03*
D14*
X243349823Y-32544823D03*
D15*
X239799823Y-32544823D03*
X253249823Y-30004823D03*
D14*
X249699823Y-30004823D03*
D13*
X268908573Y-54134823D03*
D11*
X263828573Y-54134823D03*
D13*
X258748573Y-54134823D03*
D14*
X260018573Y-51594823D03*
D15*
X256468573Y-51594823D03*
X269918573Y-49054823D03*
D14*
X266368573Y-49054823D03*
D23*
X111084823Y-39084823D03*
X111084823Y-40584823D03*
X116534823Y-39084823D03*
D24*
X116534822Y-40584822D03*
D18*
X88719822Y-56722322D03*
X88719822Y-53422322D03*
D17*
X240359823Y-23800000D03*
X238809823Y-23800000D03*
X107009823Y-23800000D03*
X105459823Y-23800000D03*
D16*
X8900000Y-40634823D03*
X8900000Y-39084823D03*
D18*
X188732322Y-18622322D03*
X188732322Y-15322322D03*
D17*
X47909823Y-23800000D03*
X46359823Y-23800000D03*
D18*
X207782322Y-18622322D03*
X207782322Y-15322322D03*
D16*
X135362500Y-97734823D03*
X135362500Y-96184823D03*
X70812500Y-40634823D03*
X70812500Y-39084823D03*
D30*
X102584823Y-85949899D03*
X102984823Y-85949899D03*
X103384823Y-85949899D03*
X103784823Y-85949899D03*
X104184823Y-85949899D03*
X104584823Y-85949899D03*
X104984823Y-85949899D03*
X105384823Y-85949899D03*
X105784823Y-85949899D03*
X106184823Y-85949899D03*
X106584823Y-85949899D03*
X106984823Y-85949899D03*
X107384823Y-85949899D03*
X107784823Y-85949899D03*
D31*
X108622323Y-86787399D03*
X108622323Y-87187399D03*
X108622323Y-87587399D03*
X108622323Y-87987399D03*
X108622323Y-88387399D03*
X108622323Y-88787399D03*
X108622323Y-89187399D03*
X108622323Y-89587399D03*
X108622323Y-89987399D03*
X108622323Y-90387399D03*
X108622323Y-90787399D03*
X108622323Y-91187399D03*
X108622323Y-91587399D03*
X108622323Y-91987399D03*
D30*
X107784823Y-92824899D03*
X107384823Y-92824899D03*
X106984823Y-92824899D03*
X106584823Y-92824899D03*
X106184823Y-92824899D03*
X105784823Y-92824899D03*
X105384823Y-92824899D03*
X104984823Y-92824899D03*
X104584823Y-92824899D03*
X104184823Y-92824899D03*
X103784823Y-92824899D03*
X103384823Y-92824899D03*
X102984823Y-92824899D03*
X102584823Y-92824899D03*
D31*
X101747323Y-91987399D03*
X101747323Y-91587399D03*
X101747323Y-91187399D03*
X101747323Y-90787399D03*
X101747323Y-90387399D03*
X101747323Y-89987399D03*
X101747323Y-89587399D03*
X101747323Y-89187399D03*
X101747323Y-88787399D03*
X101747323Y-88387399D03*
X101747323Y-87987399D03*
X101747323Y-87587399D03*
X101747323Y-87187399D03*
X101747323Y-86787399D03*
D32*
X105184823Y-89387399D03*
D21*
X178447323Y-59634823D03*
X178447323Y-58134823D03*
X172997323Y-59634823D03*
D22*
X172997322Y-58134822D03*
D18*
X222069822Y-56722322D03*
X222069822Y-53422322D03*
D21*
X197497323Y-59634823D03*
X197497323Y-58134823D03*
X192047323Y-59634823D03*
D22*
X192047322Y-58134822D03*
D23*
X72984823Y-39084823D03*
X72984823Y-40584823D03*
X78434823Y-39084823D03*
D24*
X78434822Y-40584822D03*
D13*
X142702323Y-54134823D03*
D11*
X137622323Y-54134823D03*
D13*
X132542323Y-54134823D03*
D14*
X133812323Y-51594823D03*
D15*
X130262323Y-51594823D03*
X143712323Y-49054823D03*
D14*
X140162323Y-49054823D03*
D13*
X33164823Y-16034823D03*
D11*
X28084823Y-16034823D03*
D13*
X23004823Y-16034823D03*
D14*
X24274823Y-13494823D03*
D15*
X20724823Y-13494823D03*
X34174823Y-10954823D03*
D14*
X30624823Y-10954823D03*
D18*
X50619822Y-56722322D03*
X50619822Y-53422322D03*
D17*
X64147323Y-61900000D03*
X62597323Y-61900000D03*
D13*
X214139823Y-35084823D03*
D11*
X209059823Y-35084823D03*
D13*
X203979823Y-35084823D03*
D14*
X205249823Y-32544823D03*
D15*
X201699823Y-32544823D03*
X215149823Y-30004823D03*
D14*
X211599823Y-30004823D03*
D13*
X230808573Y-92234823D03*
D11*
X225728573Y-92234823D03*
D13*
X220648573Y-92234823D03*
D14*
X221918573Y-89694823D03*
D15*
X218368573Y-89694823D03*
X231818573Y-87154823D03*
D14*
X228268573Y-87154823D03*
D33*
X94000000Y-82145000D03*
X94000000Y-83415000D03*
X94000000Y-84685000D03*
X94000000Y-85955000D03*
X86800000Y-85955000D03*
X86800000Y-84685000D03*
X86800000Y-83415000D03*
X86800000Y-82145000D03*
D23*
X11072323Y-39084823D03*
X11072323Y-40584823D03*
X16522323Y-39084823D03*
D24*
X16522322Y-40584822D03*
D18*
X74432322Y-18622322D03*
X74432322Y-15322322D03*
D17*
X45097323Y-61900000D03*
X43547323Y-61900000D03*
D16*
X204162500Y-40634823D03*
X204162500Y-39084823D03*
D21*
X87959823Y-21534823D03*
X87959823Y-20034823D03*
X82509823Y-21534823D03*
D22*
X82509822Y-20034822D03*
D16*
X147012500Y-40634823D03*
X147012500Y-39084823D03*
D18*
X245882322Y-18622322D03*
X245882322Y-15322322D03*
D21*
X102247323Y-59634823D03*
X102247323Y-58134823D03*
X96797323Y-59634823D03*
D22*
X96797322Y-58134822D03*
D13*
X56977323Y-73184823D03*
D11*
X51897323Y-73184823D03*
D13*
X46817323Y-73184823D03*
D14*
X48087323Y-70644823D03*
D15*
X44537323Y-70644823D03*
X57987323Y-68104823D03*
D14*
X54437323Y-68104823D03*
D21*
X202259823Y-21534823D03*
X202259823Y-20034823D03*
X196809823Y-21534823D03*
D22*
X196809822Y-20034822D03*
D13*
X42689823Y-35084823D03*
D11*
X37609823Y-35084823D03*
D13*
X32529823Y-35084823D03*
D14*
X33799823Y-32544823D03*
D15*
X30249823Y-32544823D03*
X43699823Y-30004823D03*
D14*
X40149823Y-30004823D03*
D16*
X218450000Y-78734823D03*
X218450000Y-77184823D03*
D21*
X259409823Y-97734823D03*
X259409823Y-96234823D03*
X253959823Y-97734823D03*
D22*
X253959822Y-96234822D03*
D17*
X235597323Y-61900000D03*
X234047323Y-61900000D03*
D21*
X266553573Y-59634823D03*
X266553573Y-58134823D03*
X261103573Y-59634823D03*
D22*
X261103572Y-58134822D03*
D21*
X18903573Y-59634823D03*
X18903573Y-58134823D03*
X13453573Y-59634823D03*
D22*
X13453572Y-58134822D03*
D13*
X135558573Y-92234823D03*
D11*
X130478573Y-92234823D03*
D13*
X125398573Y-92234823D03*
D14*
X126668573Y-89694823D03*
D15*
X123118573Y-89694823D03*
X136568573Y-87154823D03*
D14*
X133018573Y-87154823D03*
D21*
X164159823Y-21534823D03*
X164159823Y-20034823D03*
X158709823Y-21534823D03*
D22*
X158709822Y-20034822D03*
D13*
X280814823Y-92234823D03*
D11*
X275734823Y-92234823D03*
D13*
X270654823Y-92234823D03*
D14*
X271924823Y-89694823D03*
D15*
X268374823Y-89694823D03*
X281824823Y-87154823D03*
D14*
X278274823Y-87154823D03*
D18*
X93482322Y-18622322D03*
X93482322Y-15322322D03*
D34*
X144849999Y-92899999D03*
X151149999Y-92899999D03*
X144849999Y-89099999D03*
X151149999Y-89099999D03*
D13*
X185564823Y-16034823D03*
D11*
X180484823Y-16034823D03*
D13*
X175404823Y-16034823D03*
D14*
X176674823Y-13494823D03*
D15*
X173124823Y-13494823D03*
X186574823Y-10954823D03*
D14*
X183024823Y-10954823D03*
D18*
X43476072Y-94822322D03*
X43476072Y-91522322D03*
D21*
X204641073Y-97734823D03*
X204641073Y-96234823D03*
X199191073Y-97734823D03*
D22*
X199191072Y-96234822D03*
D35*
X118186815Y-83220641D03*
X119282831Y-84316657D03*
D13*
X218902323Y-54134823D03*
D11*
X213822323Y-54134823D03*
D13*
X208742323Y-54134823D03*
D14*
X210012323Y-51594823D03*
D15*
X206462323Y-51594823D03*
X219912323Y-49054823D03*
D14*
X216362323Y-49054823D03*
D16*
X84700000Y-82145000D03*
X84700000Y-80595000D03*
D18*
X17282322Y-18622322D03*
X17282322Y-15322322D03*
D23*
X206334823Y-39084823D03*
X206334823Y-40584823D03*
X211784823Y-39084823D03*
D24*
X211784822Y-40584822D03*
D13*
X99839823Y-35084823D03*
D11*
X94759823Y-35084823D03*
D13*
X89679823Y-35084823D03*
D14*
X90949823Y-32544823D03*
D15*
X87399823Y-32544823D03*
X100849823Y-30004823D03*
D14*
X97299823Y-30004823D03*
D21*
X235597323Y-59634823D03*
X235597323Y-58134823D03*
X230147323Y-59634823D03*
D22*
X230147322Y-58134822D03*
D18*
X255407322Y-37672322D03*
X255407322Y-34372322D03*
D17*
X98109823Y-92868649D03*
X96559823Y-92868649D03*
D18*
X103007322Y-37672322D03*
X103007322Y-34372322D03*
D16*
X161300000Y-78734823D03*
X161300000Y-77184823D03*
D23*
X87272323Y-77184823D03*
X87272323Y-78684823D03*
X92722323Y-77184823D03*
D24*
X92722322Y-78684822D03*
D36*
X116911599Y-86947506D03*
X115355964Y-85391871D03*
X116558045Y-84189790D03*
X118113680Y-85745425D03*
D13*
X171277323Y-73184823D03*
D11*
X166197323Y-73184823D03*
D13*
X161117323Y-73184823D03*
D14*
X162387323Y-70644823D03*
D15*
X158837323Y-70644823D03*
X172287323Y-68104823D03*
D14*
X168737323Y-68104823D03*
D13*
X204614823Y-16034823D03*
D11*
X199534823Y-16034823D03*
D13*
X194454823Y-16034823D03*
D14*
X195724823Y-13494823D03*
D15*
X192174823Y-13494823D03*
X205624823Y-10954823D03*
D14*
X202074823Y-10954823D03*
D18*
X279219822Y-37672322D03*
X279219822Y-34372322D03*
D17*
X159397323Y-61900000D03*
X157847323Y-61900000D03*
D21*
X49859823Y-21534823D03*
X49859823Y-20034823D03*
X44409823Y-21534823D03*
D22*
X44409822Y-20034822D03*
D16*
X85100000Y-78734823D03*
X85100000Y-77184823D03*
D18*
X198257322Y-37672322D03*
X198257322Y-34372322D03*
D23*
X220622323Y-77184823D03*
X220622323Y-78684823D03*
X226072323Y-77184823D03*
D24*
X226072322Y-78684822D03*
D13*
X118889823Y-35084823D03*
D11*
X113809823Y-35084823D03*
D13*
X108729823Y-35084823D03*
D14*
X109999823Y-32544823D03*
D15*
X106449823Y-32544823D03*
X119899823Y-30004823D03*
D14*
X116349823Y-30004823D03*
D16*
X223212500Y-40634823D03*
X223212500Y-39084823D03*
D18*
X122057322Y-37672322D03*
X122057322Y-34372322D03*
D16*
X127962500Y-40634823D03*
X127962500Y-39084823D03*
D13*
X242714823Y-16034823D03*
D11*
X237634823Y-16034823D03*
D13*
X232554823Y-16034823D03*
D14*
X233824823Y-13494823D03*
D15*
X230274823Y-13494823D03*
X243724823Y-10954823D03*
D14*
X240174823Y-10954823D03*
D13*
X176039823Y-35084823D03*
D11*
X170959823Y-35084823D03*
D13*
X165879823Y-35084823D03*
D14*
X167149823Y-32544823D03*
D15*
X163599823Y-32544823D03*
X177049823Y-30004823D03*
D14*
X173499823Y-30004823D03*
D27*
X109949999Y-64099999D03*
X113249999Y-64099999D03*
D13*
X280814823Y-73184823D03*
D11*
X275734823Y-73184823D03*
D13*
X270654823Y-73184823D03*
D14*
X271924823Y-70644823D03*
D15*
X268374823Y-70644823D03*
X281824823Y-68104823D03*
D14*
X278274823Y-68104823D03*
D23*
X34884823Y-39084823D03*
X34884823Y-40584823D03*
X40334823Y-39084823D03*
D24*
X40334822Y-40584822D03*
D21*
X268934823Y-21534823D03*
X268934823Y-20034823D03*
X263484823Y-21534823D03*
D22*
X263484822Y-20034822D03*
D18*
X138999999Y-94822322D03*
X138999999Y-91522322D03*
D13*
X152227323Y-73184823D03*
D11*
X147147323Y-73184823D03*
D13*
X142067323Y-73184823D03*
D14*
X143337323Y-70644823D03*
D15*
X139787323Y-70644823D03*
X153237323Y-68104823D03*
D14*
X149687323Y-68104823D03*
D37*
X114351460Y-86985286D03*
X115518186Y-88152012D03*
D16*
X63925000Y-97734823D03*
X63925000Y-96184823D03*
D21*
X14141073Y-97734823D03*
X14141073Y-96234823D03*
X8691073Y-97734823D03*
D22*
X8691072Y-96234822D03*
D17*
X297509823Y-23800000D03*
X295959823Y-23800000D03*
D18*
X193494822Y-75772322D03*
X193494822Y-72472322D03*
X236357322Y-37672322D03*
X236357322Y-34372322D03*
D38*
X89137500Y-97250000D03*
X89137500Y-98200000D03*
X89137500Y-99150000D03*
X86862500Y-99150000D03*
X86862500Y-97250000D03*
D21*
X37953573Y-97734823D03*
X37953573Y-96234823D03*
X32503573Y-97734823D03*
D22*
X32503572Y-96234822D03*
D17*
X126059823Y-23800000D03*
X124509823Y-23800000D03*
D21*
X45097323Y-59634823D03*
X45097323Y-58134823D03*
X39647323Y-59634823D03*
D22*
X39647322Y-58134822D03*
D16*
X32712500Y-40634823D03*
X32712500Y-39084823D03*
D18*
X83957322Y-37672322D03*
X83957322Y-34372322D03*
D13*
X76027323Y-73184823D03*
D11*
X70947323Y-73184823D03*
D13*
X65867323Y-73184823D03*
D14*
X67137323Y-70644823D03*
D15*
X63587323Y-70644823D03*
X77037323Y-68104823D03*
D14*
X73487323Y-68104823D03*
D18*
X131582322Y-18622322D03*
X131582322Y-15322322D03*
D23*
X106322323Y-77184823D03*
X106322323Y-78684823D03*
X111772323Y-77184823D03*
D24*
X111772322Y-78684822D03*
D27*
X255924822Y-82699999D03*
X259224822Y-82699999D03*
D17*
X102247323Y-61900000D03*
X100697323Y-61900000D03*
D16*
X89862500Y-40634823D03*
X89862500Y-39084823D03*
D18*
X79194822Y-75772322D03*
X79194822Y-72472322D03*
D39*
X96100000Y-80495000D03*
X96100000Y-82145000D03*
D20*
X100359823Y-95268649D03*
X101909823Y-95268649D03*
D18*
X67288572Y-94822322D03*
X67288572Y-91522322D03*
X274457322Y-18622322D03*
X274457322Y-15322322D03*
D17*
X121297323Y-61900000D03*
X119747323Y-61900000D03*
D16*
X242262500Y-40634823D03*
X242262500Y-39084823D03*
D13*
X104602323Y-54134823D03*
D11*
X99522323Y-54134823D03*
D13*
X94442323Y-54134823D03*
D14*
X95712323Y-51594823D03*
D15*
X92162323Y-51594823D03*
X105612323Y-49054823D03*
D14*
X102062323Y-49054823D03*
D23*
X125372323Y-77184823D03*
X125372323Y-78684823D03*
X130822323Y-77184823D03*
D24*
X130822322Y-78684822D03*
D16*
X289887500Y-40634823D03*
X289887500Y-39084823D03*
D13*
X21258573Y-54134823D03*
D11*
X16178573Y-54134823D03*
D13*
X11098573Y-54134823D03*
D14*
X12368573Y-51594823D03*
D15*
X8818573Y-51594823D03*
X22268573Y-49054823D03*
D14*
X18718573Y-49054823D03*
D18*
X155394822Y-75772322D03*
X155394822Y-72472322D03*
D17*
X145109823Y-23800000D03*
X143559823Y-23800000D03*
D13*
X237952323Y-54134823D03*
D11*
X232872323Y-54134823D03*
D13*
X227792323Y-54134823D03*
D14*
X229062323Y-51594823D03*
D15*
X225512323Y-51594823D03*
X238962323Y-49054823D03*
D14*
X235412323Y-49054823D03*
D16*
X51762500Y-40634823D03*
X51762500Y-39084823D03*
D18*
X283382322Y-18622322D03*
X283382322Y-15322322D03*
D23*
X68222323Y-77184823D03*
X68222323Y-78684823D03*
X73672323Y-77184823D03*
D24*
X73672322Y-78684822D03*
D20*
X113559823Y-91868649D03*
X115109823Y-91868649D03*
D13*
X233189823Y-35084823D03*
D11*
X228109823Y-35084823D03*
D13*
X223029823Y-35084823D03*
D14*
X224299823Y-32544823D03*
D15*
X220749823Y-32544823D03*
X234199823Y-30004823D03*
D14*
X230649823Y-30004823D03*
D18*
X60144822Y-75772322D03*
X60144822Y-72472322D03*
D13*
X299864823Y-35084823D03*
D11*
X294784823Y-35084823D03*
D13*
X289704823Y-35084823D03*
D14*
X290974823Y-32544823D03*
D15*
X287424823Y-32544823D03*
X300874823Y-30004823D03*
D14*
X297324823Y-30004823D03*
D18*
X141107322Y-37672322D03*
X141107322Y-34372322D03*
X203019822Y-56722322D03*
X203019822Y-53422322D03*
X19663572Y-94822322D03*
X19663572Y-91522322D03*
D16*
X166062500Y-40634823D03*
X166062500Y-39084823D03*
D18*
X150632322Y-18622322D03*
X150632322Y-15322322D03*
D13*
X276052323Y-35084823D03*
D11*
X270972323Y-35084823D03*
D13*
X265892323Y-35084823D03*
D14*
X267162323Y-32544823D03*
D15*
X263612323Y-32544823D03*
X277062323Y-30004823D03*
D14*
X273512323Y-30004823D03*
D40*
X39549998Y-65999999D03*
X37649999Y-65999999D03*
X38599999Y-63599999D03*
D13*
X299864823Y-16034823D03*
D11*
X294784823Y-16034823D03*
D13*
X289704823Y-16034823D03*
D14*
X290974823Y-13494823D03*
D15*
X287424823Y-13494823D03*
X300874823Y-10954823D03*
D14*
X297324823Y-10954823D03*
D13*
X137939823Y-35084823D03*
D11*
X132859823Y-35084823D03*
D13*
X127779823Y-35084823D03*
D14*
X129049823Y-32544823D03*
D15*
X125499823Y-32544823D03*
X138949823Y-30004823D03*
D14*
X135399823Y-30004823D03*
D16*
X142250000Y-78734823D03*
X142250000Y-77184823D03*
X185112500Y-40634823D03*
X185112500Y-39084823D03*
D17*
X216547323Y-61900000D03*
X214997323Y-61900000D03*
D23*
X246816073Y-77184823D03*
X246816073Y-78684823D03*
X252266073Y-77184823D03*
D24*
X252266072Y-78684822D03*
D18*
X136344822Y-75772322D03*
X136344822Y-72472322D03*
D13*
X80789823Y-35084823D03*
D11*
X75709823Y-35084823D03*
D13*
X70629823Y-35084823D03*
D14*
X71899823Y-32544823D03*
D15*
X68349823Y-32544823D03*
X81799823Y-30004823D03*
D14*
X78249823Y-30004823D03*
D18*
X126819822Y-56722322D03*
X126819822Y-53422322D03*
D21*
X183209823Y-21534823D03*
X183209823Y-20034823D03*
X177759823Y-21534823D03*
D22*
X177759822Y-20034822D03*
D13*
X47452323Y-54134823D03*
D11*
X42372323Y-54134823D03*
D13*
X37292323Y-54134823D03*
D14*
X38562323Y-51594823D03*
D15*
X35012323Y-51594823D03*
X48462323Y-49054823D03*
D14*
X44912323Y-49054823D03*
D17*
X297509823Y-61900000D03*
X295959823Y-61900000D03*
D21*
X107009823Y-21534823D03*
X107009823Y-20034823D03*
X101559823Y-21534823D03*
D22*
X101559822Y-20034822D03*
D23*
X144422323Y-77184823D03*
X144422323Y-78684823D03*
X149872323Y-77184823D03*
D24*
X149872322Y-78684822D03*
D18*
X272076072Y-56722322D03*
X272076072Y-53422322D03*
D27*
X108049999Y-64099999D03*
X104749999Y-64099999D03*
D23*
X49172323Y-77184823D03*
X49172323Y-78684823D03*
X54622323Y-77184823D03*
D24*
X54622322Y-78684822D03*
D23*
X292059823Y-77184823D03*
X292059823Y-78684823D03*
X297509823Y-77184823D03*
D24*
X297509822Y-78684822D03*
D13*
X261764823Y-92234823D03*
D11*
X256684823Y-92234823D03*
D13*
X251604823Y-92234823D03*
D14*
X252874823Y-89694823D03*
D15*
X249324823Y-89694823D03*
X262774823Y-87154823D03*
D14*
X259224823Y-87154823D03*
D41*
X52800000Y-21650000D03*
X52800000Y-22650000D03*
X52800000Y-23650000D03*
X52800000Y-24650000D03*
D42*
X56675000Y-20350000D03*
X56675000Y-25950000D03*
D13*
X71264823Y-16034823D03*
D11*
X66184823Y-16034823D03*
D13*
X61104823Y-16034823D03*
D14*
X62374823Y-13494823D03*
D15*
X58824823Y-13494823D03*
X72274823Y-10954823D03*
D14*
X68724823Y-10954823D03*
D38*
X29222500Y-60950000D03*
X29222500Y-61900000D03*
X29222500Y-62850000D03*
X26947500Y-62850000D03*
X26947500Y-61900000D03*
X26947500Y-60950000D03*
D17*
X178447323Y-61900000D03*
X176897323Y-61900000D03*
D23*
X168234823Y-39084823D03*
X168234823Y-40584823D03*
X173684823Y-39084823D03*
D24*
X173684822Y-40584822D03*
D18*
X257788572Y-75772322D03*
X257788572Y-72472322D03*
D16*
X244643750Y-78734823D03*
X244643750Y-77184823D03*
D43*
X93259823Y-93522323D03*
X91609823Y-93522323D03*
D23*
X292059823Y-39084823D03*
X292059823Y-40584823D03*
X297509823Y-39084823D03*
D24*
X297509822Y-40584822D03*
D13*
X14114823Y-16034823D03*
D11*
X9034823Y-16034823D03*
D13*
X3954823Y-16034823D03*
D14*
X5224823Y-13494823D03*
D15*
X1674823Y-13494823D03*
X15124823Y-10954823D03*
D14*
X11574823Y-10954823D03*
D13*
X133177323Y-73184823D03*
D11*
X128097323Y-73184823D03*
D13*
X123017323Y-73184823D03*
D14*
X124287323Y-70644823D03*
D15*
X120737323Y-70644823D03*
X134187323Y-68104823D03*
D14*
X130637323Y-68104823D03*
D21*
X30809823Y-21534823D03*
X30809823Y-20034823D03*
X25359823Y-21534823D03*
D22*
X25359822Y-20034822D03*
D13*
X64121073Y-92234823D03*
D11*
X59041073Y-92234823D03*
D13*
X53961073Y-92234823D03*
D14*
X55231073Y-89694823D03*
D15*
X51681073Y-89694823D03*
X65131073Y-87154823D03*
D14*
X61581073Y-87154823D03*
D18*
X210999999Y-94822322D03*
X210999999Y-91522322D03*
D44*
X24737500Y-61900000D03*
X22862500Y-61900000D03*
D13*
X114127323Y-73184823D03*
D11*
X109047323Y-73184823D03*
D13*
X103967323Y-73184823D03*
D14*
X105237323Y-70644823D03*
D15*
X101687323Y-70644823D03*
X115137323Y-68104823D03*
D14*
X111587323Y-68104823D03*
D23*
X130134823Y-39084823D03*
X130134823Y-40584823D03*
X135584823Y-39084823D03*
D24*
X135584822Y-40584822D03*
D17*
X83197323Y-61900000D03*
X81647323Y-61900000D03*
D13*
X271289823Y-16034823D03*
D11*
X266209823Y-16034823D03*
D13*
X261129823Y-16034823D03*
D14*
X262399823Y-13494823D03*
D15*
X258849823Y-13494823D03*
X272299823Y-10954823D03*
D14*
X268749823Y-10954823D03*
D18*
X64907322Y-37672322D03*
X64907322Y-34372322D03*
D17*
X268934823Y-23800000D03*
X267384823Y-23800000D03*
D13*
X123652323Y-54134823D03*
D11*
X118572323Y-54134823D03*
D13*
X113492323Y-54134823D03*
D14*
X114762323Y-51594823D03*
D15*
X111212323Y-51594823D03*
X124662323Y-49054823D03*
D14*
X121112323Y-49054823D03*
D18*
X283982322Y-75772322D03*
X283982322Y-72472322D03*
D13*
X95077323Y-73184823D03*
D11*
X89997323Y-73184823D03*
D13*
X84917323Y-73184823D03*
D14*
X86187323Y-70644823D03*
D15*
X82637323Y-70644823D03*
X96087323Y-68104823D03*
D14*
X92537323Y-68104823D03*
D21*
X83197323Y-59634823D03*
X83197323Y-58134823D03*
X77747323Y-59634823D03*
D22*
X77747322Y-58134822D03*
D21*
X126059823Y-21534823D03*
X126059823Y-20034823D03*
X120609823Y-21534823D03*
D22*
X120609822Y-20034822D03*
D13*
X161752323Y-54134823D03*
D11*
X156672323Y-54134823D03*
D13*
X151592323Y-54134823D03*
D14*
X152862323Y-51594823D03*
D15*
X149312323Y-51594823D03*
X162762323Y-49054823D03*
D14*
X159212323Y-49054823D03*
D17*
X68909823Y-23800000D03*
X67359823Y-23800000D03*
D23*
X187284823Y-39084823D03*
X187284823Y-40584823D03*
X192734823Y-39084823D03*
D24*
X192734822Y-40584822D03*
D23*
X92034823Y-39084823D03*
X92034823Y-40584823D03*
X97484823Y-39084823D03*
D24*
X97484822Y-40584822D03*
D18*
X22044822Y-37672322D03*
X22044822Y-34372322D03*
D13*
X18877323Y-35084823D03*
D11*
X13797323Y-35084823D03*
D13*
X8717323Y-35084823D03*
D14*
X9987323Y-32544823D03*
D15*
X6437323Y-32544823D03*
X19887323Y-30004823D03*
D14*
X16337323Y-30004823D03*
D23*
X18216073Y-77184823D03*
X18216073Y-78684823D03*
X23666073Y-77184823D03*
D24*
X23666072Y-78684822D03*
D21*
X121297323Y-59634823D03*
X121297323Y-58134823D03*
X115847323Y-59634823D03*
D22*
X115847322Y-58134822D03*
D16*
X299668750Y-97734823D03*
X299668750Y-96184823D03*
D17*
X98109823Y-94568649D03*
X96559823Y-94568649D03*
D20*
X113559823Y-90168649D03*
X115109823Y-90168649D03*
D17*
X197497323Y-61900000D03*
X195947323Y-61900000D03*
D16*
X108834823Y-82300000D03*
X108834823Y-80750000D03*
D21*
X159397323Y-59634823D03*
X159397323Y-58134823D03*
X153947323Y-59634823D03*
D22*
X153947322Y-58134822D03*
D21*
X64147323Y-59634823D03*
X64147323Y-58134823D03*
X58697323Y-59634823D03*
D22*
X58697322Y-58134822D03*
D18*
X36332322Y-18622322D03*
X36332322Y-15322322D03*
D23*
X53934823Y-39084823D03*
X53934823Y-40584823D03*
X59384823Y-39084823D03*
D24*
X59384822Y-40584822D03*
D18*
X29188572Y-75772322D03*
X29188572Y-72472322D03*
X217307322Y-37672322D03*
X217307322Y-34372322D03*
X183969822Y-56722322D03*
X183969822Y-53422322D03*
D21*
X68909823Y-21534823D03*
X68909823Y-20034823D03*
X63459823Y-21534823D03*
D22*
X63459822Y-20034822D03*
D23*
X268247323Y-39084823D03*
X268247323Y-40584823D03*
X273697323Y-39084823D03*
D24*
X273697322Y-40584822D03*
D13*
X180802323Y-54134823D03*
D11*
X175722323Y-54134823D03*
D13*
X170642323Y-54134823D03*
D14*
X171912323Y-51594823D03*
D15*
X168362323Y-51594823D03*
X181812323Y-49054823D03*
D14*
X178262323Y-49054823D03*
D21*
X297509823Y-59634823D03*
X297509823Y-58134823D03*
X292059823Y-59634823D03*
D22*
X292059822Y-58134822D03*
D18*
X45857322Y-37672322D03*
X45857322Y-34372322D03*
X179207322Y-37672322D03*
X179207322Y-34372322D03*
D21*
X140347323Y-59634823D03*
X140347323Y-58134823D03*
X134897323Y-59634823D03*
D22*
X134897322Y-58134822D03*
D13*
X299864823Y-92234823D03*
D11*
X294784823Y-92234823D03*
D13*
X289704823Y-92234823D03*
D14*
X290974823Y-89694823D03*
D15*
X287424823Y-89694823D03*
X300874823Y-87154823D03*
D14*
X297324823Y-87154823D03*
D13*
X195089823Y-35084823D03*
D11*
X190009823Y-35084823D03*
D13*
X184929823Y-35084823D03*
D14*
X186199823Y-32544823D03*
D15*
X182649823Y-32544823D03*
X196099823Y-30004823D03*
D14*
X192549823Y-30004823D03*
D21*
X240359823Y-21534823D03*
X240359823Y-20034823D03*
X234909823Y-21534823D03*
D22*
X234909822Y-20034822D03*
D17*
X266553573Y-61900000D03*
X265003573Y-61900000D03*
D16*
X266075000Y-40634823D03*
X266075000Y-39084823D03*
D21*
X216547323Y-59634823D03*
X216547323Y-58134823D03*
X211097323Y-59634823D03*
D22*
X211097322Y-58134822D03*
D16*
X47000000Y-78734823D03*
X47000000Y-77184823D03*
D18*
X4826072Y-56722322D03*
X4826072Y-53422322D03*
D13*
X40308573Y-92234823D03*
D11*
X35228573Y-92234823D03*
D13*
X30148573Y-92234823D03*
D14*
X31418573Y-89694823D03*
D15*
X27868573Y-89694823D03*
X41318573Y-87154823D03*
D14*
X37768573Y-87154823D03*
D21*
X297509823Y-21534823D03*
X297509823Y-20034823D03*
X292059823Y-21534823D03*
D22*
X292059822Y-20034822D03*
D13*
X254621073Y-73184823D03*
D11*
X249541073Y-73184823D03*
D13*
X244461073Y-73184823D03*
D14*
X245731073Y-70644823D03*
D15*
X242181073Y-70644823D03*
X255631073Y-68104823D03*
D14*
X252081073Y-68104823D03*
D27*
X294024822Y-82699999D03*
X297324822Y-82699999D03*
D43*
X93259823Y-91922323D03*
X91609823Y-91922323D03*
D18*
X226832322Y-18622322D03*
X226832322Y-15322322D03*
X164919822Y-56722322D03*
X164919822Y-53422322D03*
D16*
X66050000Y-78734823D03*
X66050000Y-77184823D03*
X180350000Y-78734823D03*
X180350000Y-77184823D03*
X206800000Y-97734823D03*
X206800000Y-96184823D03*
D23*
X149184823Y-39084823D03*
X149184823Y-40584823D03*
X154634823Y-39084823D03*
D24*
X154634822Y-40584822D03*
D17*
X11759823Y-23800000D03*
X10209823Y-23800000D03*
X97109823Y-88568649D03*
X95559823Y-88568649D03*
X140347323Y-61900000D03*
X138797323Y-61900000D03*
D16*
X101800000Y-84075000D03*
X101800000Y-82525000D03*
X280618750Y-97734823D03*
X280618750Y-96184823D03*
D45*
X117709823Y-91622323D03*
X119359823Y-91622323D03*
D16*
X108912500Y-40634823D03*
X108912500Y-39084823D03*
D21*
X297509823Y-97734823D03*
X297509823Y-96234823D03*
X292059823Y-97734823D03*
D22*
X292059822Y-96234822D03*
D16*
X16043750Y-78734823D03*
X16043750Y-77184823D03*
D13*
X61739823Y-35084823D03*
D11*
X56659823Y-35084823D03*
D13*
X51579823Y-35084823D03*
D14*
X52849823Y-32544823D03*
D15*
X49299823Y-32544823D03*
X62749823Y-30004823D03*
D14*
X59199823Y-30004823D03*
D18*
X169682322Y-18622322D03*
X169682322Y-15322322D03*
X174444822Y-75772322D03*
X174444822Y-72472322D03*
D16*
X40112500Y-97734823D03*
X40112500Y-96184823D03*
D18*
X233976072Y-94822322D03*
X233976072Y-91522322D03*
D17*
X18903573Y-61900000D03*
X17353573Y-61900000D03*
D13*
X90314823Y-16034823D03*
D11*
X85234823Y-16034823D03*
D13*
X80154823Y-16034823D03*
D14*
X81424823Y-13494823D03*
D15*
X77874823Y-13494823D03*
X91324823Y-10954823D03*
D14*
X87774823Y-10954823D03*
D46*
X118386815Y-88316657D03*
X119482831Y-87220641D03*
D47*
X301600202Y-101272306D02*
G75*
G03*
X303822706Y-99049835I-2J2222506D01*
G01*
X40600000Y-103272338D02*
X149161353Y-103272338D01*
X98847996Y-7000000D02*
X128702000Y-7000000D01*
X237074986Y-83399998D02*
X237074986Y-99022338D01*
X136948002Y-7000004D02*
G75*
G03*
X135618000Y-7806000I398J-1500996D01*
G01*
X304322700Y-1000000D02*
G75*
G03*
X303322706Y0I-1000000J0D01*
G01*
X289347996Y-7000000D02*
X301600202Y-7000000D01*
X303322706Y-108272306D02*
G75*
G03*
X304322706Y-107272338I-6J1000006D01*
G01*
X34600000Y-5000000D02*
X1000000Y-5000000D01*
X34600000Y-101272338D02*
X22647999Y-101272338D01*
X15731999Y-7806000D02*
G75*
G03*
X14401997Y-7000001I-1328549J-691940D01*
G01*
X282432022Y-7805994D02*
G75*
G03*
X281101994Y-7000001I-1328522J-691906D01*
G01*
X209664997Y-101272317D02*
G75*
G03*
X210994999Y-100393999I-58097J1534117D01*
G01*
X278700001Y-101272338D02*
X281102009Y-101272338D01*
X303322706Y0D02*
X1000000Y0D01*
X130032020Y-7805991D02*
G75*
G03*
X128702000Y-7000001I-1328520J-691909D01*
G01*
X288017999Y-100394004D02*
G75*
G03*
X289348011Y-101272338I1390101J658804D01*
G01*
X0Y-107272338D02*
X0Y-104272338D01*
X289347996Y-6999959D02*
G75*
G03*
X288018010Y-7806000I404J-1500941D01*
G01*
X234824986Y-101272286D02*
G75*
G03*
X237074986Y-99022338I14J2249986D01*
G01*
X21317997Y-100393999D02*
G75*
G03*
X15731999Y-100393999I-2792999J-1455492D01*
G01*
X217911000Y-101272338D02*
X234824986Y-101272338D01*
X155161353Y-103272338D02*
X272700001Y-103272338D01*
X97517994Y-100393999D02*
G75*
G03*
X91931996Y-100393999I-2792999J-1455492D01*
G01*
X22647999Y-7000002D02*
G75*
G03*
X21317998Y-7806000I401J-1500998D01*
G01*
X192767994Y-100393999D02*
G75*
G03*
X187181996Y-100393999I-2792999J-1455492D01*
G01*
X0Y-99049833D02*
G75*
G03*
X2222503Y-101272338I2222503J-2D01*
G01*
X155161353Y-7000000D02*
X185851994Y-7000000D01*
X281102009Y-101272327D02*
G75*
G03*
X282432010Y-100393999I-58109J1534127D01*
G01*
X136948002Y-7000000D02*
X149161353Y-7000000D01*
X1000000Y0D02*
G75*
G03*
X0Y-1000000I0J-1000000D01*
G01*
X303322706Y-5000000D02*
X269722706Y-5000000D01*
X14401997Y-101272338D02*
X2222503Y-101272338D01*
X304322662Y-104272338D02*
G75*
G03*
X303322706Y-103272338I-999962J38D01*
G01*
X194097996Y-7000018D02*
G75*
G03*
X192767994Y-7806000I-1496J-1497882D01*
G01*
X187182019Y-7805988D02*
G75*
G03*
X185851994Y-7000001I-1328519J-691912D01*
G01*
X21317997Y-100393999D02*
G75*
G03*
X22647999Y-101272337I1390103J658799D01*
G01*
X268967991Y-100393999D02*
G75*
G03*
X263381993Y-100393999I-2792999J-1455492D01*
G01*
X54655994Y-100393999D02*
G75*
G03*
X49069996Y-100393999I-2792999J-1455492D01*
G01*
X98847996Y-7000018D02*
G75*
G03*
X97517994Y-7806000I-1496J-1497882D01*
G01*
X247650002Y-83399998D02*
G75*
G03*
X246399998Y-82149998I-1249602J398D01*
G01*
X304322706Y-1000000D02*
X304322706Y-4000000D01*
X304322706Y-104272338D02*
X304322706Y-107272338D01*
X303322706Y-5000006D02*
G75*
G03*
X304322706Y-4000000I-6J1000006D01*
G01*
X149161353Y-101272338D02*
X98847996Y-101272338D01*
X0Y-99049833D02*
X0Y-9222503D01*
X14401997Y-101272337D02*
G75*
G03*
X15731998Y-100393999I-58087J1534087D01*
G01*
X1000000Y-103272338D02*
G75*
G03*
X0Y-104272338I-1J-999999D01*
G01*
X303822706Y-99049835D02*
X303822706Y-9222505D01*
X2Y-107272338D02*
G75*
G03*
X1000000Y-108272338I999998J-2D01*
G01*
X262051990Y-101272312D02*
G75*
G03*
X263381993Y-100393999I-58090J1534112D01*
G01*
X0Y-4000000D02*
G75*
G03*
X1000000Y-5000000I1000000J0D01*
G01*
X278700001Y-103272338D02*
X303322706Y-103272338D01*
X249899998Y-101272338D02*
X262051991Y-101272338D01*
X15731999Y-7806000D02*
G75*
G03*
X21317997Y-7806000I2792999J1455492D01*
G01*
X40600000Y-7000000D02*
X90602001Y-7000000D01*
X247649962Y-99022338D02*
G75*
G03*
X249899998Y-101272338I2250038J38D01*
G01*
X246399998Y-82149998D02*
X238324986Y-82149998D01*
X47739993Y-101272314D02*
G75*
G03*
X49069996Y-100393999I-58093J1534114D01*
G01*
X282432011Y-7806000D02*
G75*
G03*
X288018009Y-7806000I2792999J1455492D01*
G01*
X1000000Y-108272338D02*
X303322706Y-108272338D01*
X40600000Y-101272338D02*
X47739994Y-101272338D01*
X270297993Y-101272338D02*
X272700001Y-101272338D01*
X2222503Y-7000000D02*
G75*
G03*
X0Y-9222503I0J-2222503D01*
G01*
X209664998Y-101272338D02*
X194097996Y-101272338D01*
X247649998Y-99022338D02*
X247649998Y-83399998D01*
X303822700Y-9222505D02*
G75*
G03*
X301600202Y-7000000I-2222500J5D01*
G01*
X149161353Y-5000000D02*
X40600000Y-5000000D01*
X187181996Y-7805999D02*
G75*
G03*
X192767994Y-7806000I2792999J1455492D01*
G01*
X91932019Y-7805988D02*
G75*
G03*
X90602001Y-7000001I-1328519J-691912D01*
G01*
X90601994Y-101272338D02*
X55985996Y-101272338D01*
X155161353Y-5000000D02*
X263722706Y-5000000D01*
X91931996Y-7805999D02*
G75*
G03*
X97517994Y-7806000I2792999J1455492D01*
G01*
X0Y-4000000D02*
X0Y-1000000D01*
X97517996Y-100393998D02*
G75*
G03*
X98847996Y-101272337I1390104J658798D01*
G01*
X155161353Y-101272338D02*
X185851994Y-101272338D01*
X268967996Y-100393997D02*
G75*
G03*
X270297993Y-101272337I1390104J658797D01*
G01*
X269722706Y-7000000D02*
X281101994Y-7000000D01*
X54655996Y-100393998D02*
G75*
G03*
X55985996Y-101272337I1390104J658798D01*
G01*
X216580998Y-100393999D02*
G75*
G03*
X210995000Y-100393999I-2792999J-1455492D01*
G01*
X194097996Y-7000000D02*
X263722706Y-7000000D01*
X192767996Y-100393998D02*
G75*
G03*
X194097996Y-101272337I1390104J658798D01*
G01*
X2222503Y-7000000D02*
X14401997Y-7000000D01*
X289348011Y-101272338D02*
X301600202Y-101272338D01*
X34600000Y-7000000D02*
X22647999Y-7000000D01*
X90601993Y-101272314D02*
G75*
G03*
X91931996Y-100393999I-58093J1534114D01*
G01*
X130032002Y-7806000D02*
G75*
G03*
X135618000Y-7806000I2792999J1455492D01*
G01*
X238324986Y-82149986D02*
G75*
G03*
X237074986Y-83399998I-386J-1249614D01*
G01*
X1000000Y-103272338D02*
X34600000Y-103272338D01*
X288018009Y-100393999D02*
G75*
G03*
X282432011Y-100393999I-2792999J-1455492D01*
G01*
X216580997Y-100394000D02*
G75*
G03*
X217911000Y-101272338I1390103J658800D01*
G01*
X185851993Y-101272314D02*
G75*
G03*
X187181996Y-100393999I-58093J1534114D01*
G01*
X263722706Y-7000000D02*
G75*
G03*
X263722706Y-5000000I0J1000000D01*
G01*
X269722706Y-5000000D02*
G75*
G03*
X269722706Y-7000000I0J-1000000D01*
G01*
X149161353Y-7000000D02*
G75*
G03*
X149161353Y-5000000I0J1000000D01*
G01*
X155161353Y-5000000D02*
G75*
G03*
X155161353Y-7000000I0J-1000000D01*
G01*
X40600000Y-101272338D02*
G75*
G03*
X40600000Y-103272338I0J-1000000D01*
G01*
X34600000Y-103272338D02*
G75*
G03*
X34600000Y-101272338I0J1000000D01*
G01*
X278700001Y-101272338D02*
G75*
G03*
X278700001Y-103272338I0J-1000000D01*
G01*
X272700001Y-103272338D02*
G75*
G03*
X272700001Y-101272338I0J1000000D01*
G01*
X155161353Y-101272338D02*
G75*
G03*
X155161353Y-103272338I0J-1000000D01*
G01*
X149161353Y-103272338D02*
G75*
G03*
X149161353Y-101272338I0J1000000D01*
G01*
X34600000Y-7000000D02*
G75*
G03*
X34600000Y-5000000I0J1000000D01*
G01*
X40600000Y-5000000D02*
G75*
G03*
X40600000Y-7000000I0J-1000000D01*
G01*
X128778574Y-97687666D02*
X128778574Y-96281982D01*
X129684121Y-95484824D02*
X131273025Y-95484824D01*
X131273025Y-98484823D02*
X129684120Y-98484823D01*
X132178572Y-96281982D02*
X132178572Y-97687666D01*
X128778573Y-96281982D02*
G75*
G03*
X128729088Y-96065104I-499989J2D01*
G01*
X129431862Y-95416525D02*
G75*
G03*
X128729090Y-96065105I-252259J-431700D01*
G01*
X128729089Y-97904544D02*
G75*
G03*
X128778574Y-97687667I-450505J216876D01*
G01*
X128729089Y-97904544D02*
G75*
G03*
X129431862Y-98553122I450514J-216878D01*
G01*
X129684120Y-98484823D02*
G75*
G03*
X129431862Y-98553122I3J-500009D01*
G01*
X129431862Y-95416525D02*
G75*
G03*
X129684121Y-95484824I252261J431710D01*
G01*
X131525284Y-98553123D02*
G75*
G03*
X131273026Y-98484824I-252261J-431710D01*
G01*
X131273025Y-95484823D02*
G75*
G03*
X131525283Y-95416525I-2J500010D01*
G01*
X132228053Y-96065102D02*
G75*
G03*
X131525284Y-95416527I-450510J216879D01*
G01*
X132228057Y-96065104D02*
G75*
G03*
X132178572Y-96281981I450866J-216959D01*
G01*
X131525284Y-98553123D02*
G75*
G03*
X132228057Y-97904544I252259J431700D01*
G01*
X132178584Y-97687666D02*
G75*
G03*
X132228058Y-97904544I500289J43D01*
G01*
X7334824Y-21487666D02*
X7334824Y-20081982D01*
X8240371Y-19284824D02*
X9829275Y-19284824D01*
X9829275Y-22284823D02*
X8240370Y-22284823D01*
X10734822Y-20081982D02*
X10734822Y-21487666D01*
X7334823Y-20081982D02*
G75*
G03*
X7285338Y-19865104I-499989J2D01*
G01*
X7988112Y-19216525D02*
G75*
G03*
X7285340Y-19865105I-252259J-431700D01*
G01*
X7285339Y-21704544D02*
G75*
G03*
X7334824Y-21487667I-450505J216876D01*
G01*
X7285339Y-21704544D02*
G75*
G03*
X7988112Y-22353122I450514J-216878D01*
G01*
X8240370Y-22284823D02*
G75*
G03*
X7988112Y-22353122I3J-500009D01*
G01*
X7988112Y-19216525D02*
G75*
G03*
X8240371Y-19284824I252261J431710D01*
G01*
X10081534Y-22353123D02*
G75*
G03*
X9829276Y-22284824I-252261J-431710D01*
G01*
X9829275Y-19284823D02*
G75*
G03*
X10081533Y-19216525I-2J500010D01*
G01*
X10784303Y-19865102D02*
G75*
G03*
X10081534Y-19216527I-450510J216879D01*
G01*
X10784307Y-19865104D02*
G75*
G03*
X10734822Y-20081981I450866J-216959D01*
G01*
X10081534Y-22353123D02*
G75*
G03*
X10784307Y-21704544I252259J431700D01*
G01*
X10734834Y-21487666D02*
G75*
G03*
X10784308Y-21704544I500289J43D01*
G01*
X216884824Y-21487666D02*
X216884824Y-20081982D01*
X217790371Y-19284824D02*
X219379275Y-19284824D01*
X219379275Y-22284823D02*
X217790370Y-22284823D01*
X220284822Y-20081982D02*
X220284822Y-21487666D01*
X216884823Y-20081982D02*
G75*
G03*
X216835338Y-19865104I-499989J2D01*
G01*
X217538112Y-19216525D02*
G75*
G03*
X216835340Y-19865105I-252259J-431700D01*
G01*
X216835339Y-21704544D02*
G75*
G03*
X216884824Y-21487667I-450505J216876D01*
G01*
X216835339Y-21704544D02*
G75*
G03*
X217538112Y-22353122I450514J-216878D01*
G01*
X217790370Y-22284823D02*
G75*
G03*
X217538112Y-22353122I3J-500009D01*
G01*
X217538112Y-19216525D02*
G75*
G03*
X217790371Y-19284824I252261J431710D01*
G01*
X219631534Y-22353123D02*
G75*
G03*
X219379276Y-22284824I-252261J-431710D01*
G01*
X219379275Y-19284823D02*
G75*
G03*
X219631533Y-19216525I-2J500010D01*
G01*
X220334303Y-19865102D02*
G75*
G03*
X219631534Y-19216527I-450510J216879D01*
G01*
X220334307Y-19865104D02*
G75*
G03*
X220284822Y-20081981I450866J-216959D01*
G01*
X219631534Y-22353123D02*
G75*
G03*
X220334307Y-21704544I252259J431700D01*
G01*
X220284834Y-21487666D02*
G75*
G03*
X220334308Y-21704544I500289J43D01*
G01*
X248859822Y-39131980D02*
X248859822Y-40537664D01*
X247954275Y-41334822D02*
X246365371Y-41334822D01*
X246365371Y-38334823D02*
X247954276Y-38334823D01*
X245459824Y-40537664D02*
X245459824Y-39131980D01*
X248859823Y-40537664D02*
G75*
G03*
X248909308Y-40754542I499989J-2D01*
G01*
X248206534Y-41403121D02*
G75*
G03*
X248909306Y-40754541I252259J431700D01*
G01*
X248909307Y-38915102D02*
G75*
G03*
X248859822Y-39131979I450505J-216876D01*
G01*
X248909307Y-38915102D02*
G75*
G03*
X248206534Y-38266524I-450514J216878D01*
G01*
X247954276Y-38334823D02*
G75*
G03*
X248206534Y-38266524I-3J500009D01*
G01*
X248206534Y-41403121D02*
G75*
G03*
X247954275Y-41334822I-252261J-431710D01*
G01*
X246113112Y-38266523D02*
G75*
G03*
X246365370Y-38334822I252261J431710D01*
G01*
X246365371Y-41334823D02*
G75*
G03*
X246113113Y-41403121I2J-500010D01*
G01*
X245410343Y-40754544D02*
G75*
G03*
X246113112Y-41403119I450510J-216879D01*
G01*
X245410339Y-40754542D02*
G75*
G03*
X245459824Y-40537665I-450866J216959D01*
G01*
X246113112Y-38266523D02*
G75*
G03*
X245410339Y-38915102I-252259J-431700D01*
G01*
X245459812Y-39131980D02*
G75*
G03*
X245410338Y-38915102I-500289J-43D01*
G01*
X229809822Y-39131980D02*
X229809822Y-40537664D01*
X228904275Y-41334822D02*
X227315371Y-41334822D01*
X227315371Y-38334823D02*
X228904276Y-38334823D01*
X226409824Y-40537664D02*
X226409824Y-39131980D01*
X229809823Y-40537664D02*
G75*
G03*
X229859308Y-40754542I499989J-2D01*
G01*
X229156534Y-41403121D02*
G75*
G03*
X229859306Y-40754541I252259J431700D01*
G01*
X229859307Y-38915102D02*
G75*
G03*
X229809822Y-39131979I450505J-216876D01*
G01*
X229859307Y-38915102D02*
G75*
G03*
X229156534Y-38266524I-450514J216878D01*
G01*
X228904276Y-38334823D02*
G75*
G03*
X229156534Y-38266524I-3J500009D01*
G01*
X229156534Y-41403121D02*
G75*
G03*
X228904275Y-41334822I-252261J-431710D01*
G01*
X227063112Y-38266523D02*
G75*
G03*
X227315370Y-38334822I252261J431710D01*
G01*
X227315371Y-41334823D02*
G75*
G03*
X227063113Y-41403121I2J-500010D01*
G01*
X226360343Y-40754544D02*
G75*
G03*
X227063112Y-41403119I450510J-216879D01*
G01*
X226360339Y-40754542D02*
G75*
G03*
X226409824Y-40537665I-450866J216959D01*
G01*
X227063112Y-38266523D02*
G75*
G03*
X226360339Y-38915102I-252259J-431700D01*
G01*
X226409812Y-39131980D02*
G75*
G03*
X226360338Y-38915102I-500289J-43D01*
G01*
X224028574Y-97687666D02*
X224028574Y-96281982D01*
X224934121Y-95484824D02*
X226523025Y-95484824D01*
X226523025Y-98484823D02*
X224934120Y-98484823D01*
X227428572Y-96281982D02*
X227428572Y-97687666D01*
X224028573Y-96281982D02*
G75*
G03*
X223979088Y-96065104I-499989J2D01*
G01*
X224681862Y-95416525D02*
G75*
G03*
X223979090Y-96065105I-252259J-431700D01*
G01*
X223979089Y-97904544D02*
G75*
G03*
X224028574Y-97687667I-450505J216876D01*
G01*
X223979089Y-97904544D02*
G75*
G03*
X224681862Y-98553122I450514J-216878D01*
G01*
X224934120Y-98484823D02*
G75*
G03*
X224681862Y-98553122I3J-500009D01*
G01*
X224681862Y-95416525D02*
G75*
G03*
X224934121Y-95484824I252261J431710D01*
G01*
X226775284Y-98553123D02*
G75*
G03*
X226523026Y-98484824I-252261J-431710D01*
G01*
X226523025Y-95484823D02*
G75*
G03*
X226775283Y-95416525I-2J500010D01*
G01*
X227478053Y-96065102D02*
G75*
G03*
X226775284Y-95416527I-450510J216879D01*
G01*
X227478057Y-96065104D02*
G75*
G03*
X227428572Y-96281981I450866J-216959D01*
G01*
X226775284Y-98553123D02*
G75*
G03*
X227478057Y-97904544I252259J431700D01*
G01*
X227428584Y-97687666D02*
G75*
G03*
X227478058Y-97904544I500289J43D01*
G01*
X167897322Y-77231980D02*
X167897322Y-78637664D01*
X166991775Y-79434822D02*
X165402871Y-79434822D01*
X165402871Y-76434823D02*
X166991776Y-76434823D01*
X164497324Y-78637664D02*
X164497324Y-77231980D01*
X167897323Y-78637664D02*
G75*
G03*
X167946808Y-78854542I499989J-2D01*
G01*
X167244034Y-79503121D02*
G75*
G03*
X167946806Y-78854541I252259J431700D01*
G01*
X167946807Y-77015102D02*
G75*
G03*
X167897322Y-77231979I450505J-216876D01*
G01*
X167946807Y-77015102D02*
G75*
G03*
X167244034Y-76366524I-450514J216878D01*
G01*
X166991776Y-76434823D02*
G75*
G03*
X167244034Y-76366524I-3J500009D01*
G01*
X167244034Y-79503121D02*
G75*
G03*
X166991775Y-79434822I-252261J-431710D01*
G01*
X165150612Y-76366523D02*
G75*
G03*
X165402870Y-76434822I252261J431710D01*
G01*
X165402871Y-79434823D02*
G75*
G03*
X165150613Y-79503121I2J-500010D01*
G01*
X164447843Y-78854544D02*
G75*
G03*
X165150612Y-79503119I450510J-216879D01*
G01*
X164447839Y-78854542D02*
G75*
G03*
X164497324Y-78637665I-450866J216959D01*
G01*
X165150612Y-76366523D02*
G75*
G03*
X164447839Y-77015102I-252259J-431700D01*
G01*
X164497312Y-77231980D02*
G75*
G03*
X164447838Y-77015102I-500289J-43D01*
G01*
X57341074Y-97687666D02*
X57341074Y-96281982D01*
X58246621Y-95484824D02*
X59835525Y-95484824D01*
X59835525Y-98484823D02*
X58246620Y-98484823D01*
X60741072Y-96281982D02*
X60741072Y-97687666D01*
X57341073Y-96281982D02*
G75*
G03*
X57291588Y-96065104I-499989J2D01*
G01*
X57994362Y-95416525D02*
G75*
G03*
X57291590Y-96065105I-252259J-431700D01*
G01*
X57291589Y-97904544D02*
G75*
G03*
X57341074Y-97687667I-450505J216876D01*
G01*
X57291589Y-97904544D02*
G75*
G03*
X57994362Y-98553122I450514J-216878D01*
G01*
X58246620Y-98484823D02*
G75*
G03*
X57994362Y-98553122I3J-500009D01*
G01*
X57994362Y-95416525D02*
G75*
G03*
X58246621Y-95484824I252261J431710D01*
G01*
X60087784Y-98553123D02*
G75*
G03*
X59835526Y-98484824I-252261J-431710D01*
G01*
X59835525Y-95484823D02*
G75*
G03*
X60087783Y-95416525I-2J500010D01*
G01*
X60790553Y-96065102D02*
G75*
G03*
X60087784Y-95416527I-450510J216879D01*
G01*
X60790557Y-96065104D02*
G75*
G03*
X60741072Y-96281981I450866J-216959D01*
G01*
X60087784Y-98553123D02*
G75*
G03*
X60790557Y-97904544I252259J431700D01*
G01*
X60741084Y-97687666D02*
G75*
G03*
X60790558Y-97904544I500289J43D01*
G01*
X140684824Y-21487666D02*
X140684824Y-20081982D01*
X141590371Y-19284824D02*
X143179275Y-19284824D01*
X143179275Y-22284823D02*
X141590370Y-22284823D01*
X144084822Y-20081982D02*
X144084822Y-21487666D01*
X140684823Y-20081982D02*
G75*
G03*
X140635338Y-19865104I-499989J2D01*
G01*
X141338112Y-19216525D02*
G75*
G03*
X140635340Y-19865105I-252259J-431700D01*
G01*
X140635339Y-21704544D02*
G75*
G03*
X140684824Y-21487667I-450505J216876D01*
G01*
X140635339Y-21704544D02*
G75*
G03*
X141338112Y-22353122I450514J-216878D01*
G01*
X141590370Y-22284823D02*
G75*
G03*
X141338112Y-22353122I3J-500009D01*
G01*
X141338112Y-19216525D02*
G75*
G03*
X141590371Y-19284824I252261J431710D01*
G01*
X143431534Y-22353123D02*
G75*
G03*
X143179276Y-22284824I-252261J-431710D01*
G01*
X143179275Y-19284823D02*
G75*
G03*
X143431533Y-19216525I-2J500010D01*
G01*
X144134303Y-19865102D02*
G75*
G03*
X143431534Y-19216527I-450510J216879D01*
G01*
X144134307Y-19865104D02*
G75*
G03*
X144084822Y-20081981I450866J-216959D01*
G01*
X143431534Y-22353123D02*
G75*
G03*
X144134307Y-21704544I252259J431700D01*
G01*
X144084834Y-21487666D02*
G75*
G03*
X144134308Y-21704544I500289J43D01*
G01*
X205997322Y-77231980D02*
X205997322Y-78637664D01*
X205091775Y-79434822D02*
X203502871Y-79434822D01*
X203502871Y-76434823D02*
X205091776Y-76434823D01*
X202597324Y-78637664D02*
X202597324Y-77231980D01*
X205997323Y-78637664D02*
G75*
G03*
X206046808Y-78854542I499989J-2D01*
G01*
X205344034Y-79503121D02*
G75*
G03*
X206046806Y-78854541I252259J431700D01*
G01*
X206046807Y-77015102D02*
G75*
G03*
X205997322Y-77231979I450505J-216876D01*
G01*
X206046807Y-77015102D02*
G75*
G03*
X205344034Y-76366524I-450514J216878D01*
G01*
X205091776Y-76434823D02*
G75*
G03*
X205344034Y-76366524I-3J500009D01*
G01*
X205344034Y-79503121D02*
G75*
G03*
X205091775Y-79434822I-252261J-431710D01*
G01*
X203250612Y-76366523D02*
G75*
G03*
X203502870Y-76434822I252261J431710D01*
G01*
X203502871Y-79434823D02*
G75*
G03*
X203250613Y-79503121I2J-500010D01*
G01*
X202547843Y-78854544D02*
G75*
G03*
X203250612Y-79503119I450510J-216879D01*
G01*
X202547839Y-78854542D02*
G75*
G03*
X202597324Y-78637665I-450866J216959D01*
G01*
X203250612Y-76366523D02*
G75*
G03*
X202547839Y-77015102I-252259J-431700D01*
G01*
X202597312Y-77231980D02*
G75*
G03*
X202547838Y-77015102I-500289J-43D01*
G01*
X186947322Y-77231980D02*
X186947322Y-78637664D01*
X186041775Y-79434822D02*
X184452871Y-79434822D01*
X184452871Y-76434823D02*
X186041776Y-76434823D01*
X183547324Y-78637664D02*
X183547324Y-77231980D01*
X186947323Y-78637664D02*
G75*
G03*
X186996808Y-78854542I499989J-2D01*
G01*
X186294034Y-79503121D02*
G75*
G03*
X186996806Y-78854541I252259J431700D01*
G01*
X186996807Y-77015102D02*
G75*
G03*
X186947322Y-77231979I450505J-216876D01*
G01*
X186996807Y-77015102D02*
G75*
G03*
X186294034Y-76366524I-450514J216878D01*
G01*
X186041776Y-76434823D02*
G75*
G03*
X186294034Y-76366524I-3J500009D01*
G01*
X186294034Y-79503121D02*
G75*
G03*
X186041775Y-79434822I-252261J-431710D01*
G01*
X184200612Y-76366523D02*
G75*
G03*
X184452870Y-76434822I252261J431710D01*
G01*
X184452871Y-79434823D02*
G75*
G03*
X184200613Y-79503121I2J-500010D01*
G01*
X183497843Y-78854544D02*
G75*
G03*
X184200612Y-79503119I450510J-216879D01*
G01*
X183497839Y-78854542D02*
G75*
G03*
X183547324Y-78637665I-450866J216959D01*
G01*
X184200612Y-76366523D02*
G75*
G03*
X183497839Y-77015102I-252259J-431700D01*
G01*
X183547312Y-77231980D02*
G75*
G03*
X183497838Y-77015102I-500289J-43D01*
G01*
X274034824Y-97687666D02*
X274034824Y-96281982D01*
X274940371Y-95484824D02*
X276529275Y-95484824D01*
X276529275Y-98484823D02*
X274940370Y-98484823D01*
X277434822Y-96281982D02*
X277434822Y-97687666D01*
X274034823Y-96281982D02*
G75*
G03*
X273985338Y-96065104I-499989J2D01*
G01*
X274688112Y-95416525D02*
G75*
G03*
X273985340Y-96065105I-252259J-431700D01*
G01*
X273985339Y-97904544D02*
G75*
G03*
X274034824Y-97687667I-450505J216876D01*
G01*
X273985339Y-97904544D02*
G75*
G03*
X274688112Y-98553122I450514J-216878D01*
G01*
X274940370Y-98484823D02*
G75*
G03*
X274688112Y-98553122I3J-500009D01*
G01*
X274688112Y-95416525D02*
G75*
G03*
X274940371Y-95484824I252261J431710D01*
G01*
X276781534Y-98553123D02*
G75*
G03*
X276529276Y-98484824I-252261J-431710D01*
G01*
X276529275Y-95484823D02*
G75*
G03*
X276781533Y-95416525I-2J500010D01*
G01*
X277484303Y-96065102D02*
G75*
G03*
X276781534Y-95416527I-450510J216879D01*
G01*
X277484307Y-96065104D02*
G75*
G03*
X277434822Y-96281981I450866J-216959D01*
G01*
X276781534Y-98553123D02*
G75*
G03*
X277484307Y-97904544I252259J431700D01*
G01*
X277434834Y-97687666D02*
G75*
G03*
X277484308Y-97904544I500289J43D01*
G01*
X277434822Y-77231980D02*
X277434822Y-78637664D01*
X276529275Y-79434822D02*
X274940371Y-79434822D01*
X274940371Y-76434823D02*
X276529276Y-76434823D01*
X274034824Y-78637664D02*
X274034824Y-77231980D01*
X277434823Y-78637664D02*
G75*
G03*
X277484308Y-78854542I499989J-2D01*
G01*
X276781534Y-79503121D02*
G75*
G03*
X277484306Y-78854541I252259J431700D01*
G01*
X277484307Y-77015102D02*
G75*
G03*
X277434822Y-77231979I450505J-216876D01*
G01*
X277484307Y-77015102D02*
G75*
G03*
X276781534Y-76366524I-450514J216878D01*
G01*
X276529276Y-76434823D02*
G75*
G03*
X276781534Y-76366524I-3J500009D01*
G01*
X276781534Y-79503121D02*
G75*
G03*
X276529275Y-79434822I-252261J-431710D01*
G01*
X274688112Y-76366523D02*
G75*
G03*
X274940370Y-76434822I252261J431710D01*
G01*
X274940371Y-79434823D02*
G75*
G03*
X274688113Y-79503121I2J-500010D01*
G01*
X273985343Y-78854544D02*
G75*
G03*
X274688112Y-79503119I450510J-216879D01*
G01*
X273985339Y-78854542D02*
G75*
G03*
X274034824Y-78637665I-450866J216959D01*
G01*
X274688112Y-76366523D02*
G75*
G03*
X273985339Y-77015102I-252259J-431700D01*
G01*
X274034812Y-77231980D02*
G75*
G03*
X273985338Y-77015102I-500289J-43D01*
G01*
X115509822Y-39131980D02*
X115509822Y-40537664D01*
X114604275Y-41334822D02*
X113015371Y-41334822D01*
X113015371Y-38334823D02*
X114604276Y-38334823D01*
X112109824Y-40537664D02*
X112109824Y-39131980D01*
X115509823Y-40537664D02*
G75*
G03*
X115559308Y-40754542I499989J-2D01*
G01*
X114856534Y-41403121D02*
G75*
G03*
X115559306Y-40754541I252259J431700D01*
G01*
X115559307Y-38915102D02*
G75*
G03*
X115509822Y-39131979I450505J-216876D01*
G01*
X115559307Y-38915102D02*
G75*
G03*
X114856534Y-38266524I-450514J216878D01*
G01*
X114604276Y-38334823D02*
G75*
G03*
X114856534Y-38266524I-3J500009D01*
G01*
X114856534Y-41403121D02*
G75*
G03*
X114604275Y-41334822I-252261J-431710D01*
G01*
X112763112Y-38266523D02*
G75*
G03*
X113015370Y-38334822I252261J431710D01*
G01*
X113015371Y-41334823D02*
G75*
G03*
X112763113Y-41403121I2J-500010D01*
G01*
X112060343Y-40754544D02*
G75*
G03*
X112763112Y-41403119I450510J-216879D01*
G01*
X112060339Y-40754542D02*
G75*
G03*
X112109824Y-40537665I-450866J216959D01*
G01*
X112763112Y-38266523D02*
G75*
G03*
X112060339Y-38915102I-252259J-431700D01*
G01*
X112109812Y-39131980D02*
G75*
G03*
X112060338Y-38915102I-500289J-43D01*
G01*
X174022324Y-59587666D02*
X174022324Y-58181982D01*
X174927871Y-57384824D02*
X176516775Y-57384824D01*
X176516775Y-60384823D02*
X174927870Y-60384823D01*
X177422322Y-58181982D02*
X177422322Y-59587666D01*
X174022323Y-58181982D02*
G75*
G03*
X173972838Y-57965104I-499989J2D01*
G01*
X174675612Y-57316525D02*
G75*
G03*
X173972840Y-57965105I-252259J-431700D01*
G01*
X173972839Y-59804544D02*
G75*
G03*
X174022324Y-59587667I-450505J216876D01*
G01*
X173972839Y-59804544D02*
G75*
G03*
X174675612Y-60453122I450514J-216878D01*
G01*
X174927870Y-60384823D02*
G75*
G03*
X174675612Y-60453122I3J-500009D01*
G01*
X174675612Y-57316525D02*
G75*
G03*
X174927871Y-57384824I252261J431710D01*
G01*
X176769034Y-60453123D02*
G75*
G03*
X176516776Y-60384824I-252261J-431710D01*
G01*
X176516775Y-57384823D02*
G75*
G03*
X176769033Y-57316525I-2J500010D01*
G01*
X177471803Y-57965102D02*
G75*
G03*
X176769034Y-57316527I-450510J216879D01*
G01*
X177471807Y-57965104D02*
G75*
G03*
X177422322Y-58181981I450866J-216959D01*
G01*
X176769034Y-60453123D02*
G75*
G03*
X177471807Y-59804544I252259J431700D01*
G01*
X177422334Y-59587666D02*
G75*
G03*
X177471808Y-59804544I500289J43D01*
G01*
X193072324Y-59587666D02*
X193072324Y-58181982D01*
X193977871Y-57384824D02*
X195566775Y-57384824D01*
X195566775Y-60384823D02*
X193977870Y-60384823D01*
X196472322Y-58181982D02*
X196472322Y-59587666D01*
X193072323Y-58181982D02*
G75*
G03*
X193022838Y-57965104I-499989J2D01*
G01*
X193725612Y-57316525D02*
G75*
G03*
X193022840Y-57965105I-252259J-431700D01*
G01*
X193022839Y-59804544D02*
G75*
G03*
X193072324Y-59587667I-450505J216876D01*
G01*
X193022839Y-59804544D02*
G75*
G03*
X193725612Y-60453122I450514J-216878D01*
G01*
X193977870Y-60384823D02*
G75*
G03*
X193725612Y-60453122I3J-500009D01*
G01*
X193725612Y-57316525D02*
G75*
G03*
X193977871Y-57384824I252261J431710D01*
G01*
X195819034Y-60453123D02*
G75*
G03*
X195566776Y-60384824I-252261J-431710D01*
G01*
X195566775Y-57384823D02*
G75*
G03*
X195819033Y-57316525I-2J500010D01*
G01*
X196521803Y-57965102D02*
G75*
G03*
X195819034Y-57316527I-450510J216879D01*
G01*
X196521807Y-57965104D02*
G75*
G03*
X196472322Y-58181981I450866J-216959D01*
G01*
X195819034Y-60453123D02*
G75*
G03*
X196521807Y-59804544I252259J431700D01*
G01*
X196472334Y-59587666D02*
G75*
G03*
X196521808Y-59804544I500289J43D01*
G01*
X77409822Y-39131980D02*
X77409822Y-40537664D01*
X76504275Y-41334822D02*
X74915371Y-41334822D01*
X74915371Y-38334823D02*
X76504276Y-38334823D01*
X74009824Y-40537664D02*
X74009824Y-39131980D01*
X77409823Y-40537664D02*
G75*
G03*
X77459308Y-40754542I499989J-2D01*
G01*
X76756534Y-41403121D02*
G75*
G03*
X77459306Y-40754541I252259J431700D01*
G01*
X77459307Y-38915102D02*
G75*
G03*
X77409822Y-39131979I450505J-216876D01*
G01*
X77459307Y-38915102D02*
G75*
G03*
X76756534Y-38266524I-450514J216878D01*
G01*
X76504276Y-38334823D02*
G75*
G03*
X76756534Y-38266524I-3J500009D01*
G01*
X76756534Y-41403121D02*
G75*
G03*
X76504275Y-41334822I-252261J-431710D01*
G01*
X74663112Y-38266523D02*
G75*
G03*
X74915370Y-38334822I252261J431710D01*
G01*
X74915371Y-41334823D02*
G75*
G03*
X74663113Y-41403121I2J-500010D01*
G01*
X73960343Y-40754544D02*
G75*
G03*
X74663112Y-41403119I450510J-216879D01*
G01*
X73960339Y-40754542D02*
G75*
G03*
X74009824Y-40537665I-450866J216959D01*
G01*
X74663112Y-38266523D02*
G75*
G03*
X73960339Y-38915102I-252259J-431700D01*
G01*
X74009812Y-39131980D02*
G75*
G03*
X73960338Y-38915102I-500289J-43D01*
G01*
X15497322Y-39131980D02*
X15497322Y-40537664D01*
X14591775Y-41334822D02*
X13002871Y-41334822D01*
X13002871Y-38334823D02*
X14591776Y-38334823D01*
X12097324Y-40537664D02*
X12097324Y-39131980D01*
X15497323Y-40537664D02*
G75*
G03*
X15546808Y-40754542I499989J-2D01*
G01*
X14844034Y-41403121D02*
G75*
G03*
X15546806Y-40754541I252259J431700D01*
G01*
X15546807Y-38915102D02*
G75*
G03*
X15497322Y-39131979I450505J-216876D01*
G01*
X15546807Y-38915102D02*
G75*
G03*
X14844034Y-38266524I-450514J216878D01*
G01*
X14591776Y-38334823D02*
G75*
G03*
X14844034Y-38266524I-3J500009D01*
G01*
X14844034Y-41403121D02*
G75*
G03*
X14591775Y-41334822I-252261J-431710D01*
G01*
X12750612Y-38266523D02*
G75*
G03*
X13002870Y-38334822I252261J431710D01*
G01*
X13002871Y-41334823D02*
G75*
G03*
X12750613Y-41403121I2J-500010D01*
G01*
X12047843Y-40754544D02*
G75*
G03*
X12750612Y-41403119I450510J-216879D01*
G01*
X12047839Y-40754542D02*
G75*
G03*
X12097324Y-40537665I-450866J216959D01*
G01*
X12750612Y-38266523D02*
G75*
G03*
X12047839Y-38915102I-252259J-431700D01*
G01*
X12097312Y-39131980D02*
G75*
G03*
X12047838Y-38915102I-500289J-43D01*
G01*
X83534824Y-21487666D02*
X83534824Y-20081982D01*
X84440371Y-19284824D02*
X86029275Y-19284824D01*
X86029275Y-22284823D02*
X84440370Y-22284823D01*
X86934822Y-20081982D02*
X86934822Y-21487666D01*
X83534823Y-20081982D02*
G75*
G03*
X83485338Y-19865104I-499989J2D01*
G01*
X84188112Y-19216525D02*
G75*
G03*
X83485340Y-19865105I-252259J-431700D01*
G01*
X83485339Y-21704544D02*
G75*
G03*
X83534824Y-21487667I-450505J216876D01*
G01*
X83485339Y-21704544D02*
G75*
G03*
X84188112Y-22353122I450514J-216878D01*
G01*
X84440370Y-22284823D02*
G75*
G03*
X84188112Y-22353122I3J-500009D01*
G01*
X84188112Y-19216525D02*
G75*
G03*
X84440371Y-19284824I252261J431710D01*
G01*
X86281534Y-22353123D02*
G75*
G03*
X86029276Y-22284824I-252261J-431710D01*
G01*
X86029275Y-19284823D02*
G75*
G03*
X86281533Y-19216525I-2J500010D01*
G01*
X86984303Y-19865102D02*
G75*
G03*
X86281534Y-19216527I-450510J216879D01*
G01*
X86984307Y-19865104D02*
G75*
G03*
X86934822Y-20081981I450866J-216959D01*
G01*
X86281534Y-22353123D02*
G75*
G03*
X86984307Y-21704544I252259J431700D01*
G01*
X86934834Y-21487666D02*
G75*
G03*
X86984308Y-21704544I500289J43D01*
G01*
X97822324Y-59587666D02*
X97822324Y-58181982D01*
X98727871Y-57384824D02*
X100316775Y-57384824D01*
X100316775Y-60384823D02*
X98727870Y-60384823D01*
X101222322Y-58181982D02*
X101222322Y-59587666D01*
X97822323Y-58181982D02*
G75*
G03*
X97772838Y-57965104I-499989J2D01*
G01*
X98475612Y-57316525D02*
G75*
G03*
X97772840Y-57965105I-252259J-431700D01*
G01*
X97772839Y-59804544D02*
G75*
G03*
X97822324Y-59587667I-450505J216876D01*
G01*
X97772839Y-59804544D02*
G75*
G03*
X98475612Y-60453122I450514J-216878D01*
G01*
X98727870Y-60384823D02*
G75*
G03*
X98475612Y-60453122I3J-500009D01*
G01*
X98475612Y-57316525D02*
G75*
G03*
X98727871Y-57384824I252261J431710D01*
G01*
X100569034Y-60453123D02*
G75*
G03*
X100316776Y-60384824I-252261J-431710D01*
G01*
X100316775Y-57384823D02*
G75*
G03*
X100569033Y-57316525I-2J500010D01*
G01*
X101271803Y-57965102D02*
G75*
G03*
X100569034Y-57316527I-450510J216879D01*
G01*
X101271807Y-57965104D02*
G75*
G03*
X101222322Y-58181981I450866J-216959D01*
G01*
X100569034Y-60453123D02*
G75*
G03*
X101271807Y-59804544I252259J431700D01*
G01*
X101222334Y-59587666D02*
G75*
G03*
X101271808Y-59804544I500289J43D01*
G01*
X197834824Y-21487666D02*
X197834824Y-20081982D01*
X198740371Y-19284824D02*
X200329275Y-19284824D01*
X200329275Y-22284823D02*
X198740370Y-22284823D01*
X201234822Y-20081982D02*
X201234822Y-21487666D01*
X197834823Y-20081982D02*
G75*
G03*
X197785338Y-19865104I-499989J2D01*
G01*
X198488112Y-19216525D02*
G75*
G03*
X197785340Y-19865105I-252259J-431700D01*
G01*
X197785339Y-21704544D02*
G75*
G03*
X197834824Y-21487667I-450505J216876D01*
G01*
X197785339Y-21704544D02*
G75*
G03*
X198488112Y-22353122I450514J-216878D01*
G01*
X198740370Y-22284823D02*
G75*
G03*
X198488112Y-22353122I3J-500009D01*
G01*
X198488112Y-19216525D02*
G75*
G03*
X198740371Y-19284824I252261J431710D01*
G01*
X200581534Y-22353123D02*
G75*
G03*
X200329276Y-22284824I-252261J-431710D01*
G01*
X200329275Y-19284823D02*
G75*
G03*
X200581533Y-19216525I-2J500010D01*
G01*
X201284303Y-19865102D02*
G75*
G03*
X200581534Y-19216527I-450510J216879D01*
G01*
X201284307Y-19865104D02*
G75*
G03*
X201234822Y-20081981I450866J-216959D01*
G01*
X200581534Y-22353123D02*
G75*
G03*
X201284307Y-21704544I252259J431700D01*
G01*
X201234834Y-21487666D02*
G75*
G03*
X201284308Y-21704544I500289J43D01*
G01*
X254984824Y-97687666D02*
X254984824Y-96281982D01*
X255890371Y-95484824D02*
X257479275Y-95484824D01*
X257479275Y-98484823D02*
X255890370Y-98484823D01*
X258384822Y-96281982D02*
X258384822Y-97687666D01*
X254984823Y-96281982D02*
G75*
G03*
X254935338Y-96065104I-499989J2D01*
G01*
X255638112Y-95416525D02*
G75*
G03*
X254935340Y-96065105I-252259J-431700D01*
G01*
X254935339Y-97904544D02*
G75*
G03*
X254984824Y-97687667I-450505J216876D01*
G01*
X254935339Y-97904544D02*
G75*
G03*
X255638112Y-98553122I450514J-216878D01*
G01*
X255890370Y-98484823D02*
G75*
G03*
X255638112Y-98553122I3J-500009D01*
G01*
X255638112Y-95416525D02*
G75*
G03*
X255890371Y-95484824I252261J431710D01*
G01*
X257731534Y-98553123D02*
G75*
G03*
X257479276Y-98484824I-252261J-431710D01*
G01*
X257479275Y-95484823D02*
G75*
G03*
X257731533Y-95416525I-2J500010D01*
G01*
X258434303Y-96065102D02*
G75*
G03*
X257731534Y-95416527I-450510J216879D01*
G01*
X258434307Y-96065104D02*
G75*
G03*
X258384822Y-96281981I450866J-216959D01*
G01*
X257731534Y-98553123D02*
G75*
G03*
X258434307Y-97904544I252259J431700D01*
G01*
X258384834Y-97687666D02*
G75*
G03*
X258434308Y-97904544I500289J43D01*
G01*
X262128574Y-59587666D02*
X262128574Y-58181982D01*
X263034121Y-57384824D02*
X264623025Y-57384824D01*
X264623025Y-60384823D02*
X263034120Y-60384823D01*
X265528572Y-58181982D02*
X265528572Y-59587666D01*
X262128573Y-58181982D02*
G75*
G03*
X262079088Y-57965104I-499989J2D01*
G01*
X262781862Y-57316525D02*
G75*
G03*
X262079090Y-57965105I-252259J-431700D01*
G01*
X262079089Y-59804544D02*
G75*
G03*
X262128574Y-59587667I-450505J216876D01*
G01*
X262079089Y-59804544D02*
G75*
G03*
X262781862Y-60453122I450514J-216878D01*
G01*
X263034120Y-60384823D02*
G75*
G03*
X262781862Y-60453122I3J-500009D01*
G01*
X262781862Y-57316525D02*
G75*
G03*
X263034121Y-57384824I252261J431710D01*
G01*
X264875284Y-60453123D02*
G75*
G03*
X264623026Y-60384824I-252261J-431710D01*
G01*
X264623025Y-57384823D02*
G75*
G03*
X264875283Y-57316525I-2J500010D01*
G01*
X265578053Y-57965102D02*
G75*
G03*
X264875284Y-57316527I-450510J216879D01*
G01*
X265578057Y-57965104D02*
G75*
G03*
X265528572Y-58181981I450866J-216959D01*
G01*
X264875284Y-60453123D02*
G75*
G03*
X265578057Y-59804544I252259J431700D01*
G01*
X265528584Y-59587666D02*
G75*
G03*
X265578058Y-59804544I500289J43D01*
G01*
X14478574Y-59587666D02*
X14478574Y-58181982D01*
X15384121Y-57384824D02*
X16973025Y-57384824D01*
X16973025Y-60384823D02*
X15384120Y-60384823D01*
X17878572Y-58181982D02*
X17878572Y-59587666D01*
X14478573Y-58181982D02*
G75*
G03*
X14429088Y-57965104I-499989J2D01*
G01*
X15131862Y-57316525D02*
G75*
G03*
X14429090Y-57965105I-252259J-431700D01*
G01*
X14429089Y-59804544D02*
G75*
G03*
X14478574Y-59587667I-450505J216876D01*
G01*
X14429089Y-59804544D02*
G75*
G03*
X15131862Y-60453122I450514J-216878D01*
G01*
X15384120Y-60384823D02*
G75*
G03*
X15131862Y-60453122I3J-500009D01*
G01*
X15131862Y-57316525D02*
G75*
G03*
X15384121Y-57384824I252261J431710D01*
G01*
X17225284Y-60453123D02*
G75*
G03*
X16973026Y-60384824I-252261J-431710D01*
G01*
X16973025Y-57384823D02*
G75*
G03*
X17225283Y-57316525I-2J500010D01*
G01*
X17928053Y-57965102D02*
G75*
G03*
X17225284Y-57316527I-450510J216879D01*
G01*
X17928057Y-57965104D02*
G75*
G03*
X17878572Y-58181981I450866J-216959D01*
G01*
X17225284Y-60453123D02*
G75*
G03*
X17928057Y-59804544I252259J431700D01*
G01*
X17878584Y-59587666D02*
G75*
G03*
X17928058Y-59804544I500289J43D01*
G01*
X159734824Y-21487666D02*
X159734824Y-20081982D01*
X160640371Y-19284824D02*
X162229275Y-19284824D01*
X162229275Y-22284823D02*
X160640370Y-22284823D01*
X163134822Y-20081982D02*
X163134822Y-21487666D01*
X159734823Y-20081982D02*
G75*
G03*
X159685338Y-19865104I-499989J2D01*
G01*
X160388112Y-19216525D02*
G75*
G03*
X159685340Y-19865105I-252259J-431700D01*
G01*
X159685339Y-21704544D02*
G75*
G03*
X159734824Y-21487667I-450505J216876D01*
G01*
X159685339Y-21704544D02*
G75*
G03*
X160388112Y-22353122I450514J-216878D01*
G01*
X160640370Y-22284823D02*
G75*
G03*
X160388112Y-22353122I3J-500009D01*
G01*
X160388112Y-19216525D02*
G75*
G03*
X160640371Y-19284824I252261J431710D01*
G01*
X162481534Y-22353123D02*
G75*
G03*
X162229276Y-22284824I-252261J-431710D01*
G01*
X162229275Y-19284823D02*
G75*
G03*
X162481533Y-19216525I-2J500010D01*
G01*
X163184303Y-19865102D02*
G75*
G03*
X162481534Y-19216527I-450510J216879D01*
G01*
X163184307Y-19865104D02*
G75*
G03*
X163134822Y-20081981I450866J-216959D01*
G01*
X162481534Y-22353123D02*
G75*
G03*
X163184307Y-21704544I252259J431700D01*
G01*
X163134834Y-21487666D02*
G75*
G03*
X163184308Y-21704544I500289J43D01*
G01*
X200216074Y-97687666D02*
X200216074Y-96281982D01*
X201121621Y-95484824D02*
X202710525Y-95484824D01*
X202710525Y-98484823D02*
X201121620Y-98484823D01*
X203616072Y-96281982D02*
X203616072Y-97687666D01*
X200216073Y-96281982D02*
G75*
G03*
X200166588Y-96065104I-499989J2D01*
G01*
X200869362Y-95416525D02*
G75*
G03*
X200166590Y-96065105I-252259J-431700D01*
G01*
X200166589Y-97904544D02*
G75*
G03*
X200216074Y-97687667I-450505J216876D01*
G01*
X200166589Y-97904544D02*
G75*
G03*
X200869362Y-98553122I450514J-216878D01*
G01*
X201121620Y-98484823D02*
G75*
G03*
X200869362Y-98553122I3J-500009D01*
G01*
X200869362Y-95416525D02*
G75*
G03*
X201121621Y-95484824I252261J431710D01*
G01*
X202962784Y-98553123D02*
G75*
G03*
X202710526Y-98484824I-252261J-431710D01*
G01*
X202710525Y-95484823D02*
G75*
G03*
X202962783Y-95416525I-2J500010D01*
G01*
X203665553Y-96065102D02*
G75*
G03*
X202962784Y-95416527I-450510J216879D01*
G01*
X203665557Y-96065104D02*
G75*
G03*
X203616072Y-96281981I450866J-216959D01*
G01*
X202962784Y-98553123D02*
G75*
G03*
X203665557Y-97904544I252259J431700D01*
G01*
X203616084Y-97687666D02*
G75*
G03*
X203665558Y-97904544I500289J43D01*
G01*
X210759822Y-39131980D02*
X210759822Y-40537664D01*
X209854275Y-41334822D02*
X208265371Y-41334822D01*
X208265371Y-38334823D02*
X209854276Y-38334823D01*
X207359824Y-40537664D02*
X207359824Y-39131980D01*
X210759823Y-40537664D02*
G75*
G03*
X210809308Y-40754542I499989J-2D01*
G01*
X210106534Y-41403121D02*
G75*
G03*
X210809306Y-40754541I252259J431700D01*
G01*
X210809307Y-38915102D02*
G75*
G03*
X210759822Y-39131979I450505J-216876D01*
G01*
X210809307Y-38915102D02*
G75*
G03*
X210106534Y-38266524I-450514J216878D01*
G01*
X209854276Y-38334823D02*
G75*
G03*
X210106534Y-38266524I-3J500009D01*
G01*
X210106534Y-41403121D02*
G75*
G03*
X209854275Y-41334822I-252261J-431710D01*
G01*
X208013112Y-38266523D02*
G75*
G03*
X208265370Y-38334822I252261J431710D01*
G01*
X208265371Y-41334823D02*
G75*
G03*
X208013113Y-41403121I2J-500010D01*
G01*
X207310343Y-40754544D02*
G75*
G03*
X208013112Y-41403119I450510J-216879D01*
G01*
X207310339Y-40754542D02*
G75*
G03*
X207359824Y-40537665I-450866J216959D01*
G01*
X208013112Y-38266523D02*
G75*
G03*
X207310339Y-38915102I-252259J-431700D01*
G01*
X207359812Y-39131980D02*
G75*
G03*
X207310338Y-38915102I-500289J-43D01*
G01*
X231172324Y-59587666D02*
X231172324Y-58181982D01*
X232077871Y-57384824D02*
X233666775Y-57384824D01*
X233666775Y-60384823D02*
X232077870Y-60384823D01*
X234572322Y-58181982D02*
X234572322Y-59587666D01*
X231172323Y-58181982D02*
G75*
G03*
X231122838Y-57965104I-499989J2D01*
G01*
X231825612Y-57316525D02*
G75*
G03*
X231122840Y-57965105I-252259J-431700D01*
G01*
X231122839Y-59804544D02*
G75*
G03*
X231172324Y-59587667I-450505J216876D01*
G01*
X231122839Y-59804544D02*
G75*
G03*
X231825612Y-60453122I450514J-216878D01*
G01*
X232077870Y-60384823D02*
G75*
G03*
X231825612Y-60453122I3J-500009D01*
G01*
X231825612Y-57316525D02*
G75*
G03*
X232077871Y-57384824I252261J431710D01*
G01*
X233919034Y-60453123D02*
G75*
G03*
X233666776Y-60384824I-252261J-431710D01*
G01*
X233666775Y-57384823D02*
G75*
G03*
X233919033Y-57316525I-2J500010D01*
G01*
X234621803Y-57965102D02*
G75*
G03*
X233919034Y-57316527I-450510J216879D01*
G01*
X234621807Y-57965104D02*
G75*
G03*
X234572322Y-58181981I450866J-216959D01*
G01*
X233919034Y-60453123D02*
G75*
G03*
X234621807Y-59804544I252259J431700D01*
G01*
X234572334Y-59587666D02*
G75*
G03*
X234621808Y-59804544I500289J43D01*
G01*
X91697322Y-77231980D02*
X91697322Y-78637664D01*
X90791775Y-79434822D02*
X89202871Y-79434822D01*
X89202871Y-76434823D02*
X90791776Y-76434823D01*
X88297324Y-78637664D02*
X88297324Y-77231980D01*
X91697323Y-78637664D02*
G75*
G03*
X91746808Y-78854542I499989J-2D01*
G01*
X91044034Y-79503121D02*
G75*
G03*
X91746806Y-78854541I252259J431700D01*
G01*
X91746807Y-77015102D02*
G75*
G03*
X91697322Y-77231979I450505J-216876D01*
G01*
X91746807Y-77015102D02*
G75*
G03*
X91044034Y-76366524I-450514J216878D01*
G01*
X90791776Y-76434823D02*
G75*
G03*
X91044034Y-76366524I-3J500009D01*
G01*
X91044034Y-79503121D02*
G75*
G03*
X90791775Y-79434822I-252261J-431710D01*
G01*
X88950612Y-76366523D02*
G75*
G03*
X89202870Y-76434822I252261J431710D01*
G01*
X89202871Y-79434823D02*
G75*
G03*
X88950613Y-79503121I2J-500010D01*
G01*
X88247843Y-78854544D02*
G75*
G03*
X88950612Y-79503119I450510J-216879D01*
G01*
X88247839Y-78854542D02*
G75*
G03*
X88297324Y-78637665I-450866J216959D01*
G01*
X88950612Y-76366523D02*
G75*
G03*
X88247839Y-77015102I-252259J-431700D01*
G01*
X88297312Y-77231980D02*
G75*
G03*
X88247838Y-77015102I-500289J-43D01*
G01*
X45434824Y-21487666D02*
X45434824Y-20081982D01*
X46340371Y-19284824D02*
X47929275Y-19284824D01*
X47929275Y-22284823D02*
X46340370Y-22284823D01*
X48834822Y-20081982D02*
X48834822Y-21487666D01*
X45434823Y-20081982D02*
G75*
G03*
X45385338Y-19865104I-499989J2D01*
G01*
X46088112Y-19216525D02*
G75*
G03*
X45385340Y-19865105I-252259J-431700D01*
G01*
X45385339Y-21704544D02*
G75*
G03*
X45434824Y-21487667I-450505J216876D01*
G01*
X45385339Y-21704544D02*
G75*
G03*
X46088112Y-22353122I450514J-216878D01*
G01*
X46340370Y-22284823D02*
G75*
G03*
X46088112Y-22353122I3J-500009D01*
G01*
X46088112Y-19216525D02*
G75*
G03*
X46340371Y-19284824I252261J431710D01*
G01*
X48181534Y-22353123D02*
G75*
G03*
X47929276Y-22284824I-252261J-431710D01*
G01*
X47929275Y-19284823D02*
G75*
G03*
X48181533Y-19216525I-2J500010D01*
G01*
X48884303Y-19865102D02*
G75*
G03*
X48181534Y-19216527I-450510J216879D01*
G01*
X48884307Y-19865104D02*
G75*
G03*
X48834822Y-20081981I450866J-216959D01*
G01*
X48181534Y-22353123D02*
G75*
G03*
X48884307Y-21704544I252259J431700D01*
G01*
X48834834Y-21487666D02*
G75*
G03*
X48884308Y-21704544I500289J43D01*
G01*
X225047322Y-77231980D02*
X225047322Y-78637664D01*
X224141775Y-79434822D02*
X222552871Y-79434822D01*
X222552871Y-76434823D02*
X224141776Y-76434823D01*
X221647324Y-78637664D02*
X221647324Y-77231980D01*
X225047323Y-78637664D02*
G75*
G03*
X225096808Y-78854542I499989J-2D01*
G01*
X224394034Y-79503121D02*
G75*
G03*
X225096806Y-78854541I252259J431700D01*
G01*
X225096807Y-77015102D02*
G75*
G03*
X225047322Y-77231979I450505J-216876D01*
G01*
X225096807Y-77015102D02*
G75*
G03*
X224394034Y-76366524I-450514J216878D01*
G01*
X224141776Y-76434823D02*
G75*
G03*
X224394034Y-76366524I-3J500009D01*
G01*
X224394034Y-79503121D02*
G75*
G03*
X224141775Y-79434822I-252261J-431710D01*
G01*
X222300612Y-76366523D02*
G75*
G03*
X222552870Y-76434822I252261J431710D01*
G01*
X222552871Y-79434823D02*
G75*
G03*
X222300613Y-79503121I2J-500010D01*
G01*
X221597843Y-78854544D02*
G75*
G03*
X222300612Y-79503119I450510J-216879D01*
G01*
X221597839Y-78854542D02*
G75*
G03*
X221647324Y-78637665I-450866J216959D01*
G01*
X222300612Y-76366523D02*
G75*
G03*
X221597839Y-77015102I-252259J-431700D01*
G01*
X221647312Y-77231980D02*
G75*
G03*
X221597838Y-77015102I-500289J-43D01*
G01*
X39309822Y-39131980D02*
X39309822Y-40537664D01*
X38404275Y-41334822D02*
X36815371Y-41334822D01*
X36815371Y-38334823D02*
X38404276Y-38334823D01*
X35909824Y-40537664D02*
X35909824Y-39131980D01*
X39309823Y-40537664D02*
G75*
G03*
X39359308Y-40754542I499989J-2D01*
G01*
X38656534Y-41403121D02*
G75*
G03*
X39359306Y-40754541I252259J431700D01*
G01*
X39359307Y-38915102D02*
G75*
G03*
X39309822Y-39131979I450505J-216876D01*
G01*
X39359307Y-38915102D02*
G75*
G03*
X38656534Y-38266524I-450514J216878D01*
G01*
X38404276Y-38334823D02*
G75*
G03*
X38656534Y-38266524I-3J500009D01*
G01*
X38656534Y-41403121D02*
G75*
G03*
X38404275Y-41334822I-252261J-431710D01*
G01*
X36563112Y-38266523D02*
G75*
G03*
X36815370Y-38334822I252261J431710D01*
G01*
X36815371Y-41334823D02*
G75*
G03*
X36563113Y-41403121I2J-500010D01*
G01*
X35860343Y-40754544D02*
G75*
G03*
X36563112Y-41403119I450510J-216879D01*
G01*
X35860339Y-40754542D02*
G75*
G03*
X35909824Y-40537665I-450866J216959D01*
G01*
X36563112Y-38266523D02*
G75*
G03*
X35860339Y-38915102I-252259J-431700D01*
G01*
X35909812Y-39131980D02*
G75*
G03*
X35860338Y-38915102I-500289J-43D01*
G01*
X264509824Y-21487666D02*
X264509824Y-20081982D01*
X265415371Y-19284824D02*
X267004275Y-19284824D01*
X267004275Y-22284823D02*
X265415370Y-22284823D01*
X267909822Y-20081982D02*
X267909822Y-21487666D01*
X264509823Y-20081982D02*
G75*
G03*
X264460338Y-19865104I-499989J2D01*
G01*
X265163112Y-19216525D02*
G75*
G03*
X264460340Y-19865105I-252259J-431700D01*
G01*
X264460339Y-21704544D02*
G75*
G03*
X264509824Y-21487667I-450505J216876D01*
G01*
X264460339Y-21704544D02*
G75*
G03*
X265163112Y-22353122I450514J-216878D01*
G01*
X265415370Y-22284823D02*
G75*
G03*
X265163112Y-22353122I3J-500009D01*
G01*
X265163112Y-19216525D02*
G75*
G03*
X265415371Y-19284824I252261J431710D01*
G01*
X267256534Y-22353123D02*
G75*
G03*
X267004276Y-22284824I-252261J-431710D01*
G01*
X267004275Y-19284823D02*
G75*
G03*
X267256533Y-19216525I-2J500010D01*
G01*
X267959303Y-19865102D02*
G75*
G03*
X267256534Y-19216527I-450510J216879D01*
G01*
X267959307Y-19865104D02*
G75*
G03*
X267909822Y-20081981I450866J-216959D01*
G01*
X267256534Y-22353123D02*
G75*
G03*
X267959307Y-21704544I252259J431700D01*
G01*
X267909834Y-21487666D02*
G75*
G03*
X267959308Y-21704544I500289J43D01*
G01*
X9716074Y-97687666D02*
X9716074Y-96281982D01*
X10621621Y-95484824D02*
X12210525Y-95484824D01*
X12210525Y-98484823D02*
X10621620Y-98484823D01*
X13116072Y-96281982D02*
X13116072Y-97687666D01*
X9716073Y-96281982D02*
G75*
G03*
X9666588Y-96065104I-499989J2D01*
G01*
X10369362Y-95416525D02*
G75*
G03*
X9666590Y-96065105I-252259J-431700D01*
G01*
X9666589Y-97904544D02*
G75*
G03*
X9716074Y-97687667I-450505J216876D01*
G01*
X9666589Y-97904544D02*
G75*
G03*
X10369362Y-98553122I450514J-216878D01*
G01*
X10621620Y-98484823D02*
G75*
G03*
X10369362Y-98553122I3J-500009D01*
G01*
X10369362Y-95416525D02*
G75*
G03*
X10621621Y-95484824I252261J431710D01*
G01*
X12462784Y-98553123D02*
G75*
G03*
X12210526Y-98484824I-252261J-431710D01*
G01*
X12210525Y-95484823D02*
G75*
G03*
X12462783Y-95416525I-2J500010D01*
G01*
X13165553Y-96065102D02*
G75*
G03*
X12462784Y-95416527I-450510J216879D01*
G01*
X13165557Y-96065104D02*
G75*
G03*
X13116072Y-96281981I450866J-216959D01*
G01*
X12462784Y-98553123D02*
G75*
G03*
X13165557Y-97904544I252259J431700D01*
G01*
X13116084Y-97687666D02*
G75*
G03*
X13165558Y-97904544I500289J43D01*
G01*
X33528574Y-97687666D02*
X33528574Y-96281982D01*
X34434121Y-95484824D02*
X36023025Y-95484824D01*
X36023025Y-98484823D02*
X34434120Y-98484823D01*
X36928572Y-96281982D02*
X36928572Y-97687666D01*
X33528573Y-96281982D02*
G75*
G03*
X33479088Y-96065104I-499989J2D01*
G01*
X34181862Y-95416525D02*
G75*
G03*
X33479090Y-96065105I-252259J-431700D01*
G01*
X33479089Y-97904544D02*
G75*
G03*
X33528574Y-97687667I-450505J216876D01*
G01*
X33479089Y-97904544D02*
G75*
G03*
X34181862Y-98553122I450514J-216878D01*
G01*
X34434120Y-98484823D02*
G75*
G03*
X34181862Y-98553122I3J-500009D01*
G01*
X34181862Y-95416525D02*
G75*
G03*
X34434121Y-95484824I252261J431710D01*
G01*
X36275284Y-98553123D02*
G75*
G03*
X36023026Y-98484824I-252261J-431710D01*
G01*
X36023025Y-95484823D02*
G75*
G03*
X36275283Y-95416525I-2J500010D01*
G01*
X36978053Y-96065102D02*
G75*
G03*
X36275284Y-95416527I-450510J216879D01*
G01*
X36978057Y-96065104D02*
G75*
G03*
X36928572Y-96281981I450866J-216959D01*
G01*
X36275284Y-98553123D02*
G75*
G03*
X36978057Y-97904544I252259J431700D01*
G01*
X36928584Y-97687666D02*
G75*
G03*
X36978058Y-97904544I500289J43D01*
G01*
X40672324Y-59587666D02*
X40672324Y-58181982D01*
X41577871Y-57384824D02*
X43166775Y-57384824D01*
X43166775Y-60384823D02*
X41577870Y-60384823D01*
X44072322Y-58181982D02*
X44072322Y-59587666D01*
X40672323Y-58181982D02*
G75*
G03*
X40622838Y-57965104I-499989J2D01*
G01*
X41325612Y-57316525D02*
G75*
G03*
X40622840Y-57965105I-252259J-431700D01*
G01*
X40622839Y-59804544D02*
G75*
G03*
X40672324Y-59587667I-450505J216876D01*
G01*
X40622839Y-59804544D02*
G75*
G03*
X41325612Y-60453122I450514J-216878D01*
G01*
X41577870Y-60384823D02*
G75*
G03*
X41325612Y-60453122I3J-500009D01*
G01*
X41325612Y-57316525D02*
G75*
G03*
X41577871Y-57384824I252261J431710D01*
G01*
X43419034Y-60453123D02*
G75*
G03*
X43166776Y-60384824I-252261J-431710D01*
G01*
X43166775Y-57384823D02*
G75*
G03*
X43419033Y-57316525I-2J500010D01*
G01*
X44121803Y-57965102D02*
G75*
G03*
X43419034Y-57316527I-450510J216879D01*
G01*
X44121807Y-57965104D02*
G75*
G03*
X44072322Y-58181981I450866J-216959D01*
G01*
X43419034Y-60453123D02*
G75*
G03*
X44121807Y-59804544I252259J431700D01*
G01*
X44072334Y-59587666D02*
G75*
G03*
X44121808Y-59804544I500289J43D01*
G01*
X110747322Y-77231980D02*
X110747322Y-78637664D01*
X109841775Y-79434822D02*
X108252871Y-79434822D01*
X108252871Y-76434823D02*
X109841776Y-76434823D01*
X107347324Y-78637664D02*
X107347324Y-77231980D01*
X110747323Y-78637664D02*
G75*
G03*
X110796808Y-78854542I499989J-2D01*
G01*
X110094034Y-79503121D02*
G75*
G03*
X110796806Y-78854541I252259J431700D01*
G01*
X110796807Y-77015102D02*
G75*
G03*
X110747322Y-77231979I450505J-216876D01*
G01*
X110796807Y-77015102D02*
G75*
G03*
X110094034Y-76366524I-450514J216878D01*
G01*
X109841776Y-76434823D02*
G75*
G03*
X110094034Y-76366524I-3J500009D01*
G01*
X110094034Y-79503121D02*
G75*
G03*
X109841775Y-79434822I-252261J-431710D01*
G01*
X108000612Y-76366523D02*
G75*
G03*
X108252870Y-76434822I252261J431710D01*
G01*
X108252871Y-79434823D02*
G75*
G03*
X108000613Y-79503121I2J-500010D01*
G01*
X107297843Y-78854544D02*
G75*
G03*
X108000612Y-79503119I450510J-216879D01*
G01*
X107297839Y-78854542D02*
G75*
G03*
X107347324Y-78637665I-450866J216959D01*
G01*
X108000612Y-76366523D02*
G75*
G03*
X107297839Y-77015102I-252259J-431700D01*
G01*
X107347312Y-77231980D02*
G75*
G03*
X107297838Y-77015102I-500289J-43D01*
G01*
X129797322Y-77231980D02*
X129797322Y-78637664D01*
X128891775Y-79434822D02*
X127302871Y-79434822D01*
X127302871Y-76434823D02*
X128891776Y-76434823D01*
X126397324Y-78637664D02*
X126397324Y-77231980D01*
X129797323Y-78637664D02*
G75*
G03*
X129846808Y-78854542I499989J-2D01*
G01*
X129144034Y-79503121D02*
G75*
G03*
X129846806Y-78854541I252259J431700D01*
G01*
X129846807Y-77015102D02*
G75*
G03*
X129797322Y-77231979I450505J-216876D01*
G01*
X129846807Y-77015102D02*
G75*
G03*
X129144034Y-76366524I-450514J216878D01*
G01*
X128891776Y-76434823D02*
G75*
G03*
X129144034Y-76366524I-3J500009D01*
G01*
X129144034Y-79503121D02*
G75*
G03*
X128891775Y-79434822I-252261J-431710D01*
G01*
X127050612Y-76366523D02*
G75*
G03*
X127302870Y-76434822I252261J431710D01*
G01*
X127302871Y-79434823D02*
G75*
G03*
X127050613Y-79503121I2J-500010D01*
G01*
X126347843Y-78854544D02*
G75*
G03*
X127050612Y-79503119I450510J-216879D01*
G01*
X126347839Y-78854542D02*
G75*
G03*
X126397324Y-78637665I-450866J216959D01*
G01*
X127050612Y-76366523D02*
G75*
G03*
X126347839Y-77015102I-252259J-431700D01*
G01*
X126397312Y-77231980D02*
G75*
G03*
X126347838Y-77015102I-500289J-43D01*
G01*
X72647322Y-77231980D02*
X72647322Y-78637664D01*
X71741775Y-79434822D02*
X70152871Y-79434822D01*
X70152871Y-76434823D02*
X71741776Y-76434823D01*
X69247324Y-78637664D02*
X69247324Y-77231980D01*
X72647323Y-78637664D02*
G75*
G03*
X72696808Y-78854542I499989J-2D01*
G01*
X71994034Y-79503121D02*
G75*
G03*
X72696806Y-78854541I252259J431700D01*
G01*
X72696807Y-77015102D02*
G75*
G03*
X72647322Y-77231979I450505J-216876D01*
G01*
X72696807Y-77015102D02*
G75*
G03*
X71994034Y-76366524I-450514J216878D01*
G01*
X71741776Y-76434823D02*
G75*
G03*
X71994034Y-76366524I-3J500009D01*
G01*
X71994034Y-79503121D02*
G75*
G03*
X71741775Y-79434822I-252261J-431710D01*
G01*
X69900612Y-76366523D02*
G75*
G03*
X70152870Y-76434822I252261J431710D01*
G01*
X70152871Y-79434823D02*
G75*
G03*
X69900613Y-79503121I2J-500010D01*
G01*
X69197843Y-78854544D02*
G75*
G03*
X69900612Y-79503119I450510J-216879D01*
G01*
X69197839Y-78854542D02*
G75*
G03*
X69247324Y-78637665I-450866J216959D01*
G01*
X69900612Y-76366523D02*
G75*
G03*
X69197839Y-77015102I-252259J-431700D01*
G01*
X69247312Y-77231980D02*
G75*
G03*
X69197838Y-77015102I-500289J-43D01*
G01*
X251241072Y-77231980D02*
X251241072Y-78637664D01*
X250335525Y-79434822D02*
X248746621Y-79434822D01*
X248746621Y-76434823D02*
X250335526Y-76434823D01*
X247841074Y-78637664D02*
X247841074Y-77231980D01*
X251241073Y-78637664D02*
G75*
G03*
X251290558Y-78854542I499989J-2D01*
G01*
X250587784Y-79503121D02*
G75*
G03*
X251290556Y-78854541I252259J431700D01*
G01*
X251290557Y-77015102D02*
G75*
G03*
X251241072Y-77231979I450505J-216876D01*
G01*
X251290557Y-77015102D02*
G75*
G03*
X250587784Y-76366524I-450514J216878D01*
G01*
X250335526Y-76434823D02*
G75*
G03*
X250587784Y-76366524I-3J500009D01*
G01*
X250587784Y-79503121D02*
G75*
G03*
X250335525Y-79434822I-252261J-431710D01*
G01*
X248494362Y-76366523D02*
G75*
G03*
X248746620Y-76434822I252261J431710D01*
G01*
X248746621Y-79434823D02*
G75*
G03*
X248494363Y-79503121I2J-500010D01*
G01*
X247791593Y-78854544D02*
G75*
G03*
X248494362Y-79503119I450510J-216879D01*
G01*
X247791589Y-78854542D02*
G75*
G03*
X247841074Y-78637665I-450866J216959D01*
G01*
X248494362Y-76366523D02*
G75*
G03*
X247791589Y-77015102I-252259J-431700D01*
G01*
X247841062Y-77231980D02*
G75*
G03*
X247791588Y-77015102I-500289J-43D01*
G01*
X178784824Y-21487666D02*
X178784824Y-20081982D01*
X179690371Y-19284824D02*
X181279275Y-19284824D01*
X181279275Y-22284823D02*
X179690370Y-22284823D01*
X182184822Y-20081982D02*
X182184822Y-21487666D01*
X178784823Y-20081982D02*
G75*
G03*
X178735338Y-19865104I-499989J2D01*
G01*
X179438112Y-19216525D02*
G75*
G03*
X178735340Y-19865105I-252259J-431700D01*
G01*
X178735339Y-21704544D02*
G75*
G03*
X178784824Y-21487667I-450505J216876D01*
G01*
X178735339Y-21704544D02*
G75*
G03*
X179438112Y-22353122I450514J-216878D01*
G01*
X179690370Y-22284823D02*
G75*
G03*
X179438112Y-22353122I3J-500009D01*
G01*
X179438112Y-19216525D02*
G75*
G03*
X179690371Y-19284824I252261J431710D01*
G01*
X181531534Y-22353123D02*
G75*
G03*
X181279276Y-22284824I-252261J-431710D01*
G01*
X181279275Y-19284823D02*
G75*
G03*
X181531533Y-19216525I-2J500010D01*
G01*
X182234303Y-19865102D02*
G75*
G03*
X181531534Y-19216527I-450510J216879D01*
G01*
X182234307Y-19865104D02*
G75*
G03*
X182184822Y-20081981I450866J-216959D01*
G01*
X181531534Y-22353123D02*
G75*
G03*
X182234307Y-21704544I252259J431700D01*
G01*
X182184834Y-21487666D02*
G75*
G03*
X182234308Y-21704544I500289J43D01*
G01*
X102584824Y-21487666D02*
X102584824Y-20081982D01*
X103490371Y-19284824D02*
X105079275Y-19284824D01*
X105079275Y-22284823D02*
X103490370Y-22284823D01*
X105984822Y-20081982D02*
X105984822Y-21487666D01*
X102584823Y-20081982D02*
G75*
G03*
X102535338Y-19865104I-499989J2D01*
G01*
X103238112Y-19216525D02*
G75*
G03*
X102535340Y-19865105I-252259J-431700D01*
G01*
X102535339Y-21704544D02*
G75*
G03*
X102584824Y-21487667I-450505J216876D01*
G01*
X102535339Y-21704544D02*
G75*
G03*
X103238112Y-22353122I450514J-216878D01*
G01*
X103490370Y-22284823D02*
G75*
G03*
X103238112Y-22353122I3J-500009D01*
G01*
X103238112Y-19216525D02*
G75*
G03*
X103490371Y-19284824I252261J431710D01*
G01*
X105331534Y-22353123D02*
G75*
G03*
X105079276Y-22284824I-252261J-431710D01*
G01*
X105079275Y-19284823D02*
G75*
G03*
X105331533Y-19216525I-2J500010D01*
G01*
X106034303Y-19865102D02*
G75*
G03*
X105331534Y-19216527I-450510J216879D01*
G01*
X106034307Y-19865104D02*
G75*
G03*
X105984822Y-20081981I450866J-216959D01*
G01*
X105331534Y-22353123D02*
G75*
G03*
X106034307Y-21704544I252259J431700D01*
G01*
X105984834Y-21487666D02*
G75*
G03*
X106034308Y-21704544I500289J43D01*
G01*
X148847322Y-77231980D02*
X148847322Y-78637664D01*
X147941775Y-79434822D02*
X146352871Y-79434822D01*
X146352871Y-76434823D02*
X147941776Y-76434823D01*
X145447324Y-78637664D02*
X145447324Y-77231980D01*
X148847323Y-78637664D02*
G75*
G03*
X148896808Y-78854542I499989J-2D01*
G01*
X148194034Y-79503121D02*
G75*
G03*
X148896806Y-78854541I252259J431700D01*
G01*
X148896807Y-77015102D02*
G75*
G03*
X148847322Y-77231979I450505J-216876D01*
G01*
X148896807Y-77015102D02*
G75*
G03*
X148194034Y-76366524I-450514J216878D01*
G01*
X147941776Y-76434823D02*
G75*
G03*
X148194034Y-76366524I-3J500009D01*
G01*
X148194034Y-79503121D02*
G75*
G03*
X147941775Y-79434822I-252261J-431710D01*
G01*
X146100612Y-76366523D02*
G75*
G03*
X146352870Y-76434822I252261J431710D01*
G01*
X146352871Y-79434823D02*
G75*
G03*
X146100613Y-79503121I2J-500010D01*
G01*
X145397843Y-78854544D02*
G75*
G03*
X146100612Y-79503119I450510J-216879D01*
G01*
X145397839Y-78854542D02*
G75*
G03*
X145447324Y-78637665I-450866J216959D01*
G01*
X146100612Y-76366523D02*
G75*
G03*
X145397839Y-77015102I-252259J-431700D01*
G01*
X145447312Y-77231980D02*
G75*
G03*
X145397838Y-77015102I-500289J-43D01*
G01*
X53597322Y-77231980D02*
X53597322Y-78637664D01*
X52691775Y-79434822D02*
X51102871Y-79434822D01*
X51102871Y-76434823D02*
X52691776Y-76434823D01*
X50197324Y-78637664D02*
X50197324Y-77231980D01*
X53597323Y-78637664D02*
G75*
G03*
X53646808Y-78854542I499989J-2D01*
G01*
X52944034Y-79503121D02*
G75*
G03*
X53646806Y-78854541I252259J431700D01*
G01*
X53646807Y-77015102D02*
G75*
G03*
X53597322Y-77231979I450505J-216876D01*
G01*
X53646807Y-77015102D02*
G75*
G03*
X52944034Y-76366524I-450514J216878D01*
G01*
X52691776Y-76434823D02*
G75*
G03*
X52944034Y-76366524I-3J500009D01*
G01*
X52944034Y-79503121D02*
G75*
G03*
X52691775Y-79434822I-252261J-431710D01*
G01*
X50850612Y-76366523D02*
G75*
G03*
X51102870Y-76434822I252261J431710D01*
G01*
X51102871Y-79434823D02*
G75*
G03*
X50850613Y-79503121I2J-500010D01*
G01*
X50147843Y-78854544D02*
G75*
G03*
X50850612Y-79503119I450510J-216879D01*
G01*
X50147839Y-78854542D02*
G75*
G03*
X50197324Y-78637665I-450866J216959D01*
G01*
X50850612Y-76366523D02*
G75*
G03*
X50147839Y-77015102I-252259J-431700D01*
G01*
X50197312Y-77231980D02*
G75*
G03*
X50147838Y-77015102I-500289J-43D01*
G01*
X296484822Y-77231980D02*
X296484822Y-78637664D01*
X295579275Y-79434822D02*
X293990371Y-79434822D01*
X293990371Y-76434823D02*
X295579276Y-76434823D01*
X293084824Y-78637664D02*
X293084824Y-77231980D01*
X296484823Y-78637664D02*
G75*
G03*
X296534308Y-78854542I499989J-2D01*
G01*
X295831534Y-79503121D02*
G75*
G03*
X296534306Y-78854541I252259J431700D01*
G01*
X296534307Y-77015102D02*
G75*
G03*
X296484822Y-77231979I450505J-216876D01*
G01*
X296534307Y-77015102D02*
G75*
G03*
X295831534Y-76366524I-450514J216878D01*
G01*
X295579276Y-76434823D02*
G75*
G03*
X295831534Y-76366524I-3J500009D01*
G01*
X295831534Y-79503121D02*
G75*
G03*
X295579275Y-79434822I-252261J-431710D01*
G01*
X293738112Y-76366523D02*
G75*
G03*
X293990370Y-76434822I252261J431710D01*
G01*
X293990371Y-79434823D02*
G75*
G03*
X293738113Y-79503121I2J-500010D01*
G01*
X293035343Y-78854544D02*
G75*
G03*
X293738112Y-79503119I450510J-216879D01*
G01*
X293035339Y-78854542D02*
G75*
G03*
X293084824Y-78637665I-450866J216959D01*
G01*
X293738112Y-76366523D02*
G75*
G03*
X293035339Y-77015102I-252259J-431700D01*
G01*
X293084812Y-77231980D02*
G75*
G03*
X293035338Y-77015102I-500289J-43D01*
G01*
X172659822Y-39131980D02*
X172659822Y-40537664D01*
X171754275Y-41334822D02*
X170165371Y-41334822D01*
X170165371Y-38334823D02*
X171754276Y-38334823D01*
X169259824Y-40537664D02*
X169259824Y-39131980D01*
X172659823Y-40537664D02*
G75*
G03*
X172709308Y-40754542I499989J-2D01*
G01*
X172006534Y-41403121D02*
G75*
G03*
X172709306Y-40754541I252259J431700D01*
G01*
X172709307Y-38915102D02*
G75*
G03*
X172659822Y-39131979I450505J-216876D01*
G01*
X172709307Y-38915102D02*
G75*
G03*
X172006534Y-38266524I-450514J216878D01*
G01*
X171754276Y-38334823D02*
G75*
G03*
X172006534Y-38266524I-3J500009D01*
G01*
X172006534Y-41403121D02*
G75*
G03*
X171754275Y-41334822I-252261J-431710D01*
G01*
X169913112Y-38266523D02*
G75*
G03*
X170165370Y-38334822I252261J431710D01*
G01*
X170165371Y-41334823D02*
G75*
G03*
X169913113Y-41403121I2J-500010D01*
G01*
X169210343Y-40754544D02*
G75*
G03*
X169913112Y-41403119I450510J-216879D01*
G01*
X169210339Y-40754542D02*
G75*
G03*
X169259824Y-40537665I-450866J216959D01*
G01*
X169913112Y-38266523D02*
G75*
G03*
X169210339Y-38915102I-252259J-431700D01*
G01*
X169259812Y-39131980D02*
G75*
G03*
X169210338Y-38915102I-500289J-43D01*
G01*
X296484822Y-39131980D02*
X296484822Y-40537664D01*
X295579275Y-41334822D02*
X293990371Y-41334822D01*
X293990371Y-38334823D02*
X295579276Y-38334823D01*
X293084824Y-40537664D02*
X293084824Y-39131980D01*
X296484823Y-40537664D02*
G75*
G03*
X296534308Y-40754542I499989J-2D01*
G01*
X295831534Y-41403121D02*
G75*
G03*
X296534306Y-40754541I252259J431700D01*
G01*
X296534307Y-38915102D02*
G75*
G03*
X296484822Y-39131979I450505J-216876D01*
G01*
X296534307Y-38915102D02*
G75*
G03*
X295831534Y-38266524I-450514J216878D01*
G01*
X295579276Y-38334823D02*
G75*
G03*
X295831534Y-38266524I-3J500009D01*
G01*
X295831534Y-41403121D02*
G75*
G03*
X295579275Y-41334822I-252261J-431710D01*
G01*
X293738112Y-38266523D02*
G75*
G03*
X293990370Y-38334822I252261J431710D01*
G01*
X293990371Y-41334823D02*
G75*
G03*
X293738113Y-41403121I2J-500010D01*
G01*
X293035343Y-40754544D02*
G75*
G03*
X293738112Y-41403119I450510J-216879D01*
G01*
X293035339Y-40754542D02*
G75*
G03*
X293084824Y-40537665I-450866J216959D01*
G01*
X293738112Y-38266523D02*
G75*
G03*
X293035339Y-38915102I-252259J-431700D01*
G01*
X293084812Y-39131980D02*
G75*
G03*
X293035338Y-38915102I-500289J-43D01*
G01*
X26384824Y-21487666D02*
X26384824Y-20081982D01*
X27290371Y-19284824D02*
X28879275Y-19284824D01*
X28879275Y-22284823D02*
X27290370Y-22284823D01*
X29784822Y-20081982D02*
X29784822Y-21487666D01*
X26384823Y-20081982D02*
G75*
G03*
X26335338Y-19865104I-499989J2D01*
G01*
X27038112Y-19216525D02*
G75*
G03*
X26335340Y-19865105I-252259J-431700D01*
G01*
X26335339Y-21704544D02*
G75*
G03*
X26384824Y-21487667I-450505J216876D01*
G01*
X26335339Y-21704544D02*
G75*
G03*
X27038112Y-22353122I450514J-216878D01*
G01*
X27290370Y-22284823D02*
G75*
G03*
X27038112Y-22353122I3J-500009D01*
G01*
X27038112Y-19216525D02*
G75*
G03*
X27290371Y-19284824I252261J431710D01*
G01*
X29131534Y-22353123D02*
G75*
G03*
X28879276Y-22284824I-252261J-431710D01*
G01*
X28879275Y-19284823D02*
G75*
G03*
X29131533Y-19216525I-2J500010D01*
G01*
X29834303Y-19865102D02*
G75*
G03*
X29131534Y-19216527I-450510J216879D01*
G01*
X29834307Y-19865104D02*
G75*
G03*
X29784822Y-20081981I450866J-216959D01*
G01*
X29131534Y-22353123D02*
G75*
G03*
X29834307Y-21704544I252259J431700D01*
G01*
X29784834Y-21487666D02*
G75*
G03*
X29834308Y-21704544I500289J43D01*
G01*
X134559822Y-39131980D02*
X134559822Y-40537664D01*
X133654275Y-41334822D02*
X132065371Y-41334822D01*
X132065371Y-38334823D02*
X133654276Y-38334823D01*
X131159824Y-40537664D02*
X131159824Y-39131980D01*
X134559823Y-40537664D02*
G75*
G03*
X134609308Y-40754542I499989J-2D01*
G01*
X133906534Y-41403121D02*
G75*
G03*
X134609306Y-40754541I252259J431700D01*
G01*
X134609307Y-38915102D02*
G75*
G03*
X134559822Y-39131979I450505J-216876D01*
G01*
X134609307Y-38915102D02*
G75*
G03*
X133906534Y-38266524I-450514J216878D01*
G01*
X133654276Y-38334823D02*
G75*
G03*
X133906534Y-38266524I-3J500009D01*
G01*
X133906534Y-41403121D02*
G75*
G03*
X133654275Y-41334822I-252261J-431710D01*
G01*
X131813112Y-38266523D02*
G75*
G03*
X132065370Y-38334822I252261J431710D01*
G01*
X132065371Y-41334823D02*
G75*
G03*
X131813113Y-41403121I2J-500010D01*
G01*
X131110343Y-40754544D02*
G75*
G03*
X131813112Y-41403119I450510J-216879D01*
G01*
X131110339Y-40754542D02*
G75*
G03*
X131159824Y-40537665I-450866J216959D01*
G01*
X131813112Y-38266523D02*
G75*
G03*
X131110339Y-38915102I-252259J-431700D01*
G01*
X131159812Y-39131980D02*
G75*
G03*
X131110338Y-38915102I-500289J-43D01*
G01*
X78772324Y-59587666D02*
X78772324Y-58181982D01*
X79677871Y-57384824D02*
X81266775Y-57384824D01*
X81266775Y-60384823D02*
X79677870Y-60384823D01*
X82172322Y-58181982D02*
X82172322Y-59587666D01*
X78772323Y-58181982D02*
G75*
G03*
X78722838Y-57965104I-499989J2D01*
G01*
X79425612Y-57316525D02*
G75*
G03*
X78722840Y-57965105I-252259J-431700D01*
G01*
X78722839Y-59804544D02*
G75*
G03*
X78772324Y-59587667I-450505J216876D01*
G01*
X78722839Y-59804544D02*
G75*
G03*
X79425612Y-60453122I450514J-216878D01*
G01*
X79677870Y-60384823D02*
G75*
G03*
X79425612Y-60453122I3J-500009D01*
G01*
X79425612Y-57316525D02*
G75*
G03*
X79677871Y-57384824I252261J431710D01*
G01*
X81519034Y-60453123D02*
G75*
G03*
X81266776Y-60384824I-252261J-431710D01*
G01*
X81266775Y-57384823D02*
G75*
G03*
X81519033Y-57316525I-2J500010D01*
G01*
X82221803Y-57965102D02*
G75*
G03*
X81519034Y-57316527I-450510J216879D01*
G01*
X82221807Y-57965104D02*
G75*
G03*
X82172322Y-58181981I450866J-216959D01*
G01*
X81519034Y-60453123D02*
G75*
G03*
X82221807Y-59804544I252259J431700D01*
G01*
X82172334Y-59587666D02*
G75*
G03*
X82221808Y-59804544I500289J43D01*
G01*
X121634824Y-21487666D02*
X121634824Y-20081982D01*
X122540371Y-19284824D02*
X124129275Y-19284824D01*
X124129275Y-22284823D02*
X122540370Y-22284823D01*
X125034822Y-20081982D02*
X125034822Y-21487666D01*
X121634823Y-20081982D02*
G75*
G03*
X121585338Y-19865104I-499989J2D01*
G01*
X122288112Y-19216525D02*
G75*
G03*
X121585340Y-19865105I-252259J-431700D01*
G01*
X121585339Y-21704544D02*
G75*
G03*
X121634824Y-21487667I-450505J216876D01*
G01*
X121585339Y-21704544D02*
G75*
G03*
X122288112Y-22353122I450514J-216878D01*
G01*
X122540370Y-22284823D02*
G75*
G03*
X122288112Y-22353122I3J-500009D01*
G01*
X122288112Y-19216525D02*
G75*
G03*
X122540371Y-19284824I252261J431710D01*
G01*
X124381534Y-22353123D02*
G75*
G03*
X124129276Y-22284824I-252261J-431710D01*
G01*
X124129275Y-19284823D02*
G75*
G03*
X124381533Y-19216525I-2J500010D01*
G01*
X125084303Y-19865102D02*
G75*
G03*
X124381534Y-19216527I-450510J216879D01*
G01*
X125084307Y-19865104D02*
G75*
G03*
X125034822Y-20081981I450866J-216959D01*
G01*
X124381534Y-22353123D02*
G75*
G03*
X125084307Y-21704544I252259J431700D01*
G01*
X125034834Y-21487666D02*
G75*
G03*
X125084308Y-21704544I500289J43D01*
G01*
X191709822Y-39131980D02*
X191709822Y-40537664D01*
X190804275Y-41334822D02*
X189215371Y-41334822D01*
X189215371Y-38334823D02*
X190804276Y-38334823D01*
X188309824Y-40537664D02*
X188309824Y-39131980D01*
X191709823Y-40537664D02*
G75*
G03*
X191759308Y-40754542I499989J-2D01*
G01*
X191056534Y-41403121D02*
G75*
G03*
X191759306Y-40754541I252259J431700D01*
G01*
X191759307Y-38915102D02*
G75*
G03*
X191709822Y-39131979I450505J-216876D01*
G01*
X191759307Y-38915102D02*
G75*
G03*
X191056534Y-38266524I-450514J216878D01*
G01*
X190804276Y-38334823D02*
G75*
G03*
X191056534Y-38266524I-3J500009D01*
G01*
X191056534Y-41403121D02*
G75*
G03*
X190804275Y-41334822I-252261J-431710D01*
G01*
X188963112Y-38266523D02*
G75*
G03*
X189215370Y-38334822I252261J431710D01*
G01*
X189215371Y-41334823D02*
G75*
G03*
X188963113Y-41403121I2J-500010D01*
G01*
X188260343Y-40754544D02*
G75*
G03*
X188963112Y-41403119I450510J-216879D01*
G01*
X188260339Y-40754542D02*
G75*
G03*
X188309824Y-40537665I-450866J216959D01*
G01*
X188963112Y-38266523D02*
G75*
G03*
X188260339Y-38915102I-252259J-431700D01*
G01*
X188309812Y-39131980D02*
G75*
G03*
X188260338Y-38915102I-500289J-43D01*
G01*
X96459822Y-39131980D02*
X96459822Y-40537664D01*
X95554275Y-41334822D02*
X93965371Y-41334822D01*
X93965371Y-38334823D02*
X95554276Y-38334823D01*
X93059824Y-40537664D02*
X93059824Y-39131980D01*
X96459823Y-40537664D02*
G75*
G03*
X96509308Y-40754542I499989J-2D01*
G01*
X95806534Y-41403121D02*
G75*
G03*
X96509306Y-40754541I252259J431700D01*
G01*
X96509307Y-38915102D02*
G75*
G03*
X96459822Y-39131979I450505J-216876D01*
G01*
X96509307Y-38915102D02*
G75*
G03*
X95806534Y-38266524I-450514J216878D01*
G01*
X95554276Y-38334823D02*
G75*
G03*
X95806534Y-38266524I-3J500009D01*
G01*
X95806534Y-41403121D02*
G75*
G03*
X95554275Y-41334822I-252261J-431710D01*
G01*
X93713112Y-38266523D02*
G75*
G03*
X93965370Y-38334822I252261J431710D01*
G01*
X93965371Y-41334823D02*
G75*
G03*
X93713113Y-41403121I2J-500010D01*
G01*
X93010343Y-40754544D02*
G75*
G03*
X93713112Y-41403119I450510J-216879D01*
G01*
X93010339Y-40754542D02*
G75*
G03*
X93059824Y-40537665I-450866J216959D01*
G01*
X93713112Y-38266523D02*
G75*
G03*
X93010339Y-38915102I-252259J-431700D01*
G01*
X93059812Y-39131980D02*
G75*
G03*
X93010338Y-38915102I-500289J-43D01*
G01*
X22641072Y-77231980D02*
X22641072Y-78637664D01*
X21735525Y-79434822D02*
X20146621Y-79434822D01*
X20146621Y-76434823D02*
X21735526Y-76434823D01*
X19241074Y-78637664D02*
X19241074Y-77231980D01*
X22641073Y-78637664D02*
G75*
G03*
X22690558Y-78854542I499989J-2D01*
G01*
X21987784Y-79503121D02*
G75*
G03*
X22690556Y-78854541I252259J431700D01*
G01*
X22690557Y-77015102D02*
G75*
G03*
X22641072Y-77231979I450505J-216876D01*
G01*
X22690557Y-77015102D02*
G75*
G03*
X21987784Y-76366524I-450514J216878D01*
G01*
X21735526Y-76434823D02*
G75*
G03*
X21987784Y-76366524I-3J500009D01*
G01*
X21987784Y-79503121D02*
G75*
G03*
X21735525Y-79434822I-252261J-431710D01*
G01*
X19894362Y-76366523D02*
G75*
G03*
X20146620Y-76434822I252261J431710D01*
G01*
X20146621Y-79434823D02*
G75*
G03*
X19894363Y-79503121I2J-500010D01*
G01*
X19191593Y-78854544D02*
G75*
G03*
X19894362Y-79503119I450510J-216879D01*
G01*
X19191589Y-78854542D02*
G75*
G03*
X19241074Y-78637665I-450866J216959D01*
G01*
X19894362Y-76366523D02*
G75*
G03*
X19191589Y-77015102I-252259J-431700D01*
G01*
X19241062Y-77231980D02*
G75*
G03*
X19191588Y-77015102I-500289J-43D01*
G01*
X116872324Y-59587666D02*
X116872324Y-58181982D01*
X117777871Y-57384824D02*
X119366775Y-57384824D01*
X119366775Y-60384823D02*
X117777870Y-60384823D01*
X120272322Y-58181982D02*
X120272322Y-59587666D01*
X116872323Y-58181982D02*
G75*
G03*
X116822838Y-57965104I-499989J2D01*
G01*
X117525612Y-57316525D02*
G75*
G03*
X116822840Y-57965105I-252259J-431700D01*
G01*
X116822839Y-59804544D02*
G75*
G03*
X116872324Y-59587667I-450505J216876D01*
G01*
X116822839Y-59804544D02*
G75*
G03*
X117525612Y-60453122I450514J-216878D01*
G01*
X117777870Y-60384823D02*
G75*
G03*
X117525612Y-60453122I3J-500009D01*
G01*
X117525612Y-57316525D02*
G75*
G03*
X117777871Y-57384824I252261J431710D01*
G01*
X119619034Y-60453123D02*
G75*
G03*
X119366776Y-60384824I-252261J-431710D01*
G01*
X119366775Y-57384823D02*
G75*
G03*
X119619033Y-57316525I-2J500010D01*
G01*
X120321803Y-57965102D02*
G75*
G03*
X119619034Y-57316527I-450510J216879D01*
G01*
X120321807Y-57965104D02*
G75*
G03*
X120272322Y-58181981I450866J-216959D01*
G01*
X119619034Y-60453123D02*
G75*
G03*
X120321807Y-59804544I252259J431700D01*
G01*
X120272334Y-59587666D02*
G75*
G03*
X120321808Y-59804544I500289J43D01*
G01*
X154972324Y-59587666D02*
X154972324Y-58181982D01*
X155877871Y-57384824D02*
X157466775Y-57384824D01*
X157466775Y-60384823D02*
X155877870Y-60384823D01*
X158372322Y-58181982D02*
X158372322Y-59587666D01*
X154972323Y-58181982D02*
G75*
G03*
X154922838Y-57965104I-499989J2D01*
G01*
X155625612Y-57316525D02*
G75*
G03*
X154922840Y-57965105I-252259J-431700D01*
G01*
X154922839Y-59804544D02*
G75*
G03*
X154972324Y-59587667I-450505J216876D01*
G01*
X154922839Y-59804544D02*
G75*
G03*
X155625612Y-60453122I450514J-216878D01*
G01*
X155877870Y-60384823D02*
G75*
G03*
X155625612Y-60453122I3J-500009D01*
G01*
X155625612Y-57316525D02*
G75*
G03*
X155877871Y-57384824I252261J431710D01*
G01*
X157719034Y-60453123D02*
G75*
G03*
X157466776Y-60384824I-252261J-431710D01*
G01*
X157466775Y-57384823D02*
G75*
G03*
X157719033Y-57316525I-2J500010D01*
G01*
X158421803Y-57965102D02*
G75*
G03*
X157719034Y-57316527I-450510J216879D01*
G01*
X158421807Y-57965104D02*
G75*
G03*
X158372322Y-58181981I450866J-216959D01*
G01*
X157719034Y-60453123D02*
G75*
G03*
X158421807Y-59804544I252259J431700D01*
G01*
X158372334Y-59587666D02*
G75*
G03*
X158421808Y-59804544I500289J43D01*
G01*
X59722324Y-59587666D02*
X59722324Y-58181982D01*
X60627871Y-57384824D02*
X62216775Y-57384824D01*
X62216775Y-60384823D02*
X60627870Y-60384823D01*
X63122322Y-58181982D02*
X63122322Y-59587666D01*
X59722323Y-58181982D02*
G75*
G03*
X59672838Y-57965104I-499989J2D01*
G01*
X60375612Y-57316525D02*
G75*
G03*
X59672840Y-57965105I-252259J-431700D01*
G01*
X59672839Y-59804544D02*
G75*
G03*
X59722324Y-59587667I-450505J216876D01*
G01*
X59672839Y-59804544D02*
G75*
G03*
X60375612Y-60453122I450514J-216878D01*
G01*
X60627870Y-60384823D02*
G75*
G03*
X60375612Y-60453122I3J-500009D01*
G01*
X60375612Y-57316525D02*
G75*
G03*
X60627871Y-57384824I252261J431710D01*
G01*
X62469034Y-60453123D02*
G75*
G03*
X62216776Y-60384824I-252261J-431710D01*
G01*
X62216775Y-57384823D02*
G75*
G03*
X62469033Y-57316525I-2J500010D01*
G01*
X63171803Y-57965102D02*
G75*
G03*
X62469034Y-57316527I-450510J216879D01*
G01*
X63171807Y-57965104D02*
G75*
G03*
X63122322Y-58181981I450866J-216959D01*
G01*
X62469034Y-60453123D02*
G75*
G03*
X63171807Y-59804544I252259J431700D01*
G01*
X63122334Y-59587666D02*
G75*
G03*
X63171808Y-59804544I500289J43D01*
G01*
X58359822Y-39131980D02*
X58359822Y-40537664D01*
X57454275Y-41334822D02*
X55865371Y-41334822D01*
X55865371Y-38334823D02*
X57454276Y-38334823D01*
X54959824Y-40537664D02*
X54959824Y-39131980D01*
X58359823Y-40537664D02*
G75*
G03*
X58409308Y-40754542I499989J-2D01*
G01*
X57706534Y-41403121D02*
G75*
G03*
X58409306Y-40754541I252259J431700D01*
G01*
X58409307Y-38915102D02*
G75*
G03*
X58359822Y-39131979I450505J-216876D01*
G01*
X58409307Y-38915102D02*
G75*
G03*
X57706534Y-38266524I-450514J216878D01*
G01*
X57454276Y-38334823D02*
G75*
G03*
X57706534Y-38266524I-3J500009D01*
G01*
X57706534Y-41403121D02*
G75*
G03*
X57454275Y-41334822I-252261J-431710D01*
G01*
X55613112Y-38266523D02*
G75*
G03*
X55865370Y-38334822I252261J431710D01*
G01*
X55865371Y-41334823D02*
G75*
G03*
X55613113Y-41403121I2J-500010D01*
G01*
X54910343Y-40754544D02*
G75*
G03*
X55613112Y-41403119I450510J-216879D01*
G01*
X54910339Y-40754542D02*
G75*
G03*
X54959824Y-40537665I-450866J216959D01*
G01*
X55613112Y-38266523D02*
G75*
G03*
X54910339Y-38915102I-252259J-431700D01*
G01*
X54959812Y-39131980D02*
G75*
G03*
X54910338Y-38915102I-500289J-43D01*
G01*
X64484824Y-21487666D02*
X64484824Y-20081982D01*
X65390371Y-19284824D02*
X66979275Y-19284824D01*
X66979275Y-22284823D02*
X65390370Y-22284823D01*
X67884822Y-20081982D02*
X67884822Y-21487666D01*
X64484823Y-20081982D02*
G75*
G03*
X64435338Y-19865104I-499989J2D01*
G01*
X65138112Y-19216525D02*
G75*
G03*
X64435340Y-19865105I-252259J-431700D01*
G01*
X64435339Y-21704544D02*
G75*
G03*
X64484824Y-21487667I-450505J216876D01*
G01*
X64435339Y-21704544D02*
G75*
G03*
X65138112Y-22353122I450514J-216878D01*
G01*
X65390370Y-22284823D02*
G75*
G03*
X65138112Y-22353122I3J-500009D01*
G01*
X65138112Y-19216525D02*
G75*
G03*
X65390371Y-19284824I252261J431710D01*
G01*
X67231534Y-22353123D02*
G75*
G03*
X66979276Y-22284824I-252261J-431710D01*
G01*
X66979275Y-19284823D02*
G75*
G03*
X67231533Y-19216525I-2J500010D01*
G01*
X67934303Y-19865102D02*
G75*
G03*
X67231534Y-19216527I-450510J216879D01*
G01*
X67934307Y-19865104D02*
G75*
G03*
X67884822Y-20081981I450866J-216959D01*
G01*
X67231534Y-22353123D02*
G75*
G03*
X67934307Y-21704544I252259J431700D01*
G01*
X67884834Y-21487666D02*
G75*
G03*
X67934308Y-21704544I500289J43D01*
G01*
X272672322Y-39131980D02*
X272672322Y-40537664D01*
X271766775Y-41334822D02*
X270177871Y-41334822D01*
X270177871Y-38334823D02*
X271766776Y-38334823D01*
X269272324Y-40537664D02*
X269272324Y-39131980D01*
X272672323Y-40537664D02*
G75*
G03*
X272721808Y-40754542I499989J-2D01*
G01*
X272019034Y-41403121D02*
G75*
G03*
X272721806Y-40754541I252259J431700D01*
G01*
X272721807Y-38915102D02*
G75*
G03*
X272672322Y-39131979I450505J-216876D01*
G01*
X272721807Y-38915102D02*
G75*
G03*
X272019034Y-38266524I-450514J216878D01*
G01*
X271766776Y-38334823D02*
G75*
G03*
X272019034Y-38266524I-3J500009D01*
G01*
X272019034Y-41403121D02*
G75*
G03*
X271766775Y-41334822I-252261J-431710D01*
G01*
X269925612Y-38266523D02*
G75*
G03*
X270177870Y-38334822I252261J431710D01*
G01*
X270177871Y-41334823D02*
G75*
G03*
X269925613Y-41403121I2J-500010D01*
G01*
X269222843Y-40754544D02*
G75*
G03*
X269925612Y-41403119I450510J-216879D01*
G01*
X269222839Y-40754542D02*
G75*
G03*
X269272324Y-40537665I-450866J216959D01*
G01*
X269925612Y-38266523D02*
G75*
G03*
X269222839Y-38915102I-252259J-431700D01*
G01*
X269272312Y-39131980D02*
G75*
G03*
X269222838Y-38915102I-500289J-43D01*
G01*
X293084824Y-59587666D02*
X293084824Y-58181982D01*
X293990371Y-57384824D02*
X295579275Y-57384824D01*
X295579275Y-60384823D02*
X293990370Y-60384823D01*
X296484822Y-58181982D02*
X296484822Y-59587666D01*
X293084823Y-58181982D02*
G75*
G03*
X293035338Y-57965104I-499989J2D01*
G01*
X293738112Y-57316525D02*
G75*
G03*
X293035340Y-57965105I-252259J-431700D01*
G01*
X293035339Y-59804544D02*
G75*
G03*
X293084824Y-59587667I-450505J216876D01*
G01*
X293035339Y-59804544D02*
G75*
G03*
X293738112Y-60453122I450514J-216878D01*
G01*
X293990370Y-60384823D02*
G75*
G03*
X293738112Y-60453122I3J-500009D01*
G01*
X293738112Y-57316525D02*
G75*
G03*
X293990371Y-57384824I252261J431710D01*
G01*
X295831534Y-60453123D02*
G75*
G03*
X295579276Y-60384824I-252261J-431710D01*
G01*
X295579275Y-57384823D02*
G75*
G03*
X295831533Y-57316525I-2J500010D01*
G01*
X296534303Y-57965102D02*
G75*
G03*
X295831534Y-57316527I-450510J216879D01*
G01*
X296534307Y-57965104D02*
G75*
G03*
X296484822Y-58181981I450866J-216959D01*
G01*
X295831534Y-60453123D02*
G75*
G03*
X296534307Y-59804544I252259J431700D01*
G01*
X296484834Y-59587666D02*
G75*
G03*
X296534308Y-59804544I500289J43D01*
G01*
X135922324Y-59587666D02*
X135922324Y-58181982D01*
X136827871Y-57384824D02*
X138416775Y-57384824D01*
X138416775Y-60384823D02*
X136827870Y-60384823D01*
X139322322Y-58181982D02*
X139322322Y-59587666D01*
X135922323Y-58181982D02*
G75*
G03*
X135872838Y-57965104I-499989J2D01*
G01*
X136575612Y-57316525D02*
G75*
G03*
X135872840Y-57965105I-252259J-431700D01*
G01*
X135872839Y-59804544D02*
G75*
G03*
X135922324Y-59587667I-450505J216876D01*
G01*
X135872839Y-59804544D02*
G75*
G03*
X136575612Y-60453122I450514J-216878D01*
G01*
X136827870Y-60384823D02*
G75*
G03*
X136575612Y-60453122I3J-500009D01*
G01*
X136575612Y-57316525D02*
G75*
G03*
X136827871Y-57384824I252261J431710D01*
G01*
X138669034Y-60453123D02*
G75*
G03*
X138416776Y-60384824I-252261J-431710D01*
G01*
X138416775Y-57384823D02*
G75*
G03*
X138669033Y-57316525I-2J500010D01*
G01*
X139371803Y-57965102D02*
G75*
G03*
X138669034Y-57316527I-450510J216879D01*
G01*
X139371807Y-57965104D02*
G75*
G03*
X139322322Y-58181981I450866J-216959D01*
G01*
X138669034Y-60453123D02*
G75*
G03*
X139371807Y-59804544I252259J431700D01*
G01*
X139322334Y-59587666D02*
G75*
G03*
X139371808Y-59804544I500289J43D01*
G01*
X235934824Y-21487666D02*
X235934824Y-20081982D01*
X236840371Y-19284824D02*
X238429275Y-19284824D01*
X238429275Y-22284823D02*
X236840370Y-22284823D01*
X239334822Y-20081982D02*
X239334822Y-21487666D01*
X235934823Y-20081982D02*
G75*
G03*
X235885338Y-19865104I-499989J2D01*
G01*
X236588112Y-19216525D02*
G75*
G03*
X235885340Y-19865105I-252259J-431700D01*
G01*
X235885339Y-21704544D02*
G75*
G03*
X235934824Y-21487667I-450505J216876D01*
G01*
X235885339Y-21704544D02*
G75*
G03*
X236588112Y-22353122I450514J-216878D01*
G01*
X236840370Y-22284823D02*
G75*
G03*
X236588112Y-22353122I3J-500009D01*
G01*
X236588112Y-19216525D02*
G75*
G03*
X236840371Y-19284824I252261J431710D01*
G01*
X238681534Y-22353123D02*
G75*
G03*
X238429276Y-22284824I-252261J-431710D01*
G01*
X238429275Y-19284823D02*
G75*
G03*
X238681533Y-19216525I-2J500010D01*
G01*
X239384303Y-19865102D02*
G75*
G03*
X238681534Y-19216527I-450510J216879D01*
G01*
X239384307Y-19865104D02*
G75*
G03*
X239334822Y-20081981I450866J-216959D01*
G01*
X238681534Y-22353123D02*
G75*
G03*
X239384307Y-21704544I252259J431700D01*
G01*
X239334834Y-21487666D02*
G75*
G03*
X239384308Y-21704544I500289J43D01*
G01*
X212122324Y-59587666D02*
X212122324Y-58181982D01*
X213027871Y-57384824D02*
X214616775Y-57384824D01*
X214616775Y-60384823D02*
X213027870Y-60384823D01*
X215522322Y-58181982D02*
X215522322Y-59587666D01*
X212122323Y-58181982D02*
G75*
G03*
X212072838Y-57965104I-499989J2D01*
G01*
X212775612Y-57316525D02*
G75*
G03*
X212072840Y-57965105I-252259J-431700D01*
G01*
X212072839Y-59804544D02*
G75*
G03*
X212122324Y-59587667I-450505J216876D01*
G01*
X212072839Y-59804544D02*
G75*
G03*
X212775612Y-60453122I450514J-216878D01*
G01*
X213027870Y-60384823D02*
G75*
G03*
X212775612Y-60453122I3J-500009D01*
G01*
X212775612Y-57316525D02*
G75*
G03*
X213027871Y-57384824I252261J431710D01*
G01*
X214869034Y-60453123D02*
G75*
G03*
X214616776Y-60384824I-252261J-431710D01*
G01*
X214616775Y-57384823D02*
G75*
G03*
X214869033Y-57316525I-2J500010D01*
G01*
X215571803Y-57965102D02*
G75*
G03*
X214869034Y-57316527I-450510J216879D01*
G01*
X215571807Y-57965104D02*
G75*
G03*
X215522322Y-58181981I450866J-216959D01*
G01*
X214869034Y-60453123D02*
G75*
G03*
X215571807Y-59804544I252259J431700D01*
G01*
X215522334Y-59587666D02*
G75*
G03*
X215571808Y-59804544I500289J43D01*
G01*
X293084824Y-21487666D02*
X293084824Y-20081982D01*
X293990371Y-19284824D02*
X295579275Y-19284824D01*
X295579275Y-22284823D02*
X293990370Y-22284823D01*
X296484822Y-20081982D02*
X296484822Y-21487666D01*
X293084823Y-20081982D02*
G75*
G03*
X293035338Y-19865104I-499989J2D01*
G01*
X293738112Y-19216525D02*
G75*
G03*
X293035340Y-19865105I-252259J-431700D01*
G01*
X293035339Y-21704544D02*
G75*
G03*
X293084824Y-21487667I-450505J216876D01*
G01*
X293035339Y-21704544D02*
G75*
G03*
X293738112Y-22353122I450514J-216878D01*
G01*
X293990370Y-22284823D02*
G75*
G03*
X293738112Y-22353122I3J-500009D01*
G01*
X293738112Y-19216525D02*
G75*
G03*
X293990371Y-19284824I252261J431710D01*
G01*
X295831534Y-22353123D02*
G75*
G03*
X295579276Y-22284824I-252261J-431710D01*
G01*
X295579275Y-19284823D02*
G75*
G03*
X295831533Y-19216525I-2J500010D01*
G01*
X296534303Y-19865102D02*
G75*
G03*
X295831534Y-19216527I-450510J216879D01*
G01*
X296534307Y-19865104D02*
G75*
G03*
X296484822Y-20081981I450866J-216959D01*
G01*
X295831534Y-22353123D02*
G75*
G03*
X296534307Y-21704544I252259J431700D01*
G01*
X296484834Y-21487666D02*
G75*
G03*
X296534308Y-21704544I500289J43D01*
G01*
X153609822Y-39131980D02*
X153609822Y-40537664D01*
X152704275Y-41334822D02*
X151115371Y-41334822D01*
X151115371Y-38334823D02*
X152704276Y-38334823D01*
X150209824Y-40537664D02*
X150209824Y-39131980D01*
X153609823Y-40537664D02*
G75*
G03*
X153659308Y-40754542I499989J-2D01*
G01*
X152956534Y-41403121D02*
G75*
G03*
X153659306Y-40754541I252259J431700D01*
G01*
X153659307Y-38915102D02*
G75*
G03*
X153609822Y-39131979I450505J-216876D01*
G01*
X153659307Y-38915102D02*
G75*
G03*
X152956534Y-38266524I-450514J216878D01*
G01*
X152704276Y-38334823D02*
G75*
G03*
X152956534Y-38266524I-3J500009D01*
G01*
X152956534Y-41403121D02*
G75*
G03*
X152704275Y-41334822I-252261J-431710D01*
G01*
X150863112Y-38266523D02*
G75*
G03*
X151115370Y-38334822I252261J431710D01*
G01*
X151115371Y-41334823D02*
G75*
G03*
X150863113Y-41403121I2J-500010D01*
G01*
X150160343Y-40754544D02*
G75*
G03*
X150863112Y-41403119I450510J-216879D01*
G01*
X150160339Y-40754542D02*
G75*
G03*
X150209824Y-40537665I-450866J216959D01*
G01*
X150863112Y-38266523D02*
G75*
G03*
X150160339Y-38915102I-252259J-431700D01*
G01*
X150209812Y-39131980D02*
G75*
G03*
X150160338Y-38915102I-500289J-43D01*
G01*
X293084824Y-97687666D02*
X293084824Y-96281982D01*
X293990371Y-95484824D02*
X295579275Y-95484824D01*
X295579275Y-98484823D02*
X293990370Y-98484823D01*
X296484822Y-96281982D02*
X296484822Y-97687666D01*
X293084823Y-96281982D02*
G75*
G03*
X293035338Y-96065104I-499989J2D01*
G01*
X293738112Y-95416525D02*
G75*
G03*
X293035340Y-96065105I-252259J-431700D01*
G01*
X293035339Y-97904544D02*
G75*
G03*
X293084824Y-97687667I-450505J216876D01*
G01*
X293035339Y-97904544D02*
G75*
G03*
X293738112Y-98553122I450514J-216878D01*
G01*
X293990370Y-98484823D02*
G75*
G03*
X293738112Y-98553122I3J-500009D01*
G01*
X293738112Y-95416525D02*
G75*
G03*
X293990371Y-95484824I252261J431710D01*
G01*
X295831534Y-98553123D02*
G75*
G03*
X295579276Y-98484824I-252261J-431710D01*
G01*
X295579275Y-95484823D02*
G75*
G03*
X295831533Y-95416525I-2J500010D01*
G01*
X296534303Y-96065102D02*
G75*
G03*
X295831534Y-95416527I-450510J216879D01*
G01*
X296534307Y-96065104D02*
G75*
G03*
X296484822Y-96281981I450866J-216959D01*
G01*
X295831534Y-98553123D02*
G75*
G03*
X296534307Y-97904544I252259J431700D01*
G01*
X296484834Y-97687666D02*
G75*
G03*
X296534308Y-97904544I500289J43D01*
G01*
M02*
