M48
; DRILL file {KiCad (6.99.0-1912-g359c99991b)} date Mon Apr 17 10:31:32 2023
; FORMAT={-:-/ absolute / metric / decimal}
; #@! TF.CreationDate,2023-04-17T10:31:32+07:00
; #@! TF.GenerationSoftware,Kicad,Pcbnew,(6.99.0-1912-g359c99991b)
; #@! TF.FileFunction,MixedPlating,1,2
FMAT,2
METRIC
; #@! TA.AperFunction,Plated,PTH,ViaDrill
T1C0.250
; #@! TA.AperFunction,Plated,PTH,ComponentDrill
T2C0.250
; #@! TA.AperFunction,Plated,PTH,ComponentDrill
T3C0.350
; #@! TA.AperFunction,Plated,PTH,ComponentDrill
T4C1.000
; #@! TA.AperFunction,Plated,PTH,ComponentDrill
T5C3.000
; #@! TA.AperFunction,NonPlated,NPTH,ComponentDrill
T6C0.500
; #@! TA.AperFunction,NonPlated,NPTH,ComponentDrill
T7C1.750
; #@! TA.AperFunction,NonPlated,NPTH,ComponentDrill
T8C3.048
; #@! TA.AperFunction,NonPlated,NPTH,ComponentDrill
T9C3.988
%
G90
G05
T1
X4.0Y-21.535
X4.4Y-95.0
X4.5Y-25.5
X4.5Y-43.5
X4.6Y-77.185
X7.6Y-23.8
X7.8Y-62.5
X8.5Y-42.2
X9.2Y-59.635
X14.5Y-78.9
X16.0Y-80.4
X18.9Y-23.6
X20.0Y-43.5
X21.0Y-56.722
X21.1Y-20.2
X22.0Y-27.0
X22.0Y-63.6
X22.5Y-42.4
X23.2Y-59.635
X23.3Y-94.822
X24.5Y-37.672
X25.565Y-97.735
X26.0Y-77.185
X30.6Y-37.672
X30.6Y-41.6
X32.0Y-42.4
X32.0Y-43.5
X35.3Y-22.9
X35.4Y-59.635
X36.0Y-26.7
X36.0Y-56.722
X38.0Y-75.772
X38.0Y-77.185
X40.1Y-20.1
X40.6Y-61.7
X42.0Y-77.185
X42.4Y-75.772
X42.5Y-40.8
X43.0Y-98.95
X43.9Y-39.3
X44.0Y-97.735
X45.0Y-64.8
X45.0Y-78.9
X46.0Y-80.5
X46.6Y-67.8
X47.2Y-63.6
X47.2Y-94.822
X47.9Y-40.7
X49.0Y-42.4
X51.8Y-20.035
X52.0Y-27.4
X53.7Y-61.6
X54.3Y-58.2
X56.787Y-78.9
X58.3Y-77.8
X61.065Y-21.535
X61.55Y-40.8
X62.8Y-78.8
X63.0Y-39.5
X63.287Y-80.5
X66.0Y-100.101
X67.0Y-97.735
X67.1Y-40.7
X68.05Y-42.4
X69.6Y-80.5
X70.0Y-94.822
X71.1Y-95.8
X72.4Y-61.5
X73.5Y-58.2
X75.5Y-84.7
X75.837Y-78.9
X77.0Y-23.6
X78.2Y-20.1
X79.9Y-78.9
X80.6Y-40.8
X80.9Y-77.185
X82.1Y-39.6
X85.0Y-97.25
X86.0Y-40.9
X86.2Y-80.5
X87.1Y-42.4
X88.0Y-90.169
X90.8Y-97.1
X91.6Y-61.5
X92.6Y-58.2
X93.6Y-88.6
X96.0Y-77.185
X96.0Y-78.7
X96.3Y-23.6
X96.4Y-85.7
X96.8Y-74.8
X97.3Y-80.495
X97.4Y-20.2
X98.435Y-90.169
X98.935Y-89.169
X99.65Y-40.8
X101.0Y-39.6
X101.05Y-64.875
X102.0Y-77.185
X102.3Y-78.6
X102.887Y-91.192
X103.5Y-97.0
X105.0Y-80.0
X105.3Y-40.8
X105.5Y-82.3
X106.15Y-42.4
X107.335Y-91.422
X111.435Y-87.322
X111.6Y-58.2
X111.935Y-90.169
X112.035Y-94.822
X112.335Y-91.869
X114.0Y-77.185
X115.3Y-23.6
X116.4Y-20.1
X116.6Y-65.1
X116.621Y-90.17
X117.4Y-61.9
X117.5Y-94.822
X118.7Y-40.8
X120.1Y-39.4
X120.4Y-79.0
X120.535Y-91.622
X121.1Y-94.822
X121.49Y-78.6
X122.0Y-75.772
X123.25Y-94.822
X123.8Y-83.6
X124.2Y-40.7
X125.2Y-42.4
X126.1Y-84.0
X126.1Y-96.4
X127.3Y-93.3
X128.8Y-63.2
X130.6Y-58.3
X131.3Y-23.1
X132.65Y-77.185
X133.4Y-78.9
X135.4Y-20.0
X136.3Y-62.0
X137.65Y-78.5
X137.75Y-40.8
X138.5Y-79.5
X138.6Y-97.735
X139.3Y-39.6
X141.0Y-96.6
X141.5Y-94.822
X143.1Y-40.9
X144.25Y-42.4
X144.85Y-86.678
X145.0Y-94.822
X148.3Y-85.7
X148.4Y-61.5
X149.1Y-98.0
X149.7Y-58.3
X151.7Y-77.185
X152.4Y-79.0
X153.5Y-98.122
X154.4Y-23.7
X154.5Y-20.1
X156.7Y-78.5
X156.8Y-40.8
X157.7Y-79.5
X158.3Y-39.6
X162.3Y-40.7
X163.3Y-42.4
X165.7Y-61.4
X168.8Y-58.3
X170.75Y-77.185
X171.4Y-79.1
X173.4Y-23.7
X173.5Y-20.1
X175.75Y-78.5
X175.85Y-40.8
X176.6Y-79.5
X177.3Y-39.5
X181.6Y-40.7
X182.35Y-42.4
X184.6Y-83.3
X185.2Y-61.7
X187.8Y-58.2
X189.8Y-77.185
X190.7Y-78.9
X192.5Y-23.7
X192.6Y-20.1
X194.8Y-78.5
X194.9Y-40.8
X195.7Y-79.5
X196.4Y-39.6
X197.4Y-97.735
X200.5Y-40.7
X201.4Y-42.4
X204.0Y-99.7
X204.3Y-61.5
X206.5Y-23.2
X206.8Y-58.2
X208.85Y-77.185
X209.7Y-79.0
X212.0Y-20.0
X212.0Y-83.4
X213.85Y-78.5
X213.95Y-40.8
X215.5Y-39.6
X215.6Y-92.0
X216.6Y-78.3
X219.7Y-40.7
X220.45Y-42.4
X223.3Y-61.4
X225.9Y-58.3
X227.0Y-99.712
X228.5Y-75.772
X228.5Y-77.185
X230.0Y-23.6
X230.7Y-94.154
X231.0Y-20.1
X233.0Y-40.8
X233.3Y-80.559
X234.5Y-39.4
X236.4Y-75.772
X236.4Y-77.185
X238.3Y-40.8
X239.5Y-42.4
X241.756Y-77.185
X243.0Y-60.9
X244.5Y-56.722
X247.1Y-22.7
X249.7Y-94.5
X252.3Y-40.8
X253.0Y-82.7
X256.7Y-40.1
X257.0Y-78.7
X257.363Y-42.4
X258.7Y-58.1
X260.9Y-23.8
X261.0Y-20.0
X262.0Y-40.8
X262.1Y-68.0
X262.5Y-61.9
X263.0Y-97.735
X263.363Y-42.4
X266.2Y-65.0
X267.0Y-78.8
X267.95Y-77.185
X268.3Y-62.1
X269.8Y-95.1
X272.3Y-23.5
X272.6Y-66.5
X273.0Y-82.7
X276.0Y-41.3
X277.0Y-99.8
X281.175Y-42.4
X281.9Y-78.8
X284.2Y-61.4
X285.2Y-81.1
X285.2Y-82.7
X286.0Y-77.185
X286.9Y-39.085
X287.0Y-23.5
X287.175Y-42.4
X288.0Y-25.5
X295.0Y-99.8
X300.4Y-84.0
X300.5Y-25.0
X300.5Y-63.1
X301.8Y-36.0
X301.8Y-74.1
T2
X0.65Y-12.495
X0.65Y-13.495
X0.65Y-14.495
X3.031Y-88.695
X3.031Y-89.695
X3.031Y-90.695
X5.412Y-31.545
X5.412Y-32.545
X5.412Y-33.545
X7.794Y-50.595
X7.794Y-51.595
X7.794Y-52.595
X12.556Y-69.645
X12.556Y-70.645
X12.556Y-71.645
X16.15Y-9.955
X16.15Y-10.955
X16.15Y-11.955
X18.531Y-86.155
X18.531Y-87.155
X18.531Y-88.155
X19.7Y-12.495
X19.7Y-13.495
X19.7Y-14.495
X20.912Y-29.005
X20.912Y-30.005
X20.912Y-31.005
X23.294Y-48.055
X23.294Y-49.055
X23.294Y-50.055
X26.844Y-88.695
X26.844Y-89.695
X26.844Y-90.695
X28.056Y-67.105
X28.056Y-68.105
X28.056Y-69.105
X29.225Y-31.545
X29.225Y-32.545
X29.225Y-33.545
X33.987Y-50.595
X33.987Y-51.595
X33.987Y-52.595
X35.2Y-9.955
X35.2Y-10.955
X35.2Y-11.955
X38.75Y-12.495
X38.75Y-13.495
X38.75Y-14.495
X42.344Y-86.155
X42.344Y-87.155
X42.344Y-88.155
X43.512Y-69.645
X43.512Y-70.645
X43.512Y-71.645
X44.725Y-29.005
X44.725Y-30.005
X44.725Y-31.005
X48.275Y-31.545
X48.275Y-32.545
X48.275Y-33.545
X49.487Y-48.055
X49.487Y-49.055
X49.487Y-50.055
X50.656Y-88.695
X50.656Y-89.695
X50.656Y-90.695
X53.037Y-50.595
X53.037Y-51.595
X53.037Y-52.595
X54.25Y-9.955
X54.25Y-10.955
X54.25Y-11.955
X57.8Y-12.495
X57.8Y-13.495
X57.8Y-14.495
X59.012Y-67.105
X59.012Y-68.105
X59.012Y-69.105
X62.562Y-69.645
X62.562Y-70.645
X62.562Y-71.645
X63.775Y-29.005
X63.775Y-30.005
X63.775Y-31.005
X66.156Y-86.155
X66.156Y-87.155
X66.156Y-88.155
X67.325Y-31.545
X67.325Y-32.545
X67.325Y-33.545
X68.537Y-48.055
X68.537Y-49.055
X68.537Y-50.055
X72.087Y-50.595
X72.087Y-51.595
X72.087Y-52.595
X73.3Y-9.955
X73.3Y-10.955
X73.3Y-11.955
X76.85Y-12.495
X76.85Y-13.495
X76.85Y-14.495
X78.062Y-67.105
X78.062Y-68.105
X78.062Y-69.105
X81.612Y-69.645
X81.612Y-70.645
X81.612Y-71.645
X82.825Y-29.005
X82.825Y-30.005
X82.825Y-31.005
X86.375Y-31.545
X86.375Y-32.545
X86.375Y-33.545
X87.587Y-48.055
X87.587Y-49.055
X87.587Y-50.055
X91.137Y-50.595
X91.137Y-51.595
X91.137Y-52.595
X92.35Y-9.955
X92.35Y-10.955
X92.35Y-11.955
X95.9Y-12.495
X95.9Y-13.495
X95.9Y-14.495
X97.112Y-67.105
X97.112Y-68.105
X97.112Y-69.105
X100.662Y-69.645
X100.662Y-70.645
X100.662Y-71.645
X101.875Y-29.005
X101.875Y-30.005
X101.875Y-31.005
X105.425Y-31.545
X105.425Y-32.545
X105.425Y-33.545
X106.637Y-48.055
X106.637Y-49.055
X106.637Y-50.055
X110.187Y-50.595
X110.187Y-51.595
X110.187Y-52.595
X111.4Y-9.955
X111.4Y-10.955
X111.4Y-11.955
X114.95Y-12.495
X114.95Y-13.495
X114.95Y-14.495
X116.162Y-67.105
X116.162Y-68.105
X116.162Y-69.105
X119.712Y-69.645
X119.712Y-70.645
X119.712Y-71.645
X120.925Y-29.005
X120.925Y-30.005
X120.925Y-31.005
X122.094Y-88.695
X122.094Y-89.695
X122.094Y-90.695
X124.475Y-31.545
X124.475Y-32.545
X124.475Y-33.545
X125.687Y-48.055
X125.687Y-49.055
X125.687Y-50.055
X129.237Y-50.595
X129.237Y-51.595
X129.237Y-52.595
X130.45Y-9.955
X130.45Y-10.955
X130.45Y-11.955
X134.0Y-12.495
X134.0Y-13.495
X134.0Y-14.495
X135.212Y-67.105
X135.212Y-68.105
X135.212Y-69.105
X137.594Y-86.155
X137.594Y-87.155
X137.594Y-88.155
X138.762Y-69.645
X138.762Y-70.645
X138.762Y-71.645
X139.975Y-29.005
X139.975Y-30.005
X139.975Y-31.005
X143.525Y-31.545
X143.525Y-32.545
X143.525Y-33.545
X144.737Y-48.055
X144.737Y-49.055
X144.737Y-50.055
X148.287Y-50.595
X148.287Y-51.595
X148.287Y-52.595
X149.5Y-9.955
X149.5Y-10.955
X149.5Y-11.955
X153.05Y-12.495
X153.05Y-13.495
X153.05Y-14.495
X154.262Y-67.105
X154.262Y-68.105
X154.262Y-69.105
X157.812Y-69.645
X157.812Y-70.645
X157.812Y-71.645
X159.025Y-29.005
X159.025Y-30.005
X159.025Y-31.005
X162.575Y-31.545
X162.575Y-32.545
X162.575Y-33.545
X163.787Y-48.055
X163.787Y-49.055
X163.787Y-50.055
X167.337Y-50.595
X167.337Y-51.595
X167.337Y-52.595
X168.55Y-9.955
X168.55Y-10.955
X168.55Y-11.955
X172.1Y-12.495
X172.1Y-13.495
X172.1Y-14.495
X173.312Y-67.105
X173.312Y-68.105
X173.312Y-69.105
X176.862Y-69.645
X176.862Y-70.645
X176.862Y-71.645
X178.075Y-29.005
X178.075Y-30.005
X178.075Y-31.005
X181.625Y-31.545
X181.625Y-32.545
X181.625Y-33.545
X182.837Y-48.055
X182.837Y-49.055
X182.837Y-50.055
X186.387Y-50.595
X186.387Y-51.595
X186.387Y-52.595
X187.6Y-9.955
X187.6Y-10.955
X187.6Y-11.955
X191.15Y-12.495
X191.15Y-13.495
X191.15Y-14.495
X192.362Y-67.105
X192.362Y-68.105
X192.362Y-69.105
X193.531Y-88.695
X193.531Y-89.695
X193.531Y-90.695
X195.912Y-69.645
X195.912Y-70.645
X195.912Y-71.645
X197.125Y-29.005
X197.125Y-30.005
X197.125Y-31.005
X200.675Y-31.545
X200.675Y-32.545
X200.675Y-33.545
X201.887Y-48.055
X201.887Y-49.055
X201.887Y-50.055
X205.437Y-50.595
X205.437Y-51.595
X205.437Y-52.595
X206.65Y-9.955
X206.65Y-10.955
X206.65Y-11.955
X209.031Y-86.155
X209.031Y-87.155
X209.031Y-88.155
X210.2Y-12.495
X210.2Y-13.495
X210.2Y-14.495
X211.412Y-67.105
X211.412Y-68.105
X211.412Y-69.105
X214.962Y-69.645
X214.962Y-70.645
X214.962Y-71.645
X216.175Y-29.005
X216.175Y-30.005
X216.175Y-31.005
X217.344Y-88.695
X217.344Y-89.695
X217.344Y-90.695
X219.725Y-31.545
X219.725Y-32.545
X219.725Y-33.545
X220.937Y-48.055
X220.937Y-49.055
X220.937Y-50.055
X224.487Y-50.595
X224.487Y-51.595
X224.487Y-52.595
X225.7Y-9.955
X225.7Y-10.955
X225.7Y-11.955
X229.25Y-12.495
X229.25Y-13.495
X229.25Y-14.495
X230.462Y-67.105
X230.462Y-68.105
X230.462Y-69.105
X232.844Y-86.155
X232.844Y-87.155
X232.844Y-88.155
X235.225Y-29.005
X235.225Y-30.005
X235.225Y-31.005
X238.775Y-31.545
X238.775Y-32.545
X238.775Y-33.545
X239.987Y-48.055
X239.987Y-49.055
X239.987Y-50.055
X241.156Y-69.645
X241.156Y-70.645
X241.156Y-71.645
X244.75Y-9.955
X244.75Y-10.955
X244.75Y-11.955
X248.3Y-88.695
X248.3Y-89.695
X248.3Y-90.695
X254.275Y-29.005
X254.275Y-30.005
X254.275Y-31.005
X255.444Y-50.595
X255.444Y-51.595
X255.444Y-52.595
X256.656Y-67.105
X256.656Y-68.105
X256.656Y-69.105
X257.825Y-12.495
X257.825Y-13.495
X257.825Y-14.495
X262.587Y-31.545
X262.587Y-32.545
X262.587Y-33.545
X263.8Y-86.155
X263.8Y-87.155
X263.8Y-88.155
X267.35Y-69.645
X267.35Y-70.645
X267.35Y-71.645
X267.35Y-88.695
X267.35Y-89.695
X267.35Y-90.695
X270.944Y-48.055
X270.944Y-49.055
X270.944Y-50.055
X273.325Y-9.955
X273.325Y-10.955
X273.325Y-11.955
X278.087Y-29.005
X278.087Y-30.005
X278.087Y-31.005
X282.85Y-67.105
X282.85Y-68.105
X282.85Y-69.105
X282.85Y-86.155
X282.85Y-87.155
X282.85Y-88.155
X286.4Y-12.495
X286.4Y-13.495
X286.4Y-14.495
X286.4Y-31.545
X286.4Y-32.545
X286.4Y-33.545
X286.4Y-50.595
X286.4Y-51.595
X286.4Y-52.595
X286.4Y-69.645
X286.4Y-70.645
X286.4Y-71.645
X286.4Y-88.695
X286.4Y-89.695
X286.4Y-90.695
X301.9Y-9.955
X301.9Y-10.955
X301.9Y-11.955
X301.9Y-29.005
X301.9Y-30.005
X301.9Y-31.005
X301.9Y-48.055
X301.9Y-49.055
X301.9Y-50.055
X301.9Y-67.105
X301.9Y-68.105
X301.9Y-69.105
X301.9Y-86.155
X301.9Y-87.155
X301.9Y-88.155
T3
X103.91Y-88.112
X103.91Y-89.387
X103.91Y-90.662
X105.185Y-88.112
X105.185Y-89.387
X105.185Y-90.662
X106.46Y-88.112
X106.46Y-89.387
X106.46Y-90.662
T4
X113.66Y-97.5
X116.2Y-97.5
X118.74Y-97.5
X121.28Y-97.5
X123.82Y-97.5
T5
X5.225Y-13.495
X7.606Y-89.695
X9.987Y-32.545
X11.575Y-10.955
X12.369Y-51.595
X13.956Y-87.155
X16.337Y-30.005
X17.131Y-70.645
X18.719Y-49.055
X23.481Y-68.105
X24.275Y-13.495
X30.625Y-10.955
X31.419Y-89.695
X33.8Y-32.545
X37.769Y-87.155
X38.562Y-51.595
X40.15Y-30.005
X43.325Y-13.495
X44.912Y-49.055
X48.087Y-70.645
X49.675Y-10.955
X52.85Y-32.545
X54.437Y-68.105
X55.231Y-89.695
X57.612Y-51.595
X59.2Y-30.005
X61.581Y-87.155
X62.375Y-13.495
X63.962Y-49.055
X67.137Y-70.645
X68.725Y-10.955
X71.9Y-32.545
X73.487Y-68.105
X76.662Y-51.595
X78.25Y-30.005
X81.425Y-13.495
X83.012Y-49.055
X86.187Y-70.645
X87.775Y-10.955
X90.95Y-32.545
X92.537Y-68.105
X95.712Y-51.595
X97.3Y-30.005
X100.475Y-13.495
X102.062Y-49.055
X105.237Y-70.645
X106.825Y-10.955
X110.0Y-32.545
X111.587Y-68.105
X114.762Y-51.595
X116.35Y-30.005
X119.525Y-13.495
X121.112Y-49.055
X124.287Y-70.645
X125.875Y-10.955
X126.669Y-89.695
X129.05Y-32.545
X130.637Y-68.105
X133.019Y-87.155
X133.812Y-51.595
X135.4Y-30.005
X138.575Y-13.495
X140.162Y-49.055
X143.337Y-70.645
X144.925Y-10.955
X148.1Y-32.545
X149.687Y-68.105
X152.862Y-51.595
X154.45Y-30.005
X157.625Y-13.495
X159.212Y-49.055
X162.387Y-70.645
X163.975Y-10.955
X167.15Y-32.545
X168.737Y-68.105
X171.912Y-51.595
X173.5Y-30.005
X176.675Y-13.495
X178.262Y-49.055
X181.437Y-70.645
X183.025Y-10.955
X186.2Y-32.545
X187.787Y-68.105
X190.962Y-51.595
X192.55Y-30.005
X195.725Y-13.495
X197.312Y-49.055
X198.106Y-89.695
X200.487Y-70.645
X202.075Y-10.955
X204.456Y-87.155
X205.25Y-32.545
X206.837Y-68.105
X210.012Y-51.595
X211.6Y-30.005
X214.775Y-13.495
X216.362Y-49.055
X219.537Y-70.645
X221.125Y-10.955
X221.919Y-89.695
X224.3Y-32.545
X225.887Y-68.105
X228.269Y-87.155
X229.062Y-51.595
X230.65Y-30.005
X233.825Y-13.495
X235.412Y-49.055
X240.175Y-10.955
X243.35Y-32.545
X245.731Y-70.645
X249.7Y-30.005
X252.081Y-68.105
X252.875Y-89.695
X259.225Y-87.155
X260.019Y-51.595
X262.4Y-13.495
X266.369Y-49.055
X267.162Y-32.545
X268.75Y-10.955
X271.925Y-70.645
X271.925Y-89.695
X273.512Y-30.005
X278.275Y-68.105
X278.275Y-87.155
X290.975Y-13.495
X290.975Y-32.545
X290.975Y-51.595
X290.975Y-70.645
X290.975Y-89.695
X297.325Y-10.955
X297.325Y-30.005
X297.325Y-49.055
X297.325Y-68.105
X297.325Y-87.155
T6
X35.75Y-7.05
X35.75Y-101.222
X36.49Y-7.05
X36.49Y-101.222
X37.23Y-7.05
X37.23Y-101.222
X37.97Y-7.05
X37.97Y-101.222
X38.71Y-7.05
X38.71Y-101.222
X39.45Y-7.05
X39.45Y-101.222
X150.311Y-7.05
X150.311Y-101.222
X151.051Y-7.05
X151.051Y-101.222
X151.791Y-7.05
X151.791Y-101.222
X152.531Y-7.05
X152.531Y-101.222
X153.271Y-7.05
X153.271Y-101.222
X154.011Y-7.05
X154.011Y-101.222
X264.873Y-7.05
X265.613Y-7.05
X266.353Y-7.05
X267.093Y-7.05
X267.833Y-7.05
X268.573Y-7.05
X273.85Y-101.222
X274.59Y-101.222
X275.33Y-101.222
X276.07Y-101.222
X276.81Y-101.222
X277.55Y-101.222
T7
X3.955Y-16.035
X6.336Y-92.235
X8.717Y-35.085
X11.099Y-54.135
X14.115Y-16.035
X15.861Y-73.185
X16.496Y-92.235
X18.877Y-35.085
X21.259Y-54.135
X23.005Y-16.035
X26.021Y-73.185
X30.149Y-92.235
X32.53Y-35.085
X33.165Y-16.035
X37.292Y-54.135
X40.309Y-92.235
X42.055Y-16.035
X42.69Y-35.085
X46.817Y-73.185
X47.452Y-54.135
X51.58Y-35.085
X52.215Y-16.035
X53.961Y-92.235
X56.342Y-54.135
X56.977Y-73.185
X61.105Y-16.035
X61.74Y-35.085
X64.121Y-92.235
X65.867Y-73.185
X66.502Y-54.135
X70.63Y-35.085
X71.265Y-16.035
X75.392Y-54.135
X76.027Y-73.185
X80.155Y-16.035
X80.79Y-35.085
X84.917Y-73.185
X85.552Y-54.135
X89.68Y-35.085
X90.315Y-16.035
X94.442Y-54.135
X95.077Y-73.185
X99.205Y-16.035
X99.84Y-35.085
X103.967Y-73.185
X104.602Y-54.135
X108.73Y-35.085
X109.365Y-16.035
X113.492Y-54.135
X114.127Y-73.185
X118.255Y-16.035
X118.89Y-35.085
X123.017Y-73.185
X123.652Y-54.135
X125.399Y-92.235
X127.78Y-35.085
X128.415Y-16.035
X132.542Y-54.135
X133.177Y-73.185
X135.559Y-92.235
X137.305Y-16.035
X137.94Y-35.085
X142.067Y-73.185
X142.702Y-54.135
X146.83Y-35.085
X147.465Y-16.035
X151.592Y-54.135
X152.227Y-73.185
X156.355Y-16.035
X156.99Y-35.085
X161.117Y-73.185
X161.752Y-54.135
X165.88Y-35.085
X166.515Y-16.035
X170.642Y-54.135
X171.277Y-73.185
X175.405Y-16.035
X176.04Y-35.085
X180.167Y-73.185
X180.802Y-54.135
X184.93Y-35.085
X185.565Y-16.035
X189.692Y-54.135
X190.327Y-73.185
X194.455Y-16.035
X195.09Y-35.085
X196.836Y-92.235
X199.217Y-73.185
X199.852Y-54.135
X203.98Y-35.085
X204.615Y-16.035
X206.996Y-92.235
X208.742Y-54.135
X209.377Y-73.185
X213.505Y-16.035
X214.14Y-35.085
X218.267Y-73.185
X218.902Y-54.135
X220.649Y-92.235
X223.03Y-35.085
X223.665Y-16.035
X227.792Y-54.135
X228.427Y-73.185
X230.809Y-92.235
X232.555Y-16.035
X233.19Y-35.085
X237.952Y-54.135
X242.08Y-35.085
X242.715Y-16.035
X244.461Y-73.185
X251.605Y-92.235
X252.24Y-35.085
X254.621Y-73.185
X258.749Y-54.135
X261.13Y-16.035
X261.765Y-92.235
X265.892Y-35.085
X268.909Y-54.135
X270.655Y-73.185
X270.655Y-92.235
X271.29Y-16.035
X276.052Y-35.085
X280.815Y-73.185
X280.815Y-92.235
X289.705Y-16.035
X289.705Y-35.085
X289.705Y-54.135
X289.705Y-73.185
X289.705Y-92.235
X299.865Y-16.035
X299.865Y-35.085
X299.865Y-54.135
X299.865Y-73.185
X299.865Y-92.235
T8
X9.035Y-66.2
X32.847Y-66.2
X80.472Y-99.22
X180.485Y-99.22
X251.922Y-47.15
X254.304Y-9.05
X275.735Y-47.15
X278.116Y-9.05
T9
X9.035Y-16.035
X9.035Y-81.44
X11.416Y-92.235
X13.797Y-35.085
X16.179Y-54.135
X20.941Y-73.185
X28.085Y-16.035
X32.847Y-81.44
X35.229Y-92.235
X37.61Y-35.085
X42.372Y-54.135
X47.135Y-16.035
X51.897Y-73.185
X56.66Y-35.085
X59.041Y-92.235
X61.422Y-54.135
X66.185Y-16.035
X70.947Y-73.185
X75.71Y-35.085
X80.472Y-54.135
X80.472Y-83.98
X85.235Y-16.035
X89.997Y-73.185
X94.76Y-35.085
X99.522Y-54.135
X104.285Y-16.035
X109.047Y-73.185
X113.81Y-35.085
X118.572Y-54.135
X123.335Y-16.035
X128.097Y-73.185
X130.479Y-92.235
X132.86Y-35.085
X137.622Y-54.135
X142.385Y-16.035
X147.147Y-73.185
X151.91Y-35.085
X156.672Y-54.135
X161.435Y-16.035
X166.197Y-73.185
X170.96Y-35.085
X175.722Y-54.135
X180.485Y-16.035
X180.485Y-83.98
X185.247Y-73.185
X190.01Y-35.085
X194.772Y-54.135
X199.535Y-16.035
X201.916Y-92.235
X204.297Y-73.185
X209.06Y-35.085
X213.822Y-54.135
X218.585Y-16.035
X223.347Y-73.185
X225.729Y-92.235
X228.11Y-35.085
X232.872Y-54.135
X237.635Y-16.035
X247.16Y-35.085
X249.541Y-73.185
X251.922Y-62.39
X254.304Y-24.29
X256.685Y-92.235
X263.829Y-54.135
X266.21Y-16.035
X270.972Y-35.085
X275.735Y-62.39
X275.735Y-73.185
X275.735Y-92.235
X278.116Y-24.29
X294.785Y-16.035
X294.785Y-35.085
X294.785Y-54.135
X294.785Y-73.185
X294.785Y-92.235
T0
M30
