G04 #@! TF.GenerationSoftware,KiCad,Pcbnew,(6.99.0-1912-g359c99991b)*
G04 #@! TF.CreationDate,2023-08-09T17:17:15+07:00*
G04 #@! TF.ProjectId,nyx,6e79782e-6b69-4636-9164-5f7063625858,2*
G04 #@! TF.SameCoordinates,Original*
G04 #@! TF.FileFunction,Paste,Bot*
G04 #@! TF.FilePolarity,Positive*
%FSLAX46Y46*%
G04 Gerber Fmt 4.6, Leading zero omitted, Abs format (unit mm)*
G04 Created by KiCad (PCBNEW (6.99.0-1912-g359c99991b)) date 2023-08-09 17:17:15*
%MOMM*%
%LPD*%
G01*
G04 APERTURE LIST*
G04 Aperture macros list*
%AMRoundRect*
0 Rectangle with rounded corners*
0 $1 Rounding radius*
0 $2 $3 $4 $5 $6 $7 $8 $9 X,Y pos of 4 corners*
0 Add a 4 corners polygon primitive as box body*
4,1,4,$2,$3,$4,$5,$6,$7,$8,$9,$2,$3,0*
0 Add four circle primitives for the rounded corners*
1,1,$1+$1,$2,$3*
1,1,$1+$1,$4,$5*
1,1,$1+$1,$6,$7*
1,1,$1+$1,$8,$9*
0 Add four rect primitives between the rounded corners*
20,1,$1+$1,$2,$3,$4,$5,0*
20,1,$1+$1,$4,$5,$6,$7,0*
20,1,$1+$1,$6,$7,$8,$9,0*
20,1,$1+$1,$8,$9,$2,$3,0*%
%AMRotRect*
0 Rectangle, with rotation*
0 The origin of the aperture is its center*
0 $1 length*
0 $2 width*
0 $3 Rotation angle, in degrees counterclockwise*
0 Add horizontal line*
21,1,$1,$2,0,0,$3*%
G04 Aperture macros list end*
%ADD10C,0.100000*%
%ADD11RoundRect,0.250000X1.025000X1.000000X-1.025000X1.000000X-1.025000X-1.000000X1.025000X-1.000000X0*%
%ADD12RoundRect,0.135000X-0.135000X-0.185000X0.135000X-0.185000X0.135000X0.185000X-0.135000X0.185000X0*%
%ADD13R,1.200000X0.900000*%
%ADD14RoundRect,0.250000X0.380000X0.380000X-0.380000X0.380000X-0.380000X-0.380000X0.380000X-0.380000X0*%
%ADD15RoundRect,0.050000X0.300000X0.050000X-0.300000X0.050000X-0.300000X-0.050000X0.300000X-0.050000X0*%
%ADD16RoundRect,0.050000X0.050000X0.300000X-0.050000X0.300000X-0.050000X-0.300000X0.050000X-0.300000X0*%
%ADD17RoundRect,0.140000X-0.170000X0.140000X-0.170000X-0.140000X0.170000X-0.140000X0.170000X0.140000X0*%
%ADD18RoundRect,0.140000X0.170000X-0.140000X0.170000X0.140000X-0.170000X0.140000X-0.170000X-0.140000X0*%
%ADD19RoundRect,0.070000X-0.330000X0.280000X-0.330000X-0.280000X0.330000X-0.280000X0.330000X0.280000X0*%
%ADD20RoundRect,0.200000X0.600000X-0.200000X0.600000X0.200000X-0.600000X0.200000X-0.600000X-0.200000X0*%
%ADD21RoundRect,0.250001X1.249999X-0.799999X1.249999X0.799999X-1.249999X0.799999X-1.249999X-0.799999X0*%
%ADD22RoundRect,0.140000X-0.140000X-0.170000X0.140000X-0.170000X0.140000X0.170000X-0.140000X0.170000X0*%
%ADD23RoundRect,0.200000X-0.200000X-0.600000X0.200000X-0.600000X0.200000X0.600000X-0.200000X0.600000X0*%
%ADD24RoundRect,0.250001X-0.799999X-1.249999X0.799999X-1.249999X0.799999X1.249999X-0.799999X1.249999X0*%
%ADD25RoundRect,0.140000X0.140000X0.170000X-0.140000X0.170000X-0.140000X-0.170000X0.140000X-0.170000X0*%
%ADD26RoundRect,0.135000X-0.185000X0.135000X-0.185000X-0.135000X0.185000X-0.135000X0.185000X0.135000X0*%
%ADD27RoundRect,0.250000X-0.292217X0.292217X-0.292217X-0.292217X0.292217X-0.292217X0.292217X0.292217X0*%
%ADD28RoundRect,0.050000X-0.050000X0.387500X-0.050000X-0.387500X0.050000X-0.387500X0.050000X0.387500X0*%
%ADD29RoundRect,0.050000X-0.387500X0.050000X-0.387500X-0.050000X0.387500X-0.050000X0.387500X0.050000X0*%
%ADD30RoundRect,0.045000X0.055000X0.045000X-0.055000X0.045000X-0.055000X-0.045000X0.055000X-0.045000X0*%
%ADD31RoundRect,0.135000X0.135000X0.185000X-0.135000X0.185000X-0.135000X-0.185000X0.135000X-0.185000X0*%
%ADD32R,0.900000X1.700000*%
%ADD33RoundRect,0.140000X0.021213X-0.219203X0.219203X-0.021213X-0.021213X0.219203X-0.219203X0.021213X0*%
%ADD34RotRect,1.400000X1.200000X225.000000*%
%ADD35R,0.900000X1.200000*%
%ADD36RoundRect,0.135000X0.035355X-0.226274X0.226274X-0.035355X-0.035355X0.226274X-0.226274X0.035355X0*%
%ADD37R,1.000000X0.800000*%
%ADD38RoundRect,0.150000X-0.625000X0.150000X-0.625000X-0.150000X0.625000X-0.150000X0.625000X0.150000X0*%
%ADD39RoundRect,0.250000X-0.650000X0.350000X-0.650000X-0.350000X0.650000X-0.350000X0.650000X0.350000X0*%
%ADD40RoundRect,0.150000X0.512500X0.150000X-0.512500X0.150000X-0.512500X-0.150000X0.512500X-0.150000X0*%
%ADD41RoundRect,0.243750X-0.456250X0.243750X-0.456250X-0.243750X0.456250X-0.243750X0.456250X0.243750X0*%
%ADD42RoundRect,0.140000X0.219203X0.021213X0.021213X0.219203X-0.219203X-0.021213X-0.021213X-0.219203X0*%
G04 #@! TA.AperFunction,Profile*
%ADD43C,0.100000*%
G04 #@! TD*
G04 APERTURE END LIST*
D10*
X98750000Y-86200000D02*
G75*
G03*
X98750000Y-86200000I-50000J0D01*
G01*
X98750000Y-85200000D02*
G75*
G03*
X98750000Y-85200000I-50000J0D01*
G01*
X98550000Y-86000000D02*
G75*
G03*
X98550000Y-86000000I-50000J0D01*
G01*
X98550000Y-85400000D02*
G75*
G03*
X98550000Y-85400000I-50000J0D01*
G01*
X98350000Y-86200000D02*
G75*
G03*
X98350000Y-86200000I-50000J0D01*
G01*
X98350000Y-85200000D02*
G75*
G03*
X98350000Y-85200000I-50000J0D01*
G01*
D11*
X215987323Y-70644823D03*
X229437323Y-68104823D03*
D12*
X176190000Y-21350000D03*
X177210000Y-21350000D03*
D13*
X241119822Y-56722322D03*
X241119822Y-53422322D03*
D12*
X176190000Y-22500000D03*
X177210000Y-22500000D03*
D14*
X171325000Y-92225000D03*
X171325000Y-90775000D03*
X169875000Y-92225000D03*
X169875000Y-90775000D03*
D15*
X172600000Y-90100000D03*
X172600000Y-90500000D03*
X172600000Y-90900000D03*
X172600000Y-91300000D03*
X172600000Y-91700000D03*
X172600000Y-92100000D03*
X172600000Y-92500000D03*
X172600000Y-92900000D03*
D16*
X172000000Y-93500000D03*
X171600000Y-93500000D03*
X171200000Y-93500000D03*
X170800000Y-93500000D03*
X170400000Y-93500000D03*
X170000000Y-93500000D03*
X169600000Y-93500000D03*
X169200000Y-93500000D03*
D15*
X168600000Y-92900000D03*
X168600000Y-92500000D03*
X168600000Y-92100000D03*
X168600000Y-91700000D03*
X168600000Y-91300000D03*
X168600000Y-90900000D03*
X168600000Y-90500000D03*
X168600000Y-90100000D03*
D16*
X169200000Y-89500000D03*
X169600000Y-89500000D03*
X170000000Y-89500000D03*
X170400000Y-89500000D03*
X170800000Y-89500000D03*
X171200000Y-89500000D03*
X171600000Y-89500000D03*
X172000000Y-89500000D03*
D13*
X231594822Y-75772322D03*
X231594822Y-72472322D03*
D17*
X106300000Y-94720000D03*
X106300000Y-95680000D03*
D18*
X89700000Y-90300000D03*
X89700000Y-89340000D03*
D12*
X11990000Y-58289376D03*
X13010000Y-58289376D03*
X7340000Y-98700000D03*
X8360000Y-98700000D03*
D13*
X55382322Y-17399999D03*
X55382322Y-14099999D03*
D19*
X132028573Y-96434823D03*
X132028573Y-97534823D03*
X128928573Y-97534823D03*
X128928573Y-96434823D03*
X10584823Y-20234823D03*
X10584823Y-21334823D03*
X7484823Y-21334823D03*
X7484823Y-20234823D03*
D13*
X145869822Y-56722322D03*
X145869822Y-53422322D03*
D12*
X197690000Y-96400000D03*
X198710000Y-96400000D03*
D13*
X69669822Y-56722322D03*
X69669822Y-53422322D03*
D19*
X220134823Y-20234823D03*
X220134823Y-21334823D03*
X217034823Y-21334823D03*
X217034823Y-20234823D03*
D20*
X248875000Y-23675000D03*
X248875000Y-22425000D03*
X248875000Y-21175000D03*
X248875000Y-19925000D03*
D21*
X245975000Y-26225000D03*
X245975000Y-17375000D03*
D19*
X58209823Y-39284823D03*
X58209823Y-40384823D03*
X55109823Y-40384823D03*
X55109823Y-39284823D03*
X77259823Y-39284823D03*
X77259823Y-40384823D03*
X74159823Y-40384823D03*
X74159823Y-39284823D03*
D22*
X152140000Y-87100000D03*
X153100000Y-87100000D03*
X166040000Y-87100000D03*
X167000000Y-87100000D03*
D12*
X185500000Y-41550000D03*
X186520000Y-41550000D03*
D23*
X26209758Y-58192481D03*
X27459758Y-58192481D03*
X28709758Y-58192481D03*
X29959758Y-58192481D03*
D24*
X23659758Y-55292481D03*
X32509758Y-55292481D03*
D19*
X227278573Y-96434823D03*
X227278573Y-97534823D03*
X224178573Y-97534823D03*
X224178573Y-96434823D03*
X148697323Y-77384823D03*
X148697323Y-78484823D03*
X145597323Y-78484823D03*
X145597323Y-77384823D03*
D13*
X112532322Y-17399999D03*
X112532322Y-14099999D03*
D19*
X60591073Y-96434823D03*
X60591073Y-97534823D03*
X57491073Y-97534823D03*
X57491073Y-96434823D03*
D11*
X96924823Y-13494823D03*
X110374823Y-10954823D03*
D19*
X143934823Y-20234823D03*
X143934823Y-21334823D03*
X140834823Y-21334823D03*
X140834823Y-20234823D03*
D11*
X287424823Y-51594823D03*
X300874823Y-49054823D03*
D12*
X4690000Y-22500000D03*
X5710000Y-22500000D03*
D13*
X283382322Y-37672322D03*
X283382322Y-34372322D03*
D11*
X211224823Y-13494823D03*
X224674823Y-10954823D03*
X177887323Y-70644823D03*
X191337323Y-68104823D03*
D19*
X110597323Y-77384823D03*
X110597323Y-78484823D03*
X107497323Y-78484823D03*
X107497323Y-77384823D03*
X129647323Y-77384823D03*
X129647323Y-78484823D03*
X126547323Y-78484823D03*
X126547323Y-77384823D03*
D13*
X283982322Y-94822322D03*
X283982322Y-91522322D03*
D19*
X277284823Y-96434823D03*
X277284823Y-97534823D03*
X274184823Y-97534823D03*
X274184823Y-96434823D03*
D13*
X160157322Y-37672322D03*
X160157322Y-34372322D03*
D19*
X53447323Y-77384823D03*
X53447323Y-78484823D03*
X50347323Y-78484823D03*
X50347323Y-77384823D03*
D11*
X135024823Y-13494823D03*
X148474823Y-10954823D03*
X4056073Y-89694823D03*
X17506073Y-87154823D03*
X196937323Y-70644823D03*
X210387323Y-68104823D03*
D18*
X107034823Y-82480000D03*
X107034823Y-81520000D03*
D11*
X39774823Y-13494823D03*
X53224823Y-10954823D03*
X13581073Y-70644823D03*
X27031073Y-68104823D03*
X73112323Y-51594823D03*
X86562323Y-49054823D03*
X287424823Y-70644823D03*
X300874823Y-68104823D03*
X194556073Y-89694823D03*
X208006073Y-87154823D03*
D12*
X181090000Y-78300000D03*
X182110000Y-78300000D03*
D18*
X84100000Y-89350000D03*
X84100000Y-88390000D03*
D13*
X283382322Y-56722322D03*
X283382322Y-53422322D03*
D11*
X154074823Y-13494823D03*
X167524823Y-10954823D03*
D25*
X96814823Y-90300000D03*
X95854823Y-90300000D03*
D11*
X187412323Y-51594823D03*
X200862323Y-49054823D03*
D13*
X264932322Y-75772322D03*
X264932322Y-72472322D03*
D11*
X144549823Y-32544823D03*
X157999823Y-30004823D03*
D12*
X11990000Y-60600000D03*
X13010000Y-60600000D03*
D11*
X115974823Y-13494823D03*
X129424823Y-10954823D03*
D25*
X101180000Y-96400000D03*
X100220000Y-96400000D03*
D13*
X107769822Y-56722322D03*
X107769822Y-53422322D03*
X212544822Y-75772322D03*
X212544822Y-72472322D03*
D11*
X54062323Y-51594823D03*
X67512323Y-49054823D03*
X239799823Y-32544823D03*
X253249823Y-30004823D03*
X256468573Y-51594823D03*
X269918573Y-49054823D03*
D19*
X191559823Y-39284823D03*
X191559823Y-40384823D03*
X188459823Y-40384823D03*
X188459823Y-39284823D03*
D13*
X88719822Y-56722322D03*
X88719822Y-53422322D03*
D12*
X197690000Y-98700000D03*
X198710000Y-98700000D03*
X107740000Y-97880705D03*
X108760000Y-97880705D03*
D13*
X188732322Y-18622322D03*
X188732322Y-15322322D03*
D22*
X166040000Y-88300000D03*
X167000000Y-88300000D03*
D13*
X207782322Y-18622322D03*
X207782322Y-15322322D03*
D26*
X168150000Y-87140000D03*
X168150000Y-88160000D03*
D27*
X105822323Y-88749899D03*
X104547323Y-88749899D03*
X105822323Y-90024899D03*
X104547323Y-90024899D03*
D28*
X102584823Y-85949899D03*
X102984823Y-85949899D03*
X103384823Y-85949899D03*
X103784823Y-85949899D03*
X104184823Y-85949899D03*
X104584823Y-85949899D03*
X104984823Y-85949899D03*
X105384823Y-85949899D03*
X105784823Y-85949899D03*
X106184823Y-85949899D03*
X106584823Y-85949899D03*
X106984823Y-85949899D03*
X107384823Y-85949899D03*
X107784823Y-85949899D03*
D29*
X108622323Y-86787399D03*
X108622323Y-87187399D03*
X108622323Y-87587399D03*
X108622323Y-87987399D03*
X108622323Y-88387399D03*
X108622323Y-88787399D03*
X108622323Y-89187399D03*
X108622323Y-89587399D03*
X108622323Y-89987399D03*
X108622323Y-90387399D03*
X108622323Y-90787399D03*
X108622323Y-91187399D03*
X108622323Y-91587399D03*
X108622323Y-91987399D03*
D28*
X107784823Y-92824899D03*
X107384823Y-92824899D03*
X106984823Y-92824899D03*
X106584823Y-92824899D03*
X106184823Y-92824899D03*
X105784823Y-92824899D03*
X105384823Y-92824899D03*
X104984823Y-92824899D03*
X104584823Y-92824899D03*
X104184823Y-92824899D03*
X103784823Y-92824899D03*
X103384823Y-92824899D03*
X102984823Y-92824899D03*
X102584823Y-92824899D03*
D29*
X101747323Y-91987399D03*
X101747323Y-91587399D03*
X101747323Y-91187399D03*
X101747323Y-90787399D03*
X101747323Y-90387399D03*
X101747323Y-89987399D03*
X101747323Y-89587399D03*
X101747323Y-89187399D03*
X101747323Y-88787399D03*
X101747323Y-88387399D03*
X101747323Y-87987399D03*
X101747323Y-87587399D03*
X101747323Y-87187399D03*
X101747323Y-86787399D03*
D19*
X177272323Y-58334823D03*
X177272323Y-59434823D03*
X174172323Y-59434823D03*
X174172323Y-58334823D03*
D13*
X222069822Y-56722322D03*
X222069822Y-53422322D03*
D19*
X196322323Y-58334823D03*
X196322323Y-59434823D03*
X193222323Y-59434823D03*
X193222323Y-58334823D03*
X229659823Y-39284823D03*
X229659823Y-40384823D03*
X226559823Y-40384823D03*
X226559823Y-39284823D03*
D11*
X130262323Y-51594823D03*
X143712323Y-49054823D03*
X20724823Y-13494823D03*
X34174823Y-10954823D03*
D13*
X50619822Y-56722322D03*
X50619822Y-53422322D03*
D12*
X190590000Y-59450000D03*
X191610000Y-59450000D03*
X4690000Y-21350000D03*
X5710000Y-21350000D03*
D11*
X201699823Y-32544823D03*
X215149823Y-30004823D03*
X218368573Y-89694823D03*
X231818573Y-87154823D03*
D30*
X99150000Y-85100000D03*
X99150000Y-85500000D03*
X99150000Y-85900000D03*
X99150000Y-86300000D03*
X97850000Y-86300000D03*
X97850000Y-85900000D03*
X97850000Y-85500000D03*
X97850000Y-85100000D03*
D19*
X296334823Y-39284823D03*
X296334823Y-40384823D03*
X293234823Y-40384823D03*
X293234823Y-39284823D03*
D13*
X74432322Y-18622322D03*
X74432322Y-15322322D03*
D12*
X190590000Y-58300000D03*
X191610000Y-58300000D03*
D19*
X86784823Y-20234823D03*
X86784823Y-21334823D03*
X83684823Y-21334823D03*
X83684823Y-20234823D03*
D13*
X252999999Y-18622322D03*
X252999999Y-15322322D03*
D19*
X101072323Y-58334823D03*
X101072323Y-59434823D03*
X97972323Y-59434823D03*
X97972323Y-58334823D03*
D31*
X108760000Y-96725000D03*
X107740000Y-96725000D03*
D12*
X9190000Y-41550000D03*
X10210000Y-41550000D03*
D11*
X44537323Y-70644823D03*
X57987323Y-68104823D03*
D19*
X201084823Y-20234823D03*
X201084823Y-21334823D03*
X197984823Y-21334823D03*
X197984823Y-20234823D03*
D11*
X30249823Y-32544823D03*
X43699823Y-30004823D03*
D19*
X258234823Y-96434823D03*
X258234823Y-97534823D03*
X255134823Y-97534823D03*
X255134823Y-96434823D03*
X265378573Y-58334823D03*
X265378573Y-59434823D03*
X262278573Y-59434823D03*
X262278573Y-58334823D03*
X17728573Y-58334823D03*
X17728573Y-59434823D03*
X14628573Y-59434823D03*
X14628573Y-58334823D03*
D11*
X123118573Y-89694823D03*
X136568573Y-87154823D03*
D12*
X16790000Y-79700000D03*
X17810000Y-79700000D03*
D19*
X162984823Y-20234823D03*
X162984823Y-21334823D03*
X159884823Y-21334823D03*
X159884823Y-20234823D03*
D11*
X268374823Y-89694823D03*
X281824823Y-87154823D03*
D13*
X93482322Y-18622322D03*
X93482322Y-15322322D03*
D32*
X84949999Y-84999999D03*
X89049999Y-84999999D03*
D12*
X11990000Y-59450000D03*
X13010000Y-59450000D03*
D11*
X173124823Y-13494823D03*
X186574823Y-10954823D03*
D13*
X43476072Y-94822322D03*
X43476072Y-91522322D03*
D19*
X203466073Y-96434823D03*
X203466073Y-97534823D03*
X200366073Y-97534823D03*
X200366073Y-96434823D03*
D12*
X16790000Y-78550000D03*
X17810000Y-78550000D03*
D33*
X115210589Y-84689411D03*
X115889411Y-84010589D03*
D11*
X206462323Y-51594823D03*
X219912323Y-49054823D03*
D12*
X7340000Y-97550000D03*
X8360000Y-97550000D03*
D22*
X96890000Y-84100000D03*
X97850000Y-84100000D03*
D13*
X17282322Y-18622322D03*
X17282322Y-15322322D03*
D19*
X96309823Y-39284823D03*
X96309823Y-40384823D03*
X93209823Y-40384823D03*
X93209823Y-39284823D03*
D11*
X87399823Y-32544823D03*
X100849823Y-30004823D03*
D19*
X234422323Y-58334823D03*
X234422323Y-59434823D03*
X231322323Y-59434823D03*
X231322323Y-58334823D03*
D13*
X255407322Y-37672322D03*
X255407322Y-34372322D03*
D25*
X100080000Y-92868649D03*
X99120000Y-92868649D03*
D13*
X103007322Y-37672322D03*
X103007322Y-34372322D03*
D19*
X224897323Y-77384823D03*
X224897323Y-78484823D03*
X221797323Y-78484823D03*
X221797323Y-77384823D03*
D12*
X181090000Y-79450000D03*
X182110000Y-79450000D03*
D34*
X118528857Y-86223222D03*
X116973222Y-87778857D03*
X115771141Y-86576776D03*
X117326776Y-85021141D03*
D11*
X158837323Y-70644823D03*
X172287323Y-68104823D03*
X192174823Y-13494823D03*
X205624823Y-10954823D03*
D13*
X279219822Y-37672322D03*
X279219822Y-34372322D03*
D12*
X9190000Y-40400000D03*
X10210000Y-40400000D03*
D19*
X48684823Y-20234823D03*
X48684823Y-21334823D03*
X45584823Y-21334823D03*
X45584823Y-20234823D03*
D12*
X16790000Y-77400000D03*
X17810000Y-77400000D03*
D13*
X198257322Y-37672322D03*
X198257322Y-34372322D03*
D19*
X91547323Y-77384823D03*
X91547323Y-78484823D03*
X88447323Y-78484823D03*
X88447323Y-77384823D03*
D11*
X106449823Y-32544823D03*
X119899823Y-30004823D03*
D13*
X122057322Y-37672322D03*
X122057322Y-34372322D03*
D11*
X230274823Y-13494823D03*
X243724823Y-10954823D03*
X163599823Y-32544823D03*
X177049823Y-30004823D03*
D35*
X109949999Y-64099999D03*
X113249999Y-64099999D03*
D11*
X268374823Y-70644823D03*
X281824823Y-68104823D03*
D19*
X272522323Y-39284823D03*
X272522323Y-40384823D03*
X269422323Y-40384823D03*
X269422323Y-39284823D03*
D12*
X4690000Y-20200000D03*
X5710000Y-20200000D03*
D19*
X267759823Y-20234823D03*
X267759823Y-21334823D03*
X264659823Y-21334823D03*
X264659823Y-20234823D03*
D13*
X138999999Y-94822322D03*
X138999999Y-91522322D03*
D11*
X139787323Y-70644823D03*
X153237323Y-68104823D03*
D36*
X119010833Y-88185551D03*
X119732081Y-87464303D03*
D12*
X7340000Y-96400000D03*
X8360000Y-96400000D03*
D19*
X12966073Y-96434823D03*
X12966073Y-97534823D03*
X9866073Y-97534823D03*
X9866073Y-96434823D03*
D13*
X193494822Y-75772322D03*
X193494822Y-72472322D03*
X236357322Y-37672322D03*
X236357322Y-34372322D03*
D26*
X154250000Y-87140000D03*
X154250000Y-88160000D03*
D14*
X157425000Y-92225000D03*
X157425000Y-90775000D03*
X155975000Y-92225000D03*
X155975000Y-90775000D03*
D15*
X158700000Y-90100000D03*
X158700000Y-90500000D03*
X158700000Y-90900000D03*
X158700000Y-91300000D03*
X158700000Y-91700000D03*
X158700000Y-92100000D03*
X158700000Y-92500000D03*
X158700000Y-92900000D03*
D16*
X158100000Y-93500000D03*
X157700000Y-93500000D03*
X157300000Y-93500000D03*
X156900000Y-93500000D03*
X156500000Y-93500000D03*
X156100000Y-93500000D03*
X155700000Y-93500000D03*
X155300000Y-93500000D03*
D15*
X154700000Y-92900000D03*
X154700000Y-92500000D03*
X154700000Y-92100000D03*
X154700000Y-91700000D03*
X154700000Y-91300000D03*
X154700000Y-90900000D03*
X154700000Y-90500000D03*
X154700000Y-90100000D03*
D16*
X155300000Y-89500000D03*
X155700000Y-89500000D03*
X156100000Y-89500000D03*
X156500000Y-89500000D03*
X156900000Y-89500000D03*
X157300000Y-89500000D03*
X157700000Y-89500000D03*
X158100000Y-89500000D03*
D19*
X36778573Y-96434823D03*
X36778573Y-97534823D03*
X33678573Y-97534823D03*
X33678573Y-96434823D03*
X43922323Y-58334823D03*
X43922323Y-59434823D03*
X40822323Y-59434823D03*
X40822323Y-58334823D03*
D12*
X197690000Y-97550000D03*
X198710000Y-97550000D03*
D13*
X83957322Y-37672322D03*
X83957322Y-34372322D03*
D11*
X63587323Y-70644823D03*
X77037323Y-68104823D03*
D13*
X131582322Y-18622322D03*
X131582322Y-15322322D03*
D19*
X205847323Y-77384823D03*
X205847323Y-78484823D03*
X202747323Y-78484823D03*
X202747323Y-77384823D03*
D13*
X264932322Y-94822322D03*
X264932322Y-91522322D03*
D12*
X176190000Y-20200000D03*
X177210000Y-20200000D03*
D13*
X79194822Y-75772322D03*
X79194822Y-72472322D03*
D26*
X100300000Y-83090000D03*
X100300000Y-84110000D03*
D25*
X101180000Y-95268649D03*
X100220000Y-95268649D03*
D13*
X67288572Y-94822322D03*
X67288572Y-91522322D03*
X274457322Y-18622322D03*
X274457322Y-15322322D03*
D11*
X92162323Y-51594823D03*
X105612323Y-49054823D03*
D19*
X186797323Y-77384823D03*
X186797323Y-78484823D03*
X183697323Y-78484823D03*
X183697323Y-77384823D03*
D11*
X8818573Y-51594823D03*
X22268573Y-49054823D03*
D13*
X155394822Y-75772322D03*
X155394822Y-72472322D03*
D11*
X225512323Y-51594823D03*
X238962323Y-49054823D03*
D13*
X283382322Y-18622322D03*
X283382322Y-15322322D03*
D19*
X251091073Y-77384823D03*
X251091073Y-78484823D03*
X247991073Y-78484823D03*
X247991073Y-77384823D03*
D22*
X113854823Y-91868649D03*
X114814823Y-91868649D03*
D11*
X220749823Y-32544823D03*
X234199823Y-30004823D03*
D13*
X60144822Y-75772322D03*
X60144822Y-72472322D03*
D11*
X287424823Y-32544823D03*
X300874823Y-30004823D03*
D13*
X141107322Y-37672322D03*
X141107322Y-34372322D03*
X203019822Y-56722322D03*
X203019822Y-53422322D03*
X19663572Y-94822322D03*
X19663572Y-91522322D03*
X150632322Y-17399999D03*
X150632322Y-14099999D03*
D11*
X263612323Y-32544823D03*
X277062323Y-30004823D03*
D12*
X9190000Y-39250000D03*
X10210000Y-39250000D03*
D37*
X88199999Y-88400000D03*
X88199999Y-90299999D03*
X85799999Y-89349999D03*
D11*
X287424823Y-13494823D03*
X300874823Y-10954823D03*
X125499823Y-32544823D03*
X138949823Y-30004823D03*
D19*
X72497323Y-77384823D03*
X72497323Y-78484823D03*
X69397323Y-78484823D03*
X69397323Y-77384823D03*
D13*
X136344822Y-75772322D03*
X136344822Y-72472322D03*
D11*
X68349823Y-32544823D03*
X81799823Y-30004823D03*
D13*
X126819822Y-56722322D03*
X126819822Y-53422322D03*
D19*
X182034823Y-20234823D03*
X182034823Y-21334823D03*
X178934823Y-21334823D03*
X178934823Y-20234823D03*
D12*
X181090000Y-77150000D03*
X182110000Y-77150000D03*
D11*
X35012323Y-51594823D03*
X48462323Y-49054823D03*
D19*
X105834823Y-20234823D03*
X105834823Y-21334823D03*
X102734823Y-21334823D03*
X102734823Y-20234823D03*
X167747323Y-77384823D03*
X167747323Y-78484823D03*
X164647323Y-78484823D03*
X164647323Y-77384823D03*
D13*
X272076072Y-56722322D03*
X272076072Y-53422322D03*
D35*
X108049999Y-64099999D03*
X104749999Y-64099999D03*
D19*
X277284823Y-77384823D03*
X277284823Y-78484823D03*
X274184823Y-78484823D03*
X274184823Y-77384823D03*
X22491073Y-77384823D03*
X22491073Y-78484823D03*
X19391073Y-78484823D03*
X19391073Y-77384823D03*
D11*
X249324823Y-89694823D03*
X262774823Y-87154823D03*
D38*
X52800000Y-21650000D03*
X52800000Y-22650000D03*
X52800000Y-23650000D03*
X52800000Y-24650000D03*
D39*
X56675000Y-20350000D03*
X56675000Y-25950000D03*
D11*
X58824823Y-13494823D03*
X72274823Y-10954823D03*
D40*
X29222500Y-60750000D03*
X29222500Y-61700000D03*
X29222500Y-62650000D03*
X26947500Y-62650000D03*
X26947500Y-61700000D03*
X26947500Y-60750000D03*
D19*
X134409823Y-39284823D03*
X134409823Y-40384823D03*
X131309823Y-40384823D03*
X131309823Y-39284823D03*
D13*
X257788572Y-75772322D03*
X257788572Y-72472322D03*
D31*
X96844823Y-92800000D03*
X95824823Y-92800000D03*
D19*
X15347323Y-39284823D03*
X15347323Y-40384823D03*
X12247323Y-40384823D03*
X12247323Y-39284823D03*
D11*
X1674823Y-13494823D03*
X15124823Y-10954823D03*
X120737323Y-70644823D03*
X134187323Y-68104823D03*
D19*
X29634823Y-20234823D03*
X29634823Y-21334823D03*
X26534823Y-21334823D03*
X26534823Y-20234823D03*
D11*
X51681073Y-89694823D03*
X65131073Y-87154823D03*
D13*
X210999999Y-94822322D03*
X210999999Y-91522322D03*
D41*
X24600000Y-61700000D03*
X24600000Y-63575000D03*
D11*
X101687323Y-70644823D03*
X115137323Y-68104823D03*
D19*
X172509823Y-39284823D03*
X172509823Y-40384823D03*
X169409823Y-40384823D03*
X169409823Y-39284823D03*
D38*
X109875000Y-21650000D03*
X109875000Y-22650000D03*
X109875000Y-23650000D03*
X109875000Y-24650000D03*
D39*
X113750000Y-20350000D03*
X113750000Y-25950000D03*
D11*
X258849823Y-13494823D03*
X272299823Y-10954823D03*
D13*
X64907322Y-37672322D03*
X64907322Y-34372322D03*
D11*
X111212323Y-51594823D03*
X124662323Y-49054823D03*
D13*
X283982322Y-75772322D03*
X283982322Y-72472322D03*
D11*
X82637323Y-70644823D03*
X96087323Y-68104823D03*
D19*
X82022323Y-58334823D03*
X82022323Y-59434823D03*
X78922323Y-59434823D03*
X78922323Y-58334823D03*
X124884823Y-20234823D03*
X124884823Y-21334823D03*
X121784823Y-21334823D03*
X121784823Y-20234823D03*
D11*
X149312323Y-51594823D03*
X162762323Y-49054823D03*
D19*
X115359823Y-39284823D03*
X115359823Y-40384823D03*
X112259823Y-40384823D03*
X112259823Y-39284823D03*
X210609823Y-39284823D03*
X210609823Y-40384823D03*
X207509823Y-40384823D03*
X207509823Y-39284823D03*
D13*
X22044822Y-37672322D03*
X22044822Y-34372322D03*
D11*
X6437323Y-32544823D03*
X19887323Y-30004823D03*
D19*
X296334823Y-77384823D03*
X296334823Y-78484823D03*
X293234823Y-78484823D03*
X293234823Y-77384823D03*
D12*
X190590000Y-60600000D03*
X191610000Y-60600000D03*
D19*
X120122323Y-58334823D03*
X120122323Y-59434823D03*
X117022323Y-59434823D03*
X117022323Y-58334823D03*
D25*
X100080000Y-94022323D03*
X99120000Y-94022323D03*
D22*
X113854823Y-90700000D03*
X114814823Y-90700000D03*
D18*
X108200000Y-82480000D03*
X108200000Y-81520000D03*
D19*
X158222323Y-58334823D03*
X158222323Y-59434823D03*
X155122323Y-59434823D03*
X155122323Y-58334823D03*
X62972323Y-58334823D03*
X62972323Y-59434823D03*
X59872323Y-59434823D03*
X59872323Y-58334823D03*
D13*
X36332322Y-18622322D03*
X36332322Y-15322322D03*
D19*
X248709823Y-39284823D03*
X248709823Y-40384823D03*
X245609823Y-40384823D03*
X245609823Y-39284823D03*
D13*
X29188572Y-75772322D03*
X29188572Y-72472322D03*
X217307322Y-37672322D03*
X217307322Y-34372322D03*
X183969822Y-56722322D03*
X183969822Y-53422322D03*
D19*
X67734823Y-20234823D03*
X67734823Y-21334823D03*
X64634823Y-21334823D03*
X64634823Y-20234823D03*
X39159823Y-39284823D03*
X39159823Y-40384823D03*
X36059823Y-40384823D03*
X36059823Y-39284823D03*
D11*
X168362323Y-51594823D03*
X181812323Y-49054823D03*
D19*
X296334823Y-58334823D03*
X296334823Y-59434823D03*
X293234823Y-59434823D03*
X293234823Y-58334823D03*
D13*
X45857322Y-37672322D03*
X45857322Y-34372322D03*
X179207322Y-37672322D03*
X179207322Y-34372322D03*
D19*
X139172323Y-58334823D03*
X139172323Y-59434823D03*
X136072323Y-59434823D03*
X136072323Y-58334823D03*
D11*
X287424823Y-89694823D03*
X300874823Y-87154823D03*
X182649823Y-32544823D03*
X196099823Y-30004823D03*
D19*
X239184823Y-20234823D03*
X239184823Y-21334823D03*
X236084823Y-21334823D03*
X236084823Y-20234823D03*
X215372323Y-58334823D03*
X215372323Y-59434823D03*
X212272323Y-59434823D03*
X212272323Y-58334823D03*
D12*
X185500000Y-39250000D03*
X186520000Y-39250000D03*
D13*
X4826072Y-56722322D03*
X4826072Y-53422322D03*
D11*
X27868573Y-89694823D03*
X41318573Y-87154823D03*
D19*
X296334823Y-20234823D03*
X296334823Y-21334823D03*
X293234823Y-21334823D03*
X293234823Y-20234823D03*
D11*
X242181073Y-70644823D03*
X255631073Y-68104823D03*
D35*
X298974999Y-82699999D03*
X295674999Y-82699999D03*
D31*
X96844823Y-91600000D03*
X95824823Y-91600000D03*
D13*
X226832322Y-18622322D03*
X226832322Y-15322322D03*
X164919822Y-56722322D03*
X164919822Y-53422322D03*
D38*
X148100000Y-21650000D03*
X148100000Y-22650000D03*
X148100000Y-23650000D03*
X148100000Y-24650000D03*
D39*
X151975000Y-20350000D03*
X151975000Y-25950000D03*
D19*
X153459823Y-39284823D03*
X153459823Y-40384823D03*
X150359823Y-40384823D03*
X150359823Y-39284823D03*
D22*
X152140000Y-88300000D03*
X153100000Y-88300000D03*
D25*
X96814823Y-89187399D03*
X95854823Y-89187399D03*
D18*
X101900000Y-84080000D03*
X101900000Y-83120000D03*
D12*
X117590000Y-90700000D03*
X118610000Y-90700000D03*
D19*
X296334823Y-96434823D03*
X296334823Y-97534823D03*
X293234823Y-97534823D03*
X293234823Y-96434823D03*
D11*
X49299823Y-32544823D03*
X62749823Y-30004823D03*
D13*
X169682322Y-18622322D03*
X169682322Y-15322322D03*
D12*
X185500000Y-40400000D03*
X186520000Y-40400000D03*
D13*
X174444822Y-75772322D03*
X174444822Y-72472322D03*
X233976072Y-94822322D03*
X233976072Y-91522322D03*
D11*
X77874823Y-13494823D03*
X91324823Y-10954823D03*
D42*
X119604570Y-84874233D03*
X118925748Y-84195411D03*
D43*
X301600202Y-101272406D02*
G75*
G03*
X303822706Y-99049835I-102J2222606D01*
G01*
X40600000Y-103272338D02*
X149161353Y-103272338D01*
X71376999Y-101272345D02*
G75*
G03*
X72707000Y-100446691I-15399J1508845D01*
G01*
X98847999Y-7000000D02*
X109651997Y-7000000D01*
X237074986Y-83399998D02*
X237074986Y-99022338D01*
X136948002Y-7000004D02*
G75*
G03*
X135618000Y-7806000I398J-1500996D01*
G01*
X268967975Y-100446699D02*
G75*
G03*
X270297993Y-101272337I1345325J683099D01*
G01*
X33451997Y-7000000D02*
X31049997Y-7000000D01*
X304322700Y-1000000D02*
G75*
G03*
X303322706Y0I-1000000J0D01*
G01*
X289347996Y-7000000D02*
X301600202Y-7000000D01*
X303322706Y-108272406D02*
G75*
G03*
X304322706Y-107272338I-106J1000106D01*
G01*
X25049997Y-5000000D02*
X1000000Y-5000000D01*
X34781999Y-7806000D02*
G75*
G03*
X40367997Y-7806000I2792999J1455492D01*
G01*
X24876999Y-101272338D02*
X22647999Y-101272338D01*
X97179782Y-99907551D02*
G75*
G03*
X98847996Y-101272338I1668618J337651D01*
G01*
X251247981Y-6999980D02*
G75*
G03*
X249917994Y-7806000I319J-1500820D01*
G01*
X15731999Y-7806000D02*
G75*
G03*
X14401997Y-7000001I-1328549J-691940D01*
G01*
X282432022Y-7805994D02*
G75*
G03*
X281101994Y-7000001I-1328522J-691906D01*
G01*
X303827411Y-48693176D02*
X303822706Y-99049835D01*
X79623001Y-101272338D02*
X90601994Y-101272338D01*
X278700001Y-101272338D02*
X281102009Y-101272338D01*
X303322706Y0D02*
X1000000Y0D01*
X130031972Y-7806015D02*
G75*
G03*
X128702000Y-7000001I-1328472J-691785D01*
G01*
X54655994Y-100446691D02*
G75*
G03*
X49069996Y-100446691I-2792999J-1455492D01*
G01*
X31793026Y-100446677D02*
G75*
G03*
X33123001Y-101272337I1345274J682977D01*
G01*
X0Y-107272338D02*
X0Y-104272338D01*
X78293026Y-100446677D02*
G75*
G03*
X79623001Y-101272337I1345274J682977D01*
G01*
X289347996Y-6999994D02*
G75*
G03*
X288018010Y-7806000I304J-1500806D01*
G01*
X234824986Y-101272386D02*
G75*
G03*
X237074986Y-99022338I-86J2250086D01*
G01*
X34781941Y-7806030D02*
G75*
G03*
X33451997Y-7000001I-1328541J-691870D01*
G01*
X21317997Y-100446691D02*
G75*
G03*
X15731999Y-100446691I-2792999J-1455492D01*
G01*
X217911000Y-101272338D02*
X234824986Y-101272338D01*
X192377306Y-99907545D02*
G75*
G03*
X187537331Y-99827543I-2423306J-160755D01*
G01*
X155161353Y-103272338D02*
X272700001Y-103272338D01*
X22647999Y-7000002D02*
G75*
G03*
X21317998Y-7806000I401J-1500998D01*
G01*
X0Y-99049833D02*
G75*
G03*
X2222503Y-101272338I2222503J-2D01*
G01*
X288017979Y-100446706D02*
G75*
G03*
X289348011Y-101272338I1345321J683106D01*
G01*
X175000000Y-7000000D02*
X185851994Y-7000000D01*
X47739994Y-101272307D02*
G75*
G03*
X49069995Y-100446691I-15294J1508707D01*
G01*
X136948002Y-7000000D02*
X144500000Y-7000000D01*
X1000000Y0D02*
G75*
G03*
X0Y-1000000I0J-1000000D01*
G01*
X92339807Y-8400003D02*
G75*
G03*
X90601997Y-7000001I-1736307J-376697D01*
G01*
X206639807Y-8400003D02*
G75*
G03*
X204901997Y-7000001I-1736307J-376697D01*
G01*
X303322706Y-5000000D02*
X269722706Y-5000000D01*
X14401997Y-101272338D02*
X2222503Y-101272338D01*
X78292999Y-100446691D02*
G75*
G03*
X72707001Y-100446691I-2792999J-1455492D01*
G01*
X159500000Y-7000024D02*
G75*
G03*
X158700000Y-7600000I-800J-832276D01*
G01*
X304322762Y-104272338D02*
G75*
G03*
X303322706Y-103272338I-1000062J-62D01*
G01*
X209664998Y-101272311D02*
G75*
G03*
X210995000Y-100446691I-15298J1508711D01*
G01*
X303827349Y-48693176D02*
G75*
G03*
X302507411Y-47025000I-1714649J-424D01*
G01*
X194097996Y-7000018D02*
G75*
G03*
X192767994Y-7806000I-1496J-1497882D01*
G01*
X187181971Y-7806013D02*
G75*
G03*
X185851994Y-7000001I-1328471J-691787D01*
G01*
X303822706Y-9222505D02*
X303827411Y-40462174D01*
X302427417Y-42200059D02*
G75*
G03*
X302507411Y-47024999I240783J-2409141D01*
G01*
X251247981Y-7000000D02*
X263722706Y-7000000D01*
X268967991Y-100446691D02*
G75*
G03*
X263381993Y-100446691I-2792999J-1455492D01*
G01*
X206639815Y-8400001D02*
G75*
G03*
X211479823Y-8320000I2416685J240801D01*
G01*
X216580977Y-100446702D02*
G75*
G03*
X217911000Y-101272337I1345323J683102D01*
G01*
X21317977Y-100446701D02*
G75*
G03*
X22647999Y-101272337I1345323J683101D01*
G01*
X247650002Y-83399998D02*
G75*
G03*
X246399998Y-82149998I-1249602J398D01*
G01*
X304322706Y-1000000D02*
X304322706Y-4000000D01*
X110981958Y-7806022D02*
G75*
G03*
X109651997Y-7000001I-1328658J-692078D01*
G01*
X304322706Y-104272338D02*
X304322706Y-107272338D01*
X194097996Y-7000000D02*
X204901997Y-7000000D01*
X31792999Y-100446691D02*
G75*
G03*
X26207001Y-100446691I-2792999J-1455492D01*
G01*
X90601994Y-101272331D02*
G75*
G03*
X92339819Y-99827543I1506J1765731D01*
G01*
X303322706Y-5000006D02*
G75*
G03*
X304322706Y-4000000I-6J1000006D01*
G01*
X149161353Y-101272338D02*
X98847996Y-101272338D01*
X302427414Y-42200015D02*
G75*
G03*
X303827410Y-40462174I-376714J1736315D01*
G01*
X0Y-99049833D02*
X0Y-48291535D01*
X41697999Y-7000002D02*
G75*
G03*
X40367998Y-7806000I401J-1500998D01*
G01*
X185799504Y-101272341D02*
G75*
G03*
X187537330Y-99827543I1496J1765741D01*
G01*
X1000000Y-103272338D02*
G75*
G03*
X0Y-104272338I-1J-999999D01*
G01*
X97179816Y-99907543D02*
G75*
G03*
X92339821Y-99827543I-2423316J-160757D01*
G01*
X169000000Y-7000000D02*
X159500000Y-7000000D01*
X110981999Y-7806000D02*
G75*
G03*
X116567997Y-7806000I2792999J1455492D01*
G01*
X24876999Y-101272345D02*
G75*
G03*
X26207000Y-100446691I-15399J1508845D01*
G01*
X117897999Y-7000000D02*
X128702000Y-7000000D01*
X-2Y-40183465D02*
G75*
G03*
X1362325Y-41824999I1670682J445D01*
G01*
X2Y-107272338D02*
G75*
G03*
X1000000Y-108272338I999998J-2D01*
G01*
X0Y-4000000D02*
G75*
G03*
X1000000Y-5000000I1000000J0D01*
G01*
X262051991Y-101272306D02*
G75*
G03*
X263381993Y-100446691I-15291J1508706D01*
G01*
X278700001Y-103272338D02*
X303322706Y-103272338D01*
X192377282Y-99907553D02*
G75*
G03*
X194045506Y-101272338I1668618J337653D01*
G01*
X0Y-40183465D02*
X0Y-9222503D01*
X249899998Y-101272338D02*
X262051991Y-101272338D01*
X15731999Y-7806000D02*
G75*
G03*
X21317997Y-7806000I2792999J1455492D01*
G01*
X1442325Y-46649999D02*
G75*
G03*
X1362325Y-41825001I-240727J2409171D01*
G01*
X54655976Y-100446700D02*
G75*
G03*
X55985996Y-101272337I1345324J683100D01*
G01*
X41697999Y-7000000D02*
X90601997Y-7000000D01*
X247650062Y-99022338D02*
G75*
G03*
X249899998Y-101272338I2249938J-62D01*
G01*
X246399998Y-82149998D02*
X238324986Y-82149998D01*
X157900000Y-8199976D02*
G75*
G03*
X158700000Y-7600000I800J832276D01*
G01*
X145300023Y-7599993D02*
G75*
G03*
X144500000Y-7000000I-799223J-232307D01*
G01*
X33123001Y-101272338D02*
X34600000Y-101272338D01*
X282432011Y-7806000D02*
G75*
G03*
X288018009Y-7806000I2792999J1455492D01*
G01*
X1000000Y-108272338D02*
X303322706Y-108272338D01*
X40600000Y-101272338D02*
X47739994Y-101272338D01*
X270297993Y-101272338D02*
X272700001Y-101272338D01*
X2222503Y-7000000D02*
G75*
G03*
X0Y-9222503I0J-2222503D01*
G01*
X209664998Y-101272338D02*
X194045506Y-101272338D01*
X247649998Y-99022338D02*
X247649998Y-83399998D01*
X303822700Y-9222505D02*
G75*
G03*
X301600202Y-7000000I-2222500J5D01*
G01*
X169000000Y-5000000D02*
X31049997Y-5000000D01*
X187181996Y-7805999D02*
G75*
G03*
X192767994Y-7806000I2792999J1455492D01*
G01*
X117897999Y-7000002D02*
G75*
G03*
X116567998Y-7806000I401J-1500998D01*
G01*
X213147999Y-6999979D02*
G75*
G03*
X211479824Y-8320000I501J-1714721D01*
G01*
X71376999Y-101272338D02*
X55985996Y-101272338D01*
X175000000Y-5000000D02*
X263722706Y-5000000D01*
X0Y-4000000D02*
X0Y-1000000D01*
X146100000Y-8200000D02*
X157900000Y-8200000D01*
X244331996Y-7806000D02*
G75*
G03*
X249917994Y-7806000I2792999J1455492D01*
G01*
X155161353Y-101272338D02*
X185799504Y-101272338D01*
X14401997Y-101272310D02*
G75*
G03*
X15731999Y-100446691I-15297J1508710D01*
G01*
X269722706Y-7000000D02*
X281101994Y-7000000D01*
X145299977Y-7600007D02*
G75*
G03*
X146100000Y-8200000I799223J232307D01*
G01*
X216580998Y-100446691D02*
G75*
G03*
X210995000Y-100446691I-2792999J-1455492D01*
G01*
X213147999Y-7000000D02*
X243001979Y-7000000D01*
X2222503Y-7000000D02*
X14401997Y-7000000D01*
X289348011Y-101272338D02*
X301600202Y-101272338D01*
X25049997Y-7000000D02*
X22647999Y-7000000D01*
X98847999Y-6999979D02*
G75*
G03*
X97179824Y-8320000I501J-1714721D01*
G01*
X92339815Y-8400001D02*
G75*
G03*
X97179823Y-8320000I2416685J240801D01*
G01*
X1442325Y-46650000D02*
G75*
G03*
X0Y-48291535I213454J-1641963D01*
G01*
X281102009Y-101272321D02*
G75*
G03*
X282432011Y-100446691I-15309J1508721D01*
G01*
X130032002Y-7806000D02*
G75*
G03*
X135618000Y-7806000I2792999J1455492D01*
G01*
X238324986Y-82149986D02*
G75*
G03*
X237074986Y-83399998I-386J-1249614D01*
G01*
X244332019Y-7805988D02*
G75*
G03*
X243001979Y-7000001I-1328519J-691912D01*
G01*
X1000000Y-103272338D02*
X34600000Y-103272338D01*
X288018009Y-100446691D02*
G75*
G03*
X282432011Y-100446691I-2792999J-1455492D01*
G01*
X263722706Y-7000000D02*
G75*
G03*
X263722706Y-5000000I0J1000000D01*
G01*
X269722706Y-5000000D02*
G75*
G03*
X269722706Y-7000000I0J-1000000D01*
G01*
X169000000Y-7000000D02*
G75*
G03*
X169000000Y-5000000I0J1000000D01*
G01*
X175000000Y-5000000D02*
G75*
G03*
X175000000Y-7000000I0J-1000000D01*
G01*
X40600000Y-101272338D02*
G75*
G03*
X40600000Y-103272338I0J-1000000D01*
G01*
X34600000Y-103272338D02*
G75*
G03*
X34600000Y-101272338I0J1000000D01*
G01*
X278700001Y-101272338D02*
G75*
G03*
X278700001Y-103272338I0J-1000000D01*
G01*
X272700001Y-103272338D02*
G75*
G03*
X272700001Y-101272338I0J1000000D01*
G01*
X155161353Y-101272338D02*
G75*
G03*
X155161353Y-103272338I0J-1000000D01*
G01*
X149161353Y-103272338D02*
G75*
G03*
X149161353Y-101272338I0J1000000D01*
G01*
X25049997Y-7000000D02*
G75*
G03*
X25049997Y-5000000I0J1000000D01*
G01*
X31049997Y-5000000D02*
G75*
G03*
X31049997Y-7000000I0J-1000000D01*
G01*
M02*
