M48
; DRILL file {KiCad (6.99.0-1912-g359c99991b)} date Wed Aug  9 17:17:18 2023
; FORMAT={-:-/ absolute / metric / decimal}
; #@! TF.CreationDate,2023-08-09T17:17:18+07:00
; #@! TF.GenerationSoftware,Kicad,Pcbnew,(6.99.0-1912-g359c99991b)
; #@! TF.FileFunction,MixedPlating,1,2
FMAT,2
METRIC
; #@! TA.AperFunction,Plated,PTH,ComponentDrill
T1C0.200
; #@! TA.AperFunction,Plated,PTH,ViaDrill
T2C0.250
; #@! TA.AperFunction,Plated,PTH,ComponentDrill
T3C0.250
; #@! TA.AperFunction,Plated,PTH,ComponentDrill
T4C0.300
; #@! TA.AperFunction,Plated,PTH,ComponentDrill
T5C0.350
; #@! TA.AperFunction,Plated,PTH,ComponentDrill
T6C1.000
; #@! TA.AperFunction,Plated,PTH,ComponentDrill
T7C3.000
; #@! TA.AperFunction,NonPlated,NPTH,ComponentDrill
T8C0.500
; #@! TA.AperFunction,NonPlated,NPTH,ComponentDrill
T9C1.750
; #@! TA.AperFunction,NonPlated,NPTH,ComponentDrill
T10C2.100
; #@! TA.AperFunction,NonPlated,NPTH,ComponentDrill
T11C3.048
; #@! TA.AperFunction,NonPlated,NPTH,ComponentDrill
T12C3.988
%
G90
G05
T1
X155.5Y-90.3
X155.5Y-91.5
X155.5Y-92.7
X156.7Y-90.3
X156.7Y-91.5
X156.7Y-92.7
X157.9Y-90.3
X157.9Y-91.5
X157.9Y-92.7
X169.4Y-90.3
X169.4Y-91.5
X169.4Y-92.7
X170.6Y-90.3
X170.6Y-91.5
X170.6Y-92.7
X171.8Y-90.3
X171.8Y-91.5
X171.8Y-92.7
T2
X4.0Y-37.0
X4.45Y-99.25
X4.8Y-36.6
X5.3Y-98.7
X5.75Y-36.5
X6.3Y-98.7
X6.5Y-44.05
X6.9Y-22.5
X7.3Y-43.65
X7.75Y-38.5
X8.1Y-45.15
X9.5Y-98.7
X11.55Y-41.55
X11.65Y-21.2
X11.95Y-20.4
X14.0Y-25.55
X14.0Y-97.4
X14.15Y-60.6
X14.331Y-96.6
X15.4Y-46.3
X16.412Y-40.25
X16.65Y-41.35
X16.712Y-39.45
X18.794Y-59.3
X18.85Y-79.7
X19.094Y-58.5
X19.3Y-59.95
X20.8Y-41.5
X21.0Y-56.722
X21.1Y-19.65
X21.5Y-60.125
X21.5Y-60.925
X21.5Y-61.725
X21.5Y-62.5
X21.5Y-63.3
X21.5Y-64.1
X21.5Y-64.9
X23.0Y-25.6
X23.2Y-58.35
X23.45Y-65.25
X23.556Y-78.35
X23.856Y-77.55
X24.5Y-37.672
X24.5Y-39.3
X25.0Y-41.85
X25.0Y-42.65
X25.0Y-43.45
X25.0Y-44.225
X25.0Y-45.025
X25.0Y-45.825
X25.4Y-20.7
X26.9Y-65.05
X29.5Y-41.85
X29.5Y-42.65
X29.5Y-43.45
X29.5Y-44.225
X29.5Y-45.025
X29.5Y-45.825
X30.05Y-40.385
X30.6Y-37.672
X30.7Y-21.2
X30.9Y-39.6
X31.0Y-20.4
X32.2Y-39.4
X32.544Y-96.9
X32.85Y-60.4
X34.925Y-39.75
X35.362Y-59.435
X36.0Y-56.722
X36.062Y-58.65
X36.2Y-77.4
X36.2Y-78.9
X36.25Y-60.125
X36.25Y-60.925
X36.25Y-61.725
X36.25Y-62.5
X36.25Y-63.3
X36.25Y-64.1
X36.25Y-64.9
X36.5Y-24.0
X36.6Y-68.75
X36.962Y-58.45
X37.0Y-78.135
X37.844Y-97.4
X38.0Y-75.772
X38.144Y-96.6
X39.688Y-58.8
X40.15Y-19.65
X40.225Y-40.25
X40.525Y-39.45
X42.0Y-46.0
X42.375Y-78.135
X42.4Y-75.772
X43.0Y-77.4
X43.0Y-78.9
X43.0Y-80.75
X44.45Y-20.7
X44.5Y-21.58
X44.9Y-80.4
X44.987Y-59.3
X45.288Y-58.5
X49.212Y-77.85
X49.4Y-95.85
X49.65Y-28.1
X49.65Y-38.7
X49.75Y-21.2
X50.1Y-19.45
X51.9Y-60.35
X53.975Y-39.75
X54.4Y-57.75
X54.512Y-78.35
X54.812Y-77.55
X55.0Y-74.5
X56.356Y-96.9
X58.737Y-58.8
X58.95Y-80.05
X59.275Y-40.25
X59.575Y-39.45
X59.8Y-36.1
X60.4Y-21.335
X60.8Y-22.15
X61.0Y-46.0
X61.1Y-20.6
X61.656Y-97.4
X61.956Y-96.6
X62.0Y-20.2
X63.5Y-20.7
X63.95Y-76.8
X64.037Y-59.3
X64.337Y-58.5
X68.263Y-77.85
X68.7Y-38.7
X68.8Y-21.2
X69.0Y-96.375
X69.0Y-97.185
X69.0Y-98.0
X69.1Y-20.4
X70.5Y-94.822
X70.95Y-60.35
X71.3Y-22.325
X73.025Y-39.75
X73.45Y-57.75
X73.562Y-78.35
X73.862Y-77.55
X74.05Y-74.5
X75.0Y-26.5
X75.0Y-80.0
X75.0Y-80.899
X75.0Y-81.8
X77.787Y-58.8
X78.25Y-19.65
X78.325Y-40.25
X78.625Y-39.45
X80.0Y-46.0
X82.55Y-20.7
X83.0Y-76.8
X83.087Y-59.3
X83.388Y-58.5
X84.1Y-90.8
X87.312Y-77.85
X87.362Y-78.73
X87.75Y-38.7
X87.85Y-21.2
X88.15Y-20.4
X90.0Y-60.35
X92.0Y-90.3
X92.075Y-39.75
X92.5Y-57.75
X92.612Y-78.35
X92.962Y-76.6
X93.1Y-74.5
X94.0Y-26.5
X94.65Y-88.0
X95.95Y-76.775
X95.95Y-79.7
X96.837Y-58.8
X96.975Y-75.772
X97.3Y-19.65
X97.375Y-40.25
X97.675Y-39.45
X98.4Y-89.187
X98.4Y-90.3
X99.0Y-46.0
X100.5Y-64.875
X101.6Y-20.7
X101.64Y-21.58
X102.0Y-68.0
X102.137Y-59.3
X102.438Y-58.5
X102.65Y-96.25
X102.887Y-91.192
X103.262Y-78.485
X103.962Y-77.75
X104.862Y-77.35
X106.25Y-96.8
X106.362Y-77.85
X106.415Y-78.73
X106.8Y-38.7
X106.9Y-21.2
X107.25Y-19.45
X107.335Y-91.422
X107.5Y-87.4
X107.5Y-89.3
X108.35Y-94.8
X111.125Y-39.75
X111.55Y-47.15
X111.55Y-57.75
X111.662Y-78.35
X112.012Y-76.6
X112.2Y-74.3
X112.335Y-91.869
X112.8Y-90.7
X113.95Y-76.65
X115.887Y-58.8
X116.05Y-74.85
X116.425Y-40.25
X116.5Y-90.7
X116.725Y-39.45
X116.9Y-92.0
X117.5Y-26.5
X117.55Y-21.335
X117.95Y-22.15
X118.0Y-46.0
X118.25Y-20.6
X118.61Y-92.0
X119.15Y-20.2
X120.0Y-76.8
X120.65Y-20.7
X120.95Y-82.7
X121.1Y-75.772
X121.188Y-59.3
X121.487Y-58.5
X121.5Y-77.15
X121.5Y-78.135
X121.5Y-79.05
X124.7Y-83.2
X125.412Y-77.85
X125.85Y-38.7
X125.95Y-21.2
X126.1Y-83.0
X126.25Y-20.4
X126.9Y-96.435
X127.8Y-98.1
X128.45Y-22.325
X130.175Y-39.75
X130.6Y-47.15
X130.6Y-57.75
X130.713Y-78.35
X131.012Y-77.55
X131.3Y-74.4
X132.5Y-26.5
X133.094Y-97.4
X133.2Y-80.0
X133.394Y-96.6
X133.55Y-93.2
X134.8Y-79.5
X134.8Y-84.5
X134.938Y-58.8
X135.0Y-94.822
X135.2Y-60.7
X135.4Y-19.65
X135.475Y-40.25
X135.775Y-39.45
X135.95Y-84.0
X137.0Y-46.0
X138.95Y-97.25
X139.7Y-20.7
X139.75Y-21.58
X140.15Y-67.1
X140.15Y-76.8
X140.237Y-59.3
X140.537Y-58.5
X141.05Y-94.822
X144.35Y-44.65
X144.463Y-77.85
X144.9Y-28.1
X144.9Y-38.7
X145.0Y-21.2
X145.2Y-44.4
X145.35Y-19.45
X145.35Y-43.5
X146.25Y-43.3
X146.65Y-42.6
X146.95Y-41.85
X149.225Y-39.75
X149.65Y-57.75
X149.762Y-78.35
X150.062Y-77.55
X152.0Y-60.7
X152.3Y-92.1
X152.5Y-97.95
X152.7Y-91.3
X152.85Y-90.35
X152.85Y-93.1
X153.25Y-60.7
X153.25Y-61.5
X153.25Y-62.275
X153.25Y-63.075
X153.25Y-63.875
X153.5Y-94.65
X153.6Y-84.65
X153.6Y-85.9
X153.65Y-93.5
X153.9Y-79.4
X153.987Y-58.8
X154.525Y-40.25
X154.825Y-39.45
X155.3Y-97.492
X155.5Y-26.5
X155.65Y-21.335
X156.0Y-84.65
X156.05Y-22.15
X156.15Y-96.992
X156.2Y-44.6
X156.35Y-20.6
X156.5Y-85.9
X157.0Y-97.692
X157.25Y-20.2
X157.5Y-87.7
X158.1Y-88.3
X158.75Y-20.7
X158.8Y-87.7
X159.2Y-76.8
X159.25Y-94.75
X159.287Y-59.3
X159.5Y-97.0
X159.588Y-58.5
X159.6Y-88.3
X160.0Y-93.0
X160.45Y-87.7
X160.75Y-89.8
X160.85Y-96.0
X161.0Y-94.4
X161.25Y-91.0
X161.4Y-91.95
X161.45Y-60.3
X161.75Y-92.85
X161.85Y-96.45
X162.25Y-79.45
X162.4Y-97.25
X162.5Y-99.1
X162.8Y-82.85
X163.512Y-77.85
X163.65Y-80.2
X164.05Y-21.2
X164.35Y-20.4
X164.95Y-97.75
X165.5Y-90.25
X165.75Y-85.9
X165.8Y-97.05
X165.95Y-22.0
X166.5Y-84.6
X166.65Y-96.5
X167.0Y-95.65
X167.4Y-94.75
X168.275Y-39.75
X168.5Y-84.6
X168.7Y-57.75
X168.75Y-47.15
X168.812Y-78.35
X169.05Y-95.0
X169.112Y-77.55
X169.65Y-20.825
X170.4Y-84.35
X170.95Y-96.65
X171.2Y-87.4
X171.55Y-95.25
X171.95Y-86.95
X172.0Y-20.2
X172.25Y-96.0
X172.4Y-87.95
X172.5Y-21.35
X172.7Y-85.1
X172.75Y-22.5
X173.037Y-58.8
X173.575Y-40.25
X173.875Y-39.45
X174.0Y-85.15
X174.15Y-36.15
X174.15Y-94.05
X174.4Y-85.95
X174.75Y-87.35
X175.25Y-44.6
X175.9Y-87.75
X176.55Y-88.4
X177.0Y-77.15
X177.25Y-78.3
X177.6Y-79.45
X178.338Y-59.3
X178.4Y-22.5
X178.637Y-58.5
X178.75Y-88.95
X179.1Y-89.8
X180.5Y-59.85
X182.25Y-39.25
X182.25Y-40.4
X182.65Y-46.0
X182.85Y-94.2
X183.0Y-28.1
X183.0Y-79.45
X183.1Y-21.2
X183.4Y-20.4
X185.5Y-43.35
X186.55Y-89.0
X186.55Y-89.85
X186.55Y-90.7
X186.8Y-84.55
X187.8Y-41.55
X187.85Y-78.35
X188.162Y-77.55
X191.95Y-79.7
X192.55Y-19.65
X192.6Y-60.6
X192.65Y-40.25
X192.925Y-39.45
X193.25Y-63.55
X193.55Y-62.6
X194.1Y-61.9
X194.45Y-45.55
X194.9Y-94.819
X196.65Y-80.85
X196.85Y-20.7
X197.3Y-76.8
X197.4Y-59.3
X197.688Y-58.5
X198.75Y-80.15
X199.55Y-60.3
X199.65Y-98.7
X199.75Y-79.85
X201.612Y-77.85
X202.05Y-38.7
X202.15Y-21.2
X202.45Y-20.4
X203.6Y-42.4
X203.9Y-43.5
X204.2Y-44.5
X204.531Y-97.4
X204.831Y-96.6
X206.375Y-39.75
X206.8Y-57.75
X206.912Y-78.35
X207.212Y-77.55
X207.4Y-74.15
X208.5Y-26.5
X211.137Y-58.8
X211.35Y-80.6
X211.6Y-19.65
X211.675Y-40.25
X211.975Y-39.45
X213.5Y-45.55
X215.9Y-20.7
X216.35Y-76.8
X216.35Y-80.65
X216.35Y-95.85
X216.438Y-59.3
X216.737Y-58.5
X218.3Y-62.3
X220.662Y-77.85
X221.1Y-38.7
X221.2Y-21.2
X221.5Y-20.4
X223.044Y-96.9
X225.425Y-39.75
X225.85Y-47.15
X225.85Y-57.75
X225.962Y-78.35
X226.262Y-77.55
X226.5Y-74.15
X227.5Y-26.5
X228.2Y-79.6
X228.344Y-97.4
X228.644Y-96.6
X230.188Y-58.8
X230.4Y-80.2
X230.65Y-19.65
X230.725Y-40.25
X231.025Y-39.45
X232.55Y-45.55
X232.9Y-80.0
X233.25Y-96.5
X233.25Y-97.4
X233.25Y-98.3
X234.95Y-20.7
X235.0Y-21.58
X235.487Y-59.3
X235.787Y-58.5
X236.95Y-76.8
X237.0Y-62.15
X237.65Y-25.55
X240.15Y-38.7
X240.25Y-21.2
X240.6Y-19.45
X241.15Y-45.8
X241.55Y-22.25
X244.2Y-57.75
X244.475Y-39.75
X246.75Y-47.3
X246.856Y-77.85
X249.775Y-40.25
X250.075Y-39.45
X250.25Y-36.25
X250.45Y-96.836
X251.7Y-84.1
X252.156Y-78.35
X252.456Y-77.55
X253.6Y-81.7
X253.75Y-98.0
X256.9Y-47.15
X259.3Y-97.4
X259.6Y-96.6
X260.425Y-21.335
X261.125Y-20.6
X261.144Y-58.8
X261.4Y-38.7
X262.025Y-20.2
X262.7Y-46.05
X263.525Y-20.7
X266.444Y-59.3
X266.744Y-58.5
X268.287Y-39.75
X268.7Y-76.8
X268.75Y-87.0
X268.75Y-92.5
X268.825Y-21.2
X269.125Y-20.4
X269.5Y-46.0
X270.0Y-62.0
X271.05Y-25.55
X273.05Y-77.85
X273.05Y-96.9
X273.587Y-40.25
X273.887Y-39.45
X278.35Y-78.35
X278.35Y-97.4
X278.65Y-77.55
X278.65Y-96.6
X292.1Y-20.7
X292.1Y-39.75
X292.1Y-58.8
X292.1Y-77.85
X292.1Y-96.9
X296.0Y-25.55
X296.0Y-44.6
X296.0Y-63.65
X297.4Y-21.2
X297.4Y-40.25
X297.4Y-59.3
X297.4Y-78.35
X297.4Y-97.4
X297.7Y-20.4
X297.7Y-39.45
X297.7Y-58.5
X297.7Y-77.55
X297.7Y-96.6
X299.0Y-44.0
T3
X0.65Y-12.495
X0.65Y-13.495
X0.65Y-14.495
X3.031Y-88.695
X3.031Y-89.695
X3.031Y-90.695
X5.412Y-31.545
X5.412Y-32.545
X5.412Y-33.545
X7.794Y-50.595
X7.794Y-51.595
X7.794Y-52.595
X12.556Y-69.645
X12.556Y-70.645
X12.556Y-71.645
X16.15Y-9.955
X16.15Y-10.955
X16.15Y-11.955
X18.531Y-86.155
X18.531Y-87.155
X18.531Y-88.155
X19.7Y-12.495
X19.7Y-13.495
X19.7Y-14.495
X20.912Y-29.005
X20.912Y-30.005
X20.912Y-31.005
X23.294Y-48.055
X23.294Y-49.055
X23.294Y-50.055
X26.844Y-88.695
X26.844Y-89.695
X26.844Y-90.695
X28.056Y-67.105
X28.056Y-68.105
X28.056Y-69.105
X29.225Y-31.545
X29.225Y-32.545
X29.225Y-33.545
X33.987Y-50.595
X33.987Y-51.595
X33.987Y-52.595
X35.2Y-9.955
X35.2Y-10.955
X35.2Y-11.955
X38.75Y-12.495
X38.75Y-13.495
X38.75Y-14.495
X42.344Y-86.155
X42.344Y-87.155
X42.344Y-88.155
X43.512Y-69.645
X43.512Y-70.645
X43.512Y-71.645
X44.725Y-29.005
X44.725Y-30.005
X44.725Y-31.005
X48.275Y-31.545
X48.275Y-32.545
X48.275Y-33.545
X49.487Y-48.055
X49.487Y-49.055
X49.487Y-50.055
X50.656Y-88.695
X50.656Y-89.695
X50.656Y-90.695
X53.037Y-50.595
X53.037Y-51.595
X53.037Y-52.595
X54.25Y-9.955
X54.25Y-10.955
X54.25Y-11.955
X57.8Y-12.495
X57.8Y-13.495
X57.8Y-14.495
X59.012Y-67.105
X59.012Y-68.105
X59.012Y-69.105
X62.562Y-69.645
X62.562Y-70.645
X62.562Y-71.645
X63.775Y-29.005
X63.775Y-30.005
X63.775Y-31.005
X66.156Y-86.155
X66.156Y-87.155
X66.156Y-88.155
X67.325Y-31.545
X67.325Y-32.545
X67.325Y-33.545
X68.537Y-48.055
X68.537Y-49.055
X68.537Y-50.055
X72.087Y-50.595
X72.087Y-51.595
X72.087Y-52.595
X73.3Y-9.955
X73.3Y-10.955
X73.3Y-11.955
X76.85Y-12.495
X76.85Y-13.495
X76.85Y-14.495
X78.062Y-67.105
X78.062Y-68.105
X78.062Y-69.105
X81.612Y-69.645
X81.612Y-70.645
X81.612Y-71.645
X82.825Y-29.005
X82.825Y-30.005
X82.825Y-31.005
X86.375Y-31.545
X86.375Y-32.545
X86.375Y-33.545
X87.587Y-48.055
X87.587Y-49.055
X87.587Y-50.055
X91.137Y-50.595
X91.137Y-51.595
X91.137Y-52.595
X92.35Y-9.955
X92.35Y-10.955
X92.35Y-11.955
X95.9Y-12.495
X95.9Y-13.495
X95.9Y-14.495
X97.112Y-67.105
X97.112Y-68.105
X97.112Y-69.105
X100.662Y-69.645
X100.662Y-70.645
X100.662Y-71.645
X101.875Y-29.005
X101.875Y-30.005
X101.875Y-31.005
X105.425Y-31.545
X105.425Y-32.545
X105.425Y-33.545
X106.637Y-48.055
X106.637Y-49.055
X106.637Y-50.055
X110.187Y-50.595
X110.187Y-51.595
X110.187Y-52.595
X111.4Y-9.955
X111.4Y-10.955
X111.4Y-11.955
X114.95Y-12.495
X114.95Y-13.495
X114.95Y-14.495
X116.162Y-67.105
X116.162Y-68.105
X116.162Y-69.105
X119.712Y-69.645
X119.712Y-70.645
X119.712Y-71.645
X120.925Y-29.005
X120.925Y-30.005
X120.925Y-31.005
X122.094Y-88.695
X122.094Y-89.695
X122.094Y-90.695
X124.475Y-31.545
X124.475Y-32.545
X124.475Y-33.545
X125.687Y-48.055
X125.687Y-49.055
X125.687Y-50.055
X129.237Y-50.595
X129.237Y-51.595
X129.237Y-52.595
X130.45Y-9.955
X130.45Y-10.955
X130.45Y-11.955
X134.0Y-12.495
X134.0Y-13.495
X134.0Y-14.495
X135.212Y-67.105
X135.212Y-68.105
X135.212Y-69.105
X137.594Y-86.155
X137.594Y-87.155
X137.594Y-88.155
X138.762Y-69.645
X138.762Y-70.645
X138.762Y-71.645
X139.975Y-29.005
X139.975Y-30.005
X139.975Y-31.005
X143.525Y-31.545
X143.525Y-32.545
X143.525Y-33.545
X144.737Y-48.055
X144.737Y-49.055
X144.737Y-50.055
X148.287Y-50.595
X148.287Y-51.595
X148.287Y-52.595
X149.5Y-9.955
X149.5Y-10.955
X149.5Y-11.955
X153.05Y-12.495
X153.05Y-13.495
X153.05Y-14.495
X154.262Y-67.105
X154.262Y-68.105
X154.262Y-69.105
X157.812Y-69.645
X157.812Y-70.645
X157.812Y-71.645
X159.025Y-29.005
X159.025Y-30.005
X159.025Y-31.005
X162.575Y-31.545
X162.575Y-32.545
X162.575Y-33.545
X163.787Y-48.055
X163.787Y-49.055
X163.787Y-50.055
X167.337Y-50.595
X167.337Y-51.595
X167.337Y-52.595
X168.55Y-9.955
X168.55Y-10.955
X168.55Y-11.955
X172.1Y-12.495
X172.1Y-13.495
X172.1Y-14.495
X173.312Y-67.105
X173.312Y-68.105
X173.312Y-69.105
X176.862Y-69.645
X176.862Y-70.645
X176.862Y-71.645
X178.075Y-29.005
X178.075Y-30.005
X178.075Y-31.005
X181.625Y-31.545
X181.625Y-32.545
X181.625Y-33.545
X182.837Y-48.055
X182.837Y-49.055
X182.837Y-50.055
X186.387Y-50.595
X186.387Y-51.595
X186.387Y-52.595
X187.6Y-9.955
X187.6Y-10.955
X187.6Y-11.955
X191.15Y-12.495
X191.15Y-13.495
X191.15Y-14.495
X192.362Y-67.105
X192.362Y-68.105
X192.362Y-69.105
X193.531Y-88.695
X193.531Y-89.695
X193.531Y-90.695
X195.912Y-69.645
X195.912Y-70.645
X195.912Y-71.645
X197.125Y-29.005
X197.125Y-30.005
X197.125Y-31.005
X200.675Y-31.545
X200.675Y-32.545
X200.675Y-33.545
X201.887Y-48.055
X201.887Y-49.055
X201.887Y-50.055
X205.437Y-50.595
X205.437Y-51.595
X205.437Y-52.595
X206.65Y-9.955
X206.65Y-10.955
X206.65Y-11.955
X209.031Y-86.155
X209.031Y-87.155
X209.031Y-88.155
X210.2Y-12.495
X210.2Y-13.495
X210.2Y-14.495
X211.412Y-67.105
X211.412Y-68.105
X211.412Y-69.105
X214.962Y-69.645
X214.962Y-70.645
X214.962Y-71.645
X216.175Y-29.005
X216.175Y-30.005
X216.175Y-31.005
X217.344Y-88.695
X217.344Y-89.695
X217.344Y-90.695
X219.725Y-31.545
X219.725Y-32.545
X219.725Y-33.545
X220.937Y-48.055
X220.937Y-49.055
X220.937Y-50.055
X224.487Y-50.595
X224.487Y-51.595
X224.487Y-52.595
X225.7Y-9.955
X225.7Y-10.955
X225.7Y-11.955
X229.25Y-12.495
X229.25Y-13.495
X229.25Y-14.495
X230.462Y-67.105
X230.462Y-68.105
X230.462Y-69.105
X232.844Y-86.155
X232.844Y-87.155
X232.844Y-88.155
X235.225Y-29.005
X235.225Y-30.005
X235.225Y-31.005
X238.775Y-31.545
X238.775Y-32.545
X238.775Y-33.545
X239.987Y-48.055
X239.987Y-49.055
X239.987Y-50.055
X241.156Y-69.645
X241.156Y-70.645
X241.156Y-71.645
X244.75Y-9.955
X244.75Y-10.955
X244.75Y-11.955
X248.3Y-88.695
X248.3Y-89.695
X248.3Y-90.695
X254.275Y-29.005
X254.275Y-30.005
X254.275Y-31.005
X255.444Y-50.595
X255.444Y-51.595
X255.444Y-52.595
X256.656Y-67.105
X256.656Y-68.105
X256.656Y-69.105
X257.825Y-12.495
X257.825Y-13.495
X257.825Y-14.495
X262.587Y-31.545
X262.587Y-32.545
X262.587Y-33.545
X263.8Y-86.155
X263.8Y-87.155
X263.8Y-88.155
X267.35Y-69.645
X267.35Y-70.645
X267.35Y-71.645
X267.35Y-88.695
X267.35Y-89.695
X267.35Y-90.695
X270.944Y-48.055
X270.944Y-49.055
X270.944Y-50.055
X273.325Y-9.955
X273.325Y-10.955
X273.325Y-11.955
X278.087Y-29.005
X278.087Y-30.005
X278.087Y-31.005
X282.85Y-67.105
X282.85Y-68.105
X282.85Y-69.105
X282.85Y-86.155
X282.85Y-87.155
X282.85Y-88.155
X286.4Y-12.495
X286.4Y-13.495
X286.4Y-14.495
X286.4Y-31.545
X286.4Y-32.545
X286.4Y-33.545
X286.4Y-50.595
X286.4Y-51.595
X286.4Y-52.595
X286.4Y-69.645
X286.4Y-70.645
X286.4Y-71.645
X286.4Y-88.695
X286.4Y-89.695
X286.4Y-90.695
X301.9Y-9.955
X301.9Y-10.955
X301.9Y-11.955
X301.9Y-29.005
X301.9Y-30.005
X301.9Y-31.005
X301.9Y-48.055
X301.9Y-49.055
X301.9Y-50.055
X301.9Y-67.105
X301.9Y-68.105
X301.9Y-69.105
X301.9Y-86.155
X301.9Y-87.155
X301.9Y-88.155
T4
X98.5Y-85.7
T5
X103.91Y-88.112
X103.91Y-89.387
X103.91Y-90.662
X105.185Y-88.112
X105.185Y-89.387
X105.185Y-90.662
X106.46Y-88.112
X106.46Y-89.387
X106.46Y-90.662
T6
X112.92Y-95.95
X115.46Y-95.95
X118.0Y-95.95
X120.54Y-95.95
X123.08Y-95.95
T7
X5.225Y-13.495
X7.606Y-89.695
X9.987Y-32.545
X11.575Y-10.955
X12.369Y-51.595
X13.956Y-87.155
X16.337Y-30.005
X17.131Y-70.645
X18.719Y-49.055
X23.481Y-68.105
X24.275Y-13.495
X30.625Y-10.955
X31.419Y-89.695
X33.8Y-32.545
X37.769Y-87.155
X38.562Y-51.595
X40.15Y-30.005
X43.325Y-13.495
X44.912Y-49.055
X48.087Y-70.645
X49.675Y-10.955
X52.85Y-32.545
X54.437Y-68.105
X55.231Y-89.695
X57.612Y-51.595
X59.2Y-30.005
X61.581Y-87.155
X62.375Y-13.495
X63.962Y-49.055
X67.137Y-70.645
X68.725Y-10.955
X71.9Y-32.545
X73.487Y-68.105
X76.662Y-51.595
X78.25Y-30.005
X81.425Y-13.495
X83.012Y-49.055
X86.187Y-70.645
X87.775Y-10.955
X90.95Y-32.545
X92.537Y-68.105
X95.712Y-51.595
X97.3Y-30.005
X100.475Y-13.495
X102.062Y-49.055
X105.237Y-70.645
X106.825Y-10.955
X110.0Y-32.545
X111.587Y-68.105
X114.762Y-51.595
X116.35Y-30.005
X119.525Y-13.495
X121.112Y-49.055
X124.287Y-70.645
X125.875Y-10.955
X126.669Y-89.695
X129.05Y-32.545
X130.637Y-68.105
X133.019Y-87.155
X133.812Y-51.595
X135.4Y-30.005
X138.575Y-13.495
X140.162Y-49.055
X143.337Y-70.645
X144.925Y-10.955
X148.1Y-32.545
X149.687Y-68.105
X152.862Y-51.595
X154.45Y-30.005
X157.625Y-13.495
X159.212Y-49.055
X162.387Y-70.645
X163.975Y-10.955
X167.15Y-32.545
X168.737Y-68.105
X171.912Y-51.595
X173.5Y-30.005
X176.675Y-13.495
X178.262Y-49.055
X181.437Y-70.645
X183.025Y-10.955
X186.2Y-32.545
X187.787Y-68.105
X190.962Y-51.595
X192.55Y-30.005
X195.725Y-13.495
X197.312Y-49.055
X198.106Y-89.695
X200.487Y-70.645
X202.075Y-10.955
X204.456Y-87.155
X205.25Y-32.545
X206.837Y-68.105
X210.012Y-51.595
X211.6Y-30.005
X214.775Y-13.495
X216.362Y-49.055
X219.537Y-70.645
X221.125Y-10.955
X221.919Y-89.695
X224.3Y-32.545
X225.887Y-68.105
X228.269Y-87.155
X229.062Y-51.595
X230.65Y-30.005
X233.825Y-13.495
X235.412Y-49.055
X240.175Y-10.955
X243.35Y-32.545
X245.731Y-70.645
X249.7Y-30.005
X252.081Y-68.105
X252.875Y-89.695
X259.225Y-87.155
X260.019Y-51.595
X262.4Y-13.495
X266.369Y-49.055
X267.162Y-32.545
X268.75Y-10.955
X271.925Y-70.645
X271.925Y-89.695
X273.512Y-30.005
X278.275Y-68.105
X278.275Y-87.155
X290.975Y-13.495
X290.975Y-32.545
X290.975Y-51.595
X290.975Y-70.645
X290.975Y-89.695
X297.325Y-10.955
X297.325Y-30.005
X297.325Y-49.055
X297.325Y-68.105
X297.325Y-87.155
T8
X26.2Y-7.05
X26.94Y-7.05
X27.68Y-7.05
X28.42Y-7.05
X29.16Y-7.05
X29.9Y-7.05
X35.75Y-101.222
X36.49Y-101.222
X37.23Y-101.222
X37.97Y-101.222
X38.71Y-101.222
X39.45Y-101.222
X150.311Y-101.222
X151.051Y-101.222
X151.791Y-101.222
X152.531Y-101.222
X153.271Y-101.222
X154.011Y-101.222
X170.15Y-7.05
X170.89Y-7.05
X171.63Y-7.05
X172.37Y-7.05
X173.11Y-7.05
X173.85Y-7.05
X264.873Y-7.05
X265.613Y-7.05
X266.353Y-7.05
X267.093Y-7.05
X267.833Y-7.05
X268.573Y-7.05
X273.85Y-101.222
X274.59Y-101.222
X275.33Y-101.222
X276.07Y-101.222
X276.81Y-101.222
X277.55Y-101.222
T9
X3.955Y-16.035
X6.336Y-92.235
X8.717Y-35.085
X11.099Y-54.135
X14.115Y-16.035
X15.861Y-73.185
X16.496Y-92.235
X18.877Y-35.085
X21.259Y-54.135
X23.005Y-16.035
X26.021Y-73.185
X30.149Y-92.235
X32.53Y-35.085
X33.165Y-16.035
X37.292Y-54.135
X40.309Y-92.235
X42.055Y-16.035
X42.69Y-35.085
X46.817Y-73.185
X47.452Y-54.135
X51.58Y-35.085
X52.215Y-16.035
X53.961Y-92.235
X56.342Y-54.135
X56.977Y-73.185
X61.105Y-16.035
X61.74Y-35.085
X64.121Y-92.235
X65.867Y-73.185
X66.502Y-54.135
X70.63Y-35.085
X71.265Y-16.035
X75.392Y-54.135
X76.027Y-73.185
X80.155Y-16.035
X80.79Y-35.085
X84.917Y-73.185
X85.552Y-54.135
X89.68Y-35.085
X90.315Y-16.035
X94.442Y-54.135
X95.077Y-73.185
X99.205Y-16.035
X99.84Y-35.085
X103.967Y-73.185
X104.602Y-54.135
X108.73Y-35.085
X109.365Y-16.035
X113.492Y-54.135
X114.127Y-73.185
X118.255Y-16.035
X118.89Y-35.085
X123.017Y-73.185
X123.652Y-54.135
X125.399Y-92.235
X127.78Y-35.085
X128.415Y-16.035
X132.542Y-54.135
X133.177Y-73.185
X135.559Y-92.235
X137.305Y-16.035
X137.94Y-35.085
X142.067Y-73.185
X142.702Y-54.135
X146.83Y-35.085
X147.465Y-16.035
X151.592Y-54.135
X152.227Y-73.185
X156.355Y-16.035
X156.99Y-35.085
X161.117Y-73.185
X161.752Y-54.135
X165.88Y-35.085
X166.515Y-16.035
X170.642Y-54.135
X171.277Y-73.185
X175.405Y-16.035
X176.04Y-35.085
X180.167Y-73.185
X180.802Y-54.135
X184.93Y-35.085
X185.565Y-16.035
X189.692Y-54.135
X190.327Y-73.185
X194.455Y-16.035
X195.09Y-35.085
X196.836Y-92.235
X199.217Y-73.185
X199.852Y-54.135
X203.98Y-35.085
X204.615Y-16.035
X206.996Y-92.235
X208.742Y-54.135
X209.377Y-73.185
X213.505Y-16.035
X214.14Y-35.085
X218.267Y-73.185
X218.902Y-54.135
X220.649Y-92.235
X223.03Y-35.085
X223.665Y-16.035
X227.792Y-54.135
X228.427Y-73.185
X230.809Y-92.235
X232.555Y-16.035
X233.19Y-35.085
X237.952Y-54.135
X242.08Y-35.085
X242.715Y-16.035
X244.461Y-73.185
X251.605Y-92.235
X252.24Y-35.085
X254.621Y-73.185
X258.749Y-54.135
X261.13Y-16.035
X261.765Y-92.235
X265.892Y-35.085
X268.909Y-54.135
X270.655Y-73.185
X270.655Y-92.235
X271.29Y-16.035
X276.052Y-35.085
X280.815Y-73.185
X280.815Y-92.235
X289.705Y-16.035
X289.705Y-35.085
X289.705Y-54.135
X289.705Y-73.185
X289.705Y-92.235
X299.865Y-16.035
X299.865Y-35.085
X299.865Y-54.135
X299.865Y-73.185
X299.865Y-92.235
T10
X9.035Y-20.785
X11.416Y-96.985
X13.797Y-39.835
X16.179Y-58.885
X20.941Y-77.935
X28.085Y-20.785
X35.229Y-96.985
X37.61Y-39.835
X42.372Y-58.885
X47.135Y-20.785
X51.897Y-77.935
X56.66Y-39.835
X59.041Y-96.985
X61.422Y-58.885
X66.185Y-20.785
X70.947Y-77.935
X75.71Y-39.835
X80.472Y-58.885
X85.235Y-20.785
X89.997Y-77.935
X94.76Y-39.835
X99.522Y-58.885
X104.285Y-20.785
X109.047Y-77.935
X113.81Y-39.835
X118.572Y-58.885
X123.335Y-20.785
X128.097Y-77.935
X130.479Y-96.985
X132.86Y-39.835
X137.622Y-58.885
X142.385Y-20.785
X147.147Y-77.935
X151.91Y-39.835
X156.672Y-58.885
X161.435Y-20.785
X166.197Y-77.935
X170.96Y-39.835
X175.722Y-58.885
X180.485Y-20.785
X185.247Y-77.935
X190.01Y-39.835
X194.772Y-58.885
X199.535Y-20.785
X201.916Y-96.985
X204.297Y-77.935
X209.06Y-39.835
X213.822Y-58.885
X218.585Y-20.785
X223.347Y-77.935
X225.729Y-96.985
X228.11Y-39.835
X232.872Y-58.885
X237.635Y-20.785
X247.16Y-39.835
X249.541Y-77.935
X256.685Y-96.985
X263.829Y-58.885
X266.21Y-20.785
X270.972Y-39.835
X275.735Y-77.935
X275.735Y-96.985
X294.785Y-20.785
X294.785Y-39.835
X294.785Y-58.885
X294.785Y-77.935
X294.785Y-96.985
T11
X9.035Y-66.2
X32.847Y-66.2
X80.472Y-99.22
X180.485Y-99.22
X251.922Y-47.15
X254.304Y-9.05
X275.735Y-47.15
X278.116Y-9.05
T12
X9.035Y-16.035
X9.035Y-81.44
X11.416Y-92.235
X13.797Y-35.085
X16.179Y-54.135
X20.941Y-73.185
X28.085Y-16.035
X32.847Y-81.44
X35.229Y-92.235
X37.61Y-35.085
X42.372Y-54.135
X47.135Y-16.035
X51.897Y-73.185
X56.66Y-35.085
X59.041Y-92.235
X61.422Y-54.135
X66.185Y-16.035
X70.947Y-73.185
X75.71Y-35.085
X80.472Y-54.135
X80.472Y-83.98
X85.235Y-16.035
X89.997Y-73.185
X94.76Y-35.085
X99.522Y-54.135
X104.285Y-16.035
X109.047Y-73.185
X113.81Y-35.085
X118.572Y-54.135
X123.335Y-16.035
X128.097Y-73.185
X130.479Y-92.235
X132.86Y-35.085
X137.622Y-54.135
X142.385Y-16.035
X147.147Y-73.185
X151.91Y-35.085
X156.672Y-54.135
X161.435Y-16.035
X166.197Y-73.185
X170.96Y-35.085
X175.722Y-54.135
X180.485Y-16.035
X180.485Y-83.98
X185.247Y-73.185
X190.01Y-35.085
X194.772Y-54.135
X199.535Y-16.035
X201.916Y-92.235
X204.297Y-73.185
X209.06Y-35.085
X213.822Y-54.135
X218.585Y-16.035
X223.347Y-73.185
X225.729Y-92.235
X228.11Y-35.085
X232.872Y-54.135
X237.635Y-16.035
X247.16Y-35.085
X249.541Y-73.185
X251.922Y-62.39
X254.304Y-24.29
X256.685Y-92.235
X263.829Y-54.135
X266.21Y-16.035
X270.972Y-35.085
X275.735Y-62.39
X275.735Y-73.185
X275.735Y-92.235
X278.116Y-24.29
X294.785Y-16.035
X294.785Y-35.085
X294.785Y-54.135
X294.785Y-73.185
X294.785Y-92.235
T0
M30
